<svg width="226" height="257" viewBox="0 0 226 257" fill="none" xmlns="http://www.w3.org/2000/svg">
<path d="M105.066 106.891L110.362 114.978L86.428 167.197C77.6426 165.747 71.95 158.248 69.35 144.7C68.3921 139.692 68.0089 134.56 68.2005 129.306C68.3647 124.543 68.9121 121.109 69.8426 119.001L105.066 106.891Z" fill="#E9EFF8"/>
<path d="M105.066 106.891L110.362 114.978L94.4331 149.668C94.2142 146.055 93.7626 143.072 93.0784 140.718C92.23 137.817 90.9163 135.477 89.1373 133.698C87.6594 131.728 84.8404 130.154 80.6804 128.977C77.8888 128.211 73.7698 127.485 68.3235 126.801C68.6245 123.216 69.1309 120.616 69.8424 119.001L105.066 106.891Z" fill="#C9CFD7"/>
<path d="M76.452 41.5343C80.01 46.1049 82.4184 49.6628 83.6773 52.2081L102.315 110.626L100.837 110.914C86.7153 120 74.2762 122.135 63.5204 117.318C59.9077 115.676 56.6919 113.336 53.8729 110.298C52.0119 108.327 50.6434 106.466 49.7676 104.715L28.297 53.6449C27.257 49.7586 26.6412 45.448 26.4496 40.7133C26.0664 31.2437 27.9549 24.4153 32.1149 20.2279C39.5592 12.7836 49.8634 14.9731 63.0277 26.7963C67.5709 30.9016 72.0457 35.8143 76.452 41.5343Z" fill="#E9EFF8"/>
<path d="M79.4486 45.5161C81.6108 48.6361 83.0202 50.8667 83.6771 52.2077L102.315 110.626L100.837 110.913C90.9298 117.29 81.775 120.219 73.3728 119.699C79.6676 110.886 82.9244 99.1586 83.1434 84.5164C83.2255 76.4974 81.9939 63.4973 79.4486 45.5161Z" fill="#C9CFD7"/>
<path d="M148.869 148.025L129.862 107.547L133.269 97.6125L198.708 94.2051C200.623 96.9967 202.43 100.815 204.127 105.659C206.234 111.653 207.52 117.55 207.986 123.353C209.19 139.445 203.867 151.364 192.016 159.11C182.875 165.076 172.94 165.021 162.212 158.946C158.873 157.057 155.643 154.662 152.523 151.761L148.869 148.025Z" fill="#E9EFF8"/>
<path d="M156.957 155.497C154.877 153.937 152.906 152.227 151.045 150.365L148.869 148.025L129.862 107.547L133.269 97.6125L198.708 94.2051L201.089 98.3925C196.19 104.003 190.319 108.574 183.477 112.104C176.799 115.58 169.724 117.81 162.253 118.796C162.882 133.493 161.117 145.726 156.957 155.497Z" fill="#C9CFD7"/>
<path d="M215.293 7.29631C220.356 11.7848 223.257 20.8711 223.996 34.5554C224.762 48.6776 221.588 62.0061 214.472 74.541C208.423 85.2147 201.732 92.2485 194.397 95.6422C187.582 98.7896 179.248 101.089 169.396 102.539C158.448 104.154 149.28 104.072 141.89 102.293L128.055 82.7515C128.767 76.8126 131.107 69.9978 135.075 62.3072C138.88 54.945 143.765 47.5829 149.731 40.2207C162.868 23.9638 176.169 13.0027 189.635 7.33736C201.239 2.43838 209.792 2.42469 215.293 7.29631Z" fill="#E9EFF8"/>
<path d="M148.13 85.0502C152.947 90.5787 157.025 96.7366 160.364 103.524C153.248 103.962 147.09 103.551 141.89 102.292L135.158 94.5334L128.055 82.7512C128.493 79.1386 129.561 75.1017 131.258 70.6406C137.498 74.527 143.122 79.3302 148.13 85.0502Z" fill="#C9CFD7"/>
<path d="M58.7993 154.265C59.2372 153.28 60.5235 152.185 62.6582 150.981C64.8751 149.749 66.1614 148.846 66.5172 148.272C66.9825 146.876 67.4477 145.808 67.913 145.069C68.7614 143.701 70.5267 142.538 73.2088 141.58C76.8489 140.294 81.6931 137.228 87.7416 132.384C95.2132 126.418 100.66 120.397 104.081 114.321L112.825 115.265L91.1079 139.486C87.5226 143.181 83.5952 146.192 79.3257 148.518C76.3425 150.133 73.6467 151.214 71.2383 151.761C68.3646 152.418 67.2014 154.416 67.7488 157.755C67.9678 159.014 67.9267 160.368 67.6256 161.819L66.7635 164.939C66.5993 165.541 66.613 167.293 66.8046 170.194C67.0235 173.697 67.092 176.27 67.0098 177.912C66.7635 182.619 65.313 187.244 62.6582 191.788C59.6751 196.851 57.8961 201.011 57.3214 204.268C56.5003 208.893 56.9108 212.629 58.553 215.475C59.4287 216.953 60.5919 218.445 62.0424 219.95L63.3561 223.193C63.6846 224.233 63.5751 224.808 63.0277 224.917C61.9877 225.136 60.0035 225.779 57.075 226.847C53.2161 228.27 49.7266 229.789 46.6066 231.404C43.9792 232.772 40.2844 235.974 35.5223 241.01C32.6759 244.021 29.7064 247.414 26.6138 251.191C26.3675 251.492 26.0938 251.533 25.7927 251.314C25.5464 251.123 25.3959 250.876 25.3412 250.575L24.6433 247.004C24.5064 245.8 24.438 243.747 24.438 240.846C24.438 238.684 27.4349 235.55 33.4286 231.445L42.3781 225.944C46.3466 220.798 48.8371 217.145 49.8497 214.983C50.5066 213.559 50.4792 211.657 49.7676 209.276C49.3571 207.826 48.4676 205.664 47.0992 202.79C46.0592 200.573 45.9497 197.261 46.7708 192.855C47.6192 188.175 49.3024 183.687 51.8203 179.39C53.9003 175.804 55.5561 170.837 56.7877 164.487L58.7993 154.265Z" fill="#6791B9"/>
<path d="M65.8602 157.878C66.1886 157.386 66.5444 157.03 66.9275 156.811L67.6254 156.482L67.7486 157.755C67.9676 159.014 67.9265 160.369 67.6254 161.819L66.7633 164.939C66.5991 165.541 66.6128 167.293 66.8044 170.194C67.0233 173.697 67.0918 176.27 67.0097 177.912C66.7633 182.619 65.3128 187.245 62.658 191.788C59.6749 196.851 57.8959 201.011 57.3212 204.268C56.5001 208.893 56.9106 212.629 58.5528 215.475C59.4286 216.953 60.5917 218.445 62.0423 219.95L63.3559 223.193C63.6844 224.233 63.5749 224.808 63.0275 224.918C61.9875 225.137 60.0033 225.78 57.0749 226.847C53.2159 228.27 49.7264 229.789 46.6064 231.404C44.0885 232.69 37.9579 238.629 28.2147 249.221C27.8041 248.865 27.5031 248.414 27.3115 247.866C26.9283 246.826 27.462 244.897 28.9126 242.078C30.281 239.423 34.0852 235.66 40.3253 230.788C47.7422 225.013 51.9432 221.592 52.9285 220.525C54.7622 218.527 55.3096 215.311 54.5706 210.878L53.8317 205.869C53.7222 204.063 54.0096 202.571 54.6938 201.394C56.1991 198.822 57.937 193.581 59.9075 185.671C61.7959 178.117 63.0275 171.727 63.6023 166.499C64.0675 162.285 64.8202 159.411 65.8602 157.878Z" fill="#567C9D"/>
<path d="M104.08 114.321L112.825 115.265L91.1077 139.486C88.5077 142.168 85.7161 144.495 82.7329 146.465C84.2108 143.701 84.895 141.32 84.7856 139.322C84.7308 137.488 84.0603 136.407 82.774 136.079C86.9887 133.15 90.834 129.976 94.3098 126.555C98.552 122.422 101.809 118.344 104.08 114.321Z" fill="#567C9D"/>
<path d="M67.0509 114.772C63.0277 110.174 60.0308 106.247 58.0603 102.99C56.6098 100.609 56.6645 99.0218 58.2245 98.2281L61.0161 97.7765L64.6698 102.621C67.6256 106.014 70.3899 108.136 72.9625 108.984C75.7267 109.86 77.5741 111.269 78.5047 113.212C78.9699 114.17 79.4489 116.401 79.9415 119.904C80.8994 116.647 83.7594 111.94 88.5216 105.782C91.8332 101.54 94.4469 98.4607 96.3627 96.5449L97.8816 102.949C97.5532 106.069 95.8016 109.969 92.6269 114.649C90.6016 117.632 88.2889 120.547 85.6889 123.394C84.9773 125.118 83.9236 125.952 82.5278 125.898C81.5152 125.843 79.6541 125.172 76.9446 123.886C74.7552 122.874 71.4572 119.836 67.0509 114.772Z" fill="#6791B9"/>
<path d="M96.3628 96.5449L97.8818 102.949C97.6081 105.85 96.0755 109.436 93.2839 113.705C91.3954 116.606 89.1512 119.521 86.5512 122.449C87.2628 119.466 87.5775 117.304 87.4954 115.963C87.3859 113.746 86.387 112.186 84.4985 111.283C86.4964 108.354 88.9459 105.152 91.847 101.677C94.0639 98.9944 95.5691 97.2839 96.3628 96.5449Z" fill="#567C9D"/>
<path d="M61.0161 97.7769L62.7403 100.24C64.1635 102.128 65.614 103.771 67.0919 105.166C64.2456 104.126 62.4393 105.139 61.673 108.204C60.0308 106.015 58.8266 104.277 58.0603 102.991C56.6098 100.61 56.6645 99.0221 58.2245 98.2284L61.0161 97.7769Z" fill="#567C9D"/>
<path d="M6.21022 36.0739L60.2769 74.3763L67.0096 91.2901C66.1885 93.7806 64.6011 96.2028 62.2474 98.5565C58.6348 102.114 53.9137 104.591 48.0842 105.987C45.7852 106.617 43.5547 106.849 41.3926 106.685C39.121 106.521 37.6294 105.96 36.9178 105.002C36.1241 103.962 30.2535 92.8912 19.3061 71.79C8.30392 50.5793 2.55651 39.2487 2.06388 37.7982C1.54387 36.2108 1.65335 35.2255 2.3923 34.8424C3.18599 34.4045 4.45863 34.815 6.21022 36.0739Z" fill="#DBDCDC"/>
<path d="M13.0662 40.9595L60.277 74.3765L67.0097 91.2903C66.1886 93.7809 64.6012 96.203 62.2475 98.5567C58.6896 102.06 54.0643 104.523 48.3717 105.946C49.0559 105.727 50.0685 105.153 51.4096 104.222C54.6391 102.06 57.458 98.9946 59.8665 95.0262C58.7444 93.4114 43.1443 75.3892 13.0662 40.9595Z" fill="#B4B4B5"/>
<path d="M145.626 131.851C149.54 141.265 150.635 150.721 148.91 160.218C147.35 168.839 143.765 176.352 138.154 182.756C132.708 188.996 126.468 192.937 119.434 194.579C112.017 196.331 105.162 195.086 98.8668 190.844C92.9278 186.848 89.0278 181.251 87.1667 174.053C85.4973 167.676 85.5109 160.492 87.2078 152.5C88.7678 145.22 91.4773 138.2 95.3363 131.44C99.1131 124.872 103.273 119.781 107.816 116.168L132.325 112.474L145.626 131.851Z" fill="#F9BE00"/>
<path d="M145.626 131.851C148.856 139.623 150.156 147.492 149.526 155.456C148.951 162.709 146.858 169.441 143.245 175.654C139.796 181.593 135.418 186.314 130.108 189.817C124.744 193.403 119.215 195.223 113.523 195.277C114.617 194.046 115.137 191.719 115.083 188.298C115.001 184.604 115.438 181.908 116.396 180.211C120.885 179.362 124.908 175.462 128.466 168.511C131.86 161.806 133.816 154.375 134.336 146.219C134.856 137.379 133.433 130.222 130.067 124.748C126.126 118.399 120.009 115.347 111.716 115.594L132.325 112.474L145.626 131.851Z" fill="#D7A400"/>
<path d="M149.896 151.227C150.142 155.962 149.581 161.052 148.213 166.499C148.431 161.6 147.159 156.55 144.395 151.35C141.576 146.068 137.922 141.935 133.433 138.952C127.248 134.792 119.708 132.917 110.813 133.328C101.617 133.739 94.8574 136.503 90.5332 141.621C91.4637 139.185 92.6406 136.626 94.0638 133.944L95.8701 130.619C98.1143 127.69 101.604 125.432 106.339 123.845C111.265 122.23 116.369 121.765 121.651 122.449C127.59 123.215 132.845 125.364 137.416 128.894C142.643 132.972 146.543 138.61 149.116 145.808L149.896 151.227Z" fill="#152139"/>
<path d="M100.057 145.768C105.887 144.043 111.949 144.016 118.244 145.686C124.894 147.437 130.382 150.762 134.706 155.661C139.577 161.162 142.314 167.991 142.916 176.147L138.647 181.894C135.281 186.082 132.325 189.051 129.78 190.803C132.927 184.015 132.653 177.871 128.958 172.37C125.702 167.553 120.679 164.187 113.892 162.271C107.214 160.382 101.316 160.56 96.1983 162.805C90.4782 165.323 87.5361 169.866 87.3719 176.434C85.8392 173.834 85.2645 169.565 85.6477 163.626L86.674 155.497C89.5477 150.817 94.0088 147.574 100.057 145.768Z" fill="#152139"/>
<path d="M149.116 145.808L149.814 151.227C150.005 155.962 149.417 161.053 148.048 166.499C148.267 161.545 147.104 156.605 144.559 151.679C141.986 146.588 138.469 142.552 134.008 139.568L133.598 135.627C133.105 132.234 132.175 128.689 130.806 124.995C134.829 126.774 138.333 129.291 141.316 132.548C144.655 136.161 147.255 140.581 149.116 145.808Z" fill="#0B132A"/>
<path d="M130.026 190.269C133.365 183.125 132.476 176.543 127.358 170.522C130.532 165.76 132.489 160.286 133.228 154.101C139.03 159.821 142.26 167.17 142.917 176.146L138.647 182.058C135.308 186.245 132.435 188.982 130.026 190.269Z" fill="#0B132A"/>
<path d="M119.886 188.955C119.01 191.528 114.7 198.247 106.954 209.112C99.0996 220.169 94.7617 225.342 93.9407 224.63C93.1196 223.946 93.2564 217.117 94.3512 204.145C95.4186 191.473 96.3902 183.851 97.2659 181.278C98.0596 178.925 99.8386 177.296 102.603 176.393C105.367 175.49 108.309 175.572 111.429 176.639C114.577 177.707 116.971 179.445 118.613 181.853C120.256 184.234 120.68 186.601 119.886 188.955Z" fill="#F9BE00"/>
<path d="M116.068 179.513C117.847 180.635 119.078 182.031 119.762 183.7C120.447 185.37 120.488 187.121 119.886 188.955C119.01 191.473 115.78 196.851 110.197 205.089C103.957 214.257 98.8939 220.511 95.0076 223.85C98.6476 218.157 102.329 211.575 106.051 204.103C110.868 194.497 114.207 186.3 116.068 179.513Z" fill="#D7A400"/>
<path d="M113.03 76.8804L115.288 76.9625C117.177 77.1814 119.01 77.6056 120.789 78.2351C126.482 80.3151 130.615 84.2562 133.187 90.0584C136.444 97.311 136.567 103.838 133.557 109.641C130.382 115.716 124.703 118.809 116.52 118.919C108.966 119.001 103.314 115.333 99.565 107.916C98.1144 105.015 97.266 102.059 97.0197 99.0489C96.7734 96.1479 97.1429 93.9858 98.1281 92.5626L113.03 76.8804Z" fill="#F9BE00"/>
<path d="M113.03 76.8804L115.288 76.9625C117.176 77.1814 119.01 77.6056 120.789 78.2351C126.482 80.3151 130.614 84.2562 133.187 90.0584C135.924 96.1342 136.389 101.827 134.583 107.136C132.749 112.61 128.959 116.209 123.211 117.933C125.62 115.005 126.906 111.543 127.07 107.547C127.234 103.743 126.359 100.144 124.443 96.75C122.445 93.2468 119.681 90.6331 116.15 88.9089C112.236 87.0204 107.871 86.5141 103.054 87.3899L113.03 76.8804Z" fill="#D7A400"/>
<path d="M164.962 144.864L152.113 137.351C147.132 134.532 142.178 129.934 137.251 123.558C133.174 118.33 130.081 113.308 127.973 108.491C127.672 107.725 127.837 107.109 128.466 106.644C129.123 106.179 129.711 106.288 130.231 106.972C133.871 111.899 138.1 116.373 142.917 120.397C146.338 123.27 151.921 126.596 159.666 130.372L173.009 136.859C174.35 137.707 174.993 138.583 174.938 139.486C174.829 140.827 175.349 142.264 176.498 143.797C177.401 145.028 178.551 146.383 179.946 147.861C181.233 149.229 182.984 151.446 185.201 154.511C187.856 158.152 190.169 164.953 192.139 174.915C193.617 182.386 194.63 189.926 195.177 197.535C195.533 202.762 195.273 206.772 194.397 209.563C193.549 212.191 193.22 214.326 193.412 215.968C194.233 223.111 198.776 229.091 207.041 233.908C209.505 235.331 212.542 236.768 216.155 238.218C219.604 239.614 221.478 240.408 221.779 240.599C223.23 241.53 224.174 244.322 224.612 248.974C224.831 251.301 224.899 253.531 224.817 255.666C224.024 254.598 223.038 253.504 221.861 252.382C219.563 250.137 217.551 248.906 215.827 248.687C214.458 248.523 211.489 246.538 206.918 242.734C202.047 238.656 197.791 236.125 194.151 235.139C191.961 234.51 189.498 234.223 186.761 234.277L181.958 233.867C180.863 233.429 180.699 232.361 181.465 230.665C181.849 229.816 182.93 228.065 184.709 225.41C186.022 223.439 186.789 221.455 187.008 219.457C187.227 217.268 186.789 214.859 185.694 212.232L180.973 201.599C178.92 196.81 177.839 193.389 177.73 191.336C177.675 190.323 177.962 187.135 178.592 181.771C179.084 177.282 179.043 174.08 178.469 172.164C177.62 169.263 177.086 166.896 176.867 165.062C176.594 162.654 176.799 160.71 177.483 159.233C178.14 157.809 178.058 155.853 177.237 153.362C176.662 151.638 175.827 149.859 174.733 148.025C174.131 147.013 173.405 146.588 172.557 146.753L170.504 147.533C170.012 147.642 168.164 146.752 164.962 144.864Z" fill="#6791B9"/>
<path d="M144.805 121.915C141.74 120.492 138.962 120.698 136.471 122.531C132.777 117.66 129.944 112.98 127.973 108.491C127.672 107.725 127.837 107.109 128.466 106.644C129.123 106.179 129.711 106.288 130.231 106.972C133.871 111.899 138.1 116.373 142.917 120.397L144.805 121.915Z" fill="#567C9D"/>
<path d="M173.665 142.483C174.076 141.854 172.735 140.13 169.642 137.311C166.796 134.683 164.469 132.85 162.663 131.81L168.985 134.765C170.983 135.696 172.324 136.394 173.008 136.859C174.349 137.707 174.993 138.583 174.938 139.486C174.828 140.828 175.348 142.264 176.498 143.797C177.401 145.029 178.551 146.383 179.946 147.861C181.233 149.23 182.984 151.447 185.201 154.512C187.856 158.152 190.169 164.953 192.139 174.915C193.617 182.387 194.63 189.927 195.177 197.535C195.533 202.763 195.273 206.772 194.397 209.564C193.549 212.191 193.22 214.326 193.412 215.968C194.233 223.111 198.776 229.091 207.041 233.908C209.504 235.331 212.542 236.768 216.155 238.219C219.603 239.614 221.478 240.408 221.779 240.6C223.23 241.53 224.188 244.322 224.653 248.975C224.872 251.301 224.954 253.531 224.899 255.666C224.078 254.599 223.079 253.504 221.902 252.382C219.576 250.138 217.551 248.906 215.827 248.687C215.142 248.605 214.663 248.304 214.39 247.784L213.774 245.896C213.144 243.733 211.639 241.941 209.258 240.518C207.288 239.368 204.605 237.425 201.212 234.688C198.612 232.608 196.764 231.445 195.67 231.199C194.028 230.843 192.645 229.365 191.523 226.765C190.319 223.973 189.922 220.935 190.333 217.651C190.716 214.695 190.743 210.932 190.415 206.362L189.471 197.166C189.005 193.307 188.321 188.859 187.418 183.824C186.487 178.788 185.762 174.121 185.242 169.825C184.996 167.252 184.394 164.077 183.436 160.3C182.314 156.003 181.137 152.733 179.905 150.489C179.084 148.983 177.497 147.355 175.143 145.603C173.556 144.399 173.063 143.359 173.665 142.483Z" fill="#567C9D"/>
<path d="M168.287 92.8091C167.959 93.4933 167.576 95.8881 167.138 99.9933C166.755 103.798 166.55 106.712 166.522 108.738C166.522 109.86 165.811 111.256 164.387 112.925L161.308 115.922L160.241 118.303C159.885 119.097 159.16 118.891 158.065 117.687C155.657 115.032 151.346 112.706 145.134 110.708L138.812 109.025C137.169 108.505 135.883 107.574 134.953 106.233C133.228 103.77 131.271 101.211 129.082 98.5565C126.044 94.8617 123.595 92.3575 121.733 91.0438C121.049 90.5512 120.735 90.0585 120.789 89.5659C120.844 89.0733 121.241 88.7722 121.98 88.6627C123.978 88.307 126.81 89.347 130.478 91.7828C134.693 94.6017 143.067 100.992 155.602 110.954C155.52 110.216 155.506 109.381 155.561 108.45C155.698 106.589 156.122 105.193 156.834 104.263C157.491 103.414 158.681 101.006 160.405 97.0375C162.184 92.9049 163.238 90.5785 163.566 90.0585L166.686 90.1406C168.137 91.0985 168.671 91.988 168.287 92.8091Z" fill="#6791B9"/>
<path d="M140.536 99.2133C137.881 98.3649 135.91 98.2281 134.624 98.8028C133.283 99.4323 132.667 100.924 132.777 103.278C128.206 97.0649 124.525 92.987 121.733 91.0438C121.049 90.5512 120.735 90.0585 120.789 89.5659C120.844 89.0733 121.241 88.7722 121.98 88.6627C123.978 88.307 126.81 89.347 130.478 91.7828L140.536 99.2133Z" fill="#567C9D"/>
<path d="M168.287 92.8096C167.959 93.4938 167.576 95.8886 167.138 99.9939C166.755 103.798 166.55 106.713 166.522 108.738C166.522 109.532 166.139 110.503 165.373 111.653C165.838 109.08 165.468 106.576 164.264 104.14C163.06 101.759 161.418 100.199 159.338 99.4602L161.76 93.877L163.566 90.0591L166.686 90.1412C168.137 91.0991 168.671 91.9886 168.287 92.8096Z" fill="#567C9D"/>
<path d="M197.722 7.29602C197.64 15.7529 196.203 30.5183 193.412 51.5921C190.812 70.9691 189.074 81.9712 188.198 84.5986C187.24 87.445 184.161 89.7713 178.961 91.5776C173.98 93.3292 169.93 93.7397 166.81 92.8092C161.774 91.3313 158.052 88.786 155.643 85.1734C153.235 81.6155 152.468 77.5238 153.344 72.8986C154.056 69.2038 160.077 57.9142 171.407 39.0299C182.273 20.9119 189.279 10.0466 192.427 6.43391C195.246 3.20441 196.833 1.60335 197.189 1.63072C197.572 1.65808 197.75 3.54652 197.722 7.29602Z" fill="#DBDCDC"/>
<path d="M197.106 1.22043C197.407 0.974117 197.613 2.01412 197.722 4.34045C197.804 6.50257 197.777 8.55522 197.64 10.4984C196.217 28.1238 195.122 40.5354 194.356 47.7334C192.413 65.824 190.36 78.1125 188.198 84.5989C187.213 87.4999 184.106 89.8947 178.879 91.7831C173.788 93.6168 169.765 93.9589 166.809 92.8095L164.059 91.5779C166.029 92.0705 167.671 92.0705 168.985 91.5779C170.272 91.1126 171.353 90.1547 172.228 88.7042L184.503 48.0207C191.783 23.5532 195.984 7.95311 197.106 1.22043Z" fill="#B4B4B5"/>
<path d="M81.1319 52.249L91.9699 51.7153C95.2267 51.9616 97.6625 52.468 99.2773 53.2343L109.746 57.9554L105.846 86.0766C103.3 89.1419 100.003 92.4261 95.952 95.9293C90.9709 100.254 87.5498 102.361 85.6888 102.251C84.5119 102.197 82.5277 101.088 79.7361 98.9262C76.6434 96.5451 73.7834 93.7535 71.156 90.5514C63.9034 81.7387 61.3581 73.6102 63.5202 66.166C65.6823 58.6943 71.5529 54.0553 81.1319 52.249Z" fill="#F9BE00"/>
<path d="M97.9227 68.2188C96.5816 61.1577 93.4479 55.6018 88.5216 51.5513L94.9669 52.0439C96.8553 52.3723 98.2922 52.7692 99.2774 53.2344L109.746 57.9555L105.846 86.0768C103.301 89.142 100.003 92.4263 95.9521 95.9295C90.9711 100.254 87.55 102.361 85.6889 102.252L85.1963 102.169L91.149 95.1084C93.4206 92.3168 95.1174 89.7989 96.2395 87.5547C98.648 81.342 99.209 74.8967 97.9227 68.2188Z" fill="#D7A400"/>
<path d="M63.2738 67.1509C64.3685 67.3425 66.1338 71.1057 68.5696 78.4405C70.8412 85.31 72.0591 89.8395 72.2233 92.029C72.3601 93.808 71.0601 93.9311 68.3233 92.3985C65.5864 90.8658 63.4927 88.7584 62.0422 86.0763C59.6064 81.6152 58.6485 77.2089 59.1685 72.8573C59.6611 68.6973 61.0295 66.7951 63.2738 67.1509Z" fill="#E85377"/>
<path d="M104.08 61.6909H109.541C113.098 64.9204 114.549 69.0804 113.892 74.171C113.345 78.4679 111.894 81.6016 109.541 83.5721C105.818 86.7742 102.726 88.6079 100.263 89.0732C97.3615 89.6206 95.5689 88.2111 94.8846 84.8448C93.872 80.0005 94.3373 75.1426 96.2804 70.271C98.2236 65.4267 100.824 62.5667 104.08 61.6909Z" fill="#E85377"/>
<path d="M74.4817 60.2128C75.2206 62.2107 75.1796 63.497 74.3585 64.0717C73.5375 64.6465 72.7438 63.9349 71.9775 61.937C71.2659 60.0486 68.748 56.2991 64.4237 50.6885C60.209 45.2148 57.4995 42.0811 56.2953 41.2874C55.3374 40.6579 52.5047 42.9569 47.7973 48.1843C44.3762 51.9885 41.1604 55.9159 38.1499 59.9665C36.9183 61.6359 35.4814 63.7844 33.8393 66.4118C32.4983 68.3276 31.1161 69.4907 29.693 69.9013C27.9961 70.3939 26.5182 69.3949 25.2593 66.9044C24.0003 64.4412 23.8224 62.3749 24.7256 60.7054C25.6014 59.0907 29.3782 54.6159 36.0562 47.2811C42.7615 39.9737 47.1131 35.5673 49.111 34.0621C51.0542 32.5842 52.7373 31.941 54.1605 32.1326C55.5289 32.3242 56.9111 33.2958 58.3069 35.0473C60.25 37.5379 63.0553 41.5474 66.7227 47.0758C71.0743 53.6717 73.6606 58.0507 74.4817 60.2128Z" fill="#6791B9"/>
<path d="M74.4816 60.2133C75.2205 62.2112 75.1795 63.4975 74.3584 64.0722C73.5374 64.647 72.7437 63.9354 71.9774 61.9375C71.2658 60.0491 68.7479 56.2996 64.4236 50.689C60.2089 45.2153 57.4994 42.0816 56.2952 41.2879C55.3373 40.6584 52.5046 42.9574 47.7972 48.1848C44.3761 51.989 41.1603 55.9164 38.1498 59.9669C36.9182 61.6364 35.4813 63.7849 33.8392 66.4123C32.4982 68.3281 31.116 69.4912 29.6929 69.9017C30.0213 69.546 30.3634 68.9438 30.7192 68.0954C31.4308 66.3438 31.636 64.3733 31.335 62.1838C31.0613 59.8848 34.2087 54.8764 40.7772 47.1584C46.4425 40.5079 50.4109 36.3342 52.6825 34.6373C53.832 33.7615 55.0499 33.5015 56.3362 33.8573C57.2394 34.131 57.8962 34.5278 58.3067 35.0478C60.2499 37.5384 63.0552 41.5479 66.7226 47.0763C71.0742 53.6722 73.6605 58.0511 74.4816 60.2133Z" fill="#567C9D"/>
<path d="M91.3953 26.0982C91.8332 23.5529 92.5995 22.4582 93.6942 22.814C94.5427 23.0877 95.4321 24.1003 96.3627 25.8519C103.041 38.1951 107.857 46.7478 110.813 51.51C112.455 54.1374 112.524 56.9153 111.019 59.8437C109.814 62.17 108.336 63.7027 106.585 64.4416C105.545 64.8522 103.287 61.4448 99.8111 54.2195L94.8848 43.2583L93.0374 50.8942L90.1226 61.8142C89.7121 63.0458 89.0963 63.5385 88.2753 63.2921C87.4542 63.0185 87.1668 62.3206 87.4131 61.1984L89.3426 44.2026C90.4647 33.5562 91.149 27.5214 91.3953 26.0982Z" fill="#6791B9"/>
<path d="M110.813 51.5099C112.455 54.1373 112.524 56.9152 111.019 59.8437C109.814 62.17 108.337 63.7026 106.585 64.4416C106.339 64.5237 105.394 63.47 103.752 61.2805C102.028 58.9542 101.015 57.1889 100.714 55.9847C104.3 59.351 106.462 58.9405 107.201 54.7531C107.885 50.8941 107.269 46.7067 105.353 42.1909L110.813 51.5099Z" fill="#567C9D"/>
<path d="M103.793 80.8625L109.335 80.6572C110.841 80.9856 111.238 81.6562 110.526 82.6688C109.349 84.3657 107.515 85.8846 105.025 87.2257C102.699 88.4573 100.714 89.0731 99.0722 89.0731C97.0743 89.0731 95.8838 88.1289 95.5006 86.2404C95.2816 85.0088 96.0753 83.8867 97.8817 82.8741C99.4417 81.9709 101.412 81.3004 103.793 80.8625Z" fill="#ED8599"/>
<path d="M64.752 89.7715C64.2594 89.1146 64.232 88.4852 64.6699 87.883C65.0805 87.363 65.7647 86.9799 66.7226 86.7336C69.1037 86.1588 70.5952 86.6651 71.1974 88.2525C71.7995 89.8125 72.1142 90.9894 72.1416 91.7831C72.1689 92.4947 71.95 93.0147 71.4847 93.3431C71.0195 93.6715 70.0616 93.5073 68.611 92.8504C67.0236 92.1115 65.7373 91.0852 64.752 89.7715Z" fill="#ED8599"/>
<path d="M53.8728 111.735C52.6413 110.394 51.5465 108.984 50.5886 107.506L49.5212 105.659L50.6297 105.002L51.656 106.644C52.5318 107.93 53.5444 109.162 54.6939 110.339C58.3887 114.116 62.7403 116.688 67.7487 118.057L71.1972 118.755L73.4961 121.218C71.4709 121.136 69.5277 120.835 67.6666 120.315C62.4119 118.864 57.8139 116.004 53.8728 111.735Z" fill="#0D131A"/>
<path d="M92.1345 116.661C92.8187 115.676 93.2156 114.909 93.3251 114.362C95.6788 113.213 98.0598 111.858 100.468 110.298L101.248 111.488C98.1283 113.514 95.0903 115.238 92.1345 116.661Z" fill="#0D131A"/>
<path d="M69.1855 118.713L70.4992 119.288C69.6782 121.177 69.1582 124.269 68.9392 128.566C68.7203 133.356 68.9803 138.09 69.7192 142.77L67.995 143.92C67.2561 138.966 67.0645 133.876 67.4203 128.648C67.7213 124.023 68.3098 120.711 69.1855 118.713Z" fill="#0D131A"/>
<path d="M72.2646 157.837C71.3615 156.195 70.5678 154.32 69.8835 152.213C70.6225 151.885 71.293 151.666 71.8951 151.556C72.5246 153.417 73.2773 155.141 74.1531 156.729C77.191 162.367 81.3236 165.624 86.551 166.499L86.3047 167.895C80.0099 166.828 75.3299 163.475 72.2646 157.837Z" fill="#0D131A"/>
<path d="M70.6226 93.0968L71.3205 93.0146C71.512 94.1915 72.2099 96.682 73.4142 100.486C74.8921 105.084 76.2879 108.711 77.6016 111.365L75.9184 110.257C74.6594 107.739 73.4552 104.386 72.3057 100.199C71.4299 97.1063 70.8689 94.7389 70.6226 93.0968Z" fill="#0D131A"/>
<path d="M84.2933 51.8793L83.0207 52.4951C80.4754 47.4592 75.768 41.1918 68.8985 33.6928C59.6753 23.6759 51.5194 18.079 44.4309 16.9022C39.8604 16.1632 35.933 17.4359 32.6488 20.7201C29.0635 24.278 27.2571 29.9023 27.2298 37.5929C27.2298 42.0813 27.8045 46.8024 28.954 51.7561C29.0361 52.0845 28.7761 52.1256 28.174 51.8793C27.5445 51.6056 27.1887 51.3182 27.1066 51.0172C25.9024 45.954 25.3003 41.1371 25.3003 36.5665C25.3003 28.5749 27.2435 22.6359 31.1298 18.7496C34.414 15.4653 38.7656 14.2611 44.1846 15.1369C51.6289 16.3411 60.1132 22.1022 69.6374 32.4202C76.7806 40.1108 81.6659 46.5971 84.2933 51.8793Z" fill="#0D131A"/>
<path d="M49.3572 33.8574L48.6593 34.4321L31.9097 20.4741L32.3613 19.9404L49.3572 33.8574Z" fill="#0D131A"/>
<path d="M25.957 36.0741L26.5318 35.6636L38.1908 45.4752L37.575 46.091L25.957 36.0741Z" fill="#0D131A"/>
<path d="M45.1287 51.1818L45.7034 50.4839L64.3004 64.3187L63.8898 64.8935L45.1287 51.1818Z" fill="#0D131A"/>
<path d="M71.9362 36.5259L72.2647 37.0185L60.2772 37.7575L60.1541 36.9364L71.9362 36.5259Z" fill="#0D131A"/>
<path d="M47.3867 52.3721L48.372 53.111L50.7531 67.4385L49.932 67.069L47.3867 52.3721Z" fill="#0D131A"/>
<path d="M95.2952 118.796L97.1426 112.638L97.8405 112.843L95.911 119.247L95.8289 119.288C79.9004 131.522 70.8277 138.118 68.6108 139.076L68.734 137.762C70.8687 136.859 79.7225 130.537 95.2952 118.796Z" fill="#0D131A"/>
<path d="M81.7476 129.552L82.2812 128.977L84.6213 134.766L83.9644 135.669L81.7476 129.552Z" fill="#0D131A"/>
<path d="M76.4111 160.588C77.4785 158.316 78.9017 155.552 80.6806 152.295C83.3354 147.478 85.0733 144.864 85.8943 144.454L87.167 143.551C86.4554 144.18 84.9912 146.534 82.7743 150.612C80.968 153.951 79.0385 157.687 76.9859 161.819L76.4111 160.588Z" fill="#0D131A"/>
<path d="M157.08 156.77C155.027 155.183 153.098 153.458 151.292 151.597L149.116 149.175L149.403 147.574L151.62 149.914C153.454 151.721 155.397 153.39 157.449 154.923C163.963 159.767 170.354 162.353 176.621 162.682L176.498 163.708L176.58 164.734C170.066 164.461 163.566 161.806 157.08 156.77Z" fill="#0D131A"/>
<path d="M198.092 94.6155L199.282 93.7944C202.293 98.1734 204.879 104.03 207.041 111.365C209.888 121.054 210.558 129.729 209.053 137.393C208.122 142.1 206.234 146.356 203.388 150.16C200.815 153.554 197.353 156.742 193.001 159.725C191.469 160.738 190.059 161.545 188.773 162.148L188.075 160.464C189.307 159.917 190.483 159.26 191.606 158.494C199.679 153.294 204.674 145.918 206.59 136.366C208.095 128.813 207.616 120.465 205.153 111.324C203.237 104.236 200.883 98.666 198.092 94.6155Z" fill="#0D131A"/>
<path d="M161.801 115.06L162.253 114.444C166.988 116.469 174.856 118.59 185.858 120.807C196.286 122.887 203.593 123.927 207.781 123.927V124.625C203.018 124.625 195.875 123.735 186.351 121.957C175.431 119.904 167.248 117.605 161.801 115.06Z" fill="#0D131A"/>
<path d="M186.966 121.341H187.705C187.842 123.804 187.281 127.293 186.022 131.809C184.654 136.681 183.066 140.376 181.26 142.894L180.685 142.483C182.327 140.211 183.846 136.298 185.242 130.742C186.392 126.171 186.966 123.038 186.966 121.341Z" fill="#0D131A"/>
<path d="M174.691 139.568C176.498 140.17 178.509 141.046 180.726 142.196L184.914 144.413C185.817 144.823 186.323 145.138 186.433 145.357L187.048 147.451L190.784 159.89L190.086 160.095L185.529 145.973C180.849 143.072 177.155 141.156 174.445 140.225L174.691 139.568Z" fill="#0D131A"/>
<path d="M144.066 102.046C147.98 102.812 152.592 103.1 157.901 102.908L156.875 104.468L145.791 103.77L144.066 102.046Z" fill="#0D131A"/>
<path d="M193.781 4.70975C194.028 4.60027 193.863 4.95607 193.289 5.77712L192.057 7.13187L189.922 7.99398C183.518 10.6761 176.772 14.973 169.683 20.8846C162.951 26.4952 156.587 32.9678 150.594 40.3026C144.573 47.6648 139.66 54.9996 135.856 62.307C131.832 69.9975 129.465 76.8397 128.753 82.8334L127.358 82.6692C128.042 76.7029 130.341 69.7102 134.255 61.6912C138.278 53.4259 143.3 45.5711 149.321 38.1268C155.424 30.6004 162.047 24.0457 169.191 18.4625C175.869 13.2624 182.56 9.25294 189.265 6.43397L193.781 4.70975Z" fill="#0D131A"/>
<path d="M223.298 34.5964C222.477 19.6258 219.056 10.2521 213.035 6.4752C209.176 4.09413 204.099 3.69729 197.804 5.28467C197.695 5.31204 197.613 5.03835 197.558 4.46361C197.531 3.8615 197.572 3.54676 197.681 3.51939C204.742 1.71307 210.271 2.05517 214.267 4.54572C217.578 6.62573 220.137 9.99207 221.943 14.6447C223.75 19.3795 224.872 25.6606 225.31 33.488C225.748 41.4249 224.79 49.4576 222.436 57.5861C220.657 63.6619 218.208 69.4367 215.088 74.9104C212.05 80.2473 208.902 84.8041 205.645 88.581C202.005 92.7958 198.53 95.6695 195.218 97.2021C191.961 98.7074 187.87 100.048 182.943 101.225C177.88 102.457 172.639 103.346 167.22 103.894V102.128C172.311 101.444 177.333 100.445 182.286 99.1316C186.939 97.8453 190.88 96.4632 194.11 94.9853C201.499 91.5642 208.177 84.4347 214.143 73.5967C220.986 61.1987 224.037 48.1986 223.298 34.5964Z" fill="#0D131A"/>
<path d="M175.759 33.2417L175.8 33.9396L153.755 34.9249L154.74 34.1859L175.759 33.2417Z" fill="#0D131A"/>
<path d="M214.226 11.7708L217.592 9.88232L217.961 10.4981L214.554 12.3866C205.659 17.2855 199.802 20.6656 196.983 22.5266C196.655 22.7456 196.504 22.6361 196.532 22.1982C196.586 21.7877 196.723 21.5003 196.942 21.3361C198.694 20.1045 201.54 18.4487 205.481 16.3687L214.226 11.7708Z" fill="#0D131A"/>
<path d="M209.956 41.2466C215.512 37.8803 220.151 35.5266 223.873 34.1855L224.119 34.8834C220.698 36.0877 215.991 38.5782 209.997 42.3551C203.456 46.433 198.105 50.3878 193.945 54.2194C193.617 54.493 193.439 54.4657 193.412 54.1373C193.357 53.8088 193.507 53.4804 193.863 53.152C198.023 49.1835 203.387 45.2151 209.956 41.2466Z" fill="#0D131A"/>
<path d="M206.138 66.6175C212.461 63.3606 217.113 61.4585 220.096 60.9111L220.261 61.609C217.879 62.1564 213.432 64.0448 206.918 67.2743C199.556 70.9691 194.096 74.2944 190.538 77.2502L190.087 77.2091C190.087 76.9354 190.224 76.6891 190.497 76.4702C194.11 73.3502 199.324 70.0659 206.138 66.6175Z" fill="#0D131A"/>
<path d="M203.1 46.0088L203.839 45.9678L205.892 67.3153L204.66 67.9311L203.1 46.0088Z" fill="#0D131A"/>
<path d="M157.409 62.7173C157.655 62.5805 157.805 62.6489 157.86 62.9226C157.888 63.1963 157.751 63.4152 157.45 63.5795C153.344 66.0153 148.651 69.19 143.369 73.1037C138.059 76.9901 133.516 80.6027 129.739 83.9417L129.246 83.4491C139.646 74.1437 149.034 67.2332 157.409 62.7173Z" fill="#0D131A"/>
<path d="M144.025 102.087L156.382 86.7744L157.449 87.6365L144.559 102.539L144.025 102.087Z" fill="#0D131A"/>
<path d="M181.424 100.281L184.052 89.8121L185.53 88.1289L182.081 100.445L181.424 100.281Z" fill="#0D131A"/>
<path d="M67.0918 148.682C66.6813 149.366 65.4908 150.242 63.5202 151.309C61.1939 152.596 59.8392 153.677 59.456 154.552C59.2097 155.1 58.8539 156.81 58.3886 159.684C57.6497 163.981 56.9928 167.238 56.4181 169.455C55.3507 173.615 54.0233 177.049 52.436 179.759C50.6844 182.769 49.3159 185.972 48.3307 189.365C47.4275 192.513 46.9759 195.373 46.9759 197.945C46.9759 199.834 47.2359 201.366 47.7559 202.543L49.9728 207.634C50.6844 209.55 51.0402 211.192 51.0402 212.56C51.0402 213.6 50.8486 214.503 50.4654 215.27C49.6991 216.967 48.4812 219.06 46.8117 221.551C45.0875 224.096 43.8012 225.697 42.9527 226.354L34.5779 231.855C29.7063 235.304 26.8053 238.095 25.8747 240.23C25.1631 241.845 25.04 244.144 25.5053 247.127C25.9705 250.11 26.4905 251.095 27.0653 250.083C28.4337 247.729 31.1295 244.431 35.1527 240.189C39.7232 235.372 43.4317 232.225 46.278 230.747C48.6591 229.515 51.3549 228.366 54.3654 227.298L60.0718 225.451L62.4939 224.753C62.8771 224.616 63.0413 224.342 62.9866 223.932C62.9044 223.494 62.4939 222.591 61.755 221.222C61.016 219.881 60.5097 219.074 60.236 218.8C59.0318 217.487 58.156 216.296 57.6086 215.229C56.6507 213.368 56.1718 211.164 56.1718 208.619C56.1718 207.169 56.3223 205.677 56.6234 204.144C57.0339 201.873 57.7044 199.697 58.6349 197.617C59.2097 196.331 60.1265 194.634 61.3855 192.526C62.9181 189.926 63.9855 187.86 64.5876 186.327C65.5729 183.809 66.1476 180.991 66.3118 177.87L66.3529 176.146L66.1066 170.399L65.9013 166.581L66.0655 164.775L66.3118 163.995C66.8866 162.161 67.174 160.628 67.174 159.397L67.0508 157.878L66.8866 156.195C66.8866 153.43 68.2824 151.72 71.074 151.063C72.5519 150.762 75.0014 149.681 78.4224 147.82C83.513 145.028 88.0151 141.621 91.9288 137.598L91.6415 139.979C86.9888 144.741 82.4456 148.176 78.0119 150.283C76.3972 151.077 74.194 151.802 71.4024 152.459C70.1982 152.732 69.3771 153.444 68.9392 154.594C68.5287 155.634 68.4603 156.947 68.734 158.535C68.9255 159.684 68.8708 160.792 68.5698 161.86L67.6666 164.405L67.4203 165.144C67.3108 165.582 67.3382 167.293 67.5024 170.276C67.7213 173.615 67.7761 176.447 67.6666 178.774C67.475 182.359 67.1603 185.041 66.7224 186.82C66.2845 188.462 65.4634 190.282 64.2592 192.28L60.7286 197.74C59.2781 200.149 58.3749 202.365 58.0192 204.391C57.3623 208.031 57.4855 211.055 58.3886 213.463C58.9086 214.859 59.8665 216.31 61.2623 217.815C63.315 220.032 64.4918 221.961 64.7929 223.603C65.0666 225.109 64.6013 225.985 63.3971 226.231C57.2939 227.572 51.8065 229.501 46.9349 232.019C44.3075 233.36 40.2843 237.247 34.8653 243.678C29.8021 249.617 27.0105 252.587 26.4905 252.587C25.3958 252.587 24.5063 251.136 23.8221 248.235C23.1926 245.526 23.0284 242.953 23.3294 240.517C23.7673 237.014 29.9527 231.965 41.8854 225.369C45.7443 220.442 48.1801 216.884 49.1928 214.695C49.4665 214.065 49.6033 213.354 49.6033 212.56C49.6033 211.383 49.1928 209.905 48.3717 208.126L45.9907 203.405C45.4159 202.146 45.1285 200.422 45.1285 198.233C45.1285 195.633 45.6622 192.622 46.7296 189.201C47.8244 185.671 49.3159 182.277 51.2044 179.02C52.7096 176.475 53.8728 173.136 54.6939 169.003L56.2128 159.438C56.7328 156.345 57.1297 154.525 57.4034 153.978C57.7318 153.239 58.5118 152.486 59.7434 151.72L62.8634 150.078C64.5876 149.147 65.6003 148.422 65.9013 147.902L66.4761 146.547C66.9961 145.042 67.4066 144.098 67.7076 143.714C68.5834 142.565 70.1434 141.58 72.3877 140.759C75.9456 139.5 80.7214 136.585 86.7151 132.014C94.4331 126.103 100.016 120.095 103.465 113.992L104.696 114.69C101.275 120.739 95.8562 126.76 88.4394 132.753C82.2814 137.734 77.2866 140.896 73.455 142.237C71.4298 142.976 69.9929 143.783 69.1445 144.659C68.6245 145.179 68.1866 145.959 67.8308 146.999L67.0918 148.682Z" fill="#0D131A"/>
<path d="M66.2297 105.289C64.6423 103.784 63.1234 102.005 61.6729 99.9523L62.7813 99.0902C66.5034 104.208 69.9792 107.273 73.2087 108.286C75.7266 109.107 77.5193 110.311 78.5866 111.899C79.3803 113.048 79.9414 114.8 80.2698 117.153C81.8298 113.377 84.7309 108.888 88.973 103.688C91.3815 100.76 93.6804 98.2007 95.8699 96.0112L96.8552 97.0376C94.7204 99.2544 92.2025 102.21 89.3015 105.905C84.7309 111.707 81.9804 116.182 81.0498 119.329C80.6667 120.643 80.2698 121.149 79.8593 120.848L79.2435 120.191L79.0793 118.837C79.0793 117.468 78.6824 115.977 77.8887 114.362C76.7393 111.953 75.0287 110.38 72.7571 109.641C70.6771 108.984 68.5013 107.533 66.2297 105.289Z" fill="#0D131A"/>
<path d="M66.4765 115.511C62.5354 110.831 59.5248 106.781 57.4448 103.36L56.9111 102.375L58.1838 101.8L58.6764 102.621C60.5922 105.741 63.5343 109.6 67.5028 114.198C71.9091 119.234 75.166 122.258 77.2734 123.27L81.0092 124.872L83.4724 125.036C84.1018 124.789 84.6082 124.16 84.9913 123.147L85.1555 122.901C87.2629 120.657 89.3156 118.125 91.3135 115.306C94.8987 110.243 96.8556 106.097 97.184 102.867L98.0051 104.14C97.4577 109.395 93.544 115.949 86.264 123.804L85.4839 125.528C85.2103 126.021 84.8682 126.349 84.4576 126.514C82.706 127.198 80.0513 126.705 76.4934 125.036C74.2765 123.996 70.9375 120.821 66.4765 115.511Z" fill="#0D131A"/>
<path d="M58.8405 74.2123L38.7656 60.008L39.5867 58.7764L59.0047 72.6112L58.8405 74.2123Z" fill="#0D131A"/>
<path d="M0.832493 35.7455C0.859862 34.9518 1.09249 34.3907 1.53039 34.0623C2.62514 33.2139 4.19883 33.5286 6.25148 35.0065L31.1295 52.7414L29.9801 53.7677L5.79989 36.6486C4.95147 36.0465 4.2262 35.6633 3.62409 35.4991C3.18619 35.3623 2.87145 35.3623 2.67987 35.4991C2.35145 35.7181 2.36513 36.416 2.72093 37.5928C3.18619 38.9886 8.89255 50.2098 19.84 71.2562C30.7601 92.3574 36.6306 103.455 37.4517 104.55C38.0538 105.371 39.3949 105.85 41.4749 105.987C43.5549 106.151 45.7033 105.919 47.9202 105.289C53.996 103.811 58.8266 101.143 62.4119 97.2838C64.3277 95.2037 65.6413 93.1374 66.3529 91.0848L67.6666 91.5364C66.654 94.629 65.4635 97.0101 64.095 98.6796C60.7287 102.73 55.5834 105.453 48.6591 106.849C46.3054 107.506 43.9107 107.725 41.4749 107.506C38.9022 107.26 37.1917 106.562 36.3433 105.412C35.2211 103.907 23.5895 81.6015 1.44829 38.496C1.01039 37.5107 0.805124 36.5939 0.832493 35.7455Z" fill="#0D131A"/>
<path d="M36.9593 104.551C40.3257 104.879 44.4036 103.921 49.1931 101.677C55.6521 98.6663 60.5237 94.1368 63.8079 88.0884L64.3006 89.1147C61.1532 95.4916 56.2405 100.103 49.5626 102.95C44.8004 105.002 40.5583 105.837 36.8362 105.454L36.9593 104.551Z" fill="#0D131A"/>
<path d="M106.626 116.25L107.529 116.415L108.268 116.743C102.411 121.368 97.3481 128.224 93.0786 137.311C88.4533 147.163 86.3186 156.633 86.6744 165.719C87.0575 175.216 90.287 182.647 96.3628 188.011L95.747 190.515C92.4902 187.587 89.9175 184.015 88.0291 179.8C86.1133 175.531 85.0596 170.933 84.868 166.007C84.5122 156.948 86.6744 147.423 91.3544 137.434C95.6239 128.265 100.714 121.204 106.626 116.25Z" fill="#0D131A"/>
<path d="M144.969 132.138L146.611 132.753C151.236 143.92 152.058 154.799 149.074 165.391C146.474 174.723 141.466 182.4 134.049 188.421C128.219 193.211 122.075 195.961 115.616 196.673L116.519 195.564L117.258 194.251C122.705 193.402 127.864 190.994 132.735 187.025C139.878 181.196 144.75 173.615 147.35 164.282C150.279 153.69 149.485 142.976 144.969 132.138Z" fill="#0D131A"/>
<path d="M136.43 127.622C142.369 131.755 146.748 137.762 149.567 145.644L148.705 145.973C145.941 138.282 141.671 132.425 135.897 128.402C131.901 125.583 127.412 123.791 122.431 123.024C117.286 122.231 112.209 122.586 107.201 124.092C102.219 125.57 98.5658 127.841 96.2394 130.906L95.5005 130.332C97.9363 127.102 101.713 124.721 106.831 123.189C111.949 121.629 117.204 121.273 122.595 122.121C127.686 122.887 132.298 124.721 136.43 127.622Z" fill="#0D131A"/>
<path d="M139.181 143.345C144.107 148.463 147.241 154.977 148.582 162.887L147.679 163.051C146.365 155.36 143.314 149.011 138.524 144.002C133.707 138.994 127.59 135.764 120.173 134.314C114.125 133.164 108.2 133.438 102.398 135.135C96.6227 136.777 92.6953 139.309 90.6153 142.73L90.2458 141.827C92.4353 138.269 96.4312 135.682 102.233 134.068C108.063 132.453 114.111 132.234 120.379 133.411C127.987 134.889 134.255 138.2 139.181 143.345Z" fill="#0D131A"/>
<path d="M86.2637 155.251C89.0553 150.68 93.3795 147.451 99.2364 145.562C105.093 143.646 111.238 143.482 117.669 145.07C125.141 146.876 131.148 150.53 135.691 156.031C140.235 161.504 142.794 168.196 143.368 176.106L142.424 176.188C141.877 168.497 139.4 161.97 134.993 156.606C130.56 151.269 124.717 147.724 117.464 145.973C111.224 144.44 105.257 144.591 99.5648 146.424C93.8995 148.231 89.7258 151.337 87.0437 155.743L86.2637 155.251Z" fill="#0D131A"/>
<path d="M96.8144 162.065C101.44 160.286 106.681 160.068 112.538 161.409C118.395 162.75 123.157 165.268 126.824 168.962C129.616 171.754 131.367 174.915 132.079 178.446C132.79 182.003 132.394 185.698 130.888 189.53L130.026 189.16C131.449 185.52 131.832 182.017 131.176 178.651C130.491 175.284 128.822 172.26 126.167 169.578C122.609 166.02 117.998 163.598 112.332 162.312C106.667 160.998 101.618 161.203 97.1838 162.928C94.6933 163.885 92.6817 165.254 91.1491 167.033C89.1238 169.387 88.029 172.356 87.8648 175.941L86.9617 175.9C87.0985 172.616 88.029 169.783 89.7533 167.402C91.4501 165.021 93.8038 163.242 96.8144 162.065Z" fill="#0D131A"/>
<path d="M106.051 175.08C107.912 174.997 109.787 175.285 111.675 175.942C115.398 177.255 118.107 179.308 119.804 182.1C121.473 184.782 121.706 187.354 120.502 189.818C115.904 199.232 110.458 207.785 104.163 215.476C98.6343 222.181 95.1311 225.356 93.6532 225C92.2848 224.672 92.1616 217.775 93.2837 204.309C94.3237 191.638 95.2816 184.029 96.1574 181.484C96.5132 180.471 97.129 179.486 98.0048 178.528C98.8806 177.598 99.8522 176.859 100.92 176.311C102.48 175.545 104.19 175.134 106.051 175.08ZM106.133 176.516C104.436 176.571 102.904 176.927 101.535 177.584C99.729 178.487 98.5248 179.787 97.9227 181.484C97.1838 183.701 96.2396 191.145 95.0901 203.817C93.968 216.625 93.7216 223.125 94.3511 223.317C95.6101 223.563 99.8933 218.459 107.201 208.004C114.289 197.85 118.285 191.432 119.188 188.75C119.407 188.175 119.517 187.505 119.517 186.739C119.517 184.823 118.75 182.989 117.218 181.238C115.685 179.431 113.687 178.118 111.224 177.296C109.554 176.722 107.858 176.462 106.133 176.516Z" fill="#0D131A"/>
<path d="M135.199 89.7712C135.472 90.4555 135.691 91.386 135.856 92.5628L136.225 95.3544C135.623 94.7523 134.816 94.2186 133.803 93.7534L132.53 90.346C130.067 84.7902 126.153 80.9996 120.789 78.9743C119.092 78.3175 117.341 77.8933 115.534 77.7017L113.071 77.5785L113.687 76.0596H116.232C118.285 76.1964 120.269 76.5933 122.185 77.2501C128.288 79.2754 132.626 83.4491 135.199 89.7712Z" fill="#0D131A"/>
<path d="M134.337 105.454L135.609 106.685C135.089 108.19 134.487 109.504 133.803 110.626L132.695 109.682C133.406 108.423 133.954 107.014 134.337 105.454Z" fill="#0D131A"/>
<path d="M116.52 118.221C122.349 118.139 126.933 116.387 130.272 112.966L131.093 114.28C127.727 117.811 123.211 119.617 117.546 119.699C113.057 119.726 109.062 118.604 105.558 116.333C102.794 114.554 100.728 112.392 99.3595 109.846C97.6626 106.726 96.6089 103.866 96.1984 101.266C95.7331 98.502 96.0479 96.3125 97.1426 94.6977L99.2363 93.0967C98.3058 94.4925 97.9089 96.5725 98.0458 99.3367C98.1826 102.429 99.0037 105.372 100.509 108.163C101.932 110.818 103.711 112.98 105.846 114.649C108.911 117.058 112.469 118.248 116.52 118.221Z" fill="#0D131A"/>
<path d="M137.99 123.352C142.862 129.538 147.679 133.999 152.441 136.736L162.211 142.442C167.193 145.37 169.916 146.835 170.381 146.835L171.161 146.547C171.955 146.164 172.598 145.986 173.09 146.014C173.966 146.041 174.719 146.588 175.348 147.656C176.47 149.544 177.319 151.351 177.894 153.075C178.797 155.757 178.879 157.905 178.14 159.52C177.483 160.916 177.305 162.832 177.606 165.267C177.825 167.019 178.345 169.25 179.166 171.959C179.577 173.382 179.741 175.257 179.659 177.583L179.002 184.152C178.564 187.737 178.373 190.118 178.427 191.295C178.564 193.758 180.453 198.931 184.093 206.813L186.351 211.986C187.445 214.613 187.911 217.035 187.746 219.252C187.555 221.469 186.734 223.658 185.283 225.821L184.791 226.6C182.519 229.939 181.506 231.992 181.753 232.758L182.245 233.21L185.981 233.579C189.211 233.525 192.002 233.812 194.356 234.442C196.874 235.126 199.487 236.385 202.197 238.218L208.601 243.227L212.624 246.429C213.938 247.36 215.033 247.88 215.909 247.989C218.344 248.317 221.163 250.439 224.366 254.352C224.283 251.342 224.023 248.673 223.586 246.347C223.066 243.501 222.34 241.79 221.41 241.215C221.136 241.024 219.932 240.49 217.797 239.614C211.393 237.124 206.466 234.62 203.018 232.102C196.86 227.613 193.425 222.263 192.714 216.05L192.591 214.285C192.591 213.135 192.851 211.808 193.371 210.302L194.233 207.306C194.506 205.855 194.643 204.131 194.643 202.133L194.438 197.617C193.891 189.762 192.837 181.976 191.277 174.258C189.334 164.816 187.117 158.371 184.626 154.922C182.355 151.829 180.466 149.489 178.961 147.902L175.923 144.248C174.774 142.661 174.199 141.265 174.199 140.061L174.24 139.158C174.24 138.884 174.144 138.651 173.953 138.46L172.639 137.434C171.927 136.996 169.642 135.874 165.783 134.067C160.419 131.549 156.409 129.579 153.755 128.156C148.801 125.528 145.038 123.133 142.465 120.971C137.785 117.058 133.515 112.542 129.656 107.424C129.438 107.15 129.191 107.068 128.918 107.178C128.507 107.397 128.411 107.739 128.63 108.204C130.738 113.021 133.858 118.07 137.99 123.352ZM153.755 126.719C156.656 128.334 160.378 130.195 164.921 132.302L169.888 134.437C171.777 135.23 172.954 135.778 173.419 136.079C174.432 136.708 175.088 137.324 175.389 137.926C175.608 138.309 175.69 138.857 175.636 139.568C175.608 140.143 175.649 140.622 175.759 141.005C175.95 141.662 176.388 142.456 177.073 143.386L179.987 146.917L182.327 149.175C183.641 150.516 185.009 152.172 186.433 154.142C189.17 157.864 191.51 164.72 193.453 174.71C194.903 182.154 195.916 189.749 196.491 197.494C196.737 201.025 196.614 203.994 196.121 206.402L194.725 210.754L194.11 212.93C193.973 213.751 193.973 214.736 194.11 215.886C194.794 221.715 198.119 226.655 204.085 230.706C206.877 232.594 211.639 234.852 218.372 237.48C219.822 238.027 221.218 238.711 222.559 239.532C223.49 240.134 224.297 241.831 224.981 244.623C225.693 247.524 226.008 250.616 225.926 253.901C225.898 255.57 225.707 256.46 225.351 256.569C225.022 256.679 224.256 256.131 223.052 254.927C221.875 253.75 220.534 252.669 219.029 251.684C217.332 250.562 215.95 249.932 214.882 249.795C213.897 249.686 212.789 249.056 211.557 247.907L207.698 244.294L201.499 239.45C198.872 237.698 196.367 236.481 193.986 235.796L188.157 235.14L183.272 235.181C182.314 235.208 181.493 235.057 180.808 234.729C180.206 234.455 179.85 234.154 179.741 233.826C179.522 233.059 179.85 231.883 180.726 230.295L183.6 225.779L184.134 225.04C185.447 223.07 186.173 221.086 186.309 219.088C186.446 217.117 186.022 214.928 185.037 212.519L182.779 207.388L178.879 199.013C177.51 195.811 176.785 193.416 176.703 191.829C176.676 191.008 176.772 189.79 176.99 188.175L177.606 183.988C178.236 178.815 178.14 174.846 177.319 172.082C175.595 166.39 175.43 162.011 176.826 158.945C177.374 157.796 177.333 156.154 176.703 154.019C176.183 152.24 175.335 150.365 174.158 148.395C173.775 147.793 173.405 147.478 173.049 147.451C172.803 147.423 172.379 147.546 171.777 147.82L170.668 148.231C169.437 148.477 166.385 147.149 161.514 144.248L150.881 137.557C145.818 134.683 140.905 130.071 136.143 123.722C132.475 118.796 129.533 113.801 127.316 108.738C127.07 108.19 127.056 107.643 127.275 107.095C127.467 106.603 127.782 106.233 128.22 105.987C128.63 105.741 129.054 105.659 129.492 105.741C129.985 105.795 130.409 106.069 130.765 106.562C134.542 111.543 138.743 115.977 143.368 119.863C145.941 122.025 149.403 124.31 153.755 126.719Z" fill="#0D131A"/>
<path d="M167.384 93.3427L168.78 93.548C168.479 94.6975 168.151 97.0922 167.795 100.732C167.466 104.181 167.288 106.849 167.261 108.738C167.234 110.133 166.344 111.83 164.593 113.828L161.76 116.497C161.651 116.606 161.459 117.017 161.185 117.728C160.884 118.796 160.474 119.384 159.954 119.493C159.324 119.63 158.531 119.192 157.573 118.18C155.137 115.552 150.922 113.294 144.928 111.406L140.946 110.298L137.251 109.559C136.129 109.23 135.199 108.532 134.46 107.465C128.466 98.8438 124.087 93.5617 121.323 91.6185C120.693 91.1806 120.297 90.688 120.132 90.1406C119.996 89.648 120.064 89.1964 120.338 88.7859C120.94 87.9374 122.349 87.7185 124.566 88.129C127.057 88.5943 129.643 89.7164 132.325 91.4954C134.487 92.9459 138.374 95.9701 143.984 100.568L154.822 109.435C154.822 106.945 155.301 105.07 156.259 103.811C156.971 102.935 158.353 100.075 160.405 95.2312L162.417 90.7154L163.607 91.4954C163.224 92.2891 162.595 93.7259 161.719 95.8059L159.625 100.979C158.886 102.84 158.298 104.044 157.86 104.591C157.203 105.412 156.793 106.398 156.628 107.547L156.3 110.872C156.163 111.912 155.931 112.337 155.602 112.145L155.151 111.529C142.588 101.54 134.227 95.1628 130.067 92.3985C127.686 90.8111 125.633 89.8259 123.909 89.4427C122.568 89.1417 121.775 89.1964 121.528 89.6069C121.473 89.6617 121.501 89.7711 121.61 89.9354L122.144 90.469C124.06 91.8101 126.564 94.3554 129.657 98.1049C131.846 100.76 133.803 103.332 135.527 105.823C136.184 106.781 136.978 107.479 137.908 107.917C138.51 108.218 139.633 108.56 141.275 108.943L145.339 110.051C151.661 112.049 156.081 114.43 158.599 117.194L159.584 118.057L159.831 117.318C160.104 116.332 160.446 115.689 160.857 115.388C162.034 114.458 163.101 113.404 164.059 112.227C165.236 110.777 165.824 109.6 165.824 108.697C165.852 106.918 166.016 104.372 166.317 101.061C166.673 97.3386 167.028 94.7659 167.384 93.3427Z" fill="#0D131A"/>
<path d="M196.983 2.04121C196.162 1.54858 188.992 12.3592 175.471 34.473C161.842 56.7237 154.699 69.5732 154.042 73.0217C153.85 73.9796 153.755 75.0059 153.755 76.1006C153.755 79.3849 154.644 82.3407 156.423 84.9681C158.339 87.787 161.076 89.826 164.634 91.085C169.04 92.6176 173.72 92.645 178.674 91.1671C183.545 89.6892 186.487 87.4176 187.5 84.3523C189.361 78.7691 191.687 63.7027 194.479 39.153C197.216 14.7402 198.051 2.36964 196.983 2.04121ZM197.558 0.768573C198.844 1.15173 198.653 11.4013 196.983 31.5172C195.232 52.7279 192.837 70.1343 189.799 83.7365C189.033 87.267 185.844 90.045 180.234 92.0702C174.951 93.9587 170.203 94.3829 165.988 93.3429C160.624 92.0018 156.738 89.1828 154.329 84.886C152.167 81.0544 151.565 76.8943 152.523 72.4059C153.755 66.8501 161.103 53.371 174.568 31.9688C188.006 10.6213 195.67 0.221201 197.558 0.768573Z" fill="#0D131A"/>
<path d="M152.4 73.966L153.303 73.8018C153.659 75.6628 154.767 77.7018 156.628 79.9186C158.79 82.5187 161.418 84.5576 164.511 86.0355C167.521 87.4861 170.709 88.2113 174.076 88.2113C178.51 88.2113 183.053 86.9524 187.705 84.4345L188.157 85.2555C183.285 87.8555 178.646 89.224 174.24 89.3608C170.764 89.4703 167.535 88.8134 164.552 87.3903C161.349 85.8576 158.53 83.6271 156.095 80.6986C154.015 78.1807 152.783 75.9365 152.4 73.966Z" fill="#0D131A"/>
<path d="M73.5374 53.5627C77.7248 51.6469 82.7059 50.689 88.4807 50.689L88.2344 52.3311C82.8428 52.4406 78.2859 53.33 74.5638 54.9995C73.688 55.3827 73.0037 55.7248 72.5111 56.0258L71.5669 54.5479L73.5374 53.5627Z" fill="#0D131A"/>
<path d="M98.9902 52.4129V53.8908C97.786 53.2887 95.747 52.8234 92.8733 52.495L93.1196 51.0171C95.747 51.3181 97.7039 51.7834 98.9902 52.4129Z" fill="#0D131A"/>
<path d="M103.588 87.4725L106.379 86.5283C103.068 90.442 100.016 93.7399 97.2246 96.4221C92.134 101.266 88.3708 103.579 85.935 103.36C84.7855 103.251 82.8834 102.238 80.2286 100.322C77.3549 98.2695 74.7002 95.9294 72.2644 93.302V91.9063L72.0181 90.4694C74.5633 93.5073 77.3413 96.1758 80.3518 98.4747C82.9518 100.445 84.7445 101.472 85.7297 101.554C87.3992 101.636 90.3277 99.9253 94.5151 96.4221C98.1277 93.3842 101.152 90.401 103.588 87.4725Z" fill="#0D131A"/>
<path d="M68.8983 56.3955L69.9246 57.7913C67.1057 60.0355 65.2036 62.8956 64.2183 66.3714L63.972 67.3566L62.5762 67.0282L62.8225 65.9608C63.9993 61.965 66.0246 58.7766 68.8983 56.3955Z" fill="#0D131A"/>
<path d="M62.5351 67.6846C60.7562 68.4509 59.8393 70.6815 59.7846 74.3762C59.7025 78.2626 60.6604 82.0531 62.6583 85.7479C63.8899 87.9921 65.4225 89.7984 67.2562 91.1669C68.9804 92.4258 70.3352 92.9048 71.3204 92.6037C71.4846 92.6037 71.5531 92.4395 71.5257 92.1111C71.3615 89.8121 69.9931 85.1047 67.4204 77.9889C64.8204 70.8457 63.192 67.4109 62.5351 67.6846ZM61.673 66.5762L63.7667 66.6583C64.8341 67.5888 66.6404 71.7352 69.1857 79.0973C71.0468 84.4342 72.1415 88.2932 72.4699 90.6742C72.7436 92.6448 72.4973 93.7395 71.731 93.9585C70.3352 94.369 68.5288 93.8764 66.312 92.4806C64.013 91.03 62.2341 89.1553 60.9751 86.8563C58.9498 83.1615 58.0603 79.2205 58.3067 75.0331C58.5256 71.0099 59.6477 68.1909 61.673 66.5762Z" fill="#0D131A"/>
<path d="M103.916 60.9932L104.286 62.389C101.22 63.21 98.7573 65.9879 96.8963 70.7227C95.0626 75.4301 94.6247 80.0828 95.5826 84.6807C95.9931 86.6786 96.8005 87.8828 98.0047 88.2933C99.2363 88.7312 100.837 88.5123 102.808 87.6365C104.806 86.7607 106.899 85.3375 109.089 83.367C110.403 82.2175 111.443 80.5754 112.209 78.4406C112.921 76.4701 113.29 74.4038 113.317 72.2417C113.372 68.1911 111.963 64.8521 109.089 62.2248L110.033 61.1574C111.675 62.6353 112.934 64.3048 113.81 66.1658C114.741 68.1364 115.192 70.189 115.165 72.3238C115.11 74.9785 114.741 77.2364 114.056 79.0975C113.317 81.0954 112.113 82.9428 110.444 84.6396C108.117 86.966 105.695 88.5533 103.177 89.4018L97.5531 89.6481C95.8562 89.046 94.7341 87.486 94.1868 84.9681C93.1468 79.9596 93.6394 74.9375 95.6647 69.9016C97.7173 64.8932 100.468 61.9237 103.916 60.9932Z" fill="#0D131A"/>
<path d="M72.0184 61.1985C72.3742 61.9101 72.7573 62.4985 73.1679 62.9638L73.9068 63.4975C74.5363 63.2786 74.5089 62.2659 73.8247 60.4596C73.0037 58.3248 70.4173 53.9732 66.0657 47.4048C62.3162 41.7668 59.5383 37.7984 57.732 35.4994C56.4457 33.8573 55.2004 32.9678 53.9962 32.831C52.7646 32.6941 51.273 33.2962 49.5214 34.6373C47.5782 36.0878 43.2814 40.4531 36.6308 47.7332C29.9528 54.9859 26.1897 59.4196 25.3412 61.0343C24.9033 61.8554 24.8212 62.9501 25.0949 64.3186C25.3686 65.687 25.9023 66.8775 26.696 67.8902C27.6265 69.0396 28.557 69.4775 29.4876 69.2039C30.4455 68.9575 31.3486 68.3417 32.1971 67.3565L34.6602 63.867C35.8918 61.8964 36.8634 60.4459 37.575 59.5154C40.5855 55.4922 43.815 51.5648 47.2635 47.7332C50.2467 44.3942 52.5183 42.2184 54.0783 41.2058C55.2004 40.4668 56.0762 40.3026 56.7057 40.7131C57.9099 41.5068 60.5236 44.6405 64.5468 50.1143C68.4331 55.3417 70.9236 59.0364 72.0184 61.1985ZM75.1384 59.9669C75.6037 61.2259 75.7679 62.2522 75.631 63.0459C75.4942 63.7575 75.1247 64.2228 74.5226 64.4417C73.4005 64.8522 72.3331 64.0038 71.3205 61.8964C70.3352 59.8712 67.7626 56.1901 63.6025 50.8532C59.5246 45.5984 56.9657 42.6153 55.9256 41.9037C55.1046 41.7942 52.8467 43.7511 49.1519 47.7742C45.6487 51.5785 42.1729 55.7796 38.7245 60.3775L35.8508 64.6059L33.1413 68.506C32.1013 69.7102 30.9928 70.4765 29.816 70.8049C28.2286 71.2702 26.8055 70.7091 25.5465 69.1217C24.5886 67.9449 23.9044 66.5354 23.4939 64.8933C23.056 63.0596 23.1381 61.5817 23.7402 60.4596C24.6433 58.7901 28.4749 54.2195 35.235 46.7479C42.0224 39.2215 46.4014 34.7194 48.3719 33.2415C50.4793 31.6541 52.2993 30.9015 53.832 30.9836C55.4193 31.0931 56.9657 32.1057 58.4709 34.0215C60.3867 36.4573 63.2741 40.5763 67.1331 46.3784C71.6489 53.1932 74.3174 57.7227 75.1384 59.9669Z" fill="#0D131A"/>
<path d="M95.747 26.1804C95.227 25.2225 94.7207 24.4972 94.2281 24.0046C93.8175 23.5941 93.5028 23.4162 93.2838 23.4709C93.147 23.4709 92.9965 23.6078 92.8323 23.8814C92.5312 24.3741 92.2849 25.1541 92.0933 26.2215C91.9017 27.3162 91.1765 33.6383 89.9175 45.1879C88.9322 54.8216 88.3301 60.1996 88.1112 61.3217C88.0291 61.6775 88.0428 61.9785 88.1522 62.2248L88.5217 62.5943C88.8775 62.6764 89.1786 62.348 89.4249 61.6091L92.2986 50.8121L94.187 43.0942C94.406 42.2731 94.5975 41.8489 94.7618 41.8216C94.9533 41.8216 95.2133 42.2184 95.5418 43.0121C96.6639 45.749 98.4565 49.5121 100.92 54.3016C103.875 60.1038 105.723 63.0733 106.462 63.2101C107.256 63.347 108.104 62.8817 109.007 61.8143C109.828 60.8291 110.485 59.5975 110.978 58.1196C111.224 57.3532 111.347 56.5595 111.347 55.7385C111.347 54.3701 110.964 53.0837 110.198 51.8795C108.391 48.9784 105.463 43.8605 101.412 36.5257L95.747 26.1804ZM93.0375 22.0751C94.4881 21.8562 95.7744 22.773 96.8965 24.8257C103.602 37.2784 108.528 46.0363 111.676 51.0995C113.071 53.3164 113.331 55.7932 112.456 58.5301C111.908 60.2269 111.06 61.787 109.91 63.2101C108.788 64.6333 107.844 65.3449 107.078 65.3449C106.147 65.3449 105.271 64.8659 104.45 63.908C103.219 62.4027 101.453 59.2827 99.1544 54.548C97.5944 51.3185 96.226 48.3079 95.0491 45.5163C93.9544 50.0869 92.4902 55.3143 90.6565 61.1985C90.3828 62.047 90.027 62.6764 89.5891 63.087C89.1512 63.4975 88.6996 63.6343 88.2343 63.4975C87.7691 63.388 87.427 63.0596 87.208 62.5122C87.0164 61.9648 86.9754 61.2943 87.0849 60.5006L88.8501 43.3816L90.6975 25.9751C91.108 23.5393 91.8881 22.2393 93.0375 22.0751Z" fill="#0D131A"/>
<path d="M66.6403 77.045C67.0508 78.386 67.174 79.6039 67.0098 80.6987C66.8182 81.7934 66.394 82.4366 65.7371 82.6282C65.0529 82.8198 64.3413 82.5187 63.6024 81.725C62.8634 80.904 62.2887 79.8092 61.8781 78.4408C61.495 77.0724 61.3855 75.8545 61.5497 74.7871C61.7413 73.6923 62.1655 73.0492 62.8224 72.8576C63.4792 72.666 64.1771 72.9807 64.9161 73.8018C65.6824 74.6229 66.2571 75.7039 66.6403 77.045Z" fill="white"/>
<path d="M98.2508 71.8723C98.9624 70.3123 99.9613 69.1491 101.248 68.3828C102.507 67.6439 103.656 67.507 104.696 67.9723C105.763 68.4649 106.42 69.4365 106.667 70.887C106.886 72.3376 106.639 73.8428 105.928 75.4029C105.216 76.9629 104.231 78.126 102.972 78.8924C101.713 79.6313 100.55 79.7545 99.4824 79.2618C98.415 78.7966 97.7582 77.8387 97.5118 76.3881C97.2929 74.9376 97.5392 73.4323 98.2508 71.8723Z" fill="white"/>
</svg>
