<svg width="254" height="259" viewBox="0 0 254 259" fill="none" xmlns="http://www.w3.org/2000/svg">
<path d="M191.437 159.874C192.741 159.439 193.657 159.625 194.185 160.433L195.163 158.01C197.43 161.271 198.362 168.615 197.958 180.044C197.492 193.056 195.086 204.67 190.738 214.887C185.086 228.054 180.024 234.746 175.552 234.964L173.409 235.197L164.14 234.638C159.357 234.048 156.376 233.38 155.196 232.635L143.97 215.539C143.907 214.017 146.004 210.26 150.258 204.266C154.016 198.925 158.565 193.071 163.907 186.705C169.497 180.028 174.667 174.314 179.419 169.563C185.008 163.942 189.014 160.712 191.437 159.874Z" fill="#0D131A"/>
<path d="M152.914 225.182C157.448 219.53 163.55 214.778 171.221 210.928C179.295 206.891 185.894 205.571 191.018 206.968C190.117 210.415 189.046 213.692 187.804 216.797C185.04 223.815 182.385 228.536 179.838 230.958C178.348 232.355 176.562 233.101 174.481 233.194L173.456 233.287L164.326 232.588C159.668 231.874 156.827 231.206 155.802 230.585C155.336 230.306 154.482 228.753 153.24 225.927L152.914 225.182H152.867V225.135L152.914 225.182Z" fill="#5DC1CF"/>
<path d="M193.114 161.178C194.636 163.383 195.319 168.942 195.164 177.855C194.977 187.854 193.595 197.559 191.018 206.968C185.894 205.571 179.295 206.891 171.22 210.928C163.55 214.779 157.432 219.53 152.867 225.182V225.135C151.594 222.403 150.507 220.384 149.606 219.08C148.209 217.061 146.765 215.85 145.274 215.446V215.353C145.274 214.266 146.889 211.394 150.119 206.735C153.628 201.611 158.115 195.742 163.581 189.127C169.574 181.892 175.071 175.758 180.071 170.727C185.04 165.728 188.72 162.638 191.111 161.458C192.198 160.868 192.866 160.774 193.114 161.178Z" fill="#50A8B4"/>
<path d="M192.089 174.826C193.331 176.286 193.953 177.466 193.953 178.367L193.906 178.739C192.726 183.832 190.894 188.413 188.409 192.481C186.298 195.928 183.099 199.888 178.813 204.359C176.112 207.185 171.826 209.996 165.957 212.791C159.435 215.896 152.758 218.07 145.926 219.312L147.557 231.517C148.209 237.541 148.535 242.029 148.535 244.979C148.535 245.817 148.287 246.718 147.79 247.681C147.479 248.768 146.889 249.544 146.02 250.01C143.691 251.283 139.389 252.277 133.116 252.991C126.905 253.674 123.132 253.628 121.797 252.851C116.393 249.653 110.462 243.224 104.003 233.566C97.419 223.753 93.0869 214.716 91.0062 206.456C87.8697 205.213 84.5468 203.505 81.0376 201.332C77.6216 199.22 74.9509 197.248 73.0255 195.416C72.187 198.987 70.6498 202.263 68.4139 205.244C67.327 206.704 66.3022 207.822 65.3395 208.598C64.0662 210.151 59.5322 210.865 51.7375 210.741L40.418 210.042C38.2442 209.67 36.6138 208.971 35.5269 207.946C34.3469 206.797 33.6481 205.105 33.4307 202.869C33.0581 199.266 33.1668 195.711 33.7568 192.201L34.5487 186.472L35.0611 182.326C35.2474 181.332 35.2319 179.873 35.0145 177.947L34.6419 175.339C33.4928 166.488 33.2599 159.936 33.9431 155.681C34.7816 150.526 37.4523 143.942 41.9553 135.93C47.0793 126.831 54.6411 120.217 64.6407 116.086C70.6032 113.633 76.7987 112.236 83.227 111.894C88.1026 111.646 97.5898 115.062 111.689 122.142C120.198 126.397 129.421 131.474 139.358 137.374C151.873 144.796 163.038 152.001 172.851 158.988C182.664 165.976 189.077 171.255 192.089 174.826Z" fill="#0D131A"/>
<path d="M65.8984 117.484C71.6746 114.937 77.4663 113.509 83.2735 113.198C90.3851 112.826 110.602 123.602 143.923 145.526C160.6 156.52 176.546 167.575 191.763 178.693C190.397 183.227 188.658 187.295 186.546 190.897C184 195.214 180.708 199.282 176.671 203.102C172.137 207.356 165.77 210.912 157.572 213.769C151.672 215.85 147.743 216.89 145.787 216.89C145.352 216.89 145.026 216.145 144.808 214.654L144.343 210.601C144.249 209.328 143.861 208.909 143.178 209.344C142.526 209.778 142.324 210.788 142.573 212.372C143.349 216.533 144.249 222.651 145.274 230.725C146.485 240.445 146.905 245.988 146.532 247.355C146.532 247.572 146.175 247.883 145.461 248.286C143.256 249.466 139.234 250.445 133.396 251.221L123.101 251.64C122.139 251.361 120.26 249.824 117.465 247.029C114.049 243.675 110.788 239.824 107.683 235.476C98.6456 222.899 93.475 210.058 92.1707 196.953C91.8912 194.096 91.5186 192.17 91.0528 191.177C90.5559 190.245 90.2143 190.587 90.0279 192.202C89.7485 194.313 89.9503 198.195 90.6335 203.847C84.0499 201.332 77.1713 196.487 69.9977 189.313C59.3769 178.724 53.43 166.83 52.1567 153.632C52.0014 151.986 51.7685 150.837 51.458 150.184C51.1474 149.563 50.8835 149.594 50.6661 150.278C50.1071 152.11 50.3555 156.023 51.4114 162.016C52.1878 166.24 53.461 170.137 55.2311 173.708C58.554 180.292 63.8799 187.093 71.2088 194.111C70.8982 195.944 70.2461 197.916 69.2523 200.027C68.1654 202.356 66.8611 204.422 65.3394 206.223C64.7494 206.999 63.414 207.682 61.3334 208.272C57.2031 209.483 51.3959 209.685 43.9117 208.878L41.9552 208.505C39.7814 208.133 38.151 207.387 37.0641 206.269C36.0704 205.244 35.4803 203.816 35.294 201.984C35.1077 199.717 35.2629 197.031 35.7598 193.925L36.8312 186.798C37.1418 184.096 37.2194 181.907 37.0641 180.23C36.1325 170.603 35.7753 164.283 35.9927 161.271C36.5828 153.135 39.3001 144.998 44.1446 136.862C49.3307 128.074 56.582 121.614 65.8984 117.484Z" fill="#5DC1CF"/>
<path d="M76.8918 188.01C81.7674 190.245 86.1461 191.643 90.0279 192.202C89.7484 194.314 89.9503 198.195 90.6335 203.847C85.6337 201.922 80.0438 198.273 73.8639 192.901C64.9512 185.168 58.7092 176.457 55.1379 166.768C59.8893 176.426 67.1406 183.507 76.8918 188.01Z" fill="#50A8B4"/>
<path d="M71.2089 194.111C70.8983 195.944 70.2462 197.916 69.2524 200.027C68.1655 202.356 66.8612 204.422 65.3395 206.223L63.2899 207.574C61.2092 208.505 58.3677 209.064 54.7654 209.251C59.3925 207.418 61.4421 202.574 60.9142 194.717C60.4484 188.195 58.4298 180.929 54.8585 172.917C58.1503 179.811 63.6004 186.876 71.2089 194.111Z" fill="#50A8B4"/>
<path d="M60.9141 119.813C64.9822 117.484 69.4075 115.729 74.19 114.549C77.3575 113.804 80.3854 113.354 83.2735 113.198C90.385 112.826 110.602 123.602 143.923 145.526C160.6 156.52 176.546 167.575 191.763 178.693C190.397 183.227 188.658 187.295 186.546 190.897C183.999 195.214 180.708 199.282 176.671 203.102C172.137 207.356 165.77 210.912 157.572 213.769C151.671 215.85 147.743 216.89 145.787 216.89C145.352 216.89 145.026 216.145 144.808 214.654L144.343 210.601C144.249 209.328 143.861 208.909 143.178 209.344C142.526 209.778 142.324 210.788 142.572 212.372C143.349 216.533 144.249 222.651 145.274 230.725C146.485 240.445 146.905 245.988 146.532 247.355C146.532 247.572 146.175 247.883 145.461 248.286L143.504 249.078C143.659 240.228 142.635 232.79 140.43 226.765C136.827 216.89 130.12 209.996 120.306 206.083C118.257 186.084 114.499 170.246 109.033 158.569C99.158 137.576 83.1182 124.657 60.9141 119.813Z" fill="#50A8B4"/>
<path d="M44.7034 204.08C45.2935 204.142 46.1009 204.779 47.1257 205.99C48.2126 207.263 48.725 208.397 48.6629 209.39C48.6008 210.446 48.1505 211.595 47.312 212.838C46.4735 214.08 45.7748 214.701 45.2158 214.701C44.6568 214.701 43.7407 213.893 42.4675 212.279C41.1942 210.695 40.5576 209.608 40.5576 209.018C40.5266 208.459 41.0856 207.496 42.2346 206.13C43.3836 204.732 44.2066 204.049 44.7034 204.08Z" fill="#0D131A"/>
<path d="M46.8927 207.294C47.4517 208.164 47.7156 208.816 47.6846 209.251C47.6846 209.717 47.3585 210.509 46.7064 211.627C46.0231 212.714 45.5573 213.257 45.3089 213.257C44.9983 213.257 44.3307 212.729 43.3059 211.673C42.25 210.586 41.7531 209.794 41.8152 209.297C41.8463 208.832 42.4829 207.729 43.7251 205.99C44.0667 205.493 44.3617 205.214 44.6102 205.152C44.8275 205.121 45.1226 205.26 45.4952 205.571L46.8927 207.294Z" fill="white"/>
<path d="M52.2032 210.415C52.1411 209.918 52.6379 208.847 53.6938 207.201C54.7807 205.493 55.6037 204.608 56.1627 204.546C56.7527 204.515 57.6067 205.229 58.7247 206.689C59.8426 208.179 60.324 209.251 60.1687 209.903L59.3302 212.651C58.8023 213.862 58.2278 214.639 57.6067 214.98C56.9856 215.322 55.9297 214.763 54.4391 213.303C53.0417 211.937 52.2963 210.974 52.2032 210.415Z" fill="#0D131A"/>
<path d="M56.1626 205.897C56.4421 205.804 57.0011 206.316 57.8395 207.434C58.678 208.583 59.1438 209.484 59.237 210.136L58.4917 212.186C57.9638 213.272 57.5601 213.863 57.2806 213.956C56.97 214.049 56.2247 213.583 55.0446 212.558C53.8956 211.533 53.29 210.819 53.2279 210.415C53.1969 210.012 53.6161 209.173 54.4856 207.9C55.3241 206.689 55.8831 206.021 56.1626 205.897Z" fill="white"/>
<path d="M62.2184 209.018C62.2184 208.304 62.5134 207.31 63.1034 206.037C63.8487 204.484 64.6872 203.49 65.6189 203.055C66.6126 202.558 67.6374 203.552 68.6933 206.037C69.7181 208.459 70.0442 210.369 69.6715 211.766C69.4852 212.543 68.1809 212.418 65.7586 211.394C63.3674 210.338 62.1873 209.546 62.2184 209.018Z" fill="#0D131A"/>
<path d="M65.5256 204.127C65.9604 203.972 66.597 204.966 67.4355 207.108C68.274 209.189 68.6466 210.369 68.5535 210.649C68.4914 210.835 67.684 210.633 66.1312 210.043C64.5164 209.453 63.6468 208.972 63.5226 208.599C63.3984 208.164 63.5847 207.357 64.0816 206.177C64.6095 204.997 65.0909 204.313 65.5256 204.127Z" fill="white"/>
<path d="M122.309 252.013C122.434 251.112 122.915 250.165 123.753 249.172C124.592 248.209 125.306 247.696 125.896 247.634C126.642 247.603 127.464 248.054 128.365 248.985C129.172 249.855 129.685 250.709 129.902 251.547C130.026 252.044 129.7 253.271 128.924 255.227C128.117 257.215 127.511 258.162 127.107 258.069C126.579 257.944 125.648 257.044 124.312 255.367C122.915 253.659 122.247 252.541 122.309 252.013Z" fill="#0D131A"/>
<path d="M123.707 252.293C123.769 251.672 124.002 251.02 124.405 250.336C124.84 249.56 125.29 249.11 125.756 248.985C126.253 248.83 126.905 249.203 127.713 250.103C128.458 250.911 128.846 251.547 128.877 252.013L128.179 254.342C127.713 255.46 127.356 256.081 127.107 256.206C126.828 256.33 126.191 255.849 125.197 254.762C124.173 253.613 123.676 252.79 123.707 252.293Z" fill="white"/>
<path d="M136.191 246.284C136.843 246.222 137.868 246.656 139.265 247.588C140.787 248.582 141.532 249.482 141.501 250.29L140.895 254.156C140.492 255.864 140.088 256.765 139.684 256.858C138.97 257.044 137.681 256.485 135.818 255.181C133.924 253.877 132.914 252.821 132.79 252.013C132.728 251.423 133.147 250.336 134.048 248.752C134.98 247.138 135.694 246.315 136.191 246.284Z" fill="#0D131A"/>
<path d="M136.703 247.727C136.983 247.665 137.604 247.96 138.567 248.612C139.56 249.265 140.088 249.761 140.15 250.103L139.917 252.851C139.669 254.342 139.436 255.149 139.219 255.274C138.939 255.429 138.039 254.948 136.517 253.83C134.995 252.681 134.234 251.889 134.234 251.454C134.234 251.019 134.576 250.289 135.259 249.265C135.942 248.302 136.424 247.789 136.703 247.727Z" fill="white"/>
<path d="M145.6 242.976C146.718 242.542 148.085 243.768 149.7 246.656C151.314 249.545 151.78 251.485 151.097 252.479C150.911 252.759 149.777 252.619 147.696 252.06L143.644 250.709L142.526 249.917C142.371 249.638 142.371 249.125 142.526 248.38C142.681 247.542 143.1 246.501 143.784 245.259C144.498 243.924 145.103 243.163 145.6 242.976Z" fill="#0D131A"/>
<path d="M146.159 244.327C147.246 244.948 148.209 246.159 149.047 247.96C149.761 249.544 150.056 250.569 149.932 251.035C149.839 251.314 148.876 251.143 147.044 250.522C145.243 249.901 144.234 249.467 144.016 249.218C143.799 248.939 143.985 247.991 144.575 246.377C145.165 244.731 145.693 244.047 146.159 244.327Z" fill="white"/>
<path d="M153.053 228.955C153.115 228.676 153.659 228.287 154.684 227.79C155.802 227.231 156.625 227.076 157.152 227.325C157.774 227.604 158.395 228.396 159.016 229.7C159.668 231.005 159.854 231.859 159.575 232.262L157.385 234.359C156.143 235.321 155.243 235.756 154.684 235.663C154.125 235.539 153.674 234.529 153.333 232.635C152.991 230.896 152.898 229.669 153.053 228.955Z" fill="#0D131A"/>
<path d="M156.594 228.163C156.904 228.225 157.293 228.722 157.758 229.654C158.193 230.586 158.333 231.191 158.178 231.471L156.64 233.194C155.74 234.064 155.165 234.498 154.917 234.498C154.7 234.498 154.498 233.753 154.311 232.263L154.125 229.654C154.156 229.405 154.498 229.079 155.15 228.676C155.833 228.272 156.314 228.101 156.594 228.163Z" fill="white"/>
<path d="M164.839 231.005C165.863 230.104 166.702 229.607 167.354 229.514C168.037 229.39 168.907 229.949 169.963 231.191C170.956 232.371 171.453 233.21 171.453 233.706C171.453 234.141 170.848 235.135 169.637 236.688C168.332 238.365 167.323 239.172 166.609 239.11C165.863 239.048 165.025 238.085 164.093 236.222C163.193 234.421 162.898 233.272 163.208 232.775C163.457 232.371 164 231.781 164.839 231.005Z" fill="#0D131A"/>
<path d="M167.494 230.492C167.867 230.616 168.379 231.02 169.031 231.703C169.808 232.48 170.149 233.07 170.056 233.473L168.426 236.175C167.401 237.51 166.764 238.163 166.516 238.132C166.205 238.132 165.739 237.402 165.118 235.942C164.466 234.483 164.233 233.52 164.42 233.054C164.606 232.557 165.103 231.983 165.91 231.331C166.718 230.647 167.246 230.368 167.494 230.492Z" fill="white"/>
<path d="M176.857 231.191C178.006 229.825 178.984 229.172 179.792 229.235C180.817 229.328 181.422 230.477 181.608 232.682C181.826 234.918 181.36 236.672 180.211 237.945C179.497 238.722 178.487 238.349 177.183 236.827C175.972 235.399 175.366 234.25 175.366 233.38C175.366 233.132 175.863 232.402 176.857 231.191Z" fill="#0D131A"/>
<path d="M178.115 231.517C178.922 230.71 179.45 230.415 179.698 230.632C179.947 230.85 180.195 231.315 180.444 232.03L180.77 233.8L180.351 235.29C180.071 236.191 179.792 236.765 179.512 237.014C179.233 237.262 178.689 236.797 177.882 235.616C177.168 234.561 176.764 233.8 176.671 233.334C176.95 232.837 177.431 232.231 178.115 231.517Z" fill="white"/>
<path d="M78.1026 54.5983L88.8631 60.7005L114.53 88.7429L77.6368 94.9383L63.01 89.3485C53.2899 85.5598 48.492 83.5257 48.6162 83.2462C48.7404 83.0289 50.6347 81.9575 54.2992 80.0321L63.4293 75.0012C61.0381 75.8086 57.7307 77.175 53.5073 79.1004L47.9174 81.5693C47.5758 81.5382 45.8057 80.2184 42.6071 77.6098C39.3774 74.9702 37.8712 73.5572 38.0886 73.3708L43.1661 70.6225C46.6442 68.6971 49.1131 67.0512 50.5726 65.6848C47.8709 66.4301 44.548 67.6568 40.6041 69.3648L35.3403 71.6007C34.9676 71.5697 33.477 70.4362 30.8684 68.2002C28.2598 65.9332 27.0487 64.691 27.235 64.4737C27.3903 64.2873 28.7256 63.6197 31.2411 62.4706L37.9955 59.303L29.4709 60.8868L23.6016 61.8185C23.0737 61.7874 22.2507 61.4148 21.1328 60.7005C20.0458 59.9552 19.4868 59.4428 19.4558 59.1633C19.4247 58.9459 20.4806 58.3093 22.6234 57.2534L27.8406 54.6914L21.6452 54.6448C19.0366 54.5206 17.8565 54.2256 18.1049 53.7598C18.3534 53.325 19.58 52.3157 21.7849 50.7319L25.1854 48.4028L27.6077 48.9152L25.9307 48.3563C25.0301 48.0147 24.704 47.7817 24.9525 47.6575L28.7256 46.3998C30.9305 45.7166 32.1416 45.3905 32.359 45.4216L39.2998 49.3345L37.0172 46.6793L35.2937 44.4434C35.0763 43.9465 36.9241 43.5583 40.837 43.2788L47.1721 43.5117L50.759 49.6606L50.1068 46.1669C49.8894 44.8937 49.8428 44.1949 49.9671 44.0707L52.2962 44.257C53.6626 44.5365 54.4855 44.7694 54.765 44.9558C54.9824 45.1421 55.883 46.6172 57.4668 49.3811L56.1625 46.0272C55.6656 44.785 55.4793 44.0707 55.6035 43.8844C55.7277 43.667 58.0102 44.4899 62.4511 46.3532C66.8298 48.2165 69.1123 49.3034 69.2986 49.614L71.0687 54.2722L70.6029 52.1294L70.37 50.7319C70.4632 50.6077 73.0407 51.8965 78.1026 54.5983Z" fill="#0D131A"/>
<path d="M112.248 87.9512L77.7769 93.7274L51.3648 83.1067C60.3086 78.2621 65.5879 75.2033 67.2027 73.93L69.1126 72.4394L66.7369 72.9052C65.1531 73.3089 61.8613 74.5045 56.8615 76.492C52.3275 78.3243 49.4084 79.5664 48.1041 80.2186L40.1851 73.6039L46.4271 70.1103C49.5947 68.1538 51.8928 66.4303 53.3213 64.9397L54.9051 63.4025C54.9361 63.2472 54.02 63.4646 52.1567 64.0546L42.9335 67.3154L35.5269 70.2034L29.3315 64.7999L35.6201 61.7721L42.0018 58.5579L43.7719 57.6729C44.5483 57.176 43.8341 57.1139 41.6292 57.4865L23.8348 60.6075L21.7386 59.2567L30.5892 54.5984L32.0333 54.0395C32.6544 53.6358 32.0643 53.4494 30.2631 53.4805L24.6267 53.6202L19.7356 53.5736C21.0088 52.2693 22.9342 50.934 25.5118 49.5676L33.85 51.7569L36.2257 52.6886C37.4368 53.0302 37.0486 52.5954 35.0611 51.3843C33.1047 50.1732 31.614 49.3347 30.5892 48.8689L28.2135 47.8906L32.2196 46.6795L41.6292 51.9433C41.8776 52.0054 41.8155 51.7104 41.4428 51.0582C40.1075 48.698 38.7411 46.664 37.3436 44.956L46.7998 44.6299C48.601 48.2012 50.1226 50.9495 51.3648 52.8749C52.048 53.8997 52.4517 54.2413 52.576 53.8997V53.1078C51.8307 49.1328 51.3804 46.5242 51.2251 45.282L54.1598 45.9808L60.5415 56.881C61.1315 57.5642 61.1315 56.8499 60.5415 54.7382L58.7714 49.1949L57.5137 45.9808L68.3673 50.4992L72.9323 62.4708L73.3982 60.5144L71.9075 52.4091C73.4913 53.0923 76.1154 54.4742 79.7799 56.5549C83.2891 58.5735 86.084 60.2659 88.1647 61.6323L112.248 87.9512Z" fill="#00A63C"/>
<path d="M84.7174 86.4605L80.6647 77.6099L98.5057 85.7151L140.709 101.46L140.15 102.159C136.827 106.258 133.334 110.295 129.669 114.27C122.433 122.127 117.185 126.723 113.924 128.058L113.691 128.151L113.459 128.058C110.167 126.847 102.946 126.288 91.7978 126.381H76.0065C75.727 125.947 75.2146 124.704 74.4693 122.655L72.2799 116.226L73.1184 126.474L73.0253 127.825C72.9321 128.105 72.6992 128.291 72.3265 128.384C60.0599 129.999 53.8334 130.589 53.6471 130.154C53.5229 129.875 53.4763 128.322 53.5074 125.496L53.6471 119.021C52.9328 120.76 52.467 123.307 52.2496 126.661L51.9701 131.552C51.7838 131.862 48.5541 132.903 42.2811 134.673C36.008 136.412 32.8094 137.188 32.6852 137.002C32.592 136.816 32.5299 135.527 32.4988 133.136L32.592 128.384L30.2629 134.999C29.4865 137.266 28.9897 138.462 28.7723 138.586L21.1794 140.17L13.9592 141.148L16.4746 136.257L20.3409 128.943C19.3161 129.627 15.9933 132.546 10.3724 137.701C5.18621 142.452 2.48445 144.797 2.26707 144.735C1.95652 144.641 1.92547 143.027 2.1739 139.89C2.39129 136.816 2.60867 135.123 2.82605 134.813C3.1366 134.378 6.45946 132.049 12.7946 127.825C11.6766 128.167 9.28544 129.068 5.62098 130.527C2.57762 131.738 1.00935 132.282 0.916188 132.157C0.791969 131.94 1.8323 129.844 4.03719 125.869C6.21102 121.863 7.49979 119.72 7.9035 119.441C8.18299 119.223 9.68915 118.664 12.422 117.764L19.9217 115.248L13.7263 115.807L10.2792 115.9C10.155 115.59 11.2264 113.82 13.4934 110.59C15.8846 107.143 17.6081 105.233 18.664 104.86C19.9683 104.332 25.2941 103.711 34.6416 102.997C33.8652 102.687 31.8622 102.112 28.6325 101.274C26.0239 100.621 24.7196 100.187 24.7196 99.9693C24.7196 99.6898 26.6761 98.0283 30.589 94.985C34.4708 91.9727 36.6291 90.4355 37.0639 90.3734L40.6973 90.8392L46.9859 92.0503L42.5606 90.2802C40.9768 89.6591 40.2936 89.3175 40.511 89.2554L46.8461 85.9015C50.8832 83.7276 53.0571 82.5941 53.3676 82.501C53.6782 82.3768 55.1843 82.796 57.8861 83.7587L65.6653 86.507L61.4263 84.3643C59.8425 83.5879 59.2525 83.091 59.6562 82.8736C60.1531 82.5941 62.7772 82.0196 67.5286 81.1501L75.2612 79.939C75.8512 80.0321 79.0033 82.206 84.7174 86.4605Z" fill="#0D131A"/>
<path d="M83.2734 80.2183L97.9934 86.9261L138.566 102.019C134.747 106.646 131.051 110.869 127.48 114.689C121.114 121.459 116.486 125.481 113.598 126.754C110.058 125.543 103.319 124.89 93.3817 124.797C87.6677 124.735 82.0157 124.828 76.4259 125.077L71.7211 110.403C71.2863 109.068 70.9447 108.416 70.6963 108.447C70.4168 108.447 70.3391 109.177 70.4634 110.636C71.1466 117.065 71.5347 122.561 71.6279 127.126L54.9049 128.71C55.3708 121.661 55.3708 117.034 54.9049 114.829C54.6255 113.369 53.818 115.279 52.4827 120.558C51.1784 125.651 50.5107 128.912 50.4796 130.341L33.7101 135.092L33.6635 133.275C33.6635 131.94 33.7722 130.372 33.9896 128.57C34.238 126.707 34.3622 125.03 34.3622 123.54C34.3933 121.397 34.3312 120.341 34.1759 120.372C34.0828 120.403 33.7256 121.35 33.1045 123.214L27.8408 137.421L16.3816 139.424L22.3441 127.685L23.6949 126.148C24.2229 125.372 23.5086 125.589 21.5522 126.8C19.3783 128.167 17.1735 129.797 14.9375 131.691L7.06514 138.772L3.57148 141.986C3.63359 140.464 3.8044 138.213 4.08389 135.232L16.9405 126.567L18.338 125.636C18.897 125.077 18.2604 124.999 16.4281 125.403C12.8258 126.179 8.44708 127.577 3.29199 129.595C4.59629 127.049 6.41299 124.036 8.7421 120.558C17.22 117.484 22.577 115.605 24.8129 114.922C26.552 114.394 27.437 114.037 27.4681 113.851L24.5334 113.664L12.655 114.456C13.8351 112.469 14.9841 110.714 16.1021 109.192C17.4685 107.36 18.4622 106.32 19.0833 106.071L28.1202 104.907L37.4832 104.115L39.5794 103.835C39.7037 103.742 39.067 103.416 37.6696 102.857C32.9803 100.901 29.5332 99.643 27.3283 99.084L33.0114 94.7519L37.5764 91.5843L43.9582 92.842L52.4361 94.3792L55.1844 94.5655C55.2776 94.4413 54.4857 93.9755 52.8088 93.1681L43.4923 89.1154L53.4609 83.8983L73.3514 90.2334C74.5936 90.4508 73.8638 89.8142 71.1621 88.3235L65.5257 85.0628L63.1965 83.5256L74.9818 81.2897L87.7919 90.1868L83.2734 80.2183Z" fill="#00A63C"/>
<path d="M87.7921 90.1868L83.2736 80.2183L97.9936 86.9261L138.567 102.019C134.747 106.646 131.051 110.869 127.48 114.689C121.114 121.459 116.487 125.481 113.599 126.754C111.363 125.977 107.838 125.434 103.024 125.123C103.366 119.037 102.59 114.099 100.695 110.31C98.3352 105.497 94.1117 102.158 88.025 100.295C88.025 97.6555 87.2021 94.9227 85.5562 92.0967C84.345 90.0781 82.4041 87.5782 79.7334 84.597L87.7921 90.1868Z" fill="#009233"/>
<path d="M247.801 63.5889C251.373 65.4211 253.189 66.4614 253.251 66.7099C253.314 66.8962 251.543 67.657 247.941 68.9924L239.417 72.1134L247.615 72.0668L251.714 72.4395C251.807 72.5947 250.534 73.9767 247.895 76.5853L243.469 80.6845L237.74 79.9392L228.516 78.4486L236.622 81.8025C239.727 83.0757 241.295 83.7745 241.326 83.8987L235.271 88.9295C231.172 92.0971 228.982 93.6498 228.703 93.5877L222.135 89.4419C217.57 86.616 214.169 84.8148 211.933 84.0384C220.132 89.5662 224.153 92.5319 223.998 92.9356C223.905 93.2151 221.684 94.302 217.337 96.1963C213.082 98.0286 210.769 98.9602 210.396 98.9913L203.269 94.3796C198.145 91.0568 194.325 88.9916 191.81 88.1842C193.611 89.7059 196.344 92.4232 200.008 96.3361C203.642 100.218 205.381 102.268 205.225 102.485C205.039 102.702 204.107 103.106 202.43 103.696L199.449 104.488L196.188 101.46C193.984 99.3794 192.322 98.0907 191.204 97.5938L195.164 102.159C197.058 104.302 197.974 105.435 197.912 105.559C197.788 105.808 196.39 106.802 193.72 108.541C190.956 110.342 189.45 111.18 189.201 111.056L185.428 107.423C182.819 104.969 180.677 103.386 179 102.671L183.285 108.215C185.645 111.04 186.763 112.5 186.639 112.593L168.752 118.323L135.725 107.236L148.582 76.0263L148.675 75.9331C150.383 74.2251 154.715 71.4302 161.671 67.5484C168.441 63.7907 171.981 62.0672 172.292 62.3777C172.509 62.5951 172.137 64.0858 171.174 66.8496L169.031 73.0916L172.338 65.6385C173.332 63.2783 173.953 62.0051 174.202 61.8188C174.667 61.5082 177.245 60.6853 181.934 59.3499C186.655 58.0146 189.03 57.4866 189.061 57.7661L187.245 61.679C185.785 64.4739 184.853 66.4304 184.45 67.5484L188.596 61.2132C190.117 58.9151 191.002 57.6885 191.251 57.5332C191.592 57.3158 193.316 56.9897 196.421 56.555L201.173 56.0892L197.539 64.4274L202.058 59.2567L205.039 56.0426L210.675 55.7165C214.154 55.5923 215.955 55.6078 216.079 55.7631C216.203 55.9184 215.986 56.8655 215.427 58.6046L213.796 62.8436C218.952 58.558 222.321 56.0271 223.905 55.2507L223.998 55.2041H224.138C225.473 55.2041 228.206 55.732 232.336 56.7879C236.311 57.7816 238.299 58.3872 238.299 58.6046L236.016 61.4927L232.196 65.8714L237.926 62.7504C240.224 61.5082 241.528 60.8716 241.839 60.8405C242.243 60.8095 244.23 61.7256 247.801 63.5889Z" fill="#0D131A"/>
<path d="M233.081 63.2623C231.28 65.4983 230.053 66.8802 229.401 67.4081C228.532 68.1224 228.097 68.5571 228.097 68.7124C228.128 68.9298 228.811 68.7901 230.146 68.2932C232.01 67.5479 235.907 65.4983 241.839 62.1443L250.41 66.5696L243.609 69.2714C239.851 70.731 237.398 71.6005 236.249 71.88L233.034 72.5787C232.507 72.734 232.941 72.8582 234.339 72.9514L249.105 73.4172L243.096 79.1002L235.503 78.1686L224.23 76.6314C221.995 76.3519 221.265 76.445 222.041 76.9109L223.904 77.7028C233.749 81.7399 238.764 83.8982 238.95 84.1777C239.075 84.364 237.444 85.6994 234.059 88.1837L228.749 91.7705C217.103 85.4354 210.442 82.1902 208.765 82.0349L206.576 81.8951C206.483 81.9883 207.104 82.392 208.439 83.1063L216.079 88.1371C219.712 90.6836 221.544 92.1121 221.575 92.4227C221.606 92.6401 219.991 93.4786 216.731 94.9381L210.489 97.6399C200.986 90.7457 194.123 87.0192 189.899 86.4602C187.167 86.1186 186.064 86.1186 186.592 86.4602L189.294 87.6713C190.132 88.1993 192.104 89.9849 195.21 93.0283C198.688 96.4443 201.328 99.3168 203.129 101.646C202.104 101.925 200.97 102.376 199.728 102.997C199.076 102.283 197.57 101.087 195.21 99.41C192.819 97.702 191.064 96.5685 189.946 96.0095C188.921 95.5126 188.424 95.3418 188.455 95.4971L189.34 96.8014L192.461 100.854L196.141 105.326L189.434 109.565L184.636 105.419C181.965 103.307 179.869 101.894 178.347 101.18C177.291 100.683 176.748 100.528 176.717 100.714L177.415 102.252C177.788 103.028 178.797 104.55 180.443 106.817L184.589 112.034L168.751 117.111L137.262 106.537L149.559 76.678C151.764 74.5352 158.705 70.5136 170.382 64.6132L168.518 71.4142L166.748 77.4699C166.251 78.8673 166.049 79.6903 166.143 79.9387C166.267 80.2182 166.826 79.4884 167.82 77.7493L172.105 69.318L175.18 62.517L186.685 59.2097C185.381 61.5698 183.797 65.6069 181.934 71.321C181.282 73.2154 180.987 74.2246 181.049 74.3489L182.959 71.7868C184.574 69.2093 187.57 64.8151 191.949 58.6041L199.821 57.4861C198.3 59.6289 196.809 62.7965 195.35 66.9889C194.884 68.3553 194.713 69.054 194.837 69.0851L196.328 67.5944L205.598 57.2066L214.961 56.9271L213.47 60.4208L211.374 64.8927L210.535 66.9889L212.259 65.638L218.035 60.9332C221.016 58.5109 223.097 56.9893 224.277 56.3682C225.923 56.4303 229.913 57.3774 236.249 59.2097L233.081 63.2623Z" fill="#00A63C"/>
<path d="M157.339 71.5073C160.91 77.0351 163.441 81.6777 164.931 85.4354C174.807 85.7459 182.493 87.6403 187.99 91.1184C189.791 92.2364 192.011 93.9599 194.651 96.289L201.685 102.158L199.728 102.997C199.076 102.283 197.57 101.087 195.21 99.41C192.819 97.702 191.064 96.5685 189.946 96.0095C188.921 95.5126 188.424 95.3418 188.455 95.4971L189.34 96.8014L192.461 100.854L196.141 105.326L189.434 109.565L184.636 105.419C181.965 103.307 179.869 101.894 178.347 101.18C177.291 100.683 176.748 100.528 176.717 100.714L177.415 102.252C177.788 103.028 178.797 104.55 180.443 106.817L184.589 112.034L168.751 117.111L137.262 106.537L149.559 76.6779C150.615 75.6842 153.208 73.9606 157.339 71.5073Z" fill="#009233"/>
<path d="M107.263 107.702L97.9468 107.515C92.6675 107.391 90.2297 107.158 90.6334 106.817L99.5772 99.9692L85.2299 95.4507L83.2734 94.6588L85.4162 94.2861L107.263 95.4507L127.154 107.376L114.018 111.289C105.322 113.804 101.114 114.844 101.394 114.41L104.329 111.102L107.263 107.702Z" fill="#0D131A"/>
<path d="M101.161 100.202L102.325 99.5036L101.161 98.7583C100.508 98.4478 98.4278 97.8732 94.9186 97.0348L89.9343 95.7305L98.3191 96.01L106.937 96.6155L124.172 106.957C112.775 110.404 106.813 111.972 106.285 111.662C106.036 111.506 106.486 110.699 107.636 109.239C108.816 107.718 109.344 106.848 109.219 106.631L101.533 106.072L93.8472 105.792C93.6919 105.699 94.7012 104.845 96.8751 103.23L101.161 100.202Z" fill="#00A63C"/>
<path d="M135.632 4.80187C137.371 4.11867 138.364 4.10314 138.613 4.75529C138.706 5.06584 138.566 5.74904 138.194 6.8049C137.541 8.91663 137.2 10.6557 137.169 12.0221L140.057 9.22717C141.237 8.1092 142.137 7.44153 142.759 7.22414L144.575 7.13098C144.948 7.37942 144.948 7.90735 144.575 8.71477C143.768 10.4538 143.318 12.7829 143.224 15.7021C143.1 19.9876 144.172 23.4968 146.439 26.2296L146.904 26.8352L146.252 27.2079C142.215 29.4438 138.085 31.4158 133.861 33.1238L128.691 34.9871L128.178 35.1268L118.07 16.6337L120.958 10.9041C123.07 6.86701 124.545 4.24289 125.383 3.03176C126.408 1.60324 127.231 0.904507 127.852 0.935561C128.473 0.997671 128.706 1.72746 128.551 3.12492C128.303 6.04406 128.256 8.01604 128.411 9.04084L131.486 6.99123C132.976 6.02854 134.358 5.29875 135.632 4.80187Z" fill="#0D131A"/>
<path d="M141.687 15.5626C141.687 19.8482 142.774 23.4816 144.948 26.4628C139.172 29.6615 133.799 32.0372 128.831 33.5899L119.561 16.6806C124.126 8.14056 126.424 4.27424 126.455 5.08167L126.408 7.87659C126.408 9.243 126.502 10.1436 126.688 10.5784L127.107 11.51L128.272 10.6249C129.017 9.97279 130.539 9.04114 132.837 7.83001C135.197 6.58782 136.346 6.15306 136.284 6.52571L135.771 9.50697L135.399 13.0472C135.399 14.8484 135.911 15.1589 136.936 13.9788C137.526 13.2956 138.644 12.2708 140.29 10.9044C141.936 9.53802 142.666 9.02562 142.479 9.36722C142.293 9.73988 142.122 10.5473 141.967 11.7895C141.78 13.1248 141.687 14.3826 141.687 15.5626Z" fill="#C94772"/>
<path d="M119.468 15.9353C120.182 15.6868 120.694 15.7955 121.005 16.2614L123.52 19.7084C125.073 22.4723 125.849 25.3604 125.849 28.3727C125.849 30.9192 125.321 33.388 124.266 35.7793C123.52 37.4873 122.651 40.5617 121.657 45.0025L118.816 58.7442C116.486 70.7313 114.654 79.1472 113.319 83.9917C111.114 92.0038 108.909 96.5844 106.704 97.7334L104.235 97.78L101.999 96.7552C96.5648 94.3019 92.7296 91.8796 90.4936 89.4884C86.7981 85.4202 84.5932 79.4422 83.879 71.5543C83.1647 63.5732 88.1645 52.2848 98.8784 37.6891C102.916 32.1614 107.015 27.2237 111.176 22.876C115.151 18.7457 117.915 16.4322 119.468 15.9353Z" fill="#0D131A"/>
<path d="M120.446 44.4428L117.558 58.5106C115.353 69.7524 113.614 77.8111 112.341 82.6867C110.136 90.9472 108.055 95.5744 106.099 96.5682C105.664 96.7855 105.229 96.7855 104.794 96.5682L102.512 95.5433C97.2946 93.2453 93.6302 90.9317 91.5185 88.6026C87.9782 84.7208 85.8665 78.9912 85.1833 71.4138L85.1367 70.1095C85.1367 63.7433 88.6459 55.1877 95.6643 44.4428C101.409 35.6854 107.512 28.1546 113.971 21.8505C115.648 20.2046 117.077 18.9624 118.257 18.1239L120.027 17.0991L120.073 17.1457L122.402 20.3133C123.862 22.8287 124.592 25.4839 124.592 28.2788C124.592 30.5769 124.079 32.906 123.055 35.2661C122.278 37.0052 121.409 40.0641 120.446 44.4428Z" fill="#0D131A"/>
<path d="M158.597 38.9471C172.416 58.5427 171.391 76.8184 155.522 93.7742C151.33 98.2772 146.066 101.476 139.731 103.37C134.514 104.954 129.188 105.528 123.753 105.094C118.909 104.69 113.925 103.479 108.801 101.46C104.484 99.7833 101.782 98.3393 100.695 97.1282C92.2485 93.5879 85.4785 88.5105 80.3856 81.8958C76.0379 76.2439 73.538 70.4521 72.8858 64.5207C71.83 55.1732 75.8981 45.6084 85.0903 35.8261C90.1833 30.3294 95.8663 25.6402 102.139 21.7583C105.214 19.864 107.589 17.7833 109.266 15.5163C110.726 13.4978 111.456 11.619 111.456 9.87991L111.363 7.3179C111.238 6.72786 110.959 6.13782 110.524 5.54778C110.027 4.86457 109.934 4.41428 110.245 4.1969C110.586 3.97951 111.285 4.11926 112.341 4.61614C113.894 5.33039 115.151 6.38625 116.114 7.78372L118.07 11.324L118.816 8.48245C119.251 7.24026 119.747 6.91418 120.306 7.50422C121.3 8.56009 122.387 12.5972 123.567 19.6156L124.266 16.4946C124.421 16.0598 125.027 16.6654 126.083 18.3113C127.977 21.3236 129.25 23.575 129.902 25.0657C130.741 22.5813 132.076 19.8795 133.908 16.9604C134.654 15.7803 135.259 15.1592 135.725 15.0971C136.16 15.066 136.346 15.5785 136.284 16.6343C136.222 18.2181 136.532 20.1435 137.216 22.4105C137.713 21.0751 138.551 19.5845 139.731 17.9386C140.849 16.3859 141.952 15.1282 143.038 14.1655C144.125 13.2028 145.15 12.6748 146.113 12.5817C147.076 12.4575 147.355 12.8301 146.951 13.6996L145.833 16.4014C145.492 17.5504 145.274 18.9324 145.181 20.5472C146.237 19.0876 147.138 18.0162 147.883 17.333C148.411 16.8362 149.296 16.1685 150.538 15.33C153.364 13.4046 154.358 13.4512 153.519 15.4698C151.594 19.8795 150.833 23.2334 151.237 25.5315C151.765 28.2954 154.218 32.7672 158.597 38.9471Z" fill="#0D131A"/>
<path d="M114.623 31.2608C108.381 37.037 104.142 41.0275 101.906 43.2324C92.6827 52.2693 88.1643 62.0205 88.3506 72.486C88.4438 77.9516 89.5617 82.7185 91.7045 86.7867C92.6672 88.5257 94.1889 90.5598 96.2696 92.8889C82.3881 83.7899 75.4008 73.7126 75.3076 62.6571V62.4708C75.3076 54.2724 79.1118 45.841 86.7202 37.1767C92.1238 31.0279 97.931 26.1212 104.142 22.4568C109.608 19.2271 112.682 15.5316 113.365 11.3703L113.458 8.15609C113.458 7.37973 113.583 7.13129 113.831 7.41078C115.042 8.77719 116.036 10.1281 116.812 11.4634C117.123 11.9603 117.464 12.8609 117.837 14.1652C118.054 14.9415 118.241 15.1124 118.396 14.6776L118.955 11.7895C119.203 10.5473 119.452 10.0504 119.7 10.2989C120.415 11.0131 121.238 13.4665 122.169 17.6588L122.309 19.1029C122.309 21.991 119.747 26.0436 114.623 31.2608Z" fill="#E85382"/>
<path d="M115.229 37.2695C107.9 45.0331 103.351 50.1727 101.58 52.6881C96.3632 60.0791 93.7546 67.5012 93.7546 74.9543C93.7546 79.4573 95.4315 85.5906 98.7855 93.3543C96.6116 91.7705 94.4378 88.401 92.264 83.246C91.0218 80.2958 90.4628 77.0971 90.587 73.6501C90.8044 68.3708 91.9534 63.3244 94.0341 58.5109C95.9595 54.039 98.5836 49.9708 101.906 46.3064C104.049 43.9773 108.055 40.0644 113.925 34.5677C118.955 29.4126 122.014 24.9252 123.101 21.1055C123.381 22.3166 123.257 23.8228 122.729 25.6239C121.673 29.1952 119.173 33.0771 115.229 37.2695Z" fill="#C94772"/>
<path d="M154.032 92.7494C150.057 96.9729 144.995 99.8454 138.846 101.367C134.188 102.547 129.064 102.904 123.474 102.438C118.257 102.004 113.21 100.979 108.335 99.3641C104.391 98.0287 102.155 96.9884 101.627 96.2431L101.766 96.2896L100.881 94.6593C97.4964 88.4173 95.804 82.2219 95.804 76.073C95.804 68.682 98.2417 61.2289 103.117 53.7136C105.85 49.4902 110.198 44.304 116.16 38.1552C117.775 36.4472 119.747 33.6833 122.076 29.8636C124.84 25.2364 125.943 22.1931 125.384 20.7335C125.912 21.2614 126.564 22.2086 127.34 23.575C128.21 25.0967 128.986 26.2457 129.669 27.0221C130.57 28.0469 131.113 28.404 131.299 28.0935L131.439 26.0904C131.47 25.252 131.89 24.0719 132.697 22.5502C133.38 21.1527 134.203 19.7863 135.166 18.451C135.445 21.1838 135.989 23.28 136.796 24.7396L137.588 25.7178L138.007 24.4135C138.473 23.2024 139.172 21.7738 140.104 20.1279C141.47 17.7988 142.728 16.1374 143.877 15.1437L145.088 14.3052C144.715 15.1747 144.42 16.3858 144.203 17.9386C143.954 19.3982 143.83 20.7801 143.83 22.0844C143.861 23.2334 143.985 23.7769 144.203 23.7148L144.948 22.5502C145.259 21.9291 146.206 20.9354 147.79 19.569C149.373 18.2025 150.088 17.7833 149.932 18.3112C149.342 20.6714 149.047 22.4415 149.047 23.6216C149.047 25.5159 149.606 27.6277 150.724 29.9568C151.873 32.2859 153.907 35.5 156.826 39.5992C159.373 43.1705 161.36 47.1145 162.789 51.4311C164.28 55.9651 165.025 60.5612 165.025 65.2194C165.025 70.126 164.171 74.8308 162.463 79.3338C160.6 84.2404 157.789 88.7123 154.032 92.7494Z" fill="#E85382"/>
<path d="M96.2698 92.8885C90.742 89.224 86.3168 85.4354 82.9939 81.5225C84.5777 82.0814 86.9844 82.7025 90.2141 83.3857C91.0526 85.6838 92.155 87.78 93.5215 89.6743L96.2698 92.8885Z" fill="#C94772"/>
<path d="M164 56.0425C164.683 59.179 165.025 62.2379 165.025 65.2191C165.025 70.1258 164.171 74.8306 162.463 79.3335C160.599 84.2402 157.789 88.7121 154.031 92.7492C150.056 96.9726 144.994 99.8452 138.846 101.367C134.187 102.547 129.063 102.904 123.474 102.438C118.256 102.003 113.21 100.979 108.334 99.3638C104.39 98.0285 102.154 96.9881 101.627 96.2428L101.766 96.2894L100.881 94.659C99.1111 91.3672 97.8223 88.1841 97.0149 85.1097C111.145 89.0226 124.778 88.417 137.914 83.293C151.92 77.7963 160.615 68.7128 164 56.0425Z" fill="#C94772"/>
<path d="M199.915 121.351C200.629 121.847 200.598 125.279 199.822 131.645C198.983 138.446 197.601 145.542 195.676 152.933C196.359 156.349 196.297 161.085 195.49 167.141C194.651 173.29 193.347 178.46 191.577 182.653C189.9 186.659 187.384 190.246 184.03 193.413C181.267 196.053 176.857 199.345 170.801 203.288C164.621 207.295 156.066 209.453 145.134 209.763C132.868 210.105 121.952 207.698 112.387 202.543C99.8101 195.773 92.2327 186.892 89.6552 175.898C88.1956 173.911 87.6677 171.846 88.0714 169.703C88.3819 168.15 89.1583 166.675 90.4005 165.278C89.9347 162.948 90.3229 159.424 91.565 154.703L93.5215 148.322L92.3569 146.225C91.5806 144.611 91.27 143.275 91.4253 142.219C90.7421 140.511 90.0434 136.94 89.3291 131.505C88.5527 125.636 88.4596 122.049 89.0496 120.745C90.416 119.72 94.3134 119.254 100.742 119.348L112.387 120.186C113.257 119.441 115.632 118.261 119.514 116.646C124.11 114.72 127.837 113.587 130.694 113.245C137.495 112.438 143.659 112.764 149.187 114.224C154.342 115.621 159.109 118.059 163.488 121.537C170.848 118.742 178.922 117.764 187.71 118.602C194.201 119.223 198.269 120.139 199.915 121.351Z" fill="#5DC1CF"/>
<path d="M119.514 116.645C124.11 114.72 127.837 113.586 130.694 113.245C141.594 111.972 150.91 113.633 158.643 118.229C154.295 120.962 150.103 124.269 146.066 128.151C143.426 130.667 139.808 134.533 135.212 139.75C125.585 127.639 115.384 123.54 104.608 127.452C104.484 125.403 103.769 123.586 102.465 122.002C101.161 120.419 99.6701 119.549 97.9932 119.394L106.704 119.627L112.387 120.186C113.257 119.44 115.632 118.26 119.514 116.645Z" fill="#50A8B4"/>
<path d="M92.0771 178.46C92.0771 178.212 93.2572 178.212 95.6174 178.46C98.0397 178.709 99.67 179.128 100.509 179.718L99.9495 182.792L99.0179 185.68C98.6142 186.767 98.1794 187.342 97.7136 187.404C96.9372 187.497 95.8348 186.457 94.4063 184.283C92.9777 182.016 92.2014 180.075 92.0771 178.46Z" fill="#0D131A"/>
<path d="M99.4837 180.23L98.6453 182.419C98.0242 184.252 97.5739 185.183 97.2944 185.214C97.077 185.214 96.7199 184.919 96.223 184.329L94.4529 181.86C93.5212 180.308 93.0554 179.19 93.0554 178.506V178.367L95.7106 178.646C97.1702 179.081 98.4279 179.609 99.4837 180.23Z" fill="white"/>
<path d="M199.915 121.351C200.629 121.847 200.598 125.279 199.822 131.645C198.983 138.446 197.601 145.542 195.676 152.933C196.359 156.349 196.297 161.085 195.49 167.141C194.651 173.29 193.347 178.46 191.577 182.653C189.807 186.845 186.686 191.146 182.214 195.556C177.804 199.904 174 202.481 170.801 203.288C174.497 201.363 177.757 198.397 180.583 194.391C183.596 190.168 185.738 185.323 187.012 179.858C190.055 166.846 187.772 153.399 180.164 139.518C178.083 135.667 177.043 133.446 177.043 132.856C177.043 132.515 177.913 131.738 179.652 130.527C184.186 127.329 188.828 124.829 193.58 123.028C197.368 121.568 199.48 121.009 199.915 121.351Z" fill="#50A8B4"/>
<path d="M172.804 190.059L171.22 191.829C170.63 192.481 170.118 192.73 169.683 192.575C169.342 192.45 168.907 191.985 168.379 191.177L165.491 186.379L166.05 185.634L176.344 184.795L172.804 190.059Z" fill="#0D131A"/>
<path d="M166.935 186.426C170.258 185.556 172.742 185.199 174.388 185.354C171.81 189.267 170.366 191.161 170.056 191.037L168.658 189.127L166.935 186.426Z" fill="white"/>
<path d="M201.312 119.766C202.151 120.388 202.229 124.176 201.545 131.133C200.707 139.207 198.968 146.8 196.328 153.911C198.005 160.805 197.788 168.041 195.676 175.618C193.564 183.227 190.102 189.127 185.288 193.32C188.58 187.14 190.956 182 192.415 177.901C194.092 173.15 195.008 168.585 195.164 164.206C195.226 161.908 195.024 159.284 194.558 156.333C194.154 153.88 193.782 152.25 193.44 151.442C193.192 150.821 193.145 150.417 193.3 150.231C193.456 150.045 193.735 150.122 194.139 150.464L195.397 151.768C197.415 144.005 198.766 137.048 199.449 130.9C200.039 125.745 200.055 122.717 199.496 121.816C197.664 120.698 193.704 119.844 187.617 119.254C178.953 118.416 170.988 119.378 163.721 122.142L163.348 122.235L163.069 122.049C158.69 118.571 153.845 116.288 148.535 115.201C143.504 114.177 137.635 114.146 130.927 115.108C126.766 115.729 122.294 117.204 117.511 119.534C114.251 121.117 111.409 122.794 108.987 124.564C107.558 125.589 106.72 126.008 106.471 125.822C106.223 125.698 106.456 125.232 107.17 124.425L109.592 122.096L111.083 120.791L100.09 119.953C94.2513 119.829 90.6645 120.201 89.3292 121.071C88.7702 121.599 88.6615 123.509 89.0031 126.8C89.4068 130.651 90.354 135.092 91.8446 140.123L92.3104 139.704C90.8508 131.039 90.1832 125.682 90.3074 123.633C90.3384 123.105 90.5869 122.779 91.0527 122.655C91.9533 122.624 93.4284 124.378 95.478 127.918C97.4655 131.365 98.5835 133.99 98.8319 135.791L99.3443 135.511L101.208 135.232C102.108 135.232 102.543 135.434 102.512 135.837C102.45 136.241 101.968 136.552 101.068 136.769C100.105 137.017 98.6456 137.701 96.6891 138.819C94.4532 140.092 92.8694 141.272 91.9378 142.359C91.3477 143.073 91.3011 144.579 91.798 146.877L92.7297 150.091C91.6427 152.421 90.9595 155.728 90.68 160.013C90.5248 162.125 90.4782 164.019 90.5403 165.696C88.7391 167.932 88.1957 170.324 88.9099 172.87C89.6242 175.417 91.2235 176.876 93.7079 177.249C95.6643 177.528 98.7232 178.491 102.885 180.137C108.164 182.186 112.356 184.391 115.462 186.752L115.601 186.845L115.648 186.938C116.673 188.77 118.272 190.509 120.446 192.155C122.713 193.863 124.561 194.639 125.989 194.484C127.666 194.329 131.284 192.994 136.843 190.478H136.889C145.492 188.211 156.019 186.348 168.472 184.888L175.832 183.957C176.888 183.863 177.928 183.475 178.953 182.792L180.956 181.208C181.515 180.773 181.903 180.665 182.121 180.882C182.369 181.1 182.291 181.519 181.888 182.14L180.397 183.863C179.621 184.485 178.441 185.012 176.857 185.447L174.528 185.773L170.242 186.239C155.957 187.916 145.274 189.686 138.194 191.549C132.014 194.717 128.023 196.394 126.222 196.58C124.514 196.767 122.371 195.773 119.794 193.599C117.496 191.705 115.772 189.748 114.623 187.73C111.642 185.525 107.714 183.537 102.838 181.767C99.2667 180.463 96.4407 179.656 94.36 179.345C92.9315 179.097 91.798 178.708 90.9595 178.18C93.9408 187.869 101.177 195.804 112.667 201.984C121.331 206.642 130.539 208.925 140.29 208.831C149.42 208.738 159.606 206.549 170.848 202.263C172.649 201.58 173.72 201.332 174.062 201.518C174.404 201.704 173.456 202.325 171.22 203.381C160.786 208.288 150.538 210.772 140.476 210.834C130.415 210.897 120.958 208.552 112.108 203.801C99.5306 197.031 91.9222 188.087 89.2826 176.969C87.4193 175.976 86.4876 174.19 86.4876 171.612C86.4566 169.128 87.2951 166.939 89.0031 165.044C88.9099 159.268 89.6863 154.33 91.3322 150.231C90.4937 148.896 90.0124 147.359 89.8881 145.62C89.7329 143.912 89.9813 142.592 90.6335 141.66C88.646 136.288 87.4814 131.179 87.1398 126.335C86.8603 122.142 87.1864 119.735 88.118 119.114C89.9502 117.965 94.0805 117.624 100.509 118.09L112.248 119.487C113.645 118.524 116.191 117.298 119.887 115.807C124.297 114.006 127.884 112.934 130.647 112.593C137.386 111.785 143.411 112.003 148.721 113.245C154.156 114.518 159.14 116.925 163.674 120.465C171.065 117.732 179.264 116.661 188.27 117.251C195.226 117.717 199.573 118.555 201.312 119.766Z" fill="#0D131A"/>
<path d="M91.2856 124.052V123.819C92.031 124.565 93.1489 126.443 94.6396 129.456C96.2233 132.623 97.186 135.077 97.5276 136.816C96.1923 137.219 94.7793 138.042 93.2887 139.285L92.0775 131.785C91.5496 127.996 91.2856 125.419 91.2856 124.052Z" fill="#431E37"/>
<path d="M96.5029 146.971C97.3414 147.281 97.9625 147.592 98.3662 147.902C100.757 149.765 103.583 153.787 106.844 159.967C109.732 165.557 111.766 170.37 112.946 174.407L113.552 176.83C113.583 177.42 113.443 177.699 113.133 177.668L112.387 177.156L112.155 176.69C109.95 177.249 106.58 176.348 102.046 173.988C98.3817 172.125 95.3384 170.153 92.9161 168.072C92.3571 167.886 92.0155 167.56 91.8913 167.094C91.8292 166.814 91.9068 166.566 92.1242 166.349L92.4969 166.116C91.8758 162.576 91.9845 158.989 92.823 155.355C93.6304 152.032 94.6707 149.905 95.9439 148.974L94.7328 147.716C94.5154 147.281 94.5154 146.971 94.7328 146.784L96.5029 146.971Z" fill="#0D131A"/>
<path d="M93.5217 162.948C93.5217 159.905 94.0031 156.908 94.9658 153.958C95.8042 151.412 96.5496 149.968 97.2017 149.626C98.6923 150.092 101.068 153.399 104.329 159.548C107.527 165.542 109.81 170.867 111.176 175.526C109.189 175.681 106.254 174.749 102.372 172.731C99.0805 170.992 96.2545 169.159 93.8944 167.234C93.6459 165.681 93.5217 164.253 93.5217 162.948Z" fill="white"/>
<path d="M101.58 153.911L102.419 153.865C104.344 156.908 106.301 160.604 108.288 164.951C110.276 169.33 111.673 172.994 112.48 175.945L112.62 176.41L108.335 175.945C105.105 175.386 102.59 174.454 100.788 173.15L100.649 173.103L100.555 172.917C99.1269 169.004 98.3971 165.743 98.3661 163.135C98.304 159.656 99.3754 156.582 101.58 153.911Z" fill="#0D131A"/>
<path d="M99.95 164.159C99.95 160.899 100.649 157.902 102.046 155.169C103.847 158.088 105.648 161.52 107.45 165.464C109.251 169.439 110.555 172.839 111.363 175.665C109.158 175.913 105.85 174.827 101.441 172.404C100.447 169.734 99.95 166.985 99.95 164.159Z" fill="#91308C"/>
<path d="M178.534 147.716C179.434 147.592 179.869 147.778 179.838 148.275C179.807 148.741 179.559 149.098 179.093 149.346L177.23 150.138C179.155 151.567 180.288 154.812 180.63 159.874C180.91 164.47 180.537 167.995 179.512 170.448C180.816 170.51 181.406 170.759 181.282 171.193L180.49 171.892L178.021 172.498L149.7 178.414L148.628 178.833C147.976 178.895 147.759 178.429 147.976 177.435C148.783 173.522 150.274 169.874 152.448 166.489C154.529 163.166 157.494 159.734 161.345 156.194C166.562 151.443 172.292 148.617 178.534 147.716Z" fill="#0D131A"/>
<path d="M162.043 158.849C164.59 156.52 167.152 154.564 169.73 152.98C172.09 151.551 174.077 150.666 175.692 150.325C176.624 151.443 177.353 153.508 177.881 156.52C178.378 159.222 178.627 162.063 178.627 165.045C178.627 167.715 178.425 169.656 178.021 170.867C174.729 171.333 166.562 173.103 153.519 176.178L150.165 176.97C150.476 174.454 151.671 171.613 153.752 168.445C155.833 165.247 158.596 162.048 162.043 158.849Z" fill="white"/>
<path d="M168.006 152.653L168.565 152.281L168.752 152.933C171.671 159.268 172.23 166.022 170.429 173.196L170.335 173.522L170.056 173.569L153.799 177.295L148.908 178.413V177.808C149.063 173.864 151.314 169.252 155.662 163.973C159.358 159.501 163.472 155.728 168.006 152.653Z" fill="#0D131A"/>
<path d="M168.006 153.865C169.404 159.144 170.102 163.616 170.102 167.28C170.102 169.237 169.901 171.038 169.497 172.684L153.566 176.364L149.979 177.202C150.321 173.507 152.494 169.252 156.5 164.439C159.917 160.34 163.752 156.815 168.006 153.865Z" fill="#91308C"/>
<path d="M197.912 124.192L197.213 124.891L196.841 125.124C197.648 126.304 197.508 129.921 196.421 135.977C195.49 141.101 194.682 144.564 193.999 146.365L193.254 147.995L192.741 147.203C192.431 146.427 191.08 144.735 188.689 142.126C185.956 139.207 183.487 137.002 181.282 135.511L180.257 136.21C179.854 136.49 179.59 136.49 179.466 136.21C179.341 135.9 179.559 135.418 180.118 134.766C180.956 133.772 183.254 131.847 187.012 128.99C191.173 125.791 193.937 124.052 195.303 123.773L197.959 123.493C198.176 123.586 198.16 123.819 197.912 124.192Z" fill="#0D131A"/>
<path d="M194.744 136.163C194.185 139.983 193.595 143.151 192.974 145.666C191.95 143.958 190.599 142.141 188.922 140.216C186.903 137.856 184.9 135.977 182.913 134.58C184.9 132.623 186.95 130.853 189.061 129.269C191.701 127.251 193.859 125.993 195.536 125.496L195.676 126.8C195.676 128.881 195.366 132.002 194.744 136.163Z" fill="#431E37"/>
<path d="M112.294 152.56C111.797 151.504 111.673 150.852 111.921 150.604C112.17 150.355 112.62 150.806 113.272 151.955C114.204 153.507 115.027 155.2 115.741 157.032C116.673 159.486 117.201 161.721 117.325 163.74C117.449 165.759 117.371 166.457 117.092 165.836L116.114 162.669L114.437 157.684L112.294 152.56Z" fill="#0D131A"/>
<path d="M154.078 149.16C154.73 148.694 155.134 148.57 155.289 148.787C155.445 149.036 155.274 149.377 154.777 149.812C153.442 151.023 152.184 152.949 151.004 155.588C149.731 158.445 148.737 161.737 148.023 165.464C147.805 166.706 147.557 167.42 147.277 167.607C146.998 167.824 146.889 167.187 146.951 165.697C147.324 157.685 149.7 152.172 154.078 149.16Z" fill="#0D131A"/>
<path d="M117.418 184.702L118.443 184.749C119.002 185.121 119.452 185.603 119.794 186.193L120.539 187.963C120.725 188.522 120.725 188.801 120.539 188.801L119.7 188.242L117.791 185.96C117.418 185.463 117.294 185.044 117.418 184.702Z" fill="#0D131A"/>
<path d="M128.877 189.36C129.157 188.397 130.259 187.481 132.184 186.612C132.743 186.332 133.116 186.379 133.302 186.752C133.52 187.124 133.38 187.481 132.883 187.823L129.716 189.873L128.598 190.338L128.877 189.36Z" fill="#0D131A"/>
<path d="M105.074 160.106L106.751 163.46L108.334 166.907C108.21 168.336 107.962 169.516 107.589 170.448C107.185 171.41 106.735 171.892 106.238 171.892C105.648 171.892 105.136 171.271 104.701 170.028C104.297 168.755 104.095 167.234 104.095 165.463C104.095 163.134 104.422 161.349 105.074 160.106Z" fill="#0D131A"/>
<path d="M159.342 169.33C159.093 170.945 158.628 172.296 157.944 173.383C157.292 174.438 156.625 174.904 155.941 174.78C155.289 174.687 154.808 174.035 154.497 172.824C154.218 171.581 154.202 170.153 154.451 168.538C154.699 166.923 155.165 165.588 155.848 164.532C156.5 163.445 157.168 162.964 157.851 163.088C158.534 163.212 159.016 163.88 159.295 165.091C159.575 166.302 159.59 167.715 159.342 169.33Z" fill="#0D131A"/>
<path d="M158.084 89.2555C162.649 87.0506 169.217 84.3799 177.789 81.2434C186.608 77.9826 193.207 75.8709 197.586 74.9082L198.844 75.0014C198.906 75.2498 198.549 75.4672 197.772 75.6535C193.828 76.6473 187.105 78.9919 177.602 82.6874C168.596 86.1966 161.594 89.1313 156.594 91.4914L158.084 89.2555Z" fill="#0D131A"/>
<path d="M216.778 73.4176C209.759 75.0635 199.713 78.2155 186.639 82.8737C171.795 88.153 160.351 92.8889 152.308 97.0813L152.821 95.4509C160.615 91.3517 171.593 86.8021 185.754 81.8023C199.232 77.082 209.511 74.0387 216.591 72.6722C217.368 72.548 217.787 72.5946 217.849 72.812C217.911 73.0604 217.554 73.2623 216.778 73.4176Z" fill="#0D131A"/>
<path d="M184.636 79.2874C185.102 76.213 185.863 73.3405 186.919 70.6698C187.074 70.2039 187.245 70.0021 187.431 70.0642C187.648 70.1263 187.679 70.3903 187.524 70.8561C186.81 73.061 186.189 75.7938 185.661 79.0545L184.636 79.2874Z" fill="#0D131A"/>
<path d="M171.546 84.2712C172.199 80.9173 172.882 78.0448 173.596 75.6536C173.751 75.1877 173.922 75.0014 174.108 75.0946C174.295 75.1877 174.326 75.4672 174.202 75.9331C173.643 78.0137 173.161 80.5913 172.758 83.6657L171.546 84.2712Z" fill="#0D131A"/>
<path d="M187.85 77.9828C188.068 76.3369 188.363 74.8774 188.735 73.6041C188.829 73.2315 188.984 73.0762 189.201 73.1383C189.388 73.2004 189.45 73.4178 189.388 73.7905L188.735 77.7499L187.85 77.9828Z" fill="#0D131A"/>
<path d="M196.188 79.1475L199.542 82.0821C199.822 82.3306 199.884 82.5324 199.728 82.6877L199.076 82.548L195.024 79.3804L196.188 79.1475Z" fill="#0D131A"/>
<path d="M171.873 87.8112L172.851 87.2988C173.938 88.0131 175.32 89.1155 176.997 90.6062L180.77 94.4259C181.049 94.7675 181.111 95.0159 180.956 95.1712C180.77 95.3265 180.537 95.2333 180.257 94.8917L176.112 91.1651L171.873 87.8112Z" fill="#0D131A"/>
<path d="M179.093 84.9697L180.164 84.5039C182.68 86.3982 184.9 88.51 186.825 90.8391C187.136 91.1807 187.198 91.4136 187.012 91.5378C186.825 91.662 186.577 91.5533 186.266 91.2117C184.03 88.9137 181.639 86.833 179.093 84.9697Z" fill="#0D131A"/>
<path d="M91.8912 91.3047L93.8476 92.5158C88.1957 93.727 81.1307 95.4194 72.6528 97.5933C62.6221 100.202 55.8211 102.205 52.2498 103.602L50.9921 103.649C50.8989 103.432 51.225 103.168 51.9703 102.857C55.9143 101.242 62.4979 99.115 71.7211 96.4753C79.9817 94.1462 86.705 92.4227 91.8912 91.3047Z" fill="#0D131A"/>
<path d="M35.4336 112.733L34.2224 112.826C34.1293 112.609 34.4398 112.345 35.1541 112.034C41.2408 109.332 49.7032 106.398 60.5413 103.23C71.2862 100.063 80.8977 97.6868 89.3756 96.103L91.9842 96.9881C83.6926 98.6029 73.5998 101.072 61.7059 104.395C50.0293 107.655 41.2718 110.435 35.4336 112.733Z" fill="#0D131A"/>
<path d="M61.706 92.6561C61.3023 92.3766 61.1625 92.1592 61.2868 92.0039L62.0787 92.1437C64.3767 93.6653 66.6437 95.5752 68.8796 97.8733L67.9014 98.2925C65.6965 95.9944 63.6314 94.1156 61.706 92.6561Z" fill="#0D131A"/>
<path d="M72.3268 96.6616L71.4417 96.9877L68.6468 94.1462C68.2741 93.8046 68.1499 93.5562 68.2741 93.4009C68.3983 93.2456 68.6623 93.3232 69.066 93.6338L72.3268 96.6616Z" fill="#0D131A"/>
<path d="M43.3527 109.332L44.2378 109.006C43.9893 110.404 43.834 111.817 43.7719 113.245C43.7409 113.711 43.6167 113.96 43.3993 113.991C43.213 113.991 43.1043 113.758 43.0732 113.292C43.0422 112.267 43.1353 110.947 43.3527 109.332Z" fill="#0D131A"/>
<path d="M64.2212 102.904C64.128 104.519 64.0814 106.351 64.0814 108.4C64.1125 110.885 64.2056 112.655 64.3609 113.711C64.423 114.146 64.3454 114.379 64.128 114.41C63.9106 114.472 63.7553 114.285 63.6622 113.851C63.4137 112.515 63.2274 110.73 63.1032 108.494C63.01 106.196 63.0411 104.41 63.1963 103.137L64.2212 102.904Z" fill="#0D131A"/>
<path d="M60.029 104.068C59.5943 107.329 59.439 110.466 59.5632 113.478C59.5943 113.944 59.5011 114.208 59.2837 114.27C59.0974 114.301 58.9732 114.099 58.9111 113.664C58.5695 110.745 58.585 107.671 58.9577 104.441L60.029 104.068Z" fill="#0D131A"/>
<path d="M129.856 126.288C131.719 124.487 137.262 124.627 146.485 126.708C155.771 128.788 160.507 131.102 160.693 133.648C160.848 135.915 157.805 139.921 151.563 145.666C145.29 151.443 140.911 154.16 138.427 153.818C136.035 153.477 133.598 149.191 131.113 140.962C128.66 132.763 128.241 127.872 129.856 126.288Z" fill="#008982"/>
<path d="M129.39 133.462C128.8 129.58 128.955 127.189 129.855 126.288C130.756 125.418 132.976 125.077 136.517 125.263C139.809 125.418 143.426 125.977 147.37 126.94C144.513 129.58 140.461 133.85 135.212 139.75C133.039 137.111 131.098 135.014 129.39 133.462Z" fill="#00736D"/>
<path d="M128.877 152.7C129.592 153.973 129.499 156.458 128.598 160.153C127.728 163.725 126.874 165.541 126.036 165.603C125.415 165.666 124.312 164.253 122.729 161.364C121.114 158.383 120.462 156.365 120.772 155.309C121.083 154.253 122.449 153.43 124.871 152.84L128.877 152.7Z" fill="#008982"/>
<path d="M75.0285 168.678L70.8361 168.538C70.3082 168.228 69.5008 167.234 68.4138 165.557C67.2648 163.725 66.7369 162.467 66.8301 161.784C66.9232 160.945 67.4977 159.424 68.5536 157.219C69.6405 154.859 70.5877 153.244 71.3951 152.374C72.2646 151.474 74.1124 150.837 76.9384 150.465C79.7022 150.092 81.2084 150.216 81.4568 150.837C81.8916 151.893 81.8916 154.672 81.4568 159.175C81.0531 163.834 80.4786 166.52 79.7333 167.234C79.019 167.948 77.4508 168.43 75.0285 168.678Z" fill="#008982"/>
<path d="M67.2491 145.899C67.1559 146.551 66.4417 147.297 65.1063 148.135C63.8331 148.912 62.948 149.269 62.4511 149.207C61.9232 149.113 61.1779 148.182 60.2152 146.412C59.2214 144.548 58.973 143.399 59.4699 142.965C60.0599 142.437 61.5195 142.592 63.8486 143.43C66.2398 144.3 67.3733 145.123 67.2491 145.899Z" fill="#008982"/>
<path d="M37.0176 184.888L37.0642 180.23L36.3188 173.476C36.0394 170.712 35.8841 168.29 35.853 166.209C38.3685 165.495 39.9988 165.184 40.7441 165.277C41.241 165.339 42.3745 166.939 44.1446 170.075C45.9148 173.243 46.7998 175.324 46.7998 176.317C46.7998 177.342 46.1321 179.112 44.7968 181.628C43.4614 184.112 42.4832 185.478 41.8621 185.727C41.1168 186.069 39.502 185.789 37.0176 184.888Z" fill="#008982"/>
<path d="M121.517 212.884C122.139 212.76 124.343 214.251 128.132 217.356C131.921 220.43 133.924 222.371 134.141 223.179C134.359 223.986 134.033 225.585 133.163 227.977C132.325 230.368 131.657 231.688 131.16 231.936C130.694 232.123 129.53 232.123 127.666 231.936L124.266 231.284C123.8 231.036 122.993 230.104 121.844 228.489C120.695 226.843 120.011 225.648 119.794 224.902C119.545 224.095 119.654 221.937 120.12 218.427C120.555 214.825 121.021 212.977 121.517 212.884Z" fill="#008982"/>
<path d="M119.002 234.358C119.53 234.172 120.756 234.514 122.682 235.383C124.638 236.253 125.679 236.998 125.803 237.619C125.927 238.24 125.43 239.25 124.312 240.647C123.256 242.013 122.48 242.759 121.983 242.883L119.794 242.603C118.8 242.293 118.21 241.905 118.024 241.439C117.744 240.694 117.744 239.358 118.024 237.433C118.303 235.507 118.629 234.483 119.002 234.358Z" fill="#008982"/>
<path d="M179.559 219.452C179.279 220.011 177.913 220.446 175.46 220.756C173.006 221.067 171.702 220.927 171.547 220.337C171.391 219.716 171.935 218.474 173.177 216.61C174.419 214.747 175.335 213.831 175.925 213.862C176.515 213.924 177.338 214.747 178.394 216.331C179.419 217.946 179.807 218.986 179.559 219.452Z" fill="#008982"/>
<path d="M187.804 216.797L187.664 217.17L183.937 217.03C183.378 216.471 183.021 214.887 182.866 212.279C182.711 209.856 182.773 208.164 183.052 207.201L183.145 206.829C186.189 206.332 188.813 206.378 191.018 206.968C190.117 210.415 189.046 213.692 187.804 216.797Z" fill="#008982"/>
<path d="M192.601 200.447L191.018 206.968C188.813 206.378 186.189 206.332 183.145 206.828C183.518 205.773 184.108 204.561 184.915 203.195C185.816 201.673 186.499 200.819 186.965 200.633L189.387 200.354L192.601 200.447Z" fill="#00736D"/>
<path d="M146.159 127.732C136.967 125.745 131.781 125.543 130.601 127.127C129.483 128.679 129.995 133.182 132.138 140.635C134.281 148.182 136.377 152.25 138.427 152.84C140.538 153.492 144.606 150.821 150.631 144.828C156.345 139.176 159.326 135.527 159.575 133.881C159.885 131.769 155.414 129.72 146.159 127.732ZM161.718 134.067C161.438 136.303 158.193 140.434 151.982 146.458C145.429 152.824 140.771 155.588 138.007 154.75C134.995 153.88 132.324 149.207 129.995 140.729C127.728 132.468 127.371 127.375 128.924 125.45C129.762 124.425 131.998 123.959 135.632 124.052C139.017 124.145 142.79 124.673 146.951 125.636C157.23 128.058 162.152 130.869 161.718 134.067Z" fill="#0D131A"/>
<path d="M121.471 155.355C121.315 156.101 121.905 157.84 123.241 160.572C124.576 163.305 125.477 164.61 125.942 164.485C126.532 164.33 127.169 162.56 127.852 159.175C128.536 155.79 128.613 153.834 128.085 153.306C127.65 152.871 126.455 152.964 124.498 153.585C122.573 154.237 121.564 154.827 121.471 155.355ZM129.296 151.908C130.352 152.871 130.461 155.417 129.622 159.548C128.784 163.647 127.697 165.929 126.362 166.395C125.182 166.83 123.66 165.308 121.797 161.83C119.995 158.476 119.219 156.194 119.468 154.983C119.685 153.958 121.16 152.995 123.893 152.095L129.296 151.908Z" fill="#0D131A"/>
<path d="M64.9668 147.529C66.1468 146.815 66.6592 146.287 66.504 145.946C66.2866 145.387 65.2773 144.766 63.4761 144.082C61.675 143.43 60.5415 143.228 60.0756 143.477C59.703 143.663 59.9048 144.502 60.6812 145.992C61.4576 147.452 62.0787 148.259 62.5445 148.415C63.0103 148.539 63.8177 148.244 64.9668 147.529ZM62.2184 149.952C61.411 149.703 60.4949 148.554 59.4701 146.505C58.4453 144.362 58.2434 142.964 58.8645 142.312C59.5167 141.598 61.1781 141.738 63.8488 142.732C66.5195 143.725 67.9014 144.735 67.9946 145.759C68.0878 146.567 67.3424 147.529 65.7586 148.647C64.1749 149.765 62.9948 150.2 62.2184 149.952Z" fill="#0D131A"/>
<path d="M67.9948 156.52C69.5475 153.383 70.5413 151.675 70.976 151.396C72.0008 150.743 73.8331 150.184 76.4727 149.719C79.2987 149.191 81.0688 149.222 81.7831 149.812C82.5905 150.464 82.7768 153.352 82.3421 158.476C81.9383 163.445 81.3638 166.473 80.6185 167.56C80.0285 168.429 78.4292 169.035 75.8206 169.376C73.5846 169.656 71.9387 169.671 70.8829 169.423C70.1686 169.268 69.1748 168.212 67.9016 166.255C66.6284 164.33 65.9296 162.87 65.8054 161.877C65.7433 161.411 66.4731 159.625 67.9948 156.52ZM69.4388 157.172C68.1966 159.843 67.5911 161.364 67.6221 161.737C67.6532 162.482 68.1345 163.631 69.0662 165.184C70.0289 166.768 70.8052 167.668 71.3953 167.886C72.0164 168.103 73.3672 168.088 75.4479 167.839C77.6528 167.56 78.9416 167.14 79.3142 166.581C79.9043 165.712 80.3856 163.041 80.7583 158.569C81.0999 154.097 81.0533 151.691 80.6185 151.349L76.8919 151.209C74.7802 151.52 73.0722 152.063 71.7679 152.84C71.4574 153.057 70.681 154.501 69.4388 157.172Z" fill="#0D131A"/>
<path d="M38.2284 166.442C37.1104 166.69 36.1632 167.001 35.3869 167.373L35.2937 165.51C36.1322 165.169 37.1725 164.858 38.4147 164.579L41.1165 164.252C41.9549 164.439 43.3058 166.364 45.1691 170.029C47.0013 173.569 47.8709 175.743 47.7777 176.55C47.6535 177.699 46.9392 179.562 45.6349 182.14C44.1443 185.028 42.9021 186.534 41.9084 186.658L38.8805 186.332C37.6073 186.022 36.6601 185.68 36.039 185.308V183.305C36.598 183.77 37.4365 184.174 38.5544 184.516L41.3028 184.888C41.9239 184.795 42.8245 183.568 44.0045 181.208C45.1225 178.91 45.6815 177.373 45.6815 176.597C45.6815 175.758 44.9517 173.864 43.4921 170.914C42.0015 167.963 40.9922 166.395 40.4643 166.209L38.2284 166.442Z" fill="#0D131A"/>
<path d="M121.797 213.863C121.331 214.049 120.989 215.539 120.772 218.334C120.586 220.601 120.524 222.775 120.586 224.856C120.617 225.229 121.191 226.191 122.309 227.744C123.427 229.235 124.157 230.089 124.499 230.306L127.713 231.051C129.545 231.3 130.616 231.315 130.927 231.098C131.393 230.756 131.967 229.545 132.65 227.464C133.334 225.291 133.52 223.893 133.209 223.272C132.713 222.278 130.818 220.415 127.526 217.682C124.204 214.918 122.294 213.645 121.797 213.863ZM119.281 217.962C119.654 214.39 120.229 212.45 121.005 212.139C121.968 211.766 124.374 213.133 128.225 216.238C131.89 219.219 134.048 221.347 134.7 222.62C135.166 223.583 134.98 225.322 134.141 227.837C133.396 230.104 132.682 231.579 131.998 232.262C131.533 232.759 130.197 232.915 127.992 232.728C126.005 232.573 124.592 232.309 123.753 231.936C123.319 231.781 122.418 230.694 121.052 228.676C119.685 226.657 118.986 225.384 118.955 224.856C118.862 223.024 118.971 220.726 119.281 217.962Z" fill="#0D131A"/>
<path d="M124.033 239.716C124.654 238.629 124.902 237.961 124.778 237.713C124.561 237.309 123.722 236.765 122.262 236.082C120.772 235.399 119.794 235.073 119.328 235.104C119.079 235.104 118.862 235.849 118.676 237.34C118.458 238.893 118.474 240.088 118.722 240.927C118.815 241.237 119.312 241.548 120.213 241.858L122.03 242.091C122.682 241.688 123.349 240.896 124.033 239.716ZM126.548 237.34C126.517 238.241 126.02 239.405 125.057 240.834C124.157 242.169 123.38 243.038 122.728 243.442L119.747 243.256C118.256 242.79 117.449 242.278 117.325 241.719C117.014 240.663 116.999 239.079 117.278 236.967C117.527 234.731 117.961 233.52 118.582 233.334C119.328 233.085 120.849 233.52 123.148 234.638C125.446 235.756 126.579 236.657 126.548 237.34Z" fill="#0D131A"/>
<path d="M175.925 214.608C175.615 214.608 174.9 215.431 173.782 217.076C172.664 218.753 172.199 219.716 172.385 219.965L175.599 219.871C177.556 219.53 178.596 219.173 178.72 218.8C178.844 218.521 178.487 217.76 177.649 216.517C176.81 215.275 176.236 214.639 175.925 214.608ZM176.065 213.07C176.81 213.195 177.804 214.188 179.046 216.052C180.257 217.915 180.739 219.126 180.49 219.685C180.149 220.461 178.58 221.067 175.785 221.502C172.959 221.937 171.251 221.828 170.661 221.176C170.164 220.617 170.739 219.095 172.385 216.611C174.031 214.126 175.257 212.946 176.065 213.07Z" fill="#0D131A"/>
<path d="M190.506 199.468L194.186 199.888L193.627 201.798L190.552 201.332C189.093 201.239 188.006 201.239 187.291 201.332C186.888 201.363 186.22 202.263 185.288 204.033C184.419 205.741 183.891 207.03 183.705 207.9C183.456 209.08 183.41 210.71 183.565 212.791C183.751 214.934 184.031 216.114 184.403 216.331L185.894 216.564L189.341 215.912L188.456 217.915C185.94 218.536 184.217 218.536 183.285 217.915C182.571 217.449 182.121 215.71 181.934 212.698C181.748 210.213 181.748 208.505 181.934 207.574C182.059 206.797 182.649 205.384 183.705 203.335C184.916 200.881 185.925 199.608 186.732 199.515C187.54 199.422 188.798 199.406 190.506 199.468Z" fill="#0D131A"/>
<path d="M176.671 102.252L177.742 103.976L179 106.118C179.528 107.112 179.699 107.671 179.512 107.795L178.068 107.842L176.112 107.609L178.022 108.308C178.612 108.525 179 108.758 179.186 109.006C179.528 109.441 179.699 110.885 179.699 113.339C179.73 115.823 179.435 116.91 178.813 116.599L172.991 114.41L167.028 112.36C170.351 114.596 173.068 116.599 175.18 118.369L176.624 119.627C177.059 120.093 177.168 120.512 176.95 120.885C172.571 128.928 170.165 132.965 169.73 132.996C169.482 132.996 168.534 132.049 166.888 130.155L163.069 125.59L165.91 135.512C166.221 136.909 166.034 138.12 165.351 139.145C164.948 139.766 163.224 141.35 160.181 143.896C157.137 146.443 155.554 147.639 155.429 147.483L155.01 142.918L154.637 136.536L152.821 140.216C152.106 141.676 151.594 142.437 151.283 142.499C150.88 142.592 148.675 141.66 144.669 139.704C140.663 137.748 138.691 136.567 138.753 136.164C138.815 135.822 139.871 134.223 141.92 131.366L145.554 126.382C145.026 126.941 143.846 128.385 142.014 130.714L139.498 133.648L135.446 131.319L131.626 128.711C131.626 128.431 132.713 127.111 134.887 124.751C137.185 122.236 139.219 120.202 140.989 118.649C139.716 119.239 137.744 120.792 135.073 123.307L131.113 126.801C130.741 126.832 128.94 125.481 125.71 122.748C122.511 120.046 120.896 118.494 120.865 118.09C120.834 117.717 121.906 116.258 124.08 113.711C126.16 111.227 128.148 109.053 130.042 107.19C128.769 107.904 126.129 110.202 122.123 114.084C118.397 117.717 116.409 119.534 116.161 119.534C115.726 119.534 114.856 118.4 113.552 116.133C112.279 113.898 111.673 112.531 111.735 112.034C111.797 111.537 112.589 110.311 114.111 108.354C116.067 105.808 118.272 103.634 120.726 101.833C128.303 96.2119 136.315 95.3113 144.762 99.131L145.6 98.805C156.935 93.743 167.246 94.861 176.531 102.159L176.671 102.252Z" fill="#0D131A"/>
<path d="M172.105 113.245L163.674 110.31C161.717 109.782 160.739 109.612 160.739 109.798C160.739 109.953 161.609 110.481 163.348 111.382C164.994 112.251 167.183 113.711 169.916 115.76L175.739 120.652L172.338 126.707C170.723 129.564 169.792 131.008 169.543 131.039C169.202 131.039 166.795 128.369 162.323 123.027L161.019 121.723L161.345 123.586L163.348 131.039C164.528 135.139 165.071 137.297 164.978 137.514L161.345 140.868L156.407 145.061L156.314 138.539C156.283 135.061 156.174 133.167 155.988 132.856C155.677 132.359 153.969 135.045 150.864 140.915C145.802 137.902 142.479 136.07 140.895 135.418L145.041 129.642L149.14 123.912L150.445 122.235C150.6 121.801 149.948 121.971 148.488 122.748C146.128 123.99 143.038 127.111 139.218 132.111L133.396 128.431L138.473 122.887C141.175 120.093 142.991 118.447 143.923 117.95L145.786 116.925L143.737 116.878C140.321 117.096 136.082 119.875 131.02 125.217L122.449 117.95C123.536 116.49 125.166 114.503 127.34 111.987C130.011 108.882 131.75 107.05 132.557 106.491L134.094 105.373L132.371 105.466C129.421 105.932 126.237 107.702 122.821 110.776C120.989 112.453 118.815 114.736 116.3 117.624L112.899 112.313C115.601 107.655 119.126 103.991 123.474 101.32C130.243 97.1276 137.557 96.7239 145.414 100.109L146.019 99.8759C150.243 98.199 154.125 97.2673 157.665 97.081C164.248 96.7705 170.273 98.7424 175.739 102.997L177.462 106.537L176.158 106.397L173.083 106.304L170.708 106.584C170.801 106.739 171.5 107.019 172.804 107.422C174.295 107.888 176.127 108.711 178.301 109.891L178.487 112.453C178.549 114.037 178.503 115.031 178.347 115.434L172.105 113.245Z" fill="#00A63C"/>
<path d="M74.3762 65.2659L74.4693 66.4305C67.9168 63.7287 62.6685 61.8344 58.7246 60.7475C57.9482 60.5301 57.6066 60.2972 57.6998 60.0487L58.9575 59.9556C63.1809 61.1356 68.3205 62.9058 74.3762 65.2659Z" fill="#0D131A"/>
<path d="M74.9821 68.7591L75.215 70.0634C64.7806 64.9704 55.4642 61.2283 47.2657 58.8371C46.5204 58.6197 46.1943 58.3868 46.2875 58.1384L47.4986 58.0918C55.7281 60.4209 64.8893 63.9767 74.9821 68.7591Z" fill="#0D131A"/>
<path d="M69.1592 63.7287L68.1343 63.4492C67.8238 60.2196 67.358 57.4712 66.7369 55.2042C66.6127 54.7384 66.6437 54.4744 66.83 54.4123C67.0164 54.3502 67.1872 54.5521 67.3425 55.0179C68.212 57.7197 68.8176 60.6233 69.1592 63.7287Z" fill="#0D131A"/>
<path d="M66.2242 62.657L65.2925 62.3775C65.2925 60.7627 65.1217 59.2255 64.7801 57.7659C64.718 57.3933 64.7801 57.1759 64.9665 57.1138L65.4323 57.5796C65.9602 58.946 66.2242 60.6385 66.2242 62.657Z" fill="#0D131A"/>
<path d="M65.8981 65.2651L66.8764 65.6844L63.1498 68.9451L59.004 71.74C58.6003 71.9264 58.3518 71.9264 58.2587 71.74C58.1345 71.5537 58.2742 71.3519 58.6779 71.1345C60.1064 70.296 62.5132 68.3396 65.8981 65.2651Z" fill="#0D131A"/>
<path d="M153.799 112.127C152.184 106.413 149.389 102.407 145.414 100.109L146.532 99.3169C150.693 101.832 153.55 106.133 155.103 112.22C156.532 117.779 156.64 123.741 155.429 130.108C155.243 131.008 155.025 131.427 154.777 131.365C154.529 131.303 154.467 130.822 154.591 129.921C155.584 123.4 155.321 117.468 153.799 112.127Z" fill="#0D131A"/>
<path d="M157.106 122.562C157.913 111.599 154.87 103.541 147.976 98.3855L149.28 97.9663C156.392 103.246 159.264 111.491 157.898 122.701C157.774 123.633 157.603 124.083 157.385 124.052C157.137 123.99 157.044 123.493 157.106 122.562Z" fill="#0D131A"/>
<path d="M151.609 105.792L152.681 107.189C150.321 107.065 148.069 107.407 145.926 108.214C143.846 109.022 141.687 110.342 139.451 112.174C138.861 112.64 138.489 112.795 138.333 112.64C138.147 112.515 138.318 112.189 138.846 111.661C142.666 107.811 146.92 105.854 151.609 105.792Z" fill="#0D131A"/>
</svg>
