<svg width="269" height="264" viewBox="0 0 269 264" fill="none" xmlns="http://www.w3.org/2000/svg">
<g clip-path="url(#clip0_1_38130)" filter="url(#filter0_d_1_38130)">
<path d="M81.9709 102.724L82.4328 102.404L81.8288 103.684C81.6393 104.064 81.2129 104.514 80.5497 105.036L79.5548 105.926L79.5903 104.929C79.6377 104.455 80.4313 103.72 81.9709 102.724ZM61.0075 91.9452C60.7232 90.8543 60.1666 89.5144 59.3375 87.9254L58.1294 85.7554C57.8452 85.3286 57.4543 85.1863 56.9569 85.3286C56.4831 85.4946 56.27 85.8385 56.3173 86.3602L56.6726 91.2693C56.8858 94.7318 56.9332 97.0796 56.8148 98.3128C56.7437 98.9057 56.5897 99.3563 56.3529 99.6646L55.3224 100.447L53.8301 101.337C53.1432 101.811 52.6339 102.321 52.3023 102.866C51.4495 104.218 50.881 106.305 50.5968 109.127C50.3125 111.736 50.3717 113.681 50.7744 114.961C50.9166 115.412 50.9403 115.803 50.8455 116.135C50.7744 116.443 50.5613 116.799 50.2059 117.202L49.3887 117.665L48.6781 118.198L48.3938 119.443C48.4175 119.752 48.5833 120.084 48.8913 120.439L49.673 121.507C49.9572 122.028 50.0994 122.503 50.0994 122.93L49.8862 124.388C49.7914 125.171 49.8269 125.787 49.9927 126.238C50.2059 126.902 50.6442 127.246 51.3074 127.27C52.0654 127.198 52.5865 127.198 52.8708 127.27C53.4393 127.436 53.8775 127.649 54.1855 127.91C54.6355 128.384 54.9316 129.013 55.0737 129.795C55.2396 130.554 55.2159 131.171 55.0027 131.645L54.3276 131.859L53.5104 132.072L52.4089 132.321C51.9825 132.534 51.7338 132.89 51.6627 133.388L52.1957 134.135L53.1906 135.345L54.5052 136.732C55.0737 137.372 55.204 137.823 54.8961 138.084C54.6829 138.25 54.2802 137.906 53.688 137.052C52.8353 135.819 52.1602 134.965 51.6627 134.491C50.1941 133.068 48.6426 132.084 47.0081 131.538C45.0421 130.779 44.059 130.483 44.059 130.649L44.592 131.361L45.1605 132.036C43.5971 131.278 41.4179 130.376 38.6227 129.333L36.9528 129.048C36.1 128.93 35.6618 128.93 35.6381 129.048C35.5907 129.262 35.9105 129.617 36.5975 130.115L37.9476 131.04L47.0792 138.191C48.0267 138.949 48.9623 140.052 49.8862 141.499C50.6678 142.661 51.189 143.645 51.4495 144.452C51.6154 144.997 51.9114 145.412 52.3378 145.697L53.6169 146.444L54.292 146.942L54.2565 147.155C54.0907 147.867 54.1144 148.803 54.3276 149.965L55.0737 150.748L55.891 151.424C50.3244 160.554 46.712 169.614 45.0539 178.602C42.543 192.072 44.8052 204.001 51.8404 214.389C60.7706 227.551 71.5366 235.804 84.1384 239.148C89.5154 240.571 95.6742 241.258 102.615 241.211L122.796 239.753C134.261 238.448 144.921 234.12 154.775 226.768C157.901 224.42 160.779 221.883 163.409 219.156L166.713 215.456L166.109 212.503L108.406 196.958L107.411 201.155L105.777 199.661C105.658 199.258 105.658 198.867 105.777 198.487C105.895 198.155 106.049 197.906 106.239 197.74L98.1377 201.76C92.7369 204.416 87.1704 204.867 81.438 203.112C74.5212 201.001 68.623 195.855 63.7434 187.673C60.5219 182.266 59.1954 175.958 59.7639 168.748C60.1902 163.27 61.5996 157.803 63.9921 152.349C65.745 152.42 66.7399 152.586 66.9767 152.847C67.6637 153.629 68.3151 154.104 68.931 154.27C70.2338 154.673 71.88 154.199 73.8698 152.847L74.0119 152.74C74.6515 152.313 74.9239 151.412 74.8291 150.037L74.9357 148.969L75.2555 148.187C75.445 147.973 75.7411 147.784 76.1438 147.618L77.6006 147.013L79.0574 147.155L80.7984 147.902C82.1486 148.708 82.9777 149.147 83.2856 149.218C84.3278 149.479 85.1688 148.756 85.8083 147.048L86.59 144.025L86.7677 143.491L87.5849 141.748C87.8455 141.084 87.7744 140.432 87.3717 139.791C87.1348 139.388 86.8861 138.404 86.6255 136.839C86.365 135.274 86.2465 134.064 86.2702 133.21L86.3058 131.752C86.3058 131.064 86.1636 130.412 85.8794 129.795C85.7136 129.44 85.3938 128.93 84.92 128.266L83.7475 126.38L83.3922 124.993L83.5698 123.748C83.8067 122.823 83.9015 122.017 83.8541 121.329L83.7475 119.586C83.7001 118.898 83.5698 118.293 83.3567 117.771C83.2619 117.534 82.9421 116.953 82.3973 116.028C82.0183 115.364 81.8407 114.89 81.8643 114.605C81.9117 114.131 82.3262 112.791 83.1079 110.586C83.8896 108.499 84.3515 107.005 84.4937 106.103C84.6358 105.179 84.7068 104.171 84.7068 103.08L84.6713 101.621C84.6476 101.36 84.5173 101.135 84.2805 100.945L87.4428 98.1706C87.6323 98.0045 87.7389 97.803 87.7625 97.5658C87.8099 97.3049 87.7507 97.0678 87.5849 96.8543C87.4664 96.6646 87.2769 96.5342 87.0164 96.463L86.3413 96.5698C84.1383 97.6844 82.7289 98.3128 82.1131 98.4551L80.2299 98.4196L79.3772 98.2773C78.1217 98.0875 76.7597 98.7279 75.291 100.198L75.0068 100.518L75.4687 96.6765C75.5398 95.6567 75.1726 94.0559 74.3672 91.8741C73.7514 90.3088 72.9934 88.625 72.0932 86.8227C71.7142 86.0638 71.4063 84.5697 71.1694 82.3404L70.8852 77.7159C70.8852 77.1941 70.6364 76.8858 70.139 76.791C69.6416 76.6724 69.2744 76.8384 69.0375 77.289L68.5756 78.4985C68.2677 79.4471 68.1137 80.3483 68.1137 81.2021C68.1137 81.8187 67.9479 82.9333 67.6163 84.546L67.9361 81.6645C67.9597 81.4036 67.9005 81.1665 67.7584 80.953C67.5926 80.7159 67.3794 80.5736 67.1188 80.5262C66.8583 80.5024 66.6096 80.5617 66.3727 80.704C66.1595 80.8463 66.0292 81.0479 65.9818 81.3088L65.6621 82.7317C65.3778 83.7752 65.0699 84.6527 64.7382 85.3641C64.4303 86.0519 64.2882 86.8582 64.3119 87.7831L64.5961 90.1666L64.8448 91.7674C64.8922 92.5262 64.2408 93.795 62.8906 95.5737L62.0379 96.712L61.647 97.3879L61.5404 95.8939C61.422 94.1152 61.2443 92.799 61.0075 91.9452Z" fill="#0D131A"/>
<path d="M62.713 111.724L62.0734 111.369C61.9076 111.44 61.9076 111.807 62.0734 112.471C62.3103 113.444 62.4169 114.606 62.3932 115.958C62.3695 117.215 62.2392 118.282 62.0024 119.159C61.7892 119.894 61.4457 120.57 60.972 121.187C60.5693 121.756 60.3561 122.302 60.3324 122.823C60.3087 124.056 60.4035 125.219 60.6166 126.309C60.6166 126.547 60.5337 126.713 60.3679 126.807C60.2258 126.902 60.0008 126.819 59.6928 126.558C59.3849 126.179 59.1125 125.657 58.8756 124.993C58.7572 124.638 58.7453 124.211 58.8401 123.713C58.8875 123.096 58.7927 122.551 58.5558 122.076L57.9873 120.902C57.7741 120.475 57.5609 120.298 57.3478 120.369L57.2412 120.973L57.4188 122.788L56.9924 123.428L56.8148 124.495C56.8622 124.875 57.1938 125.776 57.8097 127.199L58.6269 129.582C58.8875 130.389 58.994 130.993 58.9467 131.396C58.8282 132.511 58.6032 133.068 58.2716 133.068L57.9873 132.606L57.7031 131.645L56.5661 129.475C56.3292 129.072 55.8791 128.539 55.2159 127.875C55.737 128.823 55.9976 129.808 55.9976 130.827C55.9976 131.278 55.8791 131.8 55.6423 132.392C55.4764 132.772 55.0027 133.045 54.221 133.211C53.463 133.329 53.0603 133.555 53.0129 133.887C52.9656 134.266 53.2261 134.693 53.7946 135.167L55.1448 136.341C55.5001 136.792 55.6896 137.254 55.7133 137.729C55.7607 138.274 55.5712 138.689 55.1448 138.974C54.6711 139.306 53.9841 138.843 53.084 137.586L51.0587 134.847C50.3007 134.207 48.6663 133.282 46.1554 132.072L48.4294 134.029C48.761 134.313 49.0808 134.728 49.3888 135.274L49.7441 136.021L48.3228 135.061C47.1858 134.325 46.1791 133.709 45.3026 133.211C43.8814 132.452 41.5363 131.468 38.2674 130.258L47.6122 136.981C48.7255 137.859 49.8033 138.938 50.8455 140.219C51.8167 141.452 52.4326 142.46 52.6932 143.242C52.9063 143.835 53.4038 144.452 54.1855 145.092L55.8199 146.337C56.0331 146.574 56.0923 146.918 55.9976 147.369L55.962 149.148C56.0568 149.551 56.2937 149.918 56.6727 150.25L61.9313 144.559L64.2053 142.531L65.4489 141.642L62.8551 145.163L64.8449 145.377L65.3068 145.982L66.7636 143.314L66.6214 144.523C66.4083 145.614 66.0411 146.918 65.52 148.436L67.0478 148.578L67.9716 148.863L68.5757 148.827C69.2626 148.235 69.6298 147.819 69.6771 147.582C69.7008 147.44 69.6534 147.298 69.535 147.155L69.2863 146.835C69.002 146.29 68.9073 145.531 69.002 144.559C69.0968 143.586 69.3455 142.851 69.7482 142.353C70.1272 141.855 70.826 141.298 71.8445 140.681C72.9342 140.041 73.7988 139.721 74.4383 139.721C74.6752 139.721 75.0542 139.851 75.5753 140.112L76.8189 140.681C77.269 140.8 77.648 140.598 77.9559 140.076C78.4771 139.08 78.8797 137.954 79.164 136.697C79.4482 135.369 79.4364 134.551 79.1285 134.242C78.7731 133.887 77.7309 133.317 76.0017 132.535L74.1896 131.503C73.6685 131.147 73.3487 130.78 73.2303 130.4C72.946 129.618 73.2539 128.669 74.1541 127.555C75.3384 126.108 75.599 124.721 74.9358 123.392C74.6515 122.776 73.9646 122.266 72.8749 121.863C72.2117 121.602 71.5248 121.092 70.8141 120.333L69.7127 118.305L68.7888 115.495C68.552 114.641 68.3269 114.215 68.1137 114.215C67.9716 114.215 67.8769 114.547 67.8295 115.211C67.7821 116.088 67.8295 116.954 67.9716 117.807L68.2559 119.515C68.3033 119.847 68.2796 120.06 68.1848 120.155C68.019 120.321 67.8176 120.381 67.5808 120.333C66.9175 120.167 66.3727 119.8 65.9463 119.23C65.4489 118.519 65.0818 117.428 64.8449 115.958C64.6554 114.819 64.2408 113.764 63.6013 112.792L62.713 111.724Z" fill="#EFE908"/>
<path d="M60.0837 92.1947C59.7994 91.1513 59.2428 89.8588 58.4137 88.3172L57.2767 86.2896L57.632 91.1987C57.8689 94.7086 57.9163 97.1157 57.7741 98.4201C57.6557 99.5821 57.1346 100.471 56.2107 101.088C54.9553 101.918 54.1144 102.665 53.688 103.329C52.8827 104.61 52.2668 106.566 51.8404 109.199C51.414 111.76 51.3667 113.586 51.6983 114.677C51.9588 115.531 51.8049 116.361 51.2364 117.167L49.9217 118.946C49.7085 119.397 49.673 119.729 49.8151 119.942C50.0994 120.274 50.3481 120.653 50.5613 121.08C50.7745 121.531 50.881 122.1 50.881 122.788C50.881 123.618 50.9995 124.353 51.2364 124.993C51.4732 125.729 52.0062 126.227 52.8353 126.487C53.9012 126.819 54.6 127.152 54.9316 127.484L55.5001 128.231C56.2581 129.037 56.9095 130.069 57.4543 131.325L57.8807 132.677L58.2005 133.318C58.3426 133.365 58.4848 133.235 58.6269 132.926L58.9822 131.646C59.0533 131.148 58.994 130.555 58.8045 129.867L58.1294 127.839L57.3833 125.989L56.9569 124.567L56.9924 123.713L57.2767 123.321C57.4662 123.037 57.5609 122.752 57.5609 122.468L57.3833 121.151C57.3122 120.772 57.3241 120.57 57.4188 120.547C57.632 120.499 57.9281 120.914 58.3071 121.792C58.6624 122.551 58.8045 123.167 58.7335 123.642V124.887C59.2546 126.357 59.7876 127.045 60.3324 126.95C60.7351 126.879 60.8298 126.428 60.6166 125.598L60.439 123.108C60.439 122.444 60.6048 121.875 60.9364 121.4C61.4576 120.713 61.7892 120.12 61.9313 119.622C62.4524 117.796 62.6656 116.053 62.5709 114.393C62.5472 113.847 62.405 113.147 62.1445 112.294C61.8129 111.179 62.1445 111.215 63.1393 112.4C63.8737 113.373 64.3711 114.44 64.6317 115.602C65.058 117.594 65.5437 118.922 66.0885 119.586C66.2543 119.776 66.5148 119.966 66.8701 120.155C67.2728 120.369 67.6045 120.464 67.865 120.44L68.2914 120.155L68.398 119.764L67.9006 116.029C67.8295 114.962 67.9005 114.428 68.1137 114.428C68.2322 114.428 68.3625 114.653 68.5046 115.104L69.002 116.705C69.5705 118.507 70.0443 119.634 70.4233 120.084L71.7735 121.329L73.1237 122.148C73.55 122.314 73.8698 122.48 74.083 122.646C74.3673 122.883 74.6041 123.238 74.7936 123.713C75.149 124.519 75.1845 125.314 74.9002 126.096L73.9054 127.733L73.0881 129.12C72.9223 129.547 72.9105 129.997 73.0526 130.472C73.1473 130.733 73.479 131.088 74.0475 131.539L76.4281 132.891C77.5177 133.294 78.3586 133.78 78.9508 134.349C79.543 134.966 79.1758 136.851 77.8493 140.005C77.6124 140.48 77.2808 140.658 76.8545 140.539L75.7174 140.005C75.1253 139.721 74.616 139.578 74.1896 139.578C73.7159 139.578 72.9105 139.934 71.7735 140.646C70.7075 141.286 70.0087 141.796 69.6771 142.175C69.3455 142.531 69.1086 143.207 68.9665 144.203C68.8244 145.128 68.8244 145.828 68.9665 146.302L69.4639 147.191C69.6061 147.428 69.5824 147.63 69.3929 147.796L68.6822 148.472C68.4454 148.685 68.1966 148.768 67.9361 148.721L66.9767 148.401L65.591 148.258L64.8093 150.357L65.1646 150.286C65.7095 150.167 66.3964 150.547 67.2255 151.424L69.0731 153.096C69.8074 153.286 71.2287 152.681 73.3368 151.282C73.7158 151.021 73.8935 150.677 73.8698 150.25C73.8224 149.563 73.8698 149.029 74.0119 148.65C74.2251 148.033 74.6515 147.559 75.2911 147.227C76.1201 146.918 76.7834 146.622 77.2808 146.337L79.9812 146.48L82.5395 147.511C83.1317 147.654 83.7594 147.25 84.4226 146.302C84.9201 145.567 85.3346 144.713 85.6662 143.741L86.1992 141.855C86.2939 141.262 86.1637 140.681 85.8083 140.112C85.4767 139.567 85.2872 138.25 85.2398 136.163L85.3109 131.752C85.3109 130.97 85.0385 130.187 84.4937 129.404L82.8592 126.808C82.4329 125.93 82.3144 125.017 82.5039 124.068C82.7645 122.717 82.8829 121.827 82.8592 121.4C82.8119 120.76 82.4447 119.574 81.7578 117.843C81.1182 116.254 80.834 115.14 80.905 114.499C80.9524 113.859 81.3669 112.472 82.1486 110.337C82.954 108.084 83.4159 106.626 83.5343 105.962C83.6765 105.084 83.7357 104.112 83.712 103.045L83.6765 101.693L83.4988 102.369C83.3093 102.938 83.0369 103.531 82.6816 104.147C82.3973 104.669 81.9117 105.215 81.2248 105.784C80.4668 106.4 79.922 106.958 79.5904 107.456C79.2587 107.954 79.0337 108.558 78.9153 109.27C78.5836 107.278 78.477 105.796 78.5955 104.823C78.6665 104.183 79.1403 103.519 80.0167 102.831L82.2197 101.373C82.6934 101.041 83.5936 100.282 84.9201 99.096L86.8032 97.424L85.0622 98.2778C83.8067 98.8944 82.9066 99.2738 82.3618 99.4161L80.7629 99.5229L79.2706 99.2383C78.2994 99.096 77.1979 99.6414 75.9662 100.875C75.7293 101.112 75.5516 101.598 75.4332 102.333C75.2911 103.116 74.9831 103.839 74.5094 104.503C73.6329 105.689 73.1355 106.614 73.0171 107.278C73.8935 101.586 74.3909 98.0288 74.5094 96.6058C74.5804 95.6572 74.1896 94.1157 73.3368 91.9813C72.7683 90.4872 72.0577 88.9101 71.205 87.25C70.7312 86.3014 70.3759 84.4397 70.139 81.665L69.9258 77.752L69.4995 78.7836C69.2152 79.6373 69.0731 80.4437 69.0731 81.2026C69.0731 81.8429 68.931 82.9101 68.6467 84.4042L68.1137 87.7481C67.9953 89.0524 67.8887 89.5979 67.794 89.3844C67.4623 88.9576 67.1307 88.2461 66.7991 87.25C66.4675 86.2777 66.5267 84.3686 66.9767 81.5227L66.6214 82.9812L65.6621 85.7915C65.3305 86.5267 65.2357 87.4872 65.3778 88.673L65.8042 91.6967C65.8753 92.503 65.5318 93.4872 64.7738 94.6493L62.8551 97.2817C62.1919 98.2541 61.8128 99.345 61.7181 100.554C61.268 99.7956 60.9364 98.9181 60.7232 97.9221L60.51 95.4319C60.4627 94.1987 60.3205 93.1196 60.0837 92.1947Z" fill="#E50020"/>
<path d="M153.886 225.025C157.013 222.749 159.891 220.33 162.52 217.768L165.541 214.567L137.897 207.132C135.292 212.041 131.975 216.44 127.948 220.33C121.624 226.401 114.375 230.243 106.203 231.855C90.6879 234.891 75.9542 231.5 62.0023 221.681C59.0887 219.618 56.3646 217.057 53.8301 213.997C62.5708 226.543 73.0288 234.345 85.2042 237.405C90.3444 238.709 96.2426 239.314 102.899 239.219L122.05 237.76C133.254 236.48 143.866 232.235 153.886 225.025Z" fill="#DDD583"/>
<path d="M134.984 206.42L122.441 203.005C119.22 208.863 114.293 213.571 107.66 217.128C100.862 220.756 93.3646 222.571 85.1687 222.571C78.0388 222.571 71.3826 221.172 65.2001 218.373C59.2072 215.646 54.3749 211.934 50.7033 207.239C53.759 212.788 57.7741 217.247 62.7485 220.614C76.4636 229.887 90.8774 233.041 105.99 230.077C113.783 228.535 120.487 224.883 126.101 219.12C129.228 215.895 132.189 211.662 134.984 206.42Z" fill="#D18200"/>
<path d="M64.9515 145.092L65.4489 142.282L63.9921 143.562L62.713 145.377L58.4137 151.175C54.6948 156.487 51.6154 162.701 49.1756 169.816C46.8305 176.646 45.658 182.563 45.658 187.567C45.658 194.539 47.3398 201.096 50.7034 207.239C54.375 211.934 59.2073 215.646 65.2002 218.373C71.3827 221.172 78.0389 222.571 85.1688 222.571C93.3647 222.571 100.862 220.757 107.66 217.128C114.293 213.571 119.22 208.863 122.441 203.005L107.838 199.057L107.056 199.804C105.73 200.705 103.077 202.128 99.0971 204.073C93.341 206.895 87.3007 207.357 80.9761 205.46C73.3487 203.183 66.9294 197.693 61.7181 188.99C58.3545 183.369 57.0754 176.705 57.8807 168.997C58.4729 163.448 60.0718 157.673 62.6775 151.673C63.9803 148.685 65.0936 146.408 66.0174 144.843L66.3727 143.171L64.9515 145.092Z" fill="#F29600"/>
<path d="M128.304 216.666C130.578 213.939 132.804 210.524 134.984 206.421L107.873 199.093L107.767 199.271C107.553 199.508 107.044 199.864 106.239 200.338C105.765 202.425 105.528 204.535 105.528 206.67C105.528 210.678 106.322 214.496 107.909 218.125C109.448 221.634 111.616 224.717 114.411 227.374C119.693 224.978 124.324 221.409 128.304 216.666Z" fill="#D18200"/>
<path d="M158.612 221.361C160.033 218.942 161.099 216.345 161.81 213.571L137.897 207.132C135.978 210.808 133.562 214.258 130.649 217.484C126.314 222.369 121.387 226.104 115.868 228.689C118.378 230.753 121.126 232.341 124.111 233.456C127.238 234.618 130.471 235.211 133.811 235.235C142.67 232.413 150.937 227.788 158.612 221.361Z" fill="#DDD583"/>
<path d="M191.692 38.3365L202.031 49.7911C202.458 50.384 202.671 52.0559 202.671 54.8069C202.671 57.89 202.363 61.1034 201.747 64.4473C201.368 66.6292 200.515 69.4395 199.189 72.8782C197.839 76.4356 196.678 78.8071 195.707 79.9929L190.448 85.9336L185.58 91.4475C184.846 92.5147 184.325 94.2815 184.017 96.748C183.354 101.088 182.809 103.886 182.382 105.143C181.79 106.851 181.056 108.499 180.179 110.088C179.54 111.226 178.581 112.756 177.301 114.677C175.572 117.214 173.571 119.645 171.297 121.969L169.733 121.329L167.85 121.222C167.211 121.436 166.76 122.029 166.5 123.001L166.038 125.42L163.8 126.914C163.349 127.222 163.065 127.673 162.947 128.266C162.876 128.811 163.006 129.309 163.338 129.76L168.525 136.483L171.794 144.772C172.055 145.46 172.552 145.863 173.286 145.981C173.618 146.053 174.104 145.934 174.743 145.626L176.022 144.772C178.533 141.736 181.115 138.985 183.768 136.519C187.748 132.843 190.922 130.78 193.291 130.329C195.02 129.997 196.796 130.139 198.62 130.756C199.165 130.97 200.586 131.645 202.884 132.784C204.305 133.495 205.336 133.934 205.975 134.1C207.041 134.385 207.989 134.313 208.818 133.887C209.505 133.531 209.896 132.926 209.99 132.072L209.919 130.436L209.742 129.653C209.528 128.278 209.86 126.772 210.736 125.135C211.305 124.139 212.406 123.132 214.041 122.112C216.457 120.57 219.169 119.799 222.177 119.799C229.118 119.799 236.437 122.693 244.136 128.479C248.518 131.752 252.308 135.321 255.506 139.187C255.624 140.183 255.624 141.404 255.506 142.851L255.293 145.163C255.293 146.349 255.577 147.393 256.145 148.294C256.738 149.219 257.448 149.681 258.277 149.681C259.059 149.681 259.758 149.385 260.374 148.792C261.155 148.057 261.605 146.989 261.724 145.59L261.759 145.377C262.257 139.732 262.577 135.274 262.719 132.001C262.813 129.796 262.813 128.468 262.719 128.017C262.292 125.1 261.345 120.487 259.876 114.179C258.502 108.25 257.259 103.341 256.145 99.4515C255.174 96.0365 253.611 91.4001 251.455 85.5423C249.442 80.064 248.127 76.7794 247.511 75.6885C246.706 74.2419 243.484 70.2339 237.847 63.6647C232.28 57.1904 228.798 53.384 227.401 52.2457C226.24 51.297 224.392 50.2536 221.858 49.1152L219.584 48.0836C218.613 47.633 218.02 47.3247 217.807 47.1587L208.995 40.3286L199.899 33.3918C198.123 32.1111 196.429 31.3404 194.818 31.0795C193.137 30.8186 191.881 31.1625 191.052 32.1111C190.436 32.8226 190.152 33.7475 190.199 34.8859C190.27 36.1665 190.768 37.3167 191.692 38.3365Z" fill="#0D131A"/>
<path d="M227.649 67.6844C222.462 63.2733 219.43 60.878 218.553 60.4985C217.369 60.3325 215.711 60.5223 213.579 61.0677C211.423 61.6369 210.144 62.2416 209.741 62.8819C209.481 63.38 207.977 67.9571 205.229 76.6133L203.275 82.4473C202.777 83.7517 199.307 87.2141 192.864 92.8347C192.035 93.5699 190.969 96.1668 189.666 100.625L188.813 103.471L187.143 109.91L184.869 119.266C184.372 121.187 183.922 122.278 183.519 122.538C181.932 123.629 180.132 125.325 178.119 127.625C177.74 128.076 176.934 129.807 175.702 132.819L172.362 141.25L173.606 144.06C175.548 141.902 177.799 139.673 180.357 137.373C185.474 132.795 189.571 130.222 192.651 129.653C195.588 129.108 198.81 129.629 202.315 131.218L205.584 132.748C206.603 133.151 207.361 133.222 207.858 132.961C208.119 132.819 208.296 132.333 208.391 131.503L208.462 130.329C208.296 129.95 208.214 129.428 208.214 128.764C208.214 127.459 208.604 126.084 209.386 124.637C210.049 123.38 211.376 122.206 213.366 121.116C215.971 119.669 218.944 118.946 222.284 118.946C229.011 118.946 235.952 121.376 243.105 126.238C247.535 129.25 251.657 132.878 255.47 137.124C255.21 127.542 254.925 122.171 254.617 121.009C253.599 116.859 251.42 110.04 248.08 100.554C243.626 87.9612 240.061 79.969 237.385 76.5777C236.248 75.1548 233.003 72.1903 227.649 67.6844Z" fill="#008086"/>
<g filter="url(#filter1_d_1_38130)">
<path d="M193.539 37.4115C199.509 43.7673 203.073 47.6685 204.234 49.1152C204.992 50.0875 205.241 52.3879 204.98 56.0164C204.815 58.4354 204.436 61.2457 203.843 64.4473C203.464 66.6054 202.505 69.5224 200.965 73.1983C199.402 76.898 198.052 79.4474 196.915 80.8466L187.179 92.2301C186.516 93.1076 185.936 95.0522 185.438 98.0641C184.822 101.764 184.348 104.088 184.017 105.036C183.401 106.839 182.773 108.44 182.134 109.839L179.753 114.463C178.877 116.1 177.408 118.163 175.347 120.653C173.429 122.954 172.28 124.175 171.901 124.317L170.622 123.926C170.006 123.618 169.52 123.523 169.165 123.641C168.502 123.855 168.063 124.839 167.85 126.594L164.901 128.55L170.231 135.523L170.977 137.373C173.843 130.898 175.691 127.199 176.52 126.274C179.054 123.357 181.139 121.353 182.773 120.262C183.223 119.74 184.372 115.851 186.22 108.594L187.925 102.048L188.778 99.238L190.093 95.076C190.614 93.819 191.218 92.8823 191.905 92.2657L197.377 86.9297C200.03 84.2024 201.475 82.5186 201.711 81.8782L203.666 76.1154C206.792 66.724 208.498 61.8149 208.782 61.388C209.398 60.3682 210.997 59.5382 213.579 58.8978C215.924 58.3287 217.807 58.1508 219.228 58.3642C220.105 58.5065 223.409 61.0915 229.142 66.1192C234.685 70.9572 237.965 74.0284 238.984 75.3327C241.897 79.0324 245.593 87.5937 250.07 101.017C252.32 107.728 254.286 114.143 255.968 120.262C256.347 121.827 256.667 128.029 256.927 138.867L257.247 145.163C257.247 145.709 257.354 146.183 257.567 146.586C257.78 146.966 258.017 147.155 258.277 147.155C258.609 147.155 258.846 147.06 258.988 146.871C259.249 146.586 259.414 146.041 259.485 145.234L259.947 137.977L260.338 131.041C260.314 128.527 259.628 124.033 258.277 117.558C257.093 111.772 255.944 107.029 254.831 103.329C253.173 97.7795 251.183 91.8388 248.862 85.5067C246.919 80.2893 245.687 77.2063 245.166 76.2576C244.432 74.9296 241.412 71.1232 236.106 64.8386C230.776 58.5065 227.46 54.8188 226.157 53.7753C225.067 52.8978 222.912 51.7357 219.69 50.2891C218.08 49.5539 216.575 48.9136 215.178 48.3681L199.437 35.3838C198.135 34.2929 196.832 33.5459 195.529 33.1427C194.179 32.7396 193.291 32.8344 192.864 33.4273C192.011 34.6605 192.236 35.9886 193.539 37.4115Z" fill="#F29600"/>
</g>
<path d="M210.523 71.4551C211.068 71.1943 211.873 70.9452 212.939 70.7081L215.569 70.3168C217.227 71.4551 220.235 73.886 224.593 77.6093C229.189 81.5224 231.937 84.0481 232.837 85.1864C235.324 88.3406 238.77 96.0956 243.176 108.451C246.54 117.795 248.755 124.542 249.821 128.693L250.034 131.681C251.834 133.317 253.646 135.131 255.47 137.124C255.21 127.542 254.925 122.171 254.617 121.009C253.599 116.859 251.42 110.04 248.08 100.554C243.626 87.9612 240.061 79.969 237.385 76.5777C236.248 75.1548 233.003 72.1903 227.649 67.6844C222.462 63.2733 219.43 60.878 218.553 60.4985C217.369 60.3325 215.711 60.5223 213.579 61.0677C211.423 61.6369 210.144 62.2416 209.741 62.8819C209.481 63.38 207.977 67.9571 205.229 76.6133L203.275 82.4473C202.777 83.7517 199.307 87.2141 192.864 92.8347C192.035 93.5699 190.969 96.1668 189.666 100.625L188.813 103.471L187.143 109.91L184.869 119.266C184.372 121.187 183.922 122.278 183.519 122.538C181.932 123.629 180.132 125.325 178.119 127.625C177.74 128.076 176.934 129.807 175.702 132.819L172.362 141.25L173.606 144.06L176.697 140.859C177.74 138.25 178.415 136.72 178.723 136.27C180.57 134.135 182.122 132.665 183.377 131.859C184.206 131.29 184.846 130.4 185.296 129.191C185.627 128.337 186.16 126.369 186.895 123.286L188.352 117.274L189.986 111.048L190.874 108.06C191.443 106.115 191.999 103.732 192.544 100.91L193.184 97.2814L203.097 88.7438C204.779 87.2023 205.868 85.6963 206.366 84.226L210.523 71.4551Z" fill="#00666C"/>
<path d="M10.5528 100.733C9.74742 102.796 8.74071 107.788 7.53264 115.709C6.37195 123.298 5.79161 128.314 5.79161 130.756V131.539L5.89821 147.085C6.20615 150.002 7.4379 151.436 9.59348 151.389C10.541 151.365 11.216 150.927 11.6187 150.073C11.9977 149.266 12.1873 147.938 12.1873 146.089C12.1873 144.927 12.3057 143.859 12.5426 142.887C17.3038 138.191 22.3018 133.507 27.5368 128.835C34.6431 122.527 39.4042 118.851 41.8204 117.808C44.7339 116.551 48.3463 116.005 52.6574 116.171C56.1869 116.337 58.6978 116.788 60.1901 117.523C60.877 117.855 62.5588 119.61 65.2355 122.788L68.3268 126.167C69.0374 126.855 69.7006 127.235 70.3165 127.306L71.6667 127.128L73.763 126.239C77.3635 124.673 79.9929 123.666 81.651 123.215C85.5121 122.195 88.7809 122.231 91.4576 123.322C95.2476 124.863 99.4759 127.235 104.142 130.436C107.695 132.879 110.076 134.705 111.284 135.915C111.687 136.365 112.907 138.583 114.944 142.567L121.055 154.626C121.363 155.195 122.05 155.504 123.116 155.551C123.874 155.551 124.466 155.231 124.893 154.591L140.988 127.484C141.367 126.867 141.391 126.239 141.059 125.598C140.704 124.934 140.171 124.579 139.46 124.531L132.603 124.353C131.608 121.436 130.755 119.705 130.045 119.16C129.642 118.875 128.872 118.638 127.735 118.448L124.431 118.519L118.746 114.748L110.112 108.488C105.398 104.883 101.371 100.982 98.0309 96.7839C97.4387 95.3847 96.4794 92.2424 95.1529 87.357C93.7553 82.187 92.4407 76.851 91.2089 71.3489C90.0719 66.2501 89.1244 61.1394 88.3664 56.0168C87.6795 51.3449 87.3715 48.3567 87.4426 47.0523C87.49 46.3409 88.1888 44.9298 89.5389 42.8191C91.0076 40.495 92.9855 37.7677 95.4727 34.6372C96.4676 33.404 97.119 32.0997 97.4269 30.7242C97.8059 29.0641 97.569 27.6174 96.7163 26.3842C96.0767 25.4593 95.2832 24.9138 94.3357 24.7478C93.2934 24.5818 92.1446 24.7953 90.8891 25.3882C89.8232 25.8862 88.8402 26.5502 87.94 27.3803L82.1484 32.9653L76.6055 38.3369C76.416 38.5029 75.587 38.7282 74.1184 39.0128L71.2048 39.6175C70.5178 39.8309 67.7582 41.1827 62.926 43.6729L55.038 47.5859C52.7166 48.3211 50.3479 48.831 47.9318 49.1156L45.0892 49.5069C43.9996 49.6966 43.3127 49.9338 43.0284 50.2184C41.3703 51.7836 38.0541 56.8706 33.0797 65.4793L22.7045 83.7996C20.5726 87.4755 17.9433 91.2819 14.8166 95.2187L10.5528 100.733Z" fill="#0D131A"/>
<path d="M18.9382 93.8311L15.5983 98.3489L12.8624 102.511C12.0807 104.479 11.0384 109.139 9.73563 116.491C8.43282 123.772 7.7814 128.527 7.7814 130.756V138.547L7.888 146.444C7.98274 147.274 8.13673 147.879 8.34991 148.258C8.63417 148.756 9.04871 148.993 9.59352 148.97C9.94882 148.946 10.2094 148.472 10.3752 147.547C10.4936 146.907 10.5528 146.195 10.5528 145.412L10.6239 142.246L13.04 116.029V115.887C15.3851 107.207 20.2766 96.333 27.7145 83.2658C34.4654 71.4317 39.8544 63.5107 43.8812 59.5028C44.9946 58.3644 49.9808 56.313 58.8399 53.3486C67.0358 50.5738 71.3943 49.1865 71.9154 49.1865C73.3841 49.0679 74.8764 49.3881 76.3924 50.147C77.9084 50.9296 79.0691 51.9731 79.8745 53.2774C80.6798 54.5581 82.8354 61.8625 86.3412 75.1906C87.3834 79.246 88.5086 85.2579 89.7166 93.2263C90.4036 97.7323 90.8536 100.199 91.0668 100.626C91.4458 101.337 94.4068 103.685 99.9497 107.669L104 110.657C104.806 111.321 105.658 112.377 106.558 113.823C107.032 114.558 107.707 115.756 108.584 117.416L109.365 118.875C109.484 119.017 110.112 119.219 111.249 119.479C113.475 120.025 115.276 120.535 116.649 121.009C118.45 121.626 120.807 124.543 123.72 129.76C125.662 133.246 127.7 137.468 129.831 142.424L139.318 126.487L131.111 125.847L130.293 123.535C129.678 121.946 129.156 120.997 128.73 120.689C128.138 120.286 127.143 120.096 125.745 120.12L123.862 120.262L117.147 115.709L108.939 110.088C107.968 109.353 105.658 107.218 102.01 103.685C98.3863 100.151 96.4794 98.1829 96.2899 97.7797C95.0819 95.171 92.8434 86.7045 89.5745 72.3803C86.2109 57.5818 84.6593 48.8663 84.9199 46.2339C85.0147 45.309 86.3412 43.056 88.8994 39.475L93.7317 33.1429C94.4186 32.2891 94.8924 31.3049 95.1529 30.1903C95.4609 29.0045 95.4135 28.0559 95.0108 27.3444C94.6081 26.6567 93.8027 26.55 92.5947 27.0243C91.5287 27.4274 90.4391 28.1389 89.3258 29.1587L83.5697 35.0283L78.2756 40.3999L75.2554 40.8979L71.0982 41.7872C70.127 42.1192 65.0816 44.4789 55.9619 48.8663L49.7794 50.6094C46.629 51.4158 44.9235 51.9375 44.6629 52.1747C42.4126 54.3328 37.5803 61.7439 30.1661 74.408L18.9382 93.8311Z" fill="#F29600"/>
<path d="M14.2481 116.313L12.0452 140.859C16.9722 136.211 21.6978 131.918 26.2222 127.981C33.5416 121.625 38.516 117.878 41.1453 116.74C44.3431 115.365 48.2042 114.831 52.7285 115.139C56.329 115.376 59.0294 115.946 60.8297 116.847C61.6114 117.226 63.2695 118.815 65.804 121.614C68.1491 124.175 69.7717 125.539 70.6718 125.705C71.2167 125.823 72.2826 125.562 73.8697 124.922L78.8085 122.93C83.7829 121.175 88.1059 121.044 91.7775 122.539C95.8517 124.222 100.293 126.511 105.102 129.404C109.152 131.847 111.687 133.554 112.705 134.527C113.321 135.143 115.252 138.499 118.497 144.594L123.187 153.558L128.055 145.732C124.597 137.124 122.678 132.392 122.299 131.539C120.025 126.463 118.189 123.689 116.792 123.214C115.797 122.859 113.831 122.373 110.893 121.756L109.117 121.293L108.051 120.511L107.127 118.839L105.493 115.068C104.711 113.384 104 112.27 103.361 111.724L101.549 110.586L98.9903 108.985L92.6302 104.289C90.901 102.938 89.8943 101.965 89.61 101.372L88.9705 98.8467L88.1177 93.4751L86.9097 85.0086C86.3648 81.4039 85.7845 78.4275 85.1686 76.0797L81.3668 61.5658C80.2298 57.3444 79.531 55.0203 79.2704 54.5934C78.6309 53.5973 77.5175 52.8029 75.9305 52.21C74.4855 51.6408 73.1354 51.4155 71.8799 51.5341C70.6955 51.7238 66.3844 53.0993 58.9465 55.6606C50.8217 58.4353 46.3092 60.2733 45.4091 61.1745C41.2874 65.3247 35.863 73.056 29.1357 84.3683C21.4847 97.2221 16.5221 107.87 14.2481 116.313Z" fill="#008086"/>
<path d="M17.8368 135.487L18.7961 124.851C21.0227 116.669 25.8669 106.317 33.3284 93.7952C39.8662 82.8624 45.0775 75.4157 48.9622 71.4552C50.1229 70.6488 54.1972 69.048 61.185 66.6528C67.4385 64.5184 71.5957 63.1903 73.6565 62.6685C74.3671 62.6448 75.1488 62.799 76.0015 63.131C76.8543 63.4393 77.4346 63.7713 77.7426 64.1271C78.0979 65.0757 79.5665 70.4828 82.1485 80.3485L83.2855 84.7952C84.0435 87.6648 84.8133 91.9691 85.595 97.7083L86.1635 101.835L87.1939 107.918C87.4308 109.199 87.7032 110.123 88.0111 110.693C88.4375 111.57 89.385 112.625 90.8536 113.859L98.3863 119.55L101.406 121.436L102.579 122.147C111.059 129.784 115.82 133.78 116.863 134.135C118.189 135.226 120.83 140.835 124.786 150.962V150.997L128.055 145.732C124.597 137.124 122.678 132.392 122.299 131.539C120.025 126.463 118.189 123.689 116.792 123.214C115.797 122.859 113.831 122.373 110.893 121.756L109.117 121.293L108.051 120.511L107.127 118.839L105.493 115.068C104.711 113.384 104 112.27 103.361 111.724L101.549 110.586L98.9903 108.985L92.6302 104.289C90.901 102.938 89.8943 101.965 89.61 101.372L88.9705 98.8467L88.1177 93.4751L86.9097 85.0086C86.3648 81.4039 85.7845 78.4275 85.1686 76.0797L81.3668 61.5658C80.2298 57.3444 79.531 55.0203 79.2704 54.5934C78.6309 53.5973 77.5175 52.8029 75.9305 52.21C74.4855 51.6408 73.1354 51.4155 71.8799 51.5341C70.6955 51.7238 66.3844 53.0993 58.9465 55.6606C50.8217 58.4353 46.3092 60.2733 45.4091 61.1745C41.2874 65.3247 35.863 73.056 29.1357 84.3683C21.4847 97.2221 16.5221 107.87 14.2481 116.313L12.0452 140.859L17.8368 135.487Z" fill="#00666C"/>
<path d="M234.436 142.78L235.146 142.638L236.39 141.748C237.219 140.8 237.574 139.626 237.456 138.227C237.385 137.278 236.52 135.725 234.862 133.567C233.488 131.764 232.458 130.578 231.771 130.009L231.487 129.76L232.908 125.883L233.121 125.456C233.453 124.768 233.642 124.163 233.69 123.642C233.737 122.978 233.607 122.23 233.299 121.4C232.73 120.001 231.759 119.017 230.385 118.448C229.438 118.068 228.087 117.902 226.335 117.95L223.599 118.27C222.793 118.602 221.479 120.06 219.655 122.645L219.051 122.894L218.269 123.108L215.64 121.863C214.432 120.962 213.543 120.404 212.975 120.191C212.217 119.906 211.364 119.894 210.416 120.155C209.114 120.487 208 121.732 207.077 123.891C206.271 125.812 205.987 127.329 206.224 128.444C206.319 128.942 206.638 129.76 207.183 130.899L208.782 134.029L209.173 134.74L209.066 135.559C204.305 139.851 201.202 141.808 199.757 141.428L196.986 140.752C195.114 140.278 193.338 139.685 191.656 138.974C188.885 137.812 186.516 136.65 184.55 135.487C183.981 133.993 183.507 132.962 183.128 132.393C182.157 131.017 180.736 129.926 178.865 129.12C177.278 128.432 174.696 128.053 171.119 127.981C169.011 127.934 167.139 127.97 165.505 128.088L162.876 128.337L171.972 147.903L173.322 147.654L179.469 145.661L183.519 147.689L189.204 150.428L191.62 151.709L193.681 152.954C195.932 154.14 197.708 154.792 199.011 154.911C201.996 155.124 205.608 153.962 209.848 151.424C212.477 149.835 215.178 147.843 217.949 145.448C218.826 145.946 219.619 146.207 220.33 146.231C221.325 146.278 222.414 145.958 223.599 145.27C224.286 144.891 225.044 144.156 225.873 143.065L227.472 140.681L228.324 142.424L228.928 143.065L234.436 142.78Z" fill="#0D131A"/>
<path d="M234.365 140.93C234.649 140.93 234.921 140.824 235.182 140.61C235.727 140.183 235.964 139.472 235.892 138.476C235.845 137.764 235.585 137.029 235.111 136.27L233.299 133.958L231.025 131.788L229.603 130.507C229.343 130.104 229.888 128.325 231.238 125.171C231.854 123.748 232.162 122.8 232.162 122.325C232.185 121.211 231.416 120.333 229.852 119.693L226.583 119.515L224.203 119.906L222.71 121.614L221.147 123.713C220.673 124.377 219.832 124.756 218.624 124.851L215.249 123.215C214.443 122.598 213.745 122.231 213.152 122.112L211.163 122.29C210.428 122.48 209.718 123.404 209.031 125.065C208.391 126.63 208.143 127.756 208.285 128.444C208.379 128.966 208.77 129.914 209.457 131.29L210.807 133.958C211.139 134.622 211.092 135.499 210.665 136.59L206.153 140.183C202.813 142.507 200.302 143.444 198.62 142.994L195.316 141.855L190.341 139.934L183.022 136.839C182.903 136.199 182.584 135.464 182.063 134.634C180.997 132.974 179.386 131.681 177.23 130.756C175.785 130.14 173.417 129.82 170.124 129.796L165.647 129.938L173.038 145.875L178.261 143.136C183.14 145.673 187.025 147.535 189.915 148.721C190.957 149.171 192.746 150.049 195.28 151.353C196.938 152.231 198.158 152.693 198.94 152.741C201.64 152.954 205.039 151.816 209.137 149.326C211.648 147.784 214.207 145.887 216.812 143.634C216.907 143.563 216.788 143.231 216.457 142.638L215.924 141.748L217.807 143.065C218.139 143.444 218.612 143.729 219.228 143.918C220.436 144.322 221.763 144.12 223.208 143.314C224.44 142.602 225.47 141.582 226.299 140.254L227.152 138.476L229.675 141.179L234.365 140.93Z" fill="#F29600"/>
<path d="M211.234 129.085L214.112 130.828C215.723 131.61 216.836 132.013 217.452 132.037C217.831 132.037 218.151 131.93 218.411 131.717C218.861 131.243 218.92 130.033 218.589 128.089C218.281 126.286 217.914 125.029 217.487 124.318C216.919 123.44 216.149 122.8 215.178 122.397L212.442 122.29C211.613 122.598 211.009 123.168 210.63 123.998C210.298 124.709 210.203 125.48 210.346 126.31L210.417 126.808C210.559 127.875 210.831 128.634 211.234 129.085Z" fill="#0D131A"/>
<path d="M212.548 122.574L215.071 122.716C215.971 123.096 216.682 123.689 217.203 124.495C217.606 125.135 217.961 126.333 218.269 128.088C218.577 129.961 218.541 131.088 218.162 131.467C217.997 131.633 217.772 131.716 217.487 131.716C216.919 131.693 215.841 131.301 214.254 130.542C212.714 129.784 211.79 129.226 211.482 128.87C211.103 128.444 210.855 127.744 210.736 126.772L210.665 126.274C210.547 125.491 210.63 124.768 210.914 124.104C211.246 123.368 211.79 122.859 212.548 122.574ZM217.772 124.139C217.156 123.191 216.327 122.515 215.284 122.112L212.335 121.969C211.554 122.278 210.949 122.787 210.523 123.499C210.144 124.139 209.955 124.851 209.955 125.633L210.097 126.878C210.239 127.993 210.535 128.799 210.985 129.297C211.34 129.724 212.335 130.329 213.97 131.112C215.651 131.918 216.812 132.333 217.452 132.357C217.925 132.38 218.316 132.238 218.624 131.93C219.169 131.384 219.264 130.08 218.909 128.017C218.601 126.191 218.222 124.898 217.772 124.139Z" fill="#0D131A"/>
<path d="M213.046 127.234C213.472 127.756 215.06 129.013 217.807 131.005C218.02 130.792 218.032 129.879 217.843 128.266C217.63 126.63 217.345 125.479 216.99 124.815C216.587 124.128 216.019 123.606 215.285 123.25C214.527 122.871 213.828 122.8 213.188 123.037C212.501 123.274 212.028 123.748 211.767 124.46C211.838 125.124 211.992 125.681 212.229 126.132L213.046 127.234Z" fill="white"/>
<path d="M212.193 128.266C212.454 128.598 213.389 129.179 215 130.009C216.682 130.863 217.618 131.195 217.807 131.005C215.059 129.013 213.472 127.756 213.046 127.235L212.229 126.132C211.992 125.681 211.838 125.124 211.767 124.46C211.601 124.911 211.542 125.397 211.589 125.918L211.767 127.27L212.193 128.266Z" fill="#DBDCDC"/>
<path d="M234.898 138.084C234.424 137.681 233.749 137.396 232.872 137.23C231.949 137.064 231.143 137.254 230.456 137.8C229.983 138.179 229.651 138.653 229.461 139.223L227.614 142.14C227.353 142.424 226.879 142.685 226.193 142.922L225.091 143.242L225.588 144.274C226.11 145.341 227.626 145.804 230.137 145.661L233.015 145.27C234.009 144.962 234.803 144.369 235.395 143.491C235.798 142.898 236.047 142.223 236.141 141.464C236.236 140.729 236.153 140.088 235.893 139.543L235.786 139.365C235.549 138.819 235.253 138.393 234.898 138.084Z" fill="#0D131A"/>
<path d="M234.791 138.226C235.099 138.487 235.383 138.879 235.644 139.4L235.75 139.614C235.987 140.136 236.07 140.752 235.999 141.464C235.904 142.199 235.668 142.851 235.289 143.42C234.696 144.25 233.927 144.807 232.979 145.092L230.137 145.483C227.673 145.626 226.216 145.199 225.766 144.203L225.304 143.349L226.228 143.064C226.986 142.804 227.495 142.531 227.756 142.246C228.088 141.867 228.692 140.918 229.568 139.4L229.604 139.365L229.71 139.187C229.9 138.641 230.219 138.191 230.669 137.835C231.285 137.361 232.02 137.207 232.872 137.373C233.701 137.539 234.341 137.823 234.791 138.226ZM235.537 143.598C236.082 142.792 236.354 141.914 236.354 140.966C236.354 140.396 236.248 139.898 236.035 139.471L235.928 139.294C235.644 138.701 235.336 138.262 235.004 137.977C234.507 137.527 233.808 137.218 232.908 137.052C232.008 136.886 231.226 137.052 230.563 137.551C230.065 137.906 229.686 138.392 229.426 139.009L227.507 142.033C227.27 142.317 226.808 142.555 226.121 142.744L225.056 143.1L224.949 143.171L224.913 143.242L225.446 144.345C225.991 145.46 227.555 145.946 230.137 145.804L233.05 145.412C234.092 145.08 234.921 144.475 235.537 143.598Z" fill="#0D131A"/>
<path d="M234.969 139.969L234.4 139.08C234.045 138.748 233.512 138.523 232.801 138.404C232.067 138.262 231.487 138.452 231.06 138.973C230.823 139.21 230.669 139.471 230.598 139.756L229.817 141.072L228.609 142.851C228.23 143.278 227.614 143.622 226.761 143.882C231.025 144.499 233.761 143.195 234.969 139.969Z" fill="white"/>
<path d="M234.649 142.993C234.957 142.542 235.147 142.032 235.218 141.463C235.265 140.942 235.206 140.503 235.04 140.147L234.969 139.969C233.761 143.195 231.025 144.499 226.761 143.882C226.832 144.048 227.045 144.202 227.401 144.345L230.279 144.665L232.766 144.38C233.548 144.143 234.175 143.681 234.649 142.993Z" fill="#DBDCDC"/>
<path d="M226.726 122.218C225.991 123.048 225.683 124.009 225.802 125.1C225.873 126.072 226.169 126.76 226.69 127.163L228.218 128.586L229.746 130.293C230.03 130.744 230.196 131.491 230.243 132.534L230.492 133.459L231.522 133.424C232.138 133.234 232.73 132.866 233.299 132.321C234.436 131.206 235.004 129.7 235.004 127.803C235.004 126.001 234.235 124.056 232.695 121.969C232.505 121.708 232.115 121.459 231.522 121.222C230.978 121.032 230.468 120.926 229.994 120.902C228.668 120.831 227.578 121.27 226.726 122.218Z" fill="#0D131A"/>
<path d="M232.979 121.791C232.742 121.459 232.292 121.175 231.629 120.937L230.03 120.582C228.561 120.511 227.377 120.985 226.477 122.005C225.719 122.882 225.375 123.926 225.446 125.135C225.565 126.179 225.908 126.949 226.477 127.447L227.969 128.799C228.774 129.605 229.272 130.163 229.461 130.471C229.722 130.851 229.876 131.562 229.923 132.605L230.172 133.53L230.279 133.708L231.522 133.744H231.593C232.185 133.625 232.825 133.222 233.512 132.534C234.72 131.372 235.324 129.795 235.324 127.803C235.324 125.977 234.542 123.973 232.979 121.791ZM228.431 128.372L226.903 126.914C226.453 126.582 226.192 125.965 226.121 125.064L226.086 124.779C226.086 123.926 226.382 123.143 226.974 122.431C227.708 121.601 228.715 121.198 229.994 121.222L231.38 121.542L232.446 122.182C233.938 124.222 234.684 126.096 234.684 127.803C234.684 129.558 234.175 130.957 233.157 132.001C232.612 132.57 232.043 132.937 231.451 133.103L230.74 133.139L230.563 132.499C230.563 131.479 230.385 130.684 230.03 130.115C229.817 129.783 229.284 129.202 228.431 128.372Z" fill="#0D131A"/>
<path d="M228.147 125.918L230.314 127.874C231.262 129.084 231.487 130.519 230.989 132.179V132.357C231.439 132.214 231.901 131.918 232.375 131.467C233.299 130.542 233.761 129.274 233.761 127.661C233.761 126.712 233.512 125.669 233.015 124.531C232.636 123.677 232.209 122.942 231.735 122.325C231.428 121.946 230.764 121.756 229.746 121.756C228.609 121.78 227.768 122.112 227.223 122.752L226.868 123.214C227.105 124.4 227.531 125.301 228.147 125.918Z" fill="white"/>
<path d="M227.045 126.274C228.751 127.555 229.852 128.563 230.35 129.298C230.681 129.843 230.894 130.804 230.989 132.179C231.487 130.519 231.262 129.084 230.314 127.875L228.147 125.918C227.531 125.302 227.104 124.401 226.868 123.215C226.536 123.808 226.429 124.448 226.548 125.136C226.643 125.705 226.808 126.084 227.045 126.274Z" fill="#DBDCDC"/>
<path d="M227.152 134.385C227.152 132.772 226.548 131.313 225.34 130.009C224.108 128.705 222.71 128.029 221.147 127.981C222.924 130.306 223.634 132.262 223.279 133.851C223.042 134.918 222.083 135.819 220.401 136.555C219.003 137.171 217.629 137.503 216.279 137.551L217.843 139.329C218.459 139.851 219.181 140.112 220.01 140.112C221.739 140.112 223.338 139.567 224.807 138.476C226.37 137.29 227.152 135.926 227.152 134.385Z" fill="#D18200"/>
<path d="M221.929 129.084C220.792 127.281 220.129 126.475 219.939 126.665L221.396 129.19C222.367 131.064 222.734 132.558 222.497 133.673C222.284 134.527 221.431 135.321 219.939 136.056C218.542 136.744 217.251 137.088 216.066 137.088C215.237 137.088 214.349 136.886 213.401 136.483L212.229 135.949C213.295 137.017 214.598 137.55 216.137 137.55C217.464 137.55 218.861 137.23 220.33 136.59C222.059 135.855 223.042 134.942 223.279 133.851C223.563 132.594 223.113 131.005 221.929 129.084Z" fill="#0D131A"/>
<path d="M182.347 166.436L180.393 165.511L157.368 218.231L160.246 218.587C161.976 218.8 163.456 219.097 164.688 219.476C165.233 219.666 166.251 220.318 167.743 221.433L170.053 222.962C169.342 223.958 168.786 225.357 168.383 227.16C168.004 228.844 167.909 229.994 168.099 230.611C168.336 231.441 168.774 232.164 169.413 232.78C170.006 233.35 170.657 233.741 171.368 233.954C174.044 234.524 176.176 235.14 177.763 235.804C178.782 236.207 180.31 237.085 182.347 238.437L185.296 240.535L186.468 241.674C187.061 242.077 187.783 242.35 188.636 242.492C189.347 242.611 190.531 242.409 192.189 241.887L194.818 242.492L197.625 243.203C198.881 243.63 199.97 244.057 200.894 244.484L202.28 245.16C202.991 245.492 203.512 245.622 203.843 245.551C204.341 245.433 204.53 244.923 204.412 244.022C204.293 243.168 203.974 242.16 203.452 240.998L202.706 239.504L209.173 239.824C209.978 239.966 210.748 240.18 211.483 240.464L213.046 241.14L214.361 241.247C214.597 241.105 214.68 240.856 214.609 240.5C214.515 239.741 214.278 238.923 213.899 238.045C213.164 236.267 212.004 234.642 210.417 233.172L213.188 233.101C214.515 233.124 215.58 233.314 216.386 233.67C217.594 234.239 217.949 233.717 217.452 232.105C217.049 230.8 215.829 229.354 213.792 227.765C212.655 226.911 211.423 226.164 210.097 225.523C208.984 224.978 208.048 224.622 207.29 224.456L206.935 224.385L206.117 224.314L201.711 221.539C200.48 220.686 199.283 219.654 198.123 218.444L196.488 216.452L196.133 214.816L198.229 213.251C199.343 212.373 200.219 211.508 200.859 210.654C203.322 207.334 204.743 204.417 205.122 201.903C205.809 197.183 204.21 191.504 200.326 184.863C197.72 180.381 193.61 175.78 187.996 171.061C183.496 167.646 181.613 166.104 182.347 166.436Z" fill="#0D131A"/>
<path d="M187.25 172.234C185.853 171.072 184.479 170.088 183.129 169.282L181.494 168.393L160.531 216.452C162.355 216.666 163.954 216.986 165.328 217.413C166.062 217.65 166.997 218.255 168.134 219.227C169.414 220.318 170.397 221.029 171.084 221.361C171.486 221.575 172.114 221.966 172.967 222.535L174.104 223.318L173.109 223.46C172.422 223.555 171.96 223.674 171.723 223.816C171.439 224.006 171.143 224.622 170.835 225.666L170.195 228.618C170.669 229.377 171.735 230.101 173.393 230.788C174.577 231.263 175.833 231.654 177.159 231.962C178.391 232.247 179.718 232.662 181.139 233.207C182.821 233.824 184.112 234.44 185.012 235.057L187.677 236.729C188.529 237.203 189.287 237.476 189.951 237.547L191.727 240.215C193.812 239.527 196.192 238.496 198.869 237.12C201.735 235.626 203.926 234.239 205.442 232.958C207.172 231.512 208.166 230.148 208.427 228.867L208.285 227.373L200.255 222.357C198.857 221.385 197.578 220.247 196.417 218.942C195.517 217.923 194.949 217.128 194.712 216.559L194.57 215.563L193.184 215.99L189.418 216.274L191.372 215.847L192.9 215.278C193.279 215.16 193.764 214.923 194.357 214.567L195.174 214.033C195.979 213.511 197.14 212.231 198.656 210.191C200.551 207.701 201.7 204.915 202.102 201.832C202.789 196.922 201.569 191.61 198.443 185.895C195.434 180.416 191.704 175.863 187.25 172.234Z" fill="#F29600"/>
<path d="M173.393 230.789C171.735 230.101 170.669 229.378 170.195 228.619C170.077 229.615 170.053 230.219 170.124 230.433C170.408 231.168 170.953 231.761 171.758 232.212L173.748 232.959L178.012 234.275C178.509 234.37 179.753 235.022 181.743 236.231L185.402 238.508L186.859 239.753C187.475 240.275 188.209 240.607 189.062 240.749C189.536 240.82 190.424 240.642 191.727 240.216L189.95 237.548C189.287 237.476 188.529 237.204 187.676 236.729L185.012 235.057C184.112 234.441 182.821 233.824 181.139 233.208C179.717 232.662 178.391 232.247 177.159 231.963C175.833 231.654 174.577 231.263 173.393 230.789Z" fill="#D18200"/>
<path d="M192.544 217.377C193.018 217.069 193.219 216.867 193.148 216.772L192.438 216.986L190.945 217.484L188.991 217.662L187.89 217.804L188.956 218.089L190.91 218.018C191.455 217.923 191.999 217.709 192.544 217.377Z" fill="#0D131A"/>
<path d="M181.601 213.002C184.325 208.994 185.687 204.524 185.687 199.591C185.687 195.725 184.822 192.097 183.093 188.705C181.411 185.433 179.113 182.729 176.2 180.595L160.531 216.453C162.355 216.666 163.953 216.986 165.327 217.413C166.062 217.65 166.997 218.255 168.134 219.227C169.413 220.318 170.396 221.03 171.083 221.362L171.119 221.397C175.43 219.737 178.924 216.939 181.601 213.002Z" fill="#D18200"/>
<path d="M206.26 225.773C205.928 225.678 205.644 225.821 205.407 226.2C205.146 226.603 204.969 227.208 204.874 228.014C204.755 229.176 204.874 230.552 205.229 232.141H212.868C213.674 232.188 214.633 232.402 215.746 232.781L217.168 233.35C217.262 233.066 217.18 232.651 216.919 232.105C216.422 231.038 215.332 229.876 213.65 228.619C212.513 227.765 211.021 227.066 209.173 226.52L206.26 225.773Z" fill="white"/>
<path d="M209.67 230.646C207.041 230.456 205.62 230.088 205.407 229.543H205.371L205.62 231.642L212.904 231.677C213.662 231.701 214.514 231.867 215.462 232.175C213.97 231.345 212.039 230.835 209.67 230.646Z" fill="#DBDCDC"/>
<path d="M206.828 225.417L206.401 225.31L205.442 225.452C204.874 225.832 204.518 226.674 204.376 227.978V229.579L205.371 229.543V228.085C205.466 227.136 205.667 226.531 205.975 226.271C206.401 225.986 207.456 226.164 209.137 226.804C210.796 227.421 212.205 228.156 213.366 229.01C215.142 230.338 216.22 231.524 216.599 232.567L215.462 232.176L214.751 232.994L216.99 233.812H217.381C217.546 233.741 217.641 233.634 217.665 233.492C217.736 233.018 217.641 232.508 217.381 231.962C216.86 230.8 215.711 229.555 213.934 228.227C212.371 227.065 210.002 226.128 206.828 225.417Z" fill="#0D131A"/>
<path d="M212.868 232.638L214.751 232.994L215.462 232.175C214.514 231.867 213.662 231.701 212.904 231.677L205.62 231.642L205.371 229.543L204.376 229.579L204.731 232.247C204.803 232.507 204.968 232.638 205.229 232.638H212.868Z" fill="#0D131A"/>
<path d="M206.65 236.835C209.303 237.547 211.4 238.543 212.939 239.824L212.335 240.037L213.97 240.748C214.017 240.274 213.899 239.669 213.615 238.934C213.093 237.44 212.063 236.005 210.523 234.63C209.457 233.705 207.953 232.638 206.011 231.428L202.955 229.65C202.6 229.436 201.996 229.733 201.143 230.539C200.196 231.393 199.568 232.353 199.26 233.42L199.082 234.096L200.539 235.27C201.179 235.65 201.759 235.887 202.28 235.982L206.65 236.835Z" fill="white"/>
<path d="M208.818 238.863C209.505 238.982 210.677 239.373 212.335 240.037L212.939 239.824C211.4 238.543 209.303 237.547 206.65 236.836L202.28 235.982C201.759 235.887 201.178 235.65 200.539 235.271L199.082 234.097C198.774 235.496 198.715 236.824 198.904 238.081L208.818 238.863Z" fill="#DBDCDC"/>
<path d="M213.33 239.788L212.939 239.753C210.997 238.946 209.647 238.484 208.889 238.365L199.366 237.618C199.224 236.148 199.343 234.796 199.722 233.563C199.982 232.662 200.503 231.82 201.285 231.037C201.948 230.397 202.434 230.077 202.742 230.077L202.92 230.183C206.331 232.104 208.759 233.705 210.203 234.986C211.791 236.385 212.809 237.855 213.259 239.397L213.33 239.788ZM211.802 240.357C213.034 240.855 213.686 241.14 213.757 241.211L214.219 241.176L214.467 240.784C214.491 240.239 214.361 239.563 214.076 238.757C213.532 237.191 212.454 235.697 210.843 234.274C209.327 232.899 206.852 231.251 203.417 229.33L203.204 229.223C202.967 229.081 202.623 229.081 202.173 229.223C201.605 229.46 200.977 229.97 200.29 230.753C199.509 231.606 198.952 232.508 198.62 233.456C198.17 234.737 197.993 235.887 198.087 236.907L198.407 238.152C198.454 238.389 198.608 238.531 198.869 238.579L208.711 239.326C209.374 239.421 210.405 239.764 211.802 240.357Z" fill="#0D131A"/>
<path d="M196.026 234.345C195.742 234.108 194.972 234.298 193.717 234.915C192.39 235.555 191.466 236.255 190.945 237.013L190.803 237.262L191.407 236.942C191.407 237.796 191.834 238.424 192.686 238.828L196.915 240.606C199.496 241.768 201.238 242.788 202.138 243.666L201.818 243.95L203.097 244.519C203.286 244.211 203.346 243.772 203.275 243.203C203.18 242.065 202.54 240.891 201.356 239.681C198.585 236.764 196.808 234.986 196.026 234.345Z" fill="white"/>
<path d="M190.093 239.931L197.057 242.172C198.218 242.551 199.805 243.144 201.818 243.95L202.138 243.666C201.238 242.788 199.497 241.768 196.915 240.606L192.687 238.828C191.834 238.425 191.407 237.796 191.407 236.942L190.803 237.263C190.188 238.282 189.951 239.172 190.093 239.931Z" fill="#DBDCDC"/>
<path d="M191.372 237.299C191.798 236.659 192.58 236.042 193.717 235.449C194.712 234.927 195.399 234.69 195.778 234.738L201.037 240.038C202.126 241.153 202.718 242.22 202.813 243.24C202.861 243.643 202.659 243.761 202.209 243.595L197.235 241.71L193.184 240.465L190.732 239.54C190.496 238.971 190.709 238.224 191.372 237.299ZM196.346 233.955C196.157 233.813 195.849 233.753 195.423 233.777C194.712 233.872 193.859 234.204 192.864 234.773C191.798 235.39 191.029 236.042 190.555 236.73C189.915 237.678 189.56 238.556 189.489 239.362C189.418 239.908 189.489 240.311 189.702 240.572C189.773 240.69 190.034 240.785 190.484 240.856L192.9 241.425L196.915 242.635C198.265 243.085 199.663 243.607 201.108 244.2L202.884 244.947C203.145 245.066 203.358 245.006 203.524 244.769C203.737 244.366 203.82 243.844 203.772 243.204C203.701 241.947 203.014 240.655 201.712 239.327C198.727 236.243 196.939 234.453 196.346 233.955Z" fill="#0D131A"/>
<path d="M142.019 70.5302C141.521 70.6488 141.119 70.9097 140.811 71.3129C140.503 71.716 140.361 72.1785 140.384 72.7002L140.811 84.1904C141.024 92.2774 141 97.566 140.74 100.056C140.408 103.044 139.461 106.981 137.897 111.866C136.215 117.084 134.403 121.448 132.461 124.957C131.466 126.736 129.322 130.175 126.03 135.274L117.538 148.792C114.411 154.033 112.232 158.207 111 161.313C108.039 168.831 105.943 175.021 104.711 179.883C102.461 188.658 101.786 196.401 102.686 203.112C103.681 210.417 106.713 216.132 111.782 220.259C116.756 224.338 123.353 226.567 131.573 226.946C141.427 227.397 150.381 225.915 158.434 222.5C169.023 218.041 177.432 210.476 183.662 199.804C189.394 189.962 190.946 178.91 188.316 166.649C186.398 157.709 182.181 148.009 175.667 137.55C169.887 128.23 166.382 115.4 165.15 99.0601C164.771 93.7004 165.375 86.7873 166.962 78.3208L169.485 67.0796C169.532 66.7713 169.342 66.4512 168.916 66.1191L167.815 65.3365C167.246 64.7911 166.571 64.6132 165.789 64.8029L142.019 70.5302Z" fill="#0D131A"/>
<path d="M179.398 202.543C171.06 209.515 162.212 213.891 152.856 215.67C143.476 217.448 135.339 216.251 128.446 212.077C127.072 216.013 125.366 218.836 123.329 220.543C122.382 221.373 121.15 222.132 119.634 222.82C123.116 224.266 127.096 225.096 131.573 225.31C140.313 225.689 148.284 224.527 155.485 221.824C165.292 218.124 173.263 211.697 179.398 202.543Z" fill="#DDD583"/>
<path d="M185.047 162.381C182.916 156.31 180.203 151.46 176.911 147.831C172.339 142.804 166.962 140.515 160.779 140.966C153.365 141.535 146.78 147.25 141.024 158.112C135.884 167.812 132.982 178.045 132.319 188.812C131.703 198.772 130.412 206.527 128.446 212.077C135.339 216.251 143.476 217.448 152.856 215.67C162.213 213.891 171.06 209.516 179.398 202.543L181.388 199.377C187.665 188.634 188.885 176.302 185.047 162.381Z" fill="#FFF697"/>
<path d="M130.684 143.669C130.684 140.895 129.82 138.357 128.091 136.057C121.79 145.827 117.502 152.93 115.228 157.365H115.37C119.61 157.365 123.223 156.025 126.207 153.345C129.192 150.689 130.684 147.464 130.684 143.669Z" fill="#D18200"/>
<path d="M142.552 72.6648L142.587 74.3368L142.729 88.0681C142.729 92.7875 142.646 96.3804 142.48 98.8468L142.374 100.056C142.019 103.471 141.107 107.657 139.638 112.614C138.027 118.068 136.262 122.527 134.344 125.989L123.684 142.958C118.189 151.638 114.636 158.017 113.025 162.096C110.04 169.685 107.92 175.958 106.665 180.915C104.58 189.191 103.965 196.496 104.817 202.828C105.433 207.405 106.902 211.342 109.223 214.638C111.426 217.792 114.352 220.271 117.999 222.073C119.871 221.361 121.375 220.52 122.512 219.547C124.786 217.603 126.539 214.247 127.771 209.48C128.908 204.95 129.737 198.464 130.258 190.021C130.566 184.851 131.442 179.373 132.887 173.586C134.427 167.42 136.334 162.12 138.608 157.685C141.095 152.823 143.985 148.768 147.277 145.519C151.494 141.369 155.876 139.128 160.424 138.796C168.359 138.203 175.252 142.424 181.103 151.46C179.232 147.262 176.981 143.041 174.352 138.796C168.335 129.167 164.723 116.254 163.515 100.056C163.302 96.8784 163.515 92.574 164.155 87.1432C164.842 81.4277 165.753 76.732 166.89 73.0561L166.286 67.0798V66.9375L142.552 72.6648Z" fill="#F29600"/>
<path d="M142.552 72.6648L142.587 74.3368L142.729 88.0681C142.729 92.7875 142.646 96.3804 142.481 98.8468L142.374 100.056L141.663 104.61C145.975 105.772 150.179 104.918 154.277 102.048C157.688 99.6531 160.85 95.9772 163.764 91.0207C164.356 83.8823 165.398 77.8941 166.891 73.0561L166.287 67.0798V66.9375L142.552 72.6648Z" fill="#D18200"/>
<path d="M103.183 172.554C99.5116 176.752 96.4678 181.282 94.0517 186.143C90.8302 192.57 89.2194 199.388 89.2194 206.598C89.2194 210.321 90.084 214.341 91.8132 218.657C92.6659 220.839 93.5305 222.677 94.407 224.171C94.5965 225.309 94.6912 226.46 94.6912 227.622C91.5408 230.041 89.4681 231.891 88.4732 233.171L86.8388 235.163L85.6307 236.586C84.5411 237.227 83.8305 237.914 83.4989 238.649C83.1909 239.385 83.0606 240.262 83.108 241.282L80.8695 245.373C80.0405 247.223 79.7089 248.989 79.8747 250.673C79.9694 251.574 80.1826 252.31 80.5142 252.879C80.9406 253.827 81.3907 254.325 81.8644 254.373L82.6461 253.804L83.108 253.199C84.2924 251.966 85.1215 251.231 85.5952 250.993L87.8692 250.14L90.6051 249.179L93.2344 249.321V250.958C93.2818 252.238 93.4595 253.306 93.7674 254.159C94.1227 255.179 94.5728 256.057 95.1176 256.792C95.6624 257.551 96.1006 257.883 96.4323 257.788C96.5981 257.764 96.9652 257.302 97.5337 256.401C97.9838 255.689 98.4812 255.073 99.0261 254.551L101.94 252.63L104.818 251.029L106.346 250.495L108.548 250.531C108.927 252.049 109.697 253.804 110.858 255.796C111.474 256.982 111.924 257.563 112.208 257.539C112.374 257.515 112.67 257.219 113.096 256.65L113.665 255.831C114.447 254.551 115.074 253.661 115.548 253.163L117.68 251.278L120.167 249.108L121.802 248.539L122.939 247.685C123.341 247.329 123.626 246.902 123.791 246.404C123.91 246.049 123.993 245.551 124.04 244.91C124.23 240.879 122.832 236.42 119.847 231.535L120.061 228.76C123.377 227.124 126.527 224.468 129.512 220.792C132.023 217.709 133.61 213.748 134.273 208.91L134.557 202.543C134.415 198.677 133.018 194.835 130.365 191.017C128.801 188.74 127.048 186.784 125.106 185.147L110.076 166.542L110.645 163.021L108.939 166.471L103.183 172.554Z" fill="#0D131A"/>
<path d="M98.7415 110.657L98.5994 109.874C98.4336 108.309 97.8177 107.064 96.7518 106.139L96.5386 105.961C95.8753 105.297 95.0226 104.799 93.9803 104.467C92.5354 103.993 91.2563 104.087 90.143 104.751C88.7454 105.558 87.6439 106.921 86.8385 108.842C85.9621 110.953 85.9621 112.672 86.8385 114.001L87.8334 115.886C88.2361 116.716 88.4611 117.273 88.5085 117.558C88.4375 117.842 88.1295 118.329 87.5847 119.016L86.3056 120.51L83.0722 119.906C81.7457 119.811 80.7864 120.214 80.1942 121.115C79.8862 121.59 79.6257 123.095 79.4125 125.633C79.1993 128.194 79.2348 129.76 79.5191 130.329C79.7086 130.708 80.0284 131.064 80.4784 131.396L82.1484 132.499L83.6052 133.068C84.2448 133.281 84.6238 133.471 84.7422 133.637C85.5239 134.491 86.6727 136.186 88.1887 138.724C88.5677 139.364 89.231 139.862 90.1785 140.218L92.3814 140.716C94.1817 147.973 95.7924 153.143 97.2137 156.226C98.327 158.669 99.6298 160.376 101.122 161.349C102.449 162.202 104.083 162.653 106.025 162.7C107.755 162.748 109.117 162.499 110.112 161.953C110.419 161.787 111.853 160.353 114.411 157.649L118.923 152.989L121.375 151.21L123.933 149.538C124.904 148.874 126.065 148.234 127.415 147.617L129.156 146.906L130.507 146.799L132.034 147.084L132.852 147.333L131.288 146.23C132.709 146.04 133.432 145.827 133.456 145.59C133.479 145.447 133.302 145.353 132.923 145.305H132.319L142.907 128.941C143.712 129.321 144.174 129.321 144.293 128.941C144.364 128.704 144.352 128.503 144.257 128.337L143.795 127.839C143.535 127.625 142.481 127.009 140.633 125.989C138.951 125.088 137.021 124.412 134.841 123.961C132.473 123.487 130.661 123.475 129.405 123.925C127.131 124.756 125.532 125.929 124.608 127.447C123.732 128.941 123.282 131.171 123.258 134.135L121.446 135.131C120.664 135.582 120.06 136.032 119.634 136.483L119.03 137.159L115.939 140.645C114.47 142.281 113.369 143.36 112.634 143.882C111.639 144.594 110.455 144.973 109.081 145.02L106.31 144.807L105.706 140.787C105.492 138.582 105.469 137.099 105.635 136.341L107.695 134.597C108.761 134.218 109.472 133.874 109.827 133.566C110.538 132.854 110.858 131.704 110.787 130.115L110.751 128.408L111.355 127.874C113.013 126.499 114.127 125.384 114.695 124.53C115.572 123.25 115.82 121.767 115.441 120.084C115.086 118.542 114.47 117.582 113.594 117.202C112.907 116.918 112.575 116.799 112.599 116.846L109.117 115.103C108.524 114.89 107.956 114.937 107.411 115.246L106.31 116.242C105.646 116.906 105.256 117.25 105.137 117.273L102.686 117.593L100.447 113.965C99.4522 112.234 98.8837 111.131 98.7415 110.657Z" fill="#0D131A"/>
<path d="M96.7872 111.049L96.503 109.057C96.3609 108.25 96.1358 107.717 95.8279 107.456L93.9803 106.069C92.867 105.642 91.5523 105.843 90.0363 106.673L88.7572 109.057C88.0229 110.812 87.9281 112.104 88.4729 112.934C88.8282 113.456 89.2072 114.322 89.6099 115.531C90.0363 116.764 90.2139 117.571 90.1429 117.95C90.0008 118.828 89.373 119.776 88.2597 120.796L86.6253 122.041L84.6711 121.472C83.2735 121.235 82.326 121.484 81.8286 122.219C81.3074 122.978 81.0232 124.318 80.9758 126.239C80.9284 127.922 81.0232 128.99 81.2601 129.44L83.2853 130.899C84.6355 131.705 85.5001 132.31 85.8791 132.713L88.1531 135.417C89.148 136.65 89.7284 137.432 89.8942 137.764C90.2732 138.405 91.0785 138.891 92.3103 139.223L94.0513 139.507L94.5843 142.851C95.1291 145.626 95.899 148.306 96.8938 150.891C98.0545 153.879 98.9783 155.895 99.6653 156.938C100.257 157.816 101.134 158.634 102.295 159.393C103.313 160.057 104.592 160.448 106.132 160.567C107.553 160.686 108.595 160.555 109.259 160.176C109.638 159.986 110.479 159.097 111.781 157.508C113.155 155.824 114.209 154.709 114.944 154.164L118.568 151.211C120.297 149.764 121.707 148.674 122.796 147.938C124.241 146.942 126.941 146.124 130.897 145.484L132.567 145.27H133.207L143.262 129.156L138.323 126.95C134.723 125.598 132.176 125.183 130.684 125.705C128.931 126.345 127.652 127.045 126.847 127.804C126.112 128.468 125.568 129.381 125.212 130.543C124.786 131.99 124.644 133.555 124.786 135.239L123.294 136.092C122.18 136.78 121.328 137.444 120.735 138.085L117.609 141.464C116.045 143.053 114.79 144.191 113.842 144.879C111.781 146.349 109.448 146.978 106.843 146.764C107.032 147.429 107.541 148.021 108.37 148.543L110.147 149.788L111.604 150.642C111.983 150.95 112.184 151.389 112.208 151.958C112.232 152.598 111.971 153.583 111.426 154.911C110.881 156.215 110.514 156.832 110.325 156.761L110.716 155.516C111.142 154.425 111.32 153.31 111.248 152.172C111.248 151.934 111.095 151.697 110.787 151.46C110.597 151.342 110.135 151.069 109.401 150.642L107.837 149.753C106.961 149.183 106.168 148.33 105.457 147.191L105.173 146.551L104.675 144.701L103.787 140.61C103.574 139.33 103.538 138.096 103.68 136.911L104 135.523C105.54 134.029 106.558 133.175 107.056 132.962L108.228 132.357C108.631 131.93 108.832 131.183 108.832 130.116L108.797 128.266L108.939 127.484L110.929 125.99C112.279 125.065 113.167 124.306 113.594 123.713C114.636 122.266 114.861 120.962 114.269 119.8L113.096 118.484L108.477 116.954L107.482 117.843C106.819 118.555 106.25 118.994 105.777 119.16L103.396 119.551L101.619 119.373C101.312 119.207 100.459 117.926 99.0612 115.531C97.64 113.136 96.882 111.642 96.7872 111.049Z" fill="#F29600"/>
<path d="M104.036 123.392C104.131 124.341 104.64 124.958 105.564 125.242C106.416 125.503 107.103 125.408 107.624 124.958C108.619 124.104 109.484 123.523 110.218 123.215L111.355 123.037L112.208 122.93C113.037 122.788 113.617 122.112 113.949 120.902C114.162 120.072 114.186 119.242 114.02 118.412C113.783 117.416 113.286 116.574 112.528 115.886C111.628 115.08 110.538 114.736 109.259 114.855C108.098 114.973 107.317 115.317 106.914 115.886L106.701 116.1C105.208 117.594 104.367 118.922 104.178 120.084C103.965 121.412 103.917 122.515 104.036 123.392Z" fill="#0D131A"/>
<path d="M104.32 122.361L104.498 120.155C104.687 119.112 105.492 117.843 106.914 116.349L107.162 116.1C107.541 115.626 108.252 115.329 109.294 115.211C110.431 115.068 111.438 115.377 112.314 116.136C113.309 117.037 113.807 118.163 113.807 119.515L113.629 120.796C113.321 121.887 112.836 122.491 112.172 122.61L111.32 122.717L110.076 122.895C109.342 123.227 108.56 123.748 107.731 124.46C107.233 124.839 106.594 124.97 105.812 124.851C104.959 124.709 104.486 124.27 104.391 123.535L104.32 122.361ZM103.858 120.049C103.621 121.472 103.704 122.764 104.107 123.926C104.557 125.112 104.983 125.812 105.386 126.025C105.789 126.238 106.333 126.037 107.02 125.42C107.707 124.804 108.821 124.163 110.36 123.499L112.279 123.25C113.226 123.108 113.89 122.349 114.269 120.974C114.506 120.096 114.529 119.219 114.34 118.341C114.103 117.298 113.57 116.408 112.741 115.673C111.793 114.796 110.621 114.416 109.223 114.535L107.66 114.962L106.665 115.673L106.452 115.887C104.936 117.404 104.071 118.792 103.858 120.049Z" fill="#0D131A"/>
<path d="M109.223 115.779C108.465 115.898 107.968 116.099 107.731 116.384L106.523 117.736C105.812 118.613 105.398 119.384 105.279 120.048C105.019 121.661 105.031 122.965 105.315 123.961L105.848 124.993L106.097 124.744C106.476 123.677 107.447 122.574 109.01 121.435L110.005 121.186C110.597 121.092 111.095 120.914 111.497 120.653L113.025 119.052C112.93 118.009 112.516 117.178 111.782 116.562C111.071 115.922 110.218 115.661 109.223 115.779Z" fill="white"/>
<path d="M111.959 121.721C112.243 121.673 112.504 121.389 112.741 120.867C112.978 120.298 113.072 119.693 113.025 119.053L111.497 120.654C111.094 120.914 110.597 121.092 110.005 121.187L109.01 121.436C107.447 122.575 106.475 123.677 106.096 124.744C107.494 123.416 108.738 122.515 109.827 122.041L110.858 121.827L111.959 121.721Z" fill="#DBDCDC"/>
<path d="M91.1376 104.788C89.9296 105.333 89.1479 106.258 88.7925 107.562C88.5557 108.392 88.5201 109.294 88.686 110.266C88.8044 111.12 89.0057 111.724 89.29 112.08C92.5352 115.211 94.6671 116.894 95.6856 117.132C96.1594 117.203 96.5029 117.108 96.716 116.847C97.2372 116.207 97.6043 114.855 97.8175 112.792C98.0544 110.61 97.9241 109.009 97.4267 107.989C95.9817 104.645 93.8854 103.578 91.1376 104.788Z" fill="#0D131A"/>
<path d="M91.3868 105.321C92.7844 104.704 93.9688 104.764 94.94 105.499C95.6506 106.021 96.302 106.934 96.8942 108.238C97.3442 109.21 97.4982 110.764 97.3561 112.898C97.2376 114.938 96.9771 116.206 96.5744 116.704L96.0414 116.776C95.4966 116.657 94.3478 115.851 92.5949 114.357L89.7524 111.724L89.3615 110.728L89.1839 109.092L89.3615 107.704C89.6458 106.59 90.3209 105.795 91.3868 105.321ZM97.7469 107.74C97.1547 105.985 96.2428 104.799 95.011 104.183C93.8029 103.566 92.4409 103.59 90.9249 104.254C89.4563 104.894 88.5443 106.115 88.189 107.918C87.8574 109.625 88.1535 111.06 89.0773 112.222C89.9774 113.503 91.2684 114.783 92.9502 116.064C94.7268 117.44 95.9467 117.997 96.6099 117.736C97.3442 117.451 97.8654 116.195 98.1733 113.965C98.5049 111.617 98.3628 109.542 97.7469 107.74Z" fill="#0D131A"/>
<path d="M96.5388 108.061C95.9703 106.804 95.3426 105.938 94.6556 105.464L91.5644 105.357C90.9012 105.618 90.3801 106.092 90.0011 106.78C90.0958 108.132 90.4511 109.294 91.067 110.266C92.6304 112.614 94.3596 114.725 96.2546 116.598C96.6336 116.646 96.8941 115.495 97.0363 113.148C97.1784 110.752 97.0126 109.057 96.5388 108.061Z" fill="white"/>
<path d="M92.9147 114.001C94.6439 115.613 95.7454 116.479 96.2191 116.598H96.2546C94.3596 114.724 92.6305 112.613 91.0671 110.265C90.4512 109.293 90.0959 108.131 90.0011 106.779C89.6221 107.514 89.4918 108.416 89.6103 109.483C89.705 110.289 89.859 110.858 90.0722 111.19L92.9147 114.001Z" fill="#DBDCDC"/>
<path d="M90.3207 125.954L88.6152 122.716C87.9756 121.981 87.1702 121.602 86.199 121.578C85.2278 121.578 84.3514 121.981 83.5697 122.788C82.717 123.641 82.3972 124.744 82.6104 126.096C82.8235 127.163 83.5579 128.005 84.8133 128.622L87.5492 129.582C89.1837 130.08 90.297 130.294 90.8892 130.222L91.6353 130.151C91.8248 129.606 91.3866 128.207 90.3207 125.954Z" fill="#0D131A"/>
<path d="M90.2497 126.63C91.1735 128.669 91.5999 129.784 91.5288 129.974L90.4273 129.903L87.9401 129.476C87.1111 129.262 86.1044 128.859 84.92 128.266C83.7593 127.673 83.096 126.926 82.9302 126.025L82.8947 125.314C82.8947 124.389 83.1908 123.63 83.783 123.037C84.541 122.254 85.3345 121.887 86.1636 121.934C87.0637 121.934 87.7862 122.254 88.331 122.895L90.2497 126.63ZM92.2039 130.614C92.4645 130.377 92.1802 129.203 91.3512 127.092C90.4984 124.91 89.6693 123.369 88.864 122.468C88.1296 121.685 87.2414 121.282 86.1991 121.258C85.1332 121.258 84.1738 121.697 83.3211 122.575C82.3736 123.523 82.0301 124.709 82.2907 126.132C82.4091 126.82 82.6933 127.46 83.1434 128.053L84.5291 129.227C85.145 129.559 86.4952 129.926 88.5797 130.33L92.2039 130.614Z" fill="#0D131A"/>
<path d="M83.3919 124.389C84.0315 125.361 84.9434 126.298 86.1278 127.199C87.5964 128.266 89.2901 129.12 91.2088 129.76C91.422 129.736 90.9601 128.645 89.8231 126.487C88.7334 124.424 88.0346 123.215 87.7267 122.859C87.324 122.432 86.8503 122.183 86.3055 122.112C85.5238 121.993 84.7895 122.29 84.1025 123.001C83.6998 123.404 83.463 123.867 83.3919 124.389Z" fill="white"/>
<path d="M84.7781 127.874L87.9048 128.977C89.6814 129.546 90.7829 129.807 91.2092 129.76C89.2905 129.119 87.5969 128.266 86.1282 127.198C84.9439 126.297 84.0319 125.361 83.3923 124.388C83.2976 125.1 83.4397 125.847 83.8187 126.629C84.1266 127.27 84.4464 127.685 84.7781 127.874Z" fill="#DBDCDC"/>
<path d="M96.6805 126.736C97.3437 127.282 97.9833 127.934 98.5992 128.693C99.8546 130.234 100.399 131.562 100.234 132.677C100.139 133.436 99.8783 134.183 99.4519 134.918C100.707 134.61 101.75 133.886 102.579 132.748C103.408 131.586 103.822 130.27 103.822 128.799C103.822 127.068 103.277 125.586 102.188 124.353C101.122 123.12 99.8191 122.503 98.2794 122.503C97.3319 122.503 96.4436 122.764 95.6145 123.286C94.8092 123.784 94.1459 124.459 93.6248 125.313C95.0697 125.788 96.0883 126.262 96.6805 126.736Z" fill="#D18200"/>
<path d="M96.6808 126.736C96.2781 126.428 95.5793 126.072 94.5844 125.669C93.6133 125.266 93.104 125.112 93.0566 125.207L94.3002 125.918L96.1834 126.985C96.8229 127.483 97.5217 128.325 98.2797 129.511C99.1561 130.934 99.5351 132.084 99.4167 132.962C99.2035 134.503 98.3152 135.962 96.7519 137.337L94.5489 139.009C94.6673 139.318 95.5438 138.808 97.1782 137.48C98.9548 136.033 99.9734 134.432 100.234 132.677C100.4 131.563 99.8549 130.234 98.5995 128.693C97.9836 127.934 97.344 127.282 96.6808 126.736Z" fill="#0D131A"/>
<path d="M112.457 163.519L111.853 164.978C111.355 166.092 110.846 166.993 110.325 167.681L105.741 172.306C102.78 175.65 100.021 179.895 97.4624 185.041C94.6199 190.733 92.8433 195.986 92.1327 200.8C91.6116 204.476 91.6945 208.211 92.3814 212.006C92.8315 214.614 93.5421 217.27 94.5133 219.974L95.9346 223.887C96.1004 224.717 96.1951 225.63 96.2188 226.626C96.2662 227.646 96.207 228.227 96.0412 228.369L93.6961 230.255C92.0143 231.678 90.8654 232.804 90.2495 233.634L86.8385 237.939L86.0213 238.365C85.4291 238.697 85.0857 238.994 84.9909 239.255C84.6593 240.061 84.7067 241.105 85.133 242.385C85.6542 243.879 86.5543 244.97 87.8334 245.658L90.7825 247.223C90.9246 245.8 91.1852 245.195 91.5642 245.409C92.8196 246.168 94.0277 246.334 95.1884 245.907V248.539L100.198 249.037L102.721 249.144C103.716 246.867 104.533 246.002 105.173 246.547C105.789 247.093 106.594 247.259 107.589 247.045C108.465 246.856 109.14 246.476 109.614 245.907L109.721 249.109C113.108 248.99 115.856 248.634 117.964 248.041L118.959 245.231C119.669 244.852 120.285 244.247 120.806 243.417C121.328 242.563 121.671 241.626 121.837 240.607C121.339 237.856 120.202 235.093 118.426 232.318C118.284 232.057 118.236 231.014 118.284 229.187L116.863 229.472L113.629 229.614L111.959 229.365L113.594 229.081L116.578 228.583L118.319 228.085V228.049C118.864 227.931 119.646 227.527 120.664 226.84C122.725 225.44 124.94 223.282 127.309 220.365C129.749 217.353 131.324 213.903 132.034 210.013C132.413 207.95 132.544 205.235 132.425 201.867C132.283 197.907 131.04 193.839 128.694 189.665L125.212 184.578L112.457 163.519Z" fill="#F29600"/>
<path d="M91.5645 245.409C91.1855 245.196 90.925 245.8 90.7828 247.223C91.9435 247.792 93.4122 248.231 95.1887 248.539V245.907C94.028 246.334 92.82 246.168 91.5645 245.409Z" fill="#D18200"/>
<path d="M105.173 246.548C104.533 246.002 103.716 246.868 102.721 249.144C105.137 249.216 107.471 249.204 109.721 249.109L109.614 245.907C109.141 246.476 108.466 246.856 107.589 247.046C106.594 247.259 105.789 247.093 105.173 246.548Z" fill="#D18200"/>
<path d="M121.837 240.606C121.671 241.626 121.328 242.563 120.806 243.417C120.285 244.247 119.669 244.852 118.959 245.231L117.964 248.041C120.688 247.33 122.086 246.274 122.157 244.875C122.228 243.523 122.121 242.101 121.837 240.606Z" fill="#D18200"/>
<path d="M90.7473 244.911L90.8894 244.982C90.3209 243.559 89.5984 242.456 88.722 241.673C87.7745 240.843 87.0875 240.322 86.6612 240.108C86.1874 239.847 85.8203 239.883 85.5597 240.215L83.9963 242.669L82.1842 246.013C81.4499 247.673 81.1538 249.227 81.2959 250.673C81.367 251.409 81.5091 251.966 81.7223 252.345C81.8644 251.349 82.5751 250.282 83.8542 249.144C84.8964 248.219 85.7729 247.626 86.4835 247.365C87.36 247.081 88.1772 246.76 88.9352 246.405C90.0722 245.836 90.6762 245.337 90.7473 244.911Z" fill="white"/>
<path d="M91.2446 247.116C91.5525 246.998 91.4341 246.286 90.8893 244.982L90.7471 244.911C90.6761 245.338 90.072 245.836 88.935 246.405C88.177 246.76 87.3598 247.081 86.4834 247.365C85.7727 247.626 84.8963 248.219 83.8541 249.144C82.5749 250.282 81.8643 251.349 81.7222 252.345C83.0961 250.923 84.1028 250.045 84.7423 249.713L88.1533 248.326L91.2446 247.116Z" fill="#DBDCDC"/>
<path d="M98.8483 240.963L96.5388 244.164C95.1649 246.299 94.478 247.995 94.478 249.251C94.478 251.504 94.7267 253.295 95.2241 254.623L95.9703 255.904L96.2901 255.441C96.219 254.042 96.9652 252.631 98.5285 251.208C99.6182 250.188 100.684 249.465 101.726 249.038C103.361 248.327 104.285 247.425 104.498 246.334C103.929 244.722 103.29 243.524 102.579 242.742C101.821 241.935 101.028 241.366 100.199 241.034L98.8483 240.963Z" fill="white"/>
<path d="M101.726 249.038C100.684 249.464 99.6181 250.188 98.5285 251.208C96.9651 252.63 96.2189 254.042 96.29 255.441L97.8178 253.627C98.2916 253.176 99.5352 252.334 101.549 251.101C103.467 249.915 104.592 249.275 104.924 249.18C105.066 249.156 105.09 248.86 104.995 248.291C104.924 247.721 104.758 247.069 104.498 246.334C104.285 247.425 103.361 248.326 101.726 249.038Z" fill="#DBDCDC"/>
<path d="M117.147 242.314C116.626 241.674 116.081 241.164 115.512 240.785C114.849 240.382 114.399 240.322 114.162 240.607L111.888 243.346C110.609 244.959 109.899 246.014 109.756 246.512C109.377 247.793 109.662 249.642 110.609 252.061C111.083 253.271 111.604 254.35 112.173 255.299L112.386 254.943V254.765C112.457 253.579 112.883 252.441 113.665 251.35L115.655 249.038L117.325 247.33L118.746 245.729C118.177 244.046 117.644 242.907 117.147 242.314Z" fill="white"/>
<path d="M115.655 249.037L113.665 251.35C112.883 252.441 112.457 253.579 112.386 254.765V254.942C113.286 253.591 113.937 252.701 114.34 252.274L119.03 247.721C119.22 247.579 119.125 246.915 118.746 245.729L117.325 247.33L115.655 249.037Z" fill="#DBDCDC"/>
<path d="M90.4628 244.52C90.984 245.635 91.209 246.417 91.1379 246.868L90.9958 247.081L90.1431 247.402L84.8134 249.536C84.2212 249.868 83.2618 250.71 81.9353 252.062C81.7221 251.73 81.58 251.172 81.5089 250.39C81.3668 249.038 81.6511 247.591 82.3617 246.05L84.0672 242.848L85.595 240.5C85.7135 240.334 85.8556 240.251 86.0214 240.251C86.4241 240.204 87.2887 240.749 88.6152 241.888C89.2785 242.481 89.8943 243.358 90.4628 244.52ZM90.605 248.647L91.4932 248.291C91.9907 248.125 92.2986 247.734 92.4171 247.117C92.5355 246.382 92.2749 245.338 91.6354 243.987C90.9958 242.635 90.2733 241.603 89.468 240.892L87.5493 239.398C86.9334 239.042 86.3767 238.888 85.8793 238.935C85.3582 239.006 84.9081 239.267 84.5291 239.718L82.9657 242.172L81.1892 245.516C80.3601 247.319 80.0403 249.038 80.2298 250.674C80.3246 251.504 80.5141 252.18 80.7983 252.702L81.2247 253.485L81.7221 253.805C81.9353 253.852 82.113 253.781 82.2551 253.591L82.8591 252.987C84.1856 251.659 85.0502 250.9 85.4529 250.71C86.0214 250.378 87.7388 249.69 90.605 248.647Z" fill="#0D131A"/>
<path d="M104.782 249.002L104.64 249.18C104.285 249.299 103.207 249.915 101.407 251.03C99.5116 252.168 98.3391 252.951 97.889 253.378L96.148 255.548C95.8874 255.334 95.6506 254.919 95.4374 254.303C94.9636 253.046 94.7267 251.35 94.7267 249.216C94.7267 247.461 96.0651 244.899 98.7418 241.532L98.8839 241.318L99.2392 241.176C99.5945 241.152 100.033 241.283 100.554 241.567C101.217 241.899 101.845 242.386 102.437 243.026C103.077 243.714 103.657 244.781 104.178 246.228C104.699 247.603 104.901 248.528 104.782 249.002ZM105.066 250.425C105.54 250.283 105.86 249.927 106.026 249.358C106.239 248.623 106.049 247.437 105.457 245.801C104.841 244.188 104.154 242.967 103.396 242.137C102.733 241.401 102.011 240.832 101.229 240.429C100.471 240.026 99.784 239.836 99.1682 239.86C98.5997 239.907 98.1496 240.133 97.818 240.536L97.7114 240.714C94.8452 244.318 93.4121 247.152 93.4121 249.216C93.4121 251.54 93.6845 253.413 94.2293 254.836C94.5372 255.643 94.8926 256.224 95.2952 256.579L95.8638 257.042L96.3967 257.22L96.8586 256.9L97.2495 256.259C97.7232 255.5 98.2325 254.86 98.7773 254.338C99.1563 253.982 100.234 253.259 102.011 252.168C103.74 251.101 104.758 250.52 105.066 250.425Z" fill="#0D131A"/>
<path d="M113.843 241.354L114.162 240.962C114.281 240.844 114.411 240.784 114.553 240.784C114.885 240.784 115.288 240.974 115.761 241.354C116.235 241.709 116.65 242.124 117.005 242.599C117.384 243.049 117.822 243.927 118.32 245.231C118.841 246.607 119.007 247.449 118.817 247.757L116.721 249.713L114.34 252.061C113.843 252.607 113.156 253.567 112.279 254.943C111.521 253.662 110.905 252.322 110.432 250.923C109.816 249.049 109.662 247.603 109.97 246.583C110.159 245.919 111.45 244.176 113.843 241.354ZM118.035 241.781C117.727 241.354 117.301 240.915 116.756 240.464C115.951 239.8 115.217 239.468 114.553 239.468C114.008 239.468 113.547 239.682 113.168 240.109L112.848 240.5C110.337 243.441 108.963 245.338 108.726 246.192C108.3 247.615 108.525 249.536 109.401 251.955C109.899 253.259 110.479 254.48 111.142 255.619L111.675 256.543L112.244 256.899L112.777 256.579L113.381 255.654L115.299 252.951L119.67 248.717C120.357 248.124 120.321 246.832 119.563 244.84C118.995 243.393 118.485 242.373 118.035 241.781Z" fill="#0D131A"/>
<path d="M114.126 231.18L116.116 230.753C116.803 230.516 117.123 230.338 117.075 230.22L116.187 230.326L114.375 230.575L111.462 230.504C110.182 230.433 109.543 230.433 109.543 230.504L111.355 230.931L114.126 231.18Z" fill="#0D131A"/>
<path d="M146.886 7.38782C145.181 7.26925 143.76 8.47874 142.623 11.0163C142.315 11.6803 141.948 13.1389 141.521 15.3918L140.633 20.3721C140.467 21.3444 139.65 24.9492 138.181 31.1864C137.66 33.4631 135.99 36.8307 133.171 41.2892L131.146 44.8466L130.542 46.8031C130.447 47.562 130.838 49.3051 131.715 52.0324C131.265 53.5265 131.099 55.6609 131.217 58.4356L128.908 65.0167L127.664 68.2183L126.207 71.0997C126.018 71.408 125.674 71.574 125.177 71.5977C124.75 71.6452 124.336 72.0483 123.933 72.8072C123.152 74.3013 123.945 77.0879 126.314 81.167L130.08 86.8587C129.772 88.8745 130.72 90.2026 132.923 90.8429L137.933 91.4477C138.477 91.5188 139.271 91.839 140.313 92.4082C141.261 92.9062 142.35 93.1552 143.582 93.1552C145.051 93.1552 146.756 92.6097 148.699 91.5188C150.38 90.6176 151.411 89.8587 151.79 89.2421L154.028 86.4674L157.119 82.7322L161.277 78.1788L165.078 74.1946C165.576 73.6254 166.18 73.2341 166.891 73.0207L167.779 72.8784C169.39 71.4554 170.763 69.6056 171.9 67.3289C172.801 65.5028 173.251 64.2103 173.251 63.4514C173.251 62.906 173.12 61.8032 172.86 60.1431C172.576 58.3644 172.279 56.9297 171.972 55.8387C171.261 53.3249 170.906 51.2379 170.906 49.5778C170.906 48.1312 171.533 45.6173 172.789 42.0363C173.334 40.4236 175.075 37.1983 178.012 32.3603L181.103 28.554L184.727 24.3207C185.485 23.3958 185.829 22.2338 185.758 20.8346C185.687 19.6251 185.402 18.8424 184.905 18.4867C184.408 18.131 183.567 17.9413 182.382 17.9175C181.269 17.9175 180.392 18.048 179.753 18.3088C179.208 18.5223 178.13 19.4116 176.52 20.9768L171.794 25.7081C167.885 29.6212 164.522 32.55 161.703 34.4947C160.519 35.3248 158.849 35.5026 156.693 35.0283C154.964 34.6726 153.247 33.9967 151.541 33.0006C150.333 32.2892 149.563 30.9374 149.232 28.9453C149.089 28.0441 149.018 26.3366 149.018 23.8227L149.409 17.1349C149.646 13.9333 149.753 12.0598 149.729 11.5143C149.682 10.4708 149.468 9.60523 149.089 8.91748C148.616 7.96885 147.881 7.45897 146.886 7.38782Z" fill="#F29600"/>
<path d="M139.034 78.0357L137.364 78.676L135.943 78.8539L134.699 78.8183L134.024 78.6404L133.633 78.7116C133.562 78.9013 133.752 79.0792 134.202 79.2452L135.907 79.5298C136.997 79.5298 138.11 79.2452 139.247 78.676C139.531 78.5337 140.017 78.427 140.704 78.3559L142.054 78.3203C142.338 78.3677 143.132 79.0436 144.435 80.348C144.909 80.8223 145.264 80.8934 145.501 80.5614C145.667 80.348 145.441 79.9922 144.826 79.4942L143.333 78.3914C142.504 77.846 141.794 77.5732 141.201 77.5732C140.586 77.5732 139.863 77.7274 139.034 78.0357Z" fill="#0D131A"/>
<path d="M138.963 83.7279L140.526 83.301L141.77 83.6568C142.291 83.7279 142.646 83.6331 142.836 83.3722C142.931 83.2299 142.753 82.9927 142.303 82.6607C141.853 82.3524 141.486 82.1864 141.201 82.1627C140.941 82.139 140.491 82.2813 139.851 82.5896L138.679 83.2655C138.513 83.4078 138.466 83.5382 138.537 83.6568L138.963 83.7279Z" fill="#0D131A"/>
<path d="M126.314 77.3245C126.195 77.4668 126.266 77.7039 126.527 78.036L127.166 78.7474L128.374 80.5972C128.564 80.9293 128.777 81.0716 129.014 81.0241C129.275 80.953 129.334 80.787 129.192 80.5261C129.026 80.1941 128.599 79.5538 127.912 78.6051C127.747 78.3206 127.451 78.0241 127.024 77.7158C126.598 77.3838 126.361 77.2534 126.314 77.3245Z" fill="#0D131A"/>
<path d="M145.181 55.8033L145.288 55.412C145.288 55.2459 145.228 55.1392 145.11 55.0918L144.506 55.3764L144.044 56.657L143.582 57.2973L143.333 57.8665L143.618 58.5424C143.831 58.7321 144.008 58.8033 144.151 58.7559C144.316 58.6847 144.399 58.246 144.399 57.4396L144.719 56.6215L145.181 55.8033Z" fill="#0D131A"/>
<path d="M144.151 59.1471C143.937 59.2419 144.008 59.9771 144.364 61.3526L145.998 66.0127L146.922 67.2578C147.443 67.7795 147.775 67.993 147.917 67.8981C148.154 67.7321 148.023 67.2697 147.526 66.5108L147.064 65.906L146.602 65.1945L145.714 63.0601L144.861 60.819C144.506 59.6095 144.269 59.0522 144.151 59.1471Z" fill="#0D131A"/>
<path d="M135.872 55.6963L135.694 56.2655L135.659 57.2615L135.872 58.969C135.872 60.1074 136.061 60.641 136.44 60.5698C136.677 60.5224 136.796 60.3445 136.796 60.0362L136.725 59.2536L136.334 57.6528C136.168 56.3722 136.014 55.72 135.872 55.6963Z" fill="#0D131A"/>
<path d="M152.11 82.7324L152.003 84.6533C152.027 85.0565 151.849 85.3292 151.47 85.4715C151.091 85.6138 150.736 85.4597 150.404 85.0091L149.978 85.6494C150.523 86.3371 151.115 86.681 151.754 86.681C152.181 86.681 152.501 86.1711 152.714 85.1514C152.927 84.1553 152.998 82.934 152.927 81.4873L152.11 82.7324Z" fill="#0D131A"/>
<path d="M151.612 85.6139C152.039 85.4241 152.204 84.4637 152.11 82.7324L150.404 85.0091L151.115 85.5783L151.612 85.6139Z" fill="white"/>
<path d="M131.75 54.0596L131.608 54.9845C131.466 56.0991 131.454 57.2849 131.573 58.5418C131.596 59.0398 131.845 59.7157 132.319 60.5695C132.911 61.613 133.61 62.3244 134.415 62.7039C134.368 61.281 134.131 59.9055 133.705 58.5774C133.207 57.0596 132.556 55.5537 131.75 54.0596Z" fill="white"/>
<path d="M76.7477 57.4388C76.5819 57.3677 76.3332 57.4744 76.0015 57.759L75.362 58.4349C72.8274 61.8025 70.4113 67.3638 68.1136 75.1188C65.7211 83.1346 64.063 91.4944 63.1392 100.198C63.0444 100.957 63.0563 101.633 63.1747 102.226C63.2695 102.771 63.4235 103.056 63.6366 103.079C64.063 103.127 64.3591 102.202 64.5249 100.305C65.3066 92.4312 66.87 84.4864 69.2151 76.4706C71.3943 69.0002 73.7394 63.1543 76.2503 58.9329C76.7951 58.0317 76.9609 57.5337 76.7477 57.4388Z" fill="#0D131A"/>
<path d="M66.5856 63.8424C66.4198 63.7713 66.0645 64.1033 65.5197 64.8385L64.6314 66.1903C59.0885 81.5105 57.004 96.1075 58.3779 109.981L58.52 111.76C58.6385 112.756 58.7806 113.254 58.9464 113.254C59.0885 113.254 59.2425 112.815 59.4083 111.938L59.6215 110.301C59.053 92.1825 61.2086 77.5145 66.0882 66.297C66.7515 64.8029 66.9173 63.9847 66.5856 63.8424Z" fill="#0D131A"/>
<path d="M215.249 66.4389L214.787 65.7275C214.574 65.4191 214.396 65.2887 214.254 65.3361C214.088 65.3836 214.005 65.6207 214.005 66.0476L214.147 66.9725C215.521 70.767 216.564 75.9607 217.274 82.5537C218.056 89.5972 218.21 96.1071 217.736 102.083V103.4C217.783 104.064 217.89 104.396 218.056 104.396C218.222 104.396 218.388 104.064 218.553 103.4L218.767 102.119C219.501 95.953 219.477 89.0754 218.695 81.4865C217.937 73.9923 216.789 68.9765 215.249 66.4389Z" fill="#0D131A"/>
<path d="M220.152 74.728C219.939 74.0165 219.714 73.6964 219.477 73.7675C219.311 73.7912 219.205 73.981 219.157 74.3367V75.1193C220.792 81.4988 222.023 88.0324 222.853 94.7202C223.729 101.835 224.061 108.523 223.847 114.784C223.847 116.159 223.966 116.859 224.203 116.882C224.369 116.882 224.487 116.586 224.558 115.993L224.629 114.784C225.458 108.641 225.399 101.906 224.451 94.5779C223.646 88.1747 222.213 81.5581 220.152 74.728Z" fill="#0D131A"/>
<path d="M160.922 55.3398C160.614 55.1975 160.27 55.2449 159.891 55.4821L152.607 60.8893L152.11 61.3161C151.684 61.577 151.376 61.9683 151.186 62.4901L150.689 63.5217L149.943 65.2648L150.085 65.7628L151.648 65.8339L156.089 64.9802L156.48 64.8735L160.247 63.8774C161.218 63.5217 161.763 63.1067 161.881 62.6323C161.999 62.0869 162.011 61.079 161.917 59.6086L161.561 56.3359C161.467 55.8141 161.253 55.4821 160.922 55.3398Z" fill="white"/>
<path d="M160.922 55.3398C160.614 55.1975 160.27 55.2449 159.891 55.4821L152.607 60.8893L152.11 61.3161C151.684 61.577 151.376 61.9683 151.186 62.4901L150.689 63.5217L149.943 65.2648L150.085 65.7628L151.648 65.8339L156.089 64.9802L156.48 64.8735L160.247 63.8774C161.218 63.5217 161.763 63.1067 161.881 62.6323C161.999 62.0869 162.011 61.079 161.917 59.6086L161.561 56.3359C161.467 55.8141 161.253 55.4821 160.922 55.3398Z" fill="white"/>
<path d="M157.084 57.4751L157.013 57.5462L152.11 61.317C151.683 61.5779 151.375 61.9692 151.186 62.4909L150.689 63.5226L149.942 65.2657L150.084 65.7637L151.648 65.8348L155.77 65.0522C156.788 63.4396 157.297 61.6253 157.297 59.6095C157.297 58.8743 157.226 58.1628 157.084 57.4751Z" fill="#008086"/>
<path d="M133.918 62.8467L134.806 63.3092L134.77 62.6689C134.747 61.1985 134.51 59.7993 134.06 58.4712L133.029 55.8032C132.698 56.6807 132.532 57.5937 132.532 58.5424C132.532 60.1787 132.994 61.6135 133.918 62.8467Z" fill="#008086"/>
<path d="M133.989 61.4947C134.202 61.4947 134.415 61.3524 134.628 61.0678L134.06 58.4709C133.799 57.6409 133.467 56.7871 133.065 55.9097C132.733 56.5737 132.567 57.38 132.567 58.3287C132.567 59.2061 132.709 59.9532 132.994 60.5698C133.254 61.1864 133.586 61.4947 133.989 61.4947Z" fill="#00666C"/>
<path d="M133.491 60.713C133.657 61.3772 134 61.6618 134.522 61.567C134.474 61.0688 134.285 60.3215 133.953 59.3252C133.503 59.7048 133.349 60.1673 133.491 60.713Z" fill="#0D131A"/>
<path d="M157.084 57.4751L157.013 57.5462L152.11 61.317C151.683 61.5779 151.375 61.9692 151.186 62.4909L150.404 64.1273L153.602 64.3408C154.881 64.1036 155.947 63.57 156.8 62.74C157.132 61.7439 157.297 60.7004 157.297 59.6095C157.297 58.8743 157.226 58.1628 157.084 57.4751Z" fill="#00666C"/>
<path d="M155.485 64.8026L156.338 64.7671C157.238 63.2256 157.688 61.5062 157.688 59.6089C157.688 58.9449 157.605 58.1504 157.439 57.2255L157.404 57.1899C157.38 57.522 157.167 57.688 156.764 57.688L156.942 59.6089C156.942 61.4825 156.456 63.2137 155.485 64.8026Z" fill="#0D131A"/>
<path d="M153.496 64.1267C153.898 64.1267 154.23 63.9844 154.49 63.6998C154.727 63.4152 154.846 63.0832 154.846 62.7038C154.846 62.3243 154.727 61.9923 154.49 61.7077C154.23 61.4468 153.934 61.3164 153.602 61.3164C153.294 61.3164 153.022 61.4587 152.785 61.7433C152.548 62.0279 152.43 62.3599 152.43 62.7393L152.678 63.6643L153.496 64.1267Z" fill="#0D131A"/>
<path d="M154.881 62.2428C155.236 62.2428 155.52 62.1123 155.734 61.8514C155.923 61.6141 156.018 61.3413 156.018 61.033C156.018 60.6771 155.911 60.3806 155.698 60.1434C155.461 59.8824 155.189 59.752 154.881 59.752C154.596 59.752 154.336 59.8943 154.099 60.179C153.886 60.4399 153.779 60.7483 153.779 61.1041L154.099 61.887C154.336 62.1242 154.596 62.2428 154.881 62.2428Z" fill="white"/>
<path d="M133.705 59.8945L134.131 59.5742L134.273 58.9337C134.273 58.6253 134.214 58.3762 134.095 58.1865C134.001 57.973 133.87 57.8662 133.705 57.8662L133.314 58.222L133.171 58.9693L133.314 59.6098L133.705 59.8945Z" fill="white"/>
<path d="M160.104 55.8031C160.696 55.4474 161.064 55.6489 161.206 56.4078L161.561 59.645C161.656 61.068 161.644 62.0284 161.526 62.5265C161.407 63.0008 160.566 63.4514 159.003 63.8783L155.983 64.5897L151.577 65.4791L150.546 65.5858C150.357 65.5621 150.274 65.4672 150.298 65.3012L151.506 62.6332C151.648 62.2775 151.92 61.9336 152.323 61.6016C153.934 60.2972 155.118 59.3604 155.876 58.7913L160.104 55.8031ZM160.85 54.558C159.263 55.4592 157.605 56.5501 155.876 57.8308L152.323 60.7834L151.47 61.5304C151.091 61.8624 150.854 62.1589 150.76 62.4197L148.912 66.2972L148.663 66.9376C148.616 67.1747 148.699 67.3289 148.912 67.4L149.196 67.1866L149.374 66.7241C149.421 66.6055 149.599 66.487 149.907 66.3684L150.795 66.1905C151.529 66.1905 152.986 65.9534 155.165 65.4791L160.708 64.1273C161.229 63.9138 161.656 63.5344 161.987 62.9889C162.366 62.396 162.556 61.6964 162.556 60.8901C162.556 60.2261 162.485 59.2893 162.343 58.0798L162.165 56.1944L162.094 55.4474L162.165 54.807C162.828 54.0956 163.124 53.6806 163.053 53.562C162.959 53.4434 162.224 53.7754 160.85 54.558Z" fill="#0D131A"/>
<path d="M132.39 58.4349C132.39 60.593 133.065 62.3242 134.415 63.6286L134.948 63.4507C134.332 62.9053 133.847 62.2057 133.491 61.3519C133.112 60.4744 132.923 59.5376 132.923 58.5416C132.923 57.6641 133.065 56.8459 133.349 56.087L132.958 55.4111C132.579 56.4072 132.39 57.4151 132.39 58.4349Z" fill="#0D131A"/>
<path d="M131.608 54.9846L131.75 54.0597C132.556 55.5538 133.207 57.0597 133.705 58.5775C134.131 59.9056 134.368 61.2811 134.415 62.704C133.61 62.3246 132.911 61.6131 132.319 60.5696C131.845 59.7158 131.596 59.04 131.573 58.5419C131.454 57.285 131.466 56.0992 131.608 54.9846ZM142.658 12.2254C143.559 9.33212 144.849 7.88547 146.531 7.88547C147.645 7.88547 148.438 8.52579 148.912 9.80643C149.267 10.8025 149.386 11.929 149.267 13.1859L148.805 18.9488L148.521 26.099C148.568 28.5654 148.912 30.3797 149.551 31.5418C150.025 32.3718 150.902 33.1781 152.181 33.9607C153.199 34.5773 154.419 35.0161 155.841 35.277L159.109 35.4904L157.724 36.0951L156.054 36.9845L154.739 38.0161L153.034 39.4746C152.489 40.0912 152.216 40.4825 152.216 40.6485C152.24 40.8383 152.631 40.6604 153.389 40.1149L154.846 39.1544L155.983 38.3007C156.599 37.6841 157.238 37.2928 157.901 37.1268C158.351 37.0556 158.944 36.8185 159.678 36.4153C160.554 35.9647 161.348 35.4192 162.058 34.7789C165.185 32.1939 167.992 29.7157 170.479 27.3441L178.723 19.4112C179.386 18.7946 180.381 18.427 181.707 18.3085C183.034 18.1662 183.993 18.3559 184.585 18.8776C185.13 19.3519 185.367 20.1464 185.296 21.261C185.225 22.2571 184.988 23.0279 184.585 23.5733L181.245 27.522L177.515 32.2532C172.801 39.7948 170.444 45.4509 170.444 49.2217C170.444 50.9529 170.598 52.5775 170.906 54.0953L171.723 57.1546L172.434 60.2495C172.671 61.5301 172.789 62.455 172.789 63.0242C172.789 63.7119 172.623 64.5301 172.292 65.4787C171.936 66.5696 171.427 67.5894 170.764 68.538C169.248 70.7673 168.3 72.048 167.921 72.38L167.246 72.4867C166.843 72.4867 166.535 72.5578 166.322 72.7001L163.8 74.6922C162.26 76.0677 160.957 77.4077 159.891 78.712L155.023 84.297C153.294 86.3129 152.24 87.6765 151.861 88.388C151.506 88.9809 150.546 89.7872 148.983 90.807C147.017 92.0876 145.252 92.7279 143.689 92.7279C142.883 92.7279 142.114 92.5738 141.379 92.2655L140.029 91.5896C138.868 91.0678 137.672 90.7951 136.44 90.7714C134.001 90.6528 132.449 90.3564 131.786 89.8821C131.359 89.5738 131.004 88.9927 130.72 88.139C131.596 88.9927 132.437 89.4908 133.243 89.633C134.332 89.8702 135.742 89.5738 137.471 88.7437L139.247 88.139L141.344 87.8544L143.831 88.3524C145.063 88.5896 146.081 88.5777 146.887 88.3168C147.763 88.0322 148.45 87.6291 148.947 87.1073L150.156 85.3642C151.079 83.9413 152.37 82.3168 154.028 80.4907C157.037 77.2417 159.003 75.2495 159.927 74.5144C160.306 74.2061 161.087 73.8503 162.272 73.4472L164.475 72.5934C164.854 72.3562 165.138 71.9294 165.327 71.3128C165.446 70.9096 165.576 70.2218 165.718 69.2495C165.813 68.5618 165.801 67.9452 165.683 67.3997C165.588 66.9491 165.47 66.7238 165.327 66.7238C165.114 66.7712 164.996 67.1033 164.972 67.7199C164.712 69.8543 164.451 71.1468 164.19 71.5974C164.025 71.8819 163.432 72.1784 162.414 72.4867C161.206 72.8661 160.365 73.2337 159.891 73.5895L156.16 76.7555C154.36 78.4393 153.01 79.8385 152.11 80.9531C150.831 82.5658 149.634 84.2852 148.521 86.1113L147.206 87.0006C146.519 87.2852 145.75 87.4275 144.897 87.4275L143.085 87.1785L141.202 86.9295L139.105 87.1785L137.08 87.7121C135.28 88.4947 134.214 88.886 133.882 88.886C133.195 88.886 132.295 88.305 131.182 87.1429C129.832 85.7437 128.47 83.799 127.096 81.3089C126.314 79.8859 125.663 78.4986 125.141 77.1468C124.549 75.629 124.253 74.4906 124.253 73.7318C124.253 73.1151 124.502 72.6527 124.999 72.3444L126.598 71.1705C127.119 70.5539 127.723 69.4274 128.41 67.791C129.026 66.3681 129.476 65.123 129.761 64.0558C130.163 62.5854 130.661 61.0439 131.253 59.4313C131.727 60.8305 132.271 61.8977 132.887 62.6329L133.918 63.5578C134.32 63.8424 134.522 64.1388 134.522 64.4471L134.699 64.8028L135.019 64.7317C135.232 64.3048 135.339 63.7831 135.339 63.1665L135.019 60.8542C134.782 59.5498 134.557 58.6605 134.344 58.1862L131.892 51.8541C131.277 50.0043 130.969 48.4154 130.969 47.0873C130.969 46.1861 131.146 45.3561 131.502 44.5972C131.786 44.028 132.26 43.3284 132.923 42.4983C133.562 41.7157 134.309 40.5774 135.161 39.0833C136.132 37.3995 136.926 35.7868 137.542 34.2453C138.868 30.854 140.005 26.3599 140.953 20.763C141.806 15.9725 142.374 13.1266 142.658 12.2254ZM141.806 10.5535L139.887 19.5535L137.968 28.3401C137.281 30.8303 136.192 33.522 134.699 36.4153L132.106 41.1821C131.04 43.1505 130.424 44.5379 130.258 45.3442C130.068 46.2454 129.997 47.0399 130.045 47.7276L130.471 49.613L131.146 52.032L130.898 53.7395C130.732 55.1862 130.696 56.6921 130.791 58.2573L128.091 65.9056L126.811 68.8582C126.29 69.8305 125.864 70.459 125.532 70.7436L124.076 71.7752C123.412 72.297 123.081 72.9136 123.081 73.625C123.081 75.0717 123.72 77.1349 124.999 79.8148C126.255 82.4947 127.688 84.7832 129.299 86.6805C129.393 87.9137 129.938 89.135 130.933 90.3445C131.454 90.9374 132.473 91.3643 133.989 91.6252L137.933 92.0876C138.62 92.1825 139.603 92.5382 140.882 93.1548C141.971 93.7003 142.99 93.973 143.938 93.973C145.122 93.973 146.555 93.5698 148.237 92.7635C149.634 92.0757 150.677 91.4117 151.364 90.7714L153.709 88.0678L157.191 83.7634L164.759 75.3326C165.422 74.6448 166.168 74.2179 166.997 74.0519L168.241 73.8029L170.16 71.5974L172.078 69.1072L173.571 66.3681C174.163 65.1586 174.459 64.2811 174.459 63.7356C174.459 62.9767 174.021 60.8186 173.144 57.2613C172.363 53.9174 171.972 51.2257 171.972 49.1861C171.972 47.8106 172.54 45.6525 173.677 42.7118C174.672 40.1031 175.774 37.7315 176.982 35.5971C177.882 34.0082 179.504 31.9212 181.849 29.3362L186.007 24.7828C186.93 23.6207 187.333 22.2571 187.215 20.6919C187.12 19.2689 186.658 18.2255 185.829 17.5614C185.071 16.9211 183.922 16.5772 182.382 16.5298C180.582 16.4586 179.114 16.9685 177.977 18.0594L171.581 24.4271L165.612 30.3678C163.243 32.4785 161.573 33.7473 160.602 34.1742C159.986 34.4588 158.955 34.5773 157.51 34.5299C156.018 34.4588 154.846 34.2335 153.993 33.854C152.761 33.3323 151.849 32.7631 151.257 32.1465C150.333 31.1504 149.871 29.8224 149.871 28.1623L149.836 23.3243L149.978 19.0911L150.546 11.5495C150.594 10.4586 150.286 9.36769 149.623 8.27677C148.888 7.06728 147.953 6.37953 146.816 6.21352C145.679 6.07122 144.613 6.46253 143.618 7.38744C142.694 8.26491 142.09 9.32026 141.806 10.5535Z" fill="#0D131A"/>
</g>
<defs>
<filter id="filter0_d_1_38130" x="0.278103" y="0.611111" width="268.097" height="262.708" filterUnits="userSpaceOnUse" color-interpolation-filters="sRGB">
<feFlood flood-opacity="0" result="BackgroundImageFix"/>
<feColorMatrix in="SourceAlpha" type="matrix" values="0 0 0 0 0 0 0 0 0 0 0 0 0 0 0 0 0 0 127 0" result="hardAlpha"/>
<feOffset/>
<feGaussianBlur stdDeviation="2.69444"/>
<feComposite in2="hardAlpha" operator="out"/>
<feColorMatrix type="matrix" values="0 0 0 0 0 0 0 0 0 0 0 0 0 0 0 0 0 0 0.25 0"/>
<feBlend mode="normal" in2="BackgroundImageFix" result="effect1_dropShadow_1_38130"/>
<feBlend mode="normal" in="SourceGraphic" in2="effect1_dropShadow_1_38130" result="shape"/>
</filter>
<filter id="filter1_d_1_38130" x="159.512" y="32.8979" width="133.159" height="151.98" filterUnits="userSpaceOnUse" color-interpolation-filters="sRGB">
<feFlood flood-opacity="0" result="BackgroundImageFix"/>
<feColorMatrix in="SourceAlpha" type="matrix" values="0 0 0 0 0 0 0 0 0 0 0 0 0 0 0 0 0 0 127 0" result="hardAlpha"/>
<feOffset dx="13.4722" dy="18.8611"/>
<feGaussianBlur stdDeviation="9.43056"/>
<feComposite in2="hardAlpha" operator="out"/>
<feColorMatrix type="matrix" values="0 0 0 0 0 0 0 0 0 0 0 0 0 0 0 0 0 0 0.26 0"/>
<feBlend mode="normal" in2="BackgroundImageFix" result="effect1_dropShadow_1_38130"/>
<feBlend mode="normal" in="SourceGraphic" in2="effect1_dropShadow_1_38130" result="shape"/>
</filter>
<clipPath id="clip0_1_38130">
<rect width="257.319" height="251.931" fill="white" transform="matrix(-1 0 0 1 262.986 6)"/>
</clipPath>
</defs>
</svg>
