<svg width="255" height="208" viewBox="0 0 255 208" fill="none" xmlns="http://www.w3.org/2000/svg">
<path d="M37.645 89.3286L37.9559 95.8582C33.9878 95.3252 27.7247 95.8434 19.1667 97.4129C14.4286 98.2716 9.24642 99.3969 3.62001 100.789C2.25783 101.144 2.16899 100.833 3.3535 99.8559C4.56762 98.8787 6.58128 97.7534 9.39449 96.4801C17.5676 92.7785 26.9844 90.3947 37.645 89.3286Z" fill="#FFF1AC"/>
<path d="M40.5324 104.165L43.4197 110.073C39.5404 110.932 33.7807 113.582 26.1407 118.024C21.7876 120.57 17.2569 123.428 12.5484 126.597C11.3935 127.396 11.2011 127.144 11.971 125.842C12.7705 124.479 14.266 122.717 16.4573 120.556C22.8537 114.278 30.8787 108.814 40.5324 104.165Z" fill="#FFF1AC"/>
<path d="M38.9332 97.9463L39.7772 102.433C37.112 102.462 33.7214 103.573 29.6052 105.764C27.4435 106.919 24.8672 108.355 21.8763 110.073C21.0175 110.428 20.825 110.117 21.2988 109.14C21.8023 108.133 22.7943 106.949 24.2749 105.586C28.3911 101.737 33.2772 99.19 38.9332 97.9463Z" fill="#FFF1AC"/>
<path d="M37.7339 91.061L37.9559 95.8583C33.0995 95.2068 25.0448 96.0656 13.792 98.4346C16.6348 96.7467 20.1439 95.2957 24.3193 94.0815C27.5767 93.1339 32.0482 92.1271 37.7339 91.061Z" fill="#DCD096"/>
<path d="M41.3763 105.942L43.4196 110.073C38.6816 111.139 31.4265 114.692 21.6543 120.733C24.2306 117.831 27.1326 115.181 30.3604 112.782C33.2921 110.621 36.9641 108.341 41.3763 105.942Z" fill="#DCD096"/>
<path d="M39.2444 99.501L39.7774 102.433C37.3788 102.462 34.4471 103.336 30.9824 105.053C29.0576 106.001 26.5701 107.393 23.52 109.229C27.7842 104.402 33.0257 101.159 39.2444 99.501Z" fill="#DCD096"/>
<path d="M63.5858 150.849C64.8295 148.243 66.0288 146.496 67.1837 145.608C68.694 144.482 70.5892 144.275 72.8693 144.986C75.0903 145.697 76.8226 146.141 78.0664 146.318L80.8203 146.407L86.9946 156.446L90.5925 165.952C87.5128 167.64 84.2998 167.684 80.9536 166.085C79.9172 165.582 78.9251 164.945 77.9775 164.175L76.867 163.198L71.6256 171.859C70.5892 173.636 69.5379 173.651 68.4719 171.904C67.4058 170.216 67.1245 168.454 67.6279 166.618C68.0129 165.167 68.8272 163.509 70.0709 161.643L72.5584 158.267C72.9434 157.764 72.7953 156.846 72.1142 155.513L71.0037 153.648L68.6051 156.357C66.7099 158.193 65.0516 159.244 63.6302 159.511C62.0607 159.807 61.3648 159.022 61.5425 157.157C61.6609 155.587 62.342 153.485 63.5858 150.849Z" fill="#C18963"/>
<path d="M68.605 156.357C66.7098 158.193 65.0515 159.245 63.6301 159.511H62.6528C64.1335 158.978 65.6141 157.497 67.0947 155.069C68.5458 152.73 69.8635 151.382 71.048 151.027C72.4991 150.553 74.4683 150.361 76.9558 150.45C79.9466 150.539 81.9159 150.509 82.8635 150.361L87.1277 156.135L90.5036 166.218C87.4238 167.877 84.2257 167.877 80.9091 166.218C79.8726 165.685 78.8806 165.019 77.933 164.22L76.8669 163.198L71.6255 171.86C71.0628 172.837 70.441 173.237 69.7599 173.059C69.1676 172.911 68.6346 172.363 68.1608 171.415C70.0264 169.846 71.2849 168.054 71.9364 166.041C72.6471 163.79 72.3806 161.821 71.1369 160.133L72.5583 158.267C72.9432 157.764 72.7952 156.846 72.1141 155.513L71.0036 153.648L68.605 156.357Z" fill="#986C4C"/>
<path d="M82.7748 149.605L88.6381 159.511C86.8317 158.415 85.2622 157.734 83.9297 157.468C82.1825 157.083 80.4502 157.246 78.7326 157.956C77.8739 158.312 77.3704 158.104 77.2224 157.334C77.1335 156.653 77.3408 155.706 77.8443 154.492C79.1768 151.382 80.8203 149.754 82.7748 149.605Z" fill="#C18963"/>
<path d="M88.6382 159.511C85.825 157.823 83.3671 157.083 81.2646 157.29C82.4788 156.372 83.1747 155.365 83.3523 154.27C83.53 153.115 83.7965 152.36 84.1519 152.004L88.6382 159.511Z" fill="#986C4C"/>
<path d="M134.079 187.006C133.783 188.131 131.473 189.479 127.149 191.048L120.087 193.269C119.702 193.388 118.976 194.291 117.91 195.979L115.956 199.177C115.63 199.651 114.579 200.317 112.802 201.176C110.966 202.035 109.604 202.464 108.716 202.464C107.946 202.464 108.183 200.406 109.426 196.29L111.514 190.115L109.515 190.648C107.857 191.152 106.258 191.789 104.718 192.558C103.563 193.121 102.171 194.468 100.542 196.601C99.0618 198.525 97.67 199.651 96.3671 199.976C94.768 200.361 93.9536 199.725 93.924 198.066L94.5015 192.869C92.9024 193.166 92.2213 191.803 92.4582 188.783C92.6951 185.851 93.4058 183.956 94.5903 183.097C95.8637 182.209 97.8477 181.128 100.542 179.855C103.593 178.433 105.888 177.589 107.427 177.323L134.079 187.006Z" fill="#C18963"/>
<path d="M134.079 187.006C133.783 188.131 131.473 189.479 127.15 191.048L120.087 193.269C119.702 193.388 118.976 194.291 117.91 195.979L115.956 199.177L114.312 200.509L112.136 201.975C112.136 200.613 113.276 198.081 115.556 194.38C117.57 191.122 118.325 189.301 117.822 188.916C116.696 188.057 114.52 188.635 111.292 190.648L109.426 190.782C107.946 191.167 106.376 191.759 104.718 192.558C103.652 193.092 102.571 194.039 101.475 195.401L98.8546 198.555C98.5288 194.35 100.661 190.811 105.251 187.939C109.693 185.866 111.706 184.607 111.292 184.163C110.788 183.66 109.885 183.482 108.582 183.63L106.761 183.986L104.363 184.252C102.319 184.667 100.217 185.451 98.055 186.606C97.1074 185.718 97.9958 184.252 100.72 182.209C103.504 180.106 104.718 178.789 104.363 178.256C105.044 177.634 105.651 177.308 106.184 177.278L107.427 177.323L134.079 187.006Z" fill="#986C4C"/>
<path d="M236.687 36.2036C244.297 46.7457 249.272 58.6204 251.611 71.8277C254.099 85.8937 253.033 98.7456 248.413 110.383C244.563 120.067 238.419 128.255 229.979 134.947C223.879 139.804 217.038 143.564 209.458 146.23L210.968 119.623C213.751 118.912 216.787 117.194 220.074 114.47C223.716 111.449 226.87 107.777 229.535 103.454C236.435 92.3493 238.508 80.0304 235.754 66.4974C232.556 50.8619 224.827 36.8107 212.567 24.3437C208.155 19.8426 203.476 15.9041 198.531 12.5283C194.533 9.8039 191.275 8.01233 188.758 7.15356C180.881 3.74811 177.15 1.76406 177.565 1.20141C177.802 0.875675 180.408 1.09777 185.383 1.8677C192.193 2.96337 199.315 5.51006 206.748 9.50777C218.415 15.8153 228.395 24.7139 236.687 36.2036Z" fill="#C18963"/>
<path d="M210.968 119.623C212.241 119.297 213.559 118.749 214.921 117.979C218.238 118.838 220.592 120.215 221.984 122.11L223.094 123.887C223.42 124.361 223.82 124.598 224.294 124.598C234.54 123.146 241.824 117.328 246.148 107.141C249.109 100.241 251.093 89.5361 252.1 75.0259C253.877 87.937 252.648 99.7229 248.413 110.383C244.564 120.067 238.419 128.255 229.979 134.947C223.879 139.804 217.039 143.564 209.458 146.23L210.968 119.623Z" fill="#986C4C"/>
<path d="M58.9662 58.4575L44.7521 68.9849C42.4719 66.2901 41.1245 64.4245 40.71 63.3881C40.4434 62.7366 41.3466 61.9222 43.4195 60.945L46.5733 59.7013L42.8865 53.5715C40.4286 49.248 39.1997 46.4348 39.1997 45.1318C39.1997 43.7104 41.8648 43.6068 47.1951 44.8209C52.2589 45.9758 56.2418 47.412 59.1439 49.1296L58.9662 58.4575Z" fill="#D18200"/>
<path d="M58.5664 56.9919L58.9662 58.4578L52.9696 62.3222C50.4229 60.9304 48.424 58.9464 46.973 56.3701C45.5516 53.8234 45.0186 51.2915 45.3739 48.7744C47.8318 49.7516 50.2304 50.9658 52.5698 52.4168C54.8796 53.8678 56.8785 55.3928 58.5664 56.9919Z" fill="#C18963"/>
<path d="M58.5664 56.9919L58.9662 58.4578L56.0346 60.3234C54.702 58.6354 53.0289 56.9179 51.0152 55.1708C49.0904 53.5124 47.1952 52.1206 45.3296 50.9954C45.2407 50.3439 45.2555 49.6036 45.374 48.7744C47.8318 49.7516 50.2305 50.9658 52.5699 52.4168C54.8797 53.8678 56.8785 55.3928 58.5664 56.9919Z" fill="#986C4C"/>
<path d="M202.173 177.5C202.706 178.715 202.395 180.299 201.24 182.253C200.293 183.823 197.805 185.896 193.778 188.472L184.761 193.802C183.902 195.964 182.673 198.096 181.074 200.199C179.386 202.39 177.802 203.856 176.321 204.596C174.87 205.336 174.115 204.27 174.056 201.398C173.967 198.614 174.441 196.393 175.477 194.735C173.523 195.949 170.991 198.037 167.882 200.998L161.885 206.462C160.582 207.38 159.827 206.21 159.62 202.953L159.709 197.844L157.799 198.91C156.111 200.036 154.304 201.664 152.379 203.797C151.461 204.833 150.899 204.063 150.691 201.487C150.484 198.851 150.899 196.571 151.935 194.646C152.942 192.781 154.378 191.122 156.244 189.671C157.695 188.516 159.679 187.317 162.196 186.073L194.311 168.483C198.842 172.925 201.462 175.931 202.173 177.5Z" fill="#C18963"/>
<path d="M164.15 204.596C165.424 199.503 167.511 195.772 170.413 193.403C171.45 192.574 172.768 191.759 174.367 190.96L178.409 189.005C178.142 189.686 177.18 190.945 175.522 192.781C173.982 194.469 173.153 195.698 173.034 196.468C171.702 197.504 170.132 198.881 168.326 200.599L164.15 204.596Z" fill="#986C4C"/>
<path d="M201.729 177.589C202.055 178.567 201.744 180.269 200.796 182.697C200.174 184.385 197.85 186.429 193.822 188.827L184.761 193.802L180.941 199.177C179.135 201.753 177.624 203.397 176.41 204.107C176.825 201.294 177.802 198.377 179.342 195.357C180.734 192.603 182.318 190.264 184.095 188.339C184.687 187.687 186.227 186.562 188.714 184.963C189.869 184.193 190.106 183.231 189.425 182.076C188.329 180.506 186.434 179.366 183.739 178.655C181.489 178.063 179.194 177.856 176.854 178.033L194.311 168.483C198.634 172.718 201.107 175.753 201.729 177.589Z" fill="#986C4C"/>
<path d="M147.671 72.6718C149.329 71.2504 152.453 69.9919 157.043 68.8962L163.44 67.6969C161.989 68.9406 159.812 71.206 156.91 74.493C160.76 72.5978 165.231 71.3837 170.325 70.8506C175.655 70.288 180.052 70.6878 183.517 72.0499C181.474 72.3461 178.942 73.3529 175.921 75.0704C172.901 76.7584 171.405 78.0169 171.435 78.8461L180.052 78.4019L185.205 78.8461L180.408 81.6445L188.581 82.444C187.248 82.9178 185.56 83.7766 183.517 85.0203C186.33 85.6718 189.484 87.4485 192.978 90.3506C196.709 93.4599 200.056 97.2652 203.017 101.766C210.45 113.019 213.322 124.849 211.634 137.257C209.769 151.086 202.306 163.05 189.247 173.148C176.069 183.305 161.485 188.235 145.494 187.939C132.109 187.673 120.59 184.711 110.936 179.055C107.916 177.308 105.265 175.383 102.985 173.281L100.453 170.66C100.75 172.703 100.557 173.71 99.876 173.681C99.1949 173.651 97.196 170.26 93.8794 163.509L92.9022 165.685C92.1323 167.136 91.4216 167.862 90.7701 167.862C89.2302 159.244 86.1949 152.434 81.6642 147.429C80.2724 145.86 78.8066 144.571 77.2667 143.565L75.3567 142.499L62.6528 141.566C60.5503 141.566 58.5515 140.87 56.6563 139.478C54.6426 137.938 53.0435 135.762 51.859 132.948C51.326 131.705 50.6153 128.358 49.7269 122.91C49.0162 118.527 47.7725 115.27 45.9957 113.138C41.6426 107.955 38.7554 100.952 37.334 92.1273C36.8306 88.8996 37.3488 85.6718 38.8887 82.444L41.3317 78.5351L40.3989 76.4918C39.8363 74.9816 39.7326 73.9155 40.088 73.2937C40.5914 72.4349 43.4194 69.9178 48.572 65.7424C53.8431 61.4782 57.2041 59.05 58.6551 58.4577C58.6551 55.7334 58.8328 52.9053 59.1882 49.9737C59.8989 44.0808 61.1574 40.6161 62.9638 39.5796C62.7565 41.8598 62.8601 43.7106 63.2747 45.132L64.3852 42.689C65.2736 41.1195 66.0435 40.394 66.695 40.5124C66.1916 42.2004 66.0435 44.4657 66.2508 47.3086L66.695 51.0397L69.138 45.132L69.671 46.3313L70.6927 50.107C73.0025 46.1092 77.5036 42.4373 84.1961 39.091C87.5719 37.4327 90.6961 36.1594 93.5685 35.271C92.2951 36.3074 91.0662 37.4475 89.8817 38.6913C87.5127 41.238 86.5799 43.0887 87.0833 44.2436C88.0013 42.9407 89.9705 41.6229 92.991 40.2903L97.2997 38.6468L94.9011 41.1787C93.2427 43.1924 92.2803 45.0284 92.0138 46.6867C96.0411 41.8006 102.645 38.7061 111.825 37.4031C110.788 38.0546 109.352 39.6981 107.516 42.3336L105.029 46.0648L108.138 44.7322C110.359 43.8735 111.795 43.5033 112.447 43.6218C111.677 44.3917 111.025 45.7983 110.492 47.8416L109.959 50.7288L147.671 72.6718Z" fill="#D18200"/>
<path d="M92.9912 40.2903L97.2998 38.6468L95.7007 40.2459C94.4866 41.5785 93.5686 42.8667 92.9468 44.1104L90.326 46.509L87.6165 48.6411C87.4684 48.3154 87.4536 47.5751 87.572 46.4202C87.6609 45.5318 87.4832 45.0876 87.039 45.0876C84.6996 45.0876 81.9308 46.6571 78.7327 49.796C80.1245 46.3906 82.2566 42.6742 85.129 38.6468C88.2087 37.1662 91.0219 36.0409 93.5686 35.271C92.2953 36.3074 91.0663 37.4475 89.8818 38.6913C87.5128 41.238 86.58 43.0887 87.0834 44.2436C88.0014 42.9407 89.9707 41.6229 92.9912 40.2903Z" fill="#AB6A00"/>
<path d="M109.026 37.8919L111.825 37.4033C110.788 38.0548 109.352 39.6983 107.516 42.3338L105.029 46.065L108.138 44.7325C110.359 43.8737 111.795 43.5035 112.447 43.622C111.677 44.3919 111.025 45.7985 110.492 47.8418L109.959 50.729L112.624 52.2837C108.538 52.639 104.155 53.5867 99.4763 55.1265C100.246 53.557 101.816 51.5878 104.185 49.2188H97.0776C98.5287 47.1163 100.365 45.073 102.586 43.089C104.244 41.5491 106.391 39.8168 109.026 37.8919Z" fill="#AB6A00"/>
<path d="M64.0744 43.3549C65.0516 41.3116 65.9252 40.364 66.6951 40.5121C66.014 42.6442 65.94 45.7535 66.473 49.8401C65.7327 51.7057 65.2885 53.2751 65.1404 54.5485C64.104 51.4688 63.7486 47.7376 64.0744 43.3549Z" fill="#AB6A00"/>
<path d="M67.983 66.1866C66.7096 68.1706 65.1994 71.2356 63.4522 75.3813C61.5866 78.6387 58.7734 80.4599 55.0126 80.8449C51.1037 81.2594 49.2529 79.8232 49.4602 76.5362C49.6083 74.0784 50.3634 72.0055 51.7256 70.3176C52.4955 69.3996 55.6049 68.1706 61.0536 66.6308C66.532 65.0909 68.8417 64.9429 67.983 66.1866Z" fill="#AB6A00"/>
<path d="M170.68 85.2425C166.652 82.8142 161.677 81.0523 155.755 79.9566C150.513 79.009 143.584 78.4316 134.967 78.2243C136.98 74.2266 137.839 70.4065 137.543 66.7642L147.671 72.6719C149.329 71.2505 152.453 69.9919 157.043 68.8963L163.439 67.697C161.988 68.9407 159.812 71.2061 156.91 74.4931C160.759 72.5979 165.231 71.3837 170.324 70.8507C175.655 70.2881 180.052 70.6878 183.517 72.05C181.474 72.3461 178.942 73.353 175.921 75.0705C172.901 76.7584 171.405 78.017 171.435 78.8461L180.141 78.4019L185.382 78.8461L180.407 81.6445L188.003 82.4441C187.056 82.9179 185.56 83.7767 183.517 85.0204C186.33 85.6719 189.484 87.4486 192.978 90.3507C196.709 93.46 200.055 97.2652 203.017 101.766C210.45 113.019 213.322 124.849 211.634 137.257C209.768 151.086 202.306 163.05 189.247 173.148C176.069 183.305 161.485 188.235 145.494 187.939L141.363 187.762C151.935 184.415 160.715 178.73 167.704 170.705C173.952 163.538 178.275 155.128 180.674 145.475C181.237 143.195 181.681 138.797 182.007 132.282C182.273 126.833 182.658 123.991 183.161 123.754C183.783 123.487 184.657 124.168 185.782 125.797C186.967 127.544 187.796 128.418 188.27 128.418C188.358 124.213 188.062 120.393 187.381 116.958L186.093 111.45C185.915 110.443 186.123 110.088 186.715 110.384C187.1 110.561 188.462 111.568 190.802 113.404C185.116 99.2493 178.409 89.8621 170.68 85.2425Z" fill="#AB6A00"/>
<path d="M147.227 74.271C145.006 81.8518 139.069 85.435 129.415 85.0204C123.759 84.7835 118.547 83.6878 113.779 81.7334C109.189 79.8678 105.606 77.4692 103.03 74.5375C100.394 71.517 99.1804 68.3633 99.3877 65.0762C99.6246 61.5227 101.505 58.1765 105.029 55.0375C113.084 47.8713 120.798 42.4522 128.171 38.7802C136.729 34.516 144.044 33.0353 150.114 34.3383C149.907 36.5888 148.678 40.4977 146.427 46.0649L150.47 49.2187C153.135 51.4396 154.467 52.861 154.467 53.4829C154.467 54.5193 152.202 57.6139 147.671 62.7665L148.071 66.4088C148.189 69.2812 147.908 71.902 147.227 74.271Z" fill="#D18200"/>
<path d="M109.293 64.9426C109.944 62.6328 112.654 59.3606 117.421 55.126C122.1 50.9506 126.897 47.4711 131.813 44.6875C134.923 42.9404 137.987 43.8436 141.008 47.3971C143.851 50.7137 145.272 54.3561 145.272 58.3242C145.272 64.0394 143.866 68.8071 141.052 72.6271C137.973 76.8321 133.856 78.8162 128.704 78.5793C122.071 78.2831 117.732 76.7877 115.689 74.0929C113.942 70.3025 111.81 67.2524 109.293 64.9426Z" fill="#C18963"/>
<path d="M139.631 45.976C133.708 50.2995 128.659 54.5637 124.484 58.7687C119.598 63.6844 116.341 68.1411 114.712 72.1388C113.379 69.5033 111.573 67.1491 109.293 65.0762C109.944 62.7664 112.654 59.4646 117.421 55.1708C122.13 50.9361 126.927 47.4419 131.813 44.6879C134.36 43.2665 136.966 43.6958 139.631 45.976Z" fill="#986C4C"/>
<path d="M150.114 105.098C153.934 106.519 155.873 107.615 155.933 108.385L151.979 108.518C147.656 107.422 140.889 106.312 131.68 105.187C119.48 103.676 110.181 103.336 103.785 104.165C105.058 105.024 106.894 106.593 109.293 108.873C112.461 111.894 113.912 113.937 113.646 115.003L111.825 120.867L104.718 124.553L108.182 124.775L111.736 124.909H113.957L109.648 126.73L114.49 126.952L119.376 127.174L123.24 127.663L127.771 130.283C131.028 132.415 133.235 134.4 134.389 136.236C134.804 136.917 135.618 140.056 136.833 145.652C137.751 149.946 139.276 152.241 141.408 152.537C147.656 153.426 152.364 154.373 155.533 155.38C159.353 156.594 162.344 158.282 164.506 160.444L158.598 159.467C157.058 159.2 156.362 159.259 156.51 159.644L160.552 162.576C162.684 164.086 163.913 165.508 164.239 166.84C164.387 167.432 164.328 167.743 164.061 167.773C163.647 167.832 163.395 168.202 163.306 168.883L164.417 172.704C164.861 174.628 164.95 176.198 164.683 177.412C163.795 181.232 161.752 184.43 158.553 187.006C154.467 187.717 150.114 188.028 145.494 187.939C132.109 187.673 120.605 184.682 110.981 178.967C107.96 177.16 105.31 175.206 103.03 173.103L100.542 170.438C100.69 172.541 100.542 173.681 100.098 173.858C99.6834 174.036 97.6105 170.586 93.8793 163.509L92.9021 165.685C92.1322 167.136 91.4215 167.862 90.77 167.862C89.2302 159.245 86.1949 152.434 81.6641 147.429C80.2723 145.86 78.8065 144.571 77.2666 143.565L75.3566 142.499L62.6528 141.566C60.5503 141.566 58.5514 140.87 56.6562 139.478C54.6425 137.938 53.0434 135.762 51.8589 132.948C51.3259 131.705 50.6152 128.359 49.7268 122.91C49.0161 118.527 47.7724 115.27 45.9956 113.138C41.6426 107.955 38.7553 100.952 37.3339 92.1274C36.9786 90.1138 37.097 87.8632 37.6893 85.3757C38.4 82.4441 39.6141 80.1639 41.3316 78.5352L39.4216 75.0261C39.1551 74.345 39.2291 73.8268 39.6437 73.4714L40.843 72.3165L41.3316 71.7391C42.2496 72.2129 43.7155 72.3609 45.7291 72.1833C47.7132 72.0056 49.4899 71.6058 51.0594 70.984C52.4808 70.4213 53.8134 70.7026 55.0571 71.8279C56.0936 72.7459 56.7598 73.8712 57.056 75.2038C57.3225 76.5659 58.0036 77.8393 59.0992 79.0238L60.6539 80.3564L70.5594 80.001C77.696 80.2083 82.6857 81.4668 85.5286 83.7766C88.3418 81.6741 91.6732 79.7789 95.5228 78.091C98.6914 76.7288 101.549 75.7516 104.096 75.1593C108.923 74.0637 114.223 73.3678 119.998 73.0717C124.884 72.8051 130.836 72.8051 137.854 73.0717C141.2 73.1901 143.17 73.4862 143.762 73.96C144.295 74.4042 143.436 74.7892 141.186 75.1149C133.397 75.9441 126.054 76.9953 119.154 78.2687C105.739 80.7265 96.6926 83.7026 92.0137 87.1969C96.8406 86.2197 101.357 85.6126 105.562 85.3757C113.764 84.8723 122.233 85.3757 130.969 86.886C133.22 87.2709 134.449 87.7743 134.656 88.3962C134.834 89.0181 133.916 89.329 131.902 89.329C124.114 89.329 118.739 89.4179 115.778 89.5955C106.213 90.0989 99.2244 91.3279 94.8121 93.2823C96.2336 94.1115 97.8771 95.1627 99.7427 96.4361L116.8 97.7686C129.948 99.3381 141.052 101.781 150.114 105.098Z" fill="#FFF1AC"/>
<path d="M87.9717 87.9075C89.3931 86.5453 91.2587 85.0499 93.5685 83.4212C99.876 78.9793 106.494 75.6923 113.424 73.5602C119.761 72.8494 127.904 72.6866 137.854 73.0715C141.2 73.19 143.17 73.4861 143.762 73.9599C144.295 74.4041 143.436 74.7891 141.186 75.1148C133.901 75.9144 126.957 76.8916 120.353 78.0465C107.56 80.3266 98.5878 83.051 93.4352 86.2196C89.4671 89.1808 87.1425 90.469 86.4614 90.084C86.1653 89.9064 86.6687 89.1808 87.9717 87.9075Z" fill="#DCD096"/>
<path d="M117.555 85.3311C121.908 85.568 126.379 86.0862 130.969 86.8857C133.22 87.2707 134.449 87.7741 134.656 88.396C134.834 89.0178 133.916 89.3288 131.902 89.3288C124.647 89.3288 119.287 89.4324 115.822 89.6397C106.287 90.2023 99.2985 91.4609 94.8566 93.4153C96.3076 94.2445 97.9363 95.2513 99.7427 96.4358C99.8612 96.5246 99.8612 96.6135 99.7427 96.7023L97.5218 96.88L90.1926 96.1249C88.0013 95.7399 86.95 95.2957 87.0389 94.7923C87.2166 93.9039 91.0218 92.2308 98.4546 89.773C106.272 87.1967 112.639 85.716 117.555 85.3311Z" fill="#DCD096"/>
<path d="M150.114 105.098C153.993 106.371 155.948 107.437 155.977 108.296C156.007 109.125 154.674 109.199 151.98 108.518C147.656 107.422 140.89 106.312 131.68 105.186C119.48 103.676 110.181 103.336 103.785 104.165C105.058 105.024 106.894 106.593 109.293 108.873C112.461 111.894 113.912 113.937 113.646 115.003L112.447 119.001C108.982 112.16 105.088 107.926 100.764 106.297C99.5799 105.853 98.1733 105.557 96.5446 105.409C95.2121 105.29 94.4125 105.112 94.146 104.876C93.2576 104.017 97.1221 102.847 105.739 101.366C114.594 99.8266 121.775 99.2195 127.283 99.5453C135.337 100.878 142.948 102.729 150.114 105.098Z" fill="#DCD096"/>
<path d="M96.5444 167.906C97.4328 167.817 98.0399 166.07 98.3656 162.665C98.6321 159.851 99.0023 158.889 99.4761 159.777L101.964 166.573C103.237 170.275 104.673 173.31 106.272 175.679L101.697 171.904L100.409 170.616L100.098 173.991L96.5444 167.906Z" fill="#DCD096"/>
<path d="M49.1052 77.0249L51.2817 70.8951C52.6143 70.4509 53.8728 70.7915 55.0573 71.9168C56.0049 72.8051 56.6712 73.9008 57.0562 75.2038C57.4707 76.6548 58.596 78.3723 60.432 80.3564L60.2543 80.4452L60.432 80.534L53.3694 81.2892L49.727 81.0671C48.7202 80.5637 48.5129 79.2163 49.1052 77.0249Z" fill="#DCD096"/>
<path d="M102.052 139.878C103.888 141.181 104.821 142.143 104.851 142.765C104.851 143.239 104.303 143.609 103.207 143.876L100.32 144.586C99.4022 144.971 99.1208 145.564 99.4762 146.363C100.039 147.725 98.2917 147.059 94.2347 144.364L90.9922 142.321C90.3999 142.025 90.7108 142.484 91.925 143.698C94.2347 146.008 93.4204 146.452 89.4819 145.031L82.9079 142.232L80.3316 141.433C78.8806 140.87 78.8065 140.544 80.1095 140.455C81.1756 140.396 84.2109 139.552 89.2154 137.924C94.4272 136.857 98.7063 137.509 102.052 139.878Z" fill="#DCD096"/>
<path d="M164.683 177.412C163.588 182.15 161.322 185.334 157.887 186.962C153.682 187.703 149.551 188.028 145.494 187.94L135.767 187.184C140.475 186.977 145.243 185.896 150.07 183.942C155.4 181.75 160.301 178.671 164.772 174.703C164.861 175.798 164.831 176.701 164.683 177.412Z" fill="#DCD096"/>
<path d="M147.982 148.673C145.79 151.16 143.333 153.026 140.608 154.27C137.588 155.661 135.056 155.839 133.013 154.803C131.858 154.24 130.244 152.996 128.171 151.072C126.749 149.739 125.521 149.25 124.484 149.606C123.359 150.642 122.322 152.034 121.375 153.781C120.723 154.995 120.116 155.558 119.554 155.469C118.251 155.321 117.599 153.633 117.599 150.405C117.599 147.148 118.354 145.031 119.864 144.053C121.286 143.135 123.507 142.661 126.527 142.632L130.658 142.81C130.806 141.832 130.792 140.751 130.614 139.567C130.259 137.198 129.237 135.495 127.549 134.459C126.601 134.666 125.195 135.377 123.329 136.591C121.849 137.568 120.886 137.894 120.442 137.568C119.139 136.561 119.169 134.785 120.531 132.238C121.863 129.662 123.699 127.826 126.039 126.73C128.289 125.693 130.377 125.531 132.302 126.241C134.138 126.922 135.441 128.225 136.211 130.15C136.862 131.69 137.765 133.23 138.92 134.77L141.186 137.568C141.778 138.397 143.629 139.019 146.738 139.434L148.071 137.302C149.077 135.91 149.966 135.273 150.736 135.392C151.802 135.569 152.823 136.073 153.801 136.902C154.926 137.849 155.563 138.901 155.711 140.056C155.888 141.359 155.518 143.491 154.6 146.452C153.653 149.472 152.779 151.146 151.979 151.471C150.321 152.123 149.151 151.856 148.47 150.672L147.982 148.673Z" fill="#C18963"/>
<path d="M129.593 125.842C131.103 125.782 132.45 126.153 133.635 126.952C134.79 127.692 135.649 128.758 136.211 130.15C136.863 131.69 137.766 133.23 138.921 134.77L141.186 137.568C141.423 137.894 142.193 138.294 143.496 138.768L146.472 139.656C144.873 141.225 143.185 142.069 141.408 142.188C139.424 142.365 137.87 141.566 136.744 139.789C136.33 139.049 135.945 137.909 135.589 136.369L134.701 132.282C133.753 128.936 132.051 126.789 129.593 125.842Z" fill="#986C4C"/>
<path d="M155.711 140.055C155.889 141.358 155.518 143.49 154.6 146.451C153.653 149.472 152.779 151.145 151.98 151.471L150.247 151.782C151.521 148.821 152.202 145.83 152.291 142.809C152.379 139.256 151.476 136.901 149.581 135.747C149.996 135.48 150.381 135.362 150.736 135.391C151.802 135.569 152.824 136.072 153.801 136.901C154.926 137.849 155.563 138.9 155.711 140.055Z" fill="#986C4C"/>
<path d="M147.405 143.698C147.405 145.03 147.612 146.674 148.027 148.628C145.776 151.086 143.303 152.937 140.609 154.181C137.529 155.602 134.997 155.809 133.013 154.803C131.858 154.24 130.244 152.996 128.171 151.071C126.75 149.739 125.521 149.25 124.484 149.605C123.359 150.642 122.323 152.034 121.375 153.781C120.724 154.995 120.117 155.558 119.554 155.469L120.22 154.625C120.783 153.855 121.094 153.07 121.153 152.271C121.242 151.412 121.464 150.657 121.819 150.005L123.33 147.74C124.958 145.4 128.66 146.348 134.434 150.583C135.826 151.619 138.269 151.145 141.763 149.161C145.139 147.207 147.02 145.386 147.405 143.698Z" fill="#986C4C"/>
<path d="M85.3068 61.2561C86.2841 61.7299 87.2021 62.9884 88.0608 65.0317C88.9788 67.2823 89.0973 69.1479 88.4162 70.6285C88.0904 70.895 84.7146 71.6649 78.2886 72.9383C71.8923 74.2116 68.2351 75.2481 67.3171 76.0476C69.7454 71.1911 73.2397 67.2378 77.8 64.1877C81.5905 61.6114 84.0927 60.6342 85.3068 61.2561Z" fill="white"/>
<path d="M77.8 64.1877C81.5905 61.6114 84.0927 60.6342 85.3068 61.2561C85.8695 61.5226 86.5062 62.2333 87.2169 63.3882C79.7841 65.9645 74.1725 69.7549 70.3821 74.7595C68.7237 75.2629 67.7021 75.6923 67.3171 76.0476C69.7454 71.1911 73.2397 67.2378 77.8 64.1877Z" fill="#DBDCDC"/>
<path d="M55.7236 129.261C54.243 126.33 53.1769 122.303 52.5254 117.18C52.2885 115.373 52.2589 113.996 52.4366 113.049L52.792 112.205L51.5482 111.894C50.8968 111.746 49.5198 109.865 47.4173 106.252C45.2851 102.551 43.9526 99.6932 43.4195 97.6796C42.5904 94.6295 42.2795 92.6898 42.4867 91.8607C42.8125 90.6465 44.1895 89.6101 46.6177 88.7513C49.1052 87.8926 52.0813 87.5816 55.5459 87.8185C58.8033 88.0554 60.8022 88.5737 61.5425 89.3732C64.6518 92.8083 68.3534 97.4427 72.6473 103.276C77.6814 110.146 80.3466 114.559 80.6427 116.513C80.8796 117.935 80.4798 120.896 79.4434 125.397C78.4069 129.898 77.5037 132.682 76.7338 133.748C76.0231 134.725 73.7429 135.302 69.8933 135.48L60.9651 135.08C58.8033 133.837 57.0562 131.897 55.7236 129.261Z" fill="white"/>
<path d="M67.4057 122.154L61.9866 113.803C61.6312 113.27 60.8317 112.663 59.588 111.982C58.8773 111.627 58.9513 111.375 59.8101 111.227C60.6984 111.079 61.1278 108.37 61.0982 103.098C61.0686 95.6657 61.1574 91.0313 61.3647 89.1953L61.5424 89.373C64.6517 92.8081 68.3533 97.4424 72.6472 103.276C77.6813 110.146 80.3465 114.559 80.6426 116.513C80.8499 117.786 80.5241 120.407 79.6654 124.375C78.8362 128.284 78.0071 131.127 77.1779 132.904C74.2462 130.801 70.9889 127.218 67.4057 122.154Z" fill="#DBDCDC"/>
<path d="M68.6942 118.734L62.8753 110.694C62.8457 108.74 62.9493 106.593 63.1862 104.254C63.6304 99.5748 64.504 96.2878 65.807 94.3926C69.3605 98.8049 72.4994 102.98 75.2238 106.919C78.5996 111.775 80.406 114.973 80.6429 116.513C80.7614 117.342 80.6281 118.927 80.2431 121.266C79.8878 123.369 79.414 125.59 78.8217 127.929C76.4231 127.277 73.0473 124.213 68.6942 118.734Z" fill="#922F00"/>
<path d="M37.5562 88.7515L37.6895 89.9508C29.7237 90.7207 22.2317 92.3346 15.2135 94.7925C9.94239 96.6284 6.19639 98.3904 3.97544 100.078C20.3809 96.0214 31.7225 94.4075 38.0004 95.2366L37.8672 96.436C34.284 95.9325 28.7465 96.3323 21.2544 97.6353C16.013 98.5237 10.1941 99.7674 3.79776 101.366C1.75449 102.107 0.599592 102.255 0.333078 101.811C0.0369508 101.366 0.880912 100.508 2.86496 99.2344C7.09958 96.5692 11.0973 94.5704 14.8581 93.2378C20.751 91.1649 28.3171 89.6695 37.5562 88.7515Z" fill="#0D131A"/>
<path d="M40.2659 103.632L40.7545 104.698C33.5586 108.192 27.0882 112.294 21.3434 117.002C17.0199 120.555 14.1031 123.502 12.5928 125.841C17.3308 122.673 21.8468 119.845 26.1406 117.357C33.6918 112.975 39.4071 110.354 43.2864 109.495L43.5529 110.65C39.644 111.509 33.8251 114.204 26.0962 118.734C21.5062 121.399 17.0939 124.183 12.8593 127.085L10.9049 128.418C9.95728 128.832 9.82402 128.314 10.5051 126.863C11.9265 123.813 14.8286 120.437 19.2112 116.735C24.7192 112.116 31.7374 107.748 40.2659 103.632Z" fill="#0D131A"/>
<path d="M38.8444 97.3687L39.0665 98.5235C34.6838 99.4712 30.6713 101.322 27.0289 104.076C24.3046 106.119 22.5574 107.911 21.7875 109.451L25.4299 107.452L32.2704 103.765C35.1428 102.492 37.6451 101.855 39.7772 101.855V103.01C37.8228 103.039 35.4538 103.676 32.6702 104.92C31.1303 105.601 28.9093 106.785 26.0073 108.473L22.0984 110.606C20.6178 111.375 19.7738 111.746 19.5665 111.716C19.2704 111.657 19.4481 110.961 20.0996 109.628C21.3137 107.082 23.4014 104.757 26.3627 102.655C29.8273 100.197 33.9879 98.4347 38.8444 97.3687Z" fill="#0D131A"/>
<path d="M62.8749 150.76C64.089 148.184 65.3031 146.393 66.5173 145.386C68.294 143.935 70.4705 143.609 73.0468 144.408C75.2974 145.119 77.0149 145.563 78.1994 145.741L80.7758 145.83L80.8202 147.029L77.9329 146.896L72.6915 145.563C70.6186 144.912 68.9159 145.06 67.5833 146.008C66.458 146.837 65.3031 148.539 64.1186 151.116C63.171 153.159 62.6972 155.054 62.6972 156.801C62.6972 158.341 62.9785 159.052 63.5412 158.934C64.7849 158.697 66.2803 157.631 68.0275 155.735C69.7154 153.722 70.7667 152.552 71.1812 152.226L75.0901 152.093C75.6231 152.36 75.8008 152.582 75.6232 152.759L74.3794 152.715L72.7803 152.848C72.1881 153.026 71.8179 153.277 71.6699 153.603C73.3578 155.913 73.8168 157.586 73.0468 158.623L70.9147 161.599C69.4045 163.82 68.4865 165.537 68.1608 166.751C67.835 167.936 68.0571 169.239 68.827 170.66C69.597 172.111 70.4113 172.333 71.2701 171.326C71.7143 170.793 72.5878 169.15 73.8908 166.396C75.0457 163.968 76.0229 162.502 76.8225 161.998C77.8885 161.347 78.5252 161.169 78.7325 161.465C78.9102 161.791 78.5992 162.235 77.7997 162.798C78.4808 163.005 79.991 163.938 82.3304 165.596C84.9363 166.87 87.6607 166.722 90.5035 165.152L91.081 166.218C88.86 168.321 86.0764 168.765 82.7302 167.551C80.8646 166.87 78.9546 165.73 77.0001 164.131L72.8692 171.948C72.6027 172.422 72.1289 172.837 71.4478 173.192C70.7074 173.547 70.0115 173.666 69.3601 173.547C68.294 173.37 67.45 172.585 66.8282 171.193C66.1767 169.713 66.0879 168.099 66.5617 166.352C66.9466 165.049 67.761 163.538 69.0047 161.821L71.6699 158.445L72.1585 157.557C72.1585 156.846 71.7587 155.869 70.9592 154.625C69.3601 156.579 67.6573 158.149 65.851 159.333C64.2519 160.399 63.1858 160.799 62.6528 160.533C61.5867 159.97 61.0685 158.859 61.0981 157.201C61.0981 155.454 61.6904 153.307 62.8749 150.76Z" fill="#0D131A"/>
<path d="M79.3542 151.027C80.4795 149.783 81.6048 149.117 82.73 149.028L82.8189 150.228C81.9601 150.287 81.0569 150.864 80.1093 151.96C79.2506 152.937 78.5991 154.062 78.1549 155.336C77.8884 156.165 77.844 156.698 78.0216 156.935L79.754 156.979C81.3234 156.565 82.9521 156.58 84.6401 157.024C85.8542 157.379 87.2904 158.031 88.9487 158.978L88.3268 160C86.3724 158.845 84.6993 158.164 83.3075 157.957C82.0638 157.749 80.7904 157.912 79.4875 158.445C78.4214 158.889 77.6367 158.771 77.1332 158.09C76.6002 157.379 76.5706 156.328 77.0444 154.936C77.5478 153.455 78.3178 152.152 79.3542 151.027Z" fill="#0D131A"/>
<path d="M134.701 187.184C134.434 188.191 133.383 189.198 131.547 190.205C129.474 191.3 126.276 192.47 121.952 193.714L121.286 193.891C121.079 194.01 120.65 194.691 119.998 195.935L117.91 199.399C116.311 201.531 113.957 202.894 110.848 203.486C109.456 203.752 108.449 203.664 107.827 203.219C107.324 202.864 106.968 202.138 106.761 201.043C106.613 200.184 106.924 198.703 107.694 196.601L109.782 191.093C108.775 191.389 107.176 192.085 104.984 193.181C104.363 193.506 103.77 194.069 103.208 194.869L101.786 196.956L99.6985 199.621C98.8102 200.599 97.8922 201.206 96.9446 201.443C95.4935 201.798 94.3831 201.354 93.6131 200.11C92.9024 198.985 92.7396 196.853 93.1245 193.714L91.8364 193.625C91.4514 193.151 91.1701 192.292 90.9924 191.048C90.8147 189.686 90.9924 188.028 91.5254 186.074C92.0585 184.09 92.6803 182.846 93.391 182.342C94.5459 181.513 96.7077 180.447 99.8762 179.144C103.104 177.782 105.577 176.938 107.294 176.612L108.183 177.723C106.643 178.019 104.289 178.907 101.12 180.388C98.2475 181.72 96.2042 182.816 94.9901 183.675C94.309 184.149 93.776 185.318 93.391 187.184C92.9765 189.109 92.9765 190.575 93.391 191.582C93.4799 191.759 93.8204 191.3 94.4127 190.205C95.2122 188.724 96.0562 187.628 96.9446 186.918C98.2475 185.911 100.232 184.963 102.897 184.075C105.71 183.127 107.309 183.009 107.694 183.719C107.398 184.015 105.932 184.637 103.296 185.585C100.542 186.533 98.5436 187.554 97.2999 188.65C95.8785 189.894 95.0049 191.952 94.6792 194.824C94.3831 197.371 94.4719 198.851 94.9457 199.266L96.1894 199.31C96.9594 199.133 97.6997 198.718 98.4104 198.067L100.232 195.89C102.304 193.136 103.978 191.448 105.251 190.826C108.893 189.02 113.276 187.465 118.399 186.162L120.531 186.207L119.732 186.918L116.178 188.028C113.75 188.916 112.402 189.686 112.136 190.338C111.366 192.115 110.64 194.054 109.959 196.157C108.893 199.325 108.553 201.117 108.938 201.531C109.352 201.976 110.492 201.724 112.358 200.776L115.378 198.777L116 197.756C117.984 194.528 119.273 192.81 119.865 192.603L120.62 192.381C128.763 190.042 133.028 188.191 133.413 186.829L134.701 187.184Z" fill="#0D131A"/>
<path d="M236.42 66.3642C237.19 70.1842 237.575 73.9006 237.575 77.5133C237.575 87.0782 235.087 95.8436 230.113 103.809C227.329 108.281 224.086 112.057 220.385 115.136C217.068 117.831 213.988 119.534 211.146 120.244L210.479 117.579C213.411 116.839 216.254 115.506 219.008 113.582C222.561 111.065 225.626 107.733 228.202 103.587C231.045 98.9677 233.074 93.904 234.288 88.396C235.887 81.2001 235.931 73.8562 234.421 66.3642C231.578 52.3574 225.3 39.8164 215.587 28.7412C207.74 19.8278 198.708 12.8392 188.492 7.77545C186.567 6.82785 182.999 5.27318 177.787 3.11146C175.684 2.25269 174.944 1.52718 175.566 0.934924C176.277 0.283445 177.92 0.0317372 180.496 0.179801L186.493 0.934924C192.416 1.88253 199.019 4.29596 206.304 8.17523C218.504 14.7196 228.943 24.018 237.619 36.0704C245.023 46.3164 250.042 57.8505 252.677 70.6728C255.698 85.3311 254.795 98.7456 249.968 110.916C245.97 120.926 239.426 129.513 230.335 136.679C223.82 141.832 216.831 145.711 209.369 148.317L209.946 145.119C217.29 142.543 223.82 139.019 229.535 134.547C237.797 128.062 243.882 119.919 247.791 110.117C252.529 98.1534 253.492 84.9757 250.679 70.584C248.161 57.9097 243.305 46.5829 236.109 36.6034C227.581 24.7287 217.216 15.6672 205.016 9.41896C197.968 5.7766 191.379 3.49642 185.249 2.57843L181.029 1.91214C179.342 1.73447 179.016 1.91214 180.052 2.44517L189.025 6.53172C199.389 11.2105 208.732 18.288 217.053 27.764C227.033 39.1353 233.488 52.002 236.42 66.3642Z" fill="#0D131A"/>
<path d="M38.3557 43.3997C39.8363 42.5409 43.0641 42.7482 48.039 44.0216C52.8659 45.2357 56.6711 46.7311 59.4547 48.5079L58.7884 49.7072C56.301 48.2266 52.8067 46.9236 48.3056 45.7983C43.7748 44.673 41.006 44.4065 39.9992 44.9988L39.8659 45.132C39.8659 46.1093 40.8284 48.4042 42.7532 52.017C44.5003 55.304 45.9662 57.7322 47.1507 59.3017C48.0094 60.4566 48.2167 60.9748 47.7725 60.8564L46.7953 60.3233C45.4627 60.7675 44.2338 61.2858 43.1085 61.878C42.0129 62.4407 41.4354 62.87 41.3762 63.1662C41.6723 63.9065 42.9605 65.6981 45.2406 68.5409L44.219 69.4293L41.7315 67.075C40.1917 65.5648 39.2589 64.3359 38.9331 63.3883C38.637 62.4999 40.8432 61.1377 45.5516 59.3017L40.8876 52.1058C38.6666 48.4042 37.5562 45.9464 37.5562 44.7323C37.5562 44.1696 37.8227 43.7254 38.3557 43.3997Z" fill="#0D131A"/>
<path d="M43.1976 48.8186C41.9835 48.5225 41.6577 48.3004 42.2204 48.1523L44.5746 48.4189C47.0917 49.1592 49.6532 50.2252 52.2591 51.617C55.2796 53.2457 57.3228 54.8004 58.3889 56.281L57.9447 57.2582C57.0267 55.9553 54.6133 54.2674 50.7044 52.1945C47.3286 50.3881 44.8263 49.2628 43.1976 48.8186Z" fill="#0D131A"/>
<path d="M236.109 43.3108C237.323 43.0443 238.582 43.222 239.885 43.8439C241.099 44.4065 242.254 45.3097 243.349 46.5534V47.7083C242.372 46.6127 241.262 45.7687 240.018 45.1765C238.745 44.5842 237.59 44.4065 236.553 44.6434C235.132 44.9395 233.77 45.7243 232.467 46.9976C231.46 48.0341 230.838 48.9076 230.601 49.6184L230.113 48.9076C230.409 47.96 231.016 46.968 231.934 45.9316C233.177 44.5102 234.569 43.6366 236.109 43.3108Z" fill="#0D131A"/>
<path d="M240.507 57.7027C239.204 58.1172 238.093 58.7687 237.175 59.6571C236.228 60.5455 235.68 61.4635 235.532 62.4111L234.644 62.2778C234.821 61.1229 235.458 59.968 236.554 58.8131C237.708 57.5694 238.982 56.7254 240.374 56.2812L244.904 56.4145C246.267 56.9179 247.54 57.8063 248.724 59.0796L248.103 59.6571C247.096 58.6207 245.926 57.9248 244.593 57.5694L240.507 57.7027Z" fill="#0D131A"/>
<path d="M245.126 67.6523C246.518 67.6523 247.806 68.0521 248.991 68.8517C250.145 69.6216 251.078 70.658 251.789 71.961L251.434 72.5829C250.812 71.4576 249.938 70.5692 248.813 69.9177C247.688 69.2662 246.503 68.9405 245.259 68.9405C243.69 68.9109 242.061 69.3699 240.373 70.3175C238.656 71.2947 237.412 72.4496 236.642 73.7822L236.82 72.1831C237.619 70.7321 238.789 69.6068 240.329 68.8072C241.78 68.0373 243.379 67.6523 245.126 67.6523Z" fill="#0D131A"/>
<path d="M244.327 108.252C243.024 106.09 241.291 104.476 239.13 103.41C237.471 102.581 235.68 102.196 233.755 102.255C231.919 102.285 230.423 102.684 229.269 103.454L229.313 102.255C230.557 101.426 232.274 101.026 234.466 101.056C236.657 101.115 238.671 101.604 240.507 102.522C244.8 104.713 247.021 108.666 247.169 114.381L246.37 114.959C246.311 112.56 245.63 110.325 244.327 108.252Z" fill="#0D131A"/>
<path d="M224.072 110.872C225.167 110.28 226.618 110.072 228.425 110.25C230.32 110.428 232.112 111.035 233.799 112.071C235.487 113.108 236.82 114.559 237.797 116.424C239.189 119.03 239.678 122.169 239.263 125.841L238.286 126.596C238.345 123.043 237.738 119.978 236.465 117.401C235.428 115.299 234.096 113.744 232.467 112.737C230.986 111.819 229.254 111.316 227.27 111.227C225.523 111.168 224.146 111.405 223.139 111.938L224.072 110.872Z" fill="#0D131A"/>
<path d="M217.542 116.736L218.475 115.803C219.896 116.01 221.362 116.543 222.873 117.402C224.649 118.409 226.1 119.697 227.226 121.266C228.617 123.161 229.461 125.249 229.757 127.529C230.083 129.898 229.861 132.86 229.091 136.413L228.203 136.235C229.447 130.076 228.78 125.22 226.204 121.666C225.168 120.215 223.716 119.031 221.851 118.113C220.4 117.402 218.964 116.943 217.542 116.736Z" fill="#0D131A"/>
<path d="M211.235 120.866L211.546 120.022C215.987 121.562 218.934 124.02 220.385 127.396C221.273 129.499 221.614 131.912 221.407 134.636C221.199 137.183 220.548 139.656 219.452 142.054L218.208 142.454C219.215 140.233 219.807 137.79 219.985 135.125C220.163 132.312 219.837 129.913 219.008 127.929C217.498 124.494 214.907 122.14 211.235 120.866Z" fill="#0D131A"/>
<path d="M193.867 168.972L195.377 167.595C199.967 172.096 202.647 175.591 203.417 178.078C204.009 180.033 203.446 181.943 201.729 183.808C200.87 184.785 199.004 186.192 196.132 188.028C193.526 189.716 190.846 191.3 188.092 192.781L186.182 193.802C184.05 197.563 182.066 200.45 180.23 202.464C178.157 204.774 176.44 205.751 175.077 205.396C174.307 205.189 173.774 204.122 173.478 202.198C173.153 200.332 173.197 198.452 173.612 196.556C172.664 197.267 171.687 198.215 170.68 199.399L167.881 202.464L164.95 205.351L162.418 207.572C161.737 208.046 161.115 208.12 160.552 207.794C159.901 207.409 159.353 206.432 158.909 204.863C158.405 203.175 158.213 201.294 158.331 199.222C157.798 199.547 157.102 200.214 156.244 201.22L153.534 204.108C152.912 204.67 152.32 204.952 151.757 204.952C151.017 204.952 150.425 204.389 149.981 203.264C149.536 202.109 149.477 200.539 149.803 198.555C150.099 196.779 150.617 195.209 151.358 193.847C152.364 191.981 153.83 190.412 155.755 189.138C156.377 188.724 158.331 187.687 161.618 186.029L163.928 186.207C159.486 188.428 156.347 190.649 154.511 192.87C153.564 194.025 152.897 195.076 152.512 196.023C152.128 196.941 151.831 198.126 151.624 199.577C151.417 201.146 151.491 202.079 151.846 202.375C152.231 202.731 152.971 202.257 154.067 200.954L157.043 197.845L158.465 196.601C158.998 195.327 159.501 194.41 159.975 193.847C160.745 192.899 162.018 191.892 163.795 190.826C164.683 190.293 165.69 189.938 166.815 189.76C167.941 189.553 167.985 189.731 166.949 190.293C165.29 191.182 164.061 191.981 163.262 192.692C161.811 193.965 160.922 195.505 160.597 197.312C160.241 199.296 160.167 201.22 160.375 203.086C160.612 204.892 160.982 205.84 161.485 205.929C161.811 205.988 163.647 204.241 166.993 200.687C170.635 196.808 173.004 194.543 174.1 193.891C174.426 193.033 174.974 192.1 175.744 191.093C177.283 189.079 179.208 187.687 181.518 186.917C183.147 186.384 183.976 186.177 184.006 186.296L182.362 187.628C179.075 190.056 177.032 192.218 176.232 194.113C175.403 196.038 174.929 197.993 174.811 199.977C174.722 201.99 175.048 203.234 175.788 203.708C176.44 204.122 177.846 202.864 180.008 199.932C181.696 197.622 183.043 195.505 184.05 193.58C184.82 192.1 185.575 190.886 186.315 189.938C186.937 189.138 187.322 188.783 187.47 188.872C187.678 188.961 187.752 189.272 187.692 189.805C187.663 190.397 187.47 191.093 187.115 191.892C189.395 190.678 192.016 188.931 194.977 186.651C197.909 184.371 199.774 182.653 200.574 181.498C201.462 180.195 201.595 178.863 200.974 177.501C200.144 175.635 197.775 172.792 193.867 168.972Z" fill="#0D131A"/>
<path d="M157.266 75.1595L156.022 75.8257C155.341 76.0034 155.459 75.3964 156.377 74.0046C157.266 72.672 158.198 71.5319 159.176 70.5843L161.174 68.8075C158.894 69.1925 156.407 69.8292 153.712 70.7176C150.366 71.8132 148.086 72.8941 146.872 73.9602L147.182 72.0946C150.114 69.6071 155.489 67.9044 163.307 66.9864C165.231 66.7791 165.913 66.9271 165.35 67.4306L163.884 68.2745L159.709 72.5387C164.151 70.8804 167.808 69.9032 170.68 69.6071C174.915 69.1629 179.283 69.7403 183.784 71.3394C185.235 71.8725 185.635 72.2722 184.983 72.5387L183.606 72.7608C182.066 72.9977 180.171 73.6788 177.92 74.8041C175.966 75.8109 174.382 76.803 173.168 77.7802C176.484 77.3656 180.127 77.4544 184.095 78.0467C185.664 78.2836 186.464 78.4909 186.493 78.6686L184.494 80.3121L183.295 81.0672L187.426 81.467C188.848 81.615 189.558 81.8519 189.558 82.1777C189.558 82.4738 188.877 82.9624 187.515 83.6435L185.338 84.8428C188.329 85.9385 191.646 88.1002 195.288 91.328C199.049 94.6446 202.232 98.2722 204.838 102.211C207.829 106.712 210.124 111.568 211.723 116.78C213.293 121.933 214.078 127.07 214.078 132.193L213.9 134.859L213.5 137.479C212.612 144.053 210.109 150.494 205.993 156.802C201.996 162.902 196.784 168.425 190.358 173.37C183.754 178.463 176.662 182.417 169.081 185.23C161.145 188.132 153.357 189.524 145.717 189.405C134.227 189.168 123.951 186.799 114.89 182.298C109.352 179.515 104.718 176.198 100.987 172.348C100.987 173.74 100.765 174.48 100.32 174.569C99.817 174.688 98.825 173.592 97.3443 171.282C95.9525 169.121 94.8421 167.077 94.0129 165.152C93.3022 166.751 92.5027 168.025 91.6143 168.972C91.1405 169.417 90.8444 169.624 90.7259 169.594C90.5186 169.505 90.2965 168.972 90.0596 167.995C88.1052 160.444 85.1439 154.122 81.1758 149.028C78.7476 145.889 76.7339 143.95 75.1348 143.209L62.6531 142.321C60.1656 142.321 57.9595 141.699 56.0346 140.455C53.9321 139.093 52.3183 137.08 51.193 134.414C50.7488 133.408 50.3638 131.942 50.0381 130.017L49.3274 125.264C48.9128 122.451 48.513 120.393 48.1281 119.09C47.5062 116.869 46.603 115.048 45.4185 113.626C43.2272 110.991 41.3023 107.763 39.644 103.943C37.9265 100.005 36.7272 95.918 36.0461 91.6833L35.8684 89.1959C35.8684 86.7676 36.5051 84.4282 37.7784 82.1777C38.2226 81.3781 39.111 80.1344 40.4436 78.4465C39.0814 76.8474 38.4003 75.5148 38.4003 74.4488C38.4003 72.9681 41.0358 70.1401 46.3069 65.9647C50.9857 62.2631 54.8501 59.598 57.9002 57.9693C57.9595 54.0604 58.1371 51.1288 58.4333 49.1743C59.1144 44.4363 60.5062 41.0308 62.6087 38.958C63.1121 38.4249 63.5711 38.2769 63.9857 38.5138L63.6303 41.4454L63.6747 42.5115C64.4447 41.0901 65.5107 39.95 66.8729 39.0912C67.5244 38.6766 67.8501 38.6174 67.8501 38.9135L67.4059 40.7347C67.0506 42.0377 66.8729 43.4591 66.8729 44.9989L67.0506 48.2415L69.0494 43.5331L69.4936 42.8224C69.7897 42.4967 69.997 42.7928 70.1155 43.7108L71.0483 48.2415C73.8023 44.5103 77.8296 41.2974 83.1303 38.6026C85.9138 37.1812 89.3193 35.8338 93.3466 34.5605C95.0049 34.0571 95.612 34.1163 95.1678 34.7382L94.0573 35.8486C92.9024 36.7666 91.7772 37.7883 90.6815 38.9135C89.497 40.1573 88.653 41.2381 88.1496 42.1561C89.6599 41.0308 91.1553 40.1721 92.6359 39.5798C93.8797 39.106 95.4047 38.7062 97.2111 38.3805L99.3876 38.3361L97.9218 39.6242L95.9229 41.2233C95.3307 41.786 94.694 42.6151 94.0129 43.7108C99.0767 39.4466 104.97 37.1072 111.692 36.6926L113.513 36.7814L112.18 38.0696C111.322 38.6914 110.404 39.6391 109.426 40.9124L106.983 44.3771C108.197 43.8737 109.071 43.5479 109.604 43.3999L112.58 42.8668L114.09 42.9557L112.935 44.1106C112.165 44.9989 111.603 46.7757 111.248 49.4408L109.204 50.6402L109.604 48.4192C109.959 46.8497 110.389 45.5616 110.892 44.5548C109.293 44.9989 107.442 45.7245 105.34 46.7313L104.407 47.5752C103.904 47.8418 103.889 47.2199 104.363 45.7096C104.866 44.1698 105.562 42.852 106.45 41.7564L109.471 38.6026C101.683 40.0536 96.0562 42.9113 92.5915 47.1755L91.8364 47.7529C91.3626 47.9602 91.1849 47.5752 91.3034 46.598C91.481 44.8805 92.5619 42.8224 94.5459 40.4238C91.3478 41.7564 89.0676 43.163 87.7054 44.6436C87.0539 45.3543 86.5801 45.606 86.284 45.3987C85.9879 45.1914 85.9583 44.5844 86.1952 43.5775C86.5505 42.1265 87.0835 40.8976 87.7943 39.8908L90.2373 37.2256C86.4765 38.7063 83.1451 40.3498 80.243 42.1561C76.0084 44.7917 73.0471 47.5604 71.3592 50.4625L70.8706 51.0844C70.5152 51.3509 70.2191 51.0695 69.9822 50.2404L69.1827 47.0422C68.2647 49.0559 67.628 50.6402 67.2727 51.7951C66.9173 52.8019 66.5916 53.0092 66.2954 52.4169L65.9401 51.1732C65.5847 49.1595 65.4071 47.1163 65.4071 45.0434L65.5847 42.245C65.1109 42.7188 64.7408 43.2222 64.4743 43.7552C63.9708 44.7324 63.6303 46.1835 63.4526 48.1083C63.3046 49.6481 63.0084 48.7301 62.5642 45.3543C62.2977 44.3475 62.1645 43.0741 62.1645 41.5343C61.1576 43.1926 60.4321 45.8725 59.9879 49.5741C59.603 52.5354 59.4697 55.2301 59.5882 57.6584L61.4094 57.5695C61.2021 57.9249 60.3729 58.4431 58.9219 59.1242C57.5893 59.7757 54.3171 62.2039 49.1053 66.4089C43.9231 70.5547 41.1395 72.9681 40.7545 73.6492C40.3991 74.2119 40.3103 74.8041 40.488 75.426C40.6657 76.1071 41.1691 77.0251 41.9982 78.18C43.5973 80.3417 43.9971 81.2153 43.1975 80.8007L41.554 79.5569L39.6884 82.3554C38.4743 84.7244 37.8673 87.197 37.8673 89.7733L38.0449 91.9943C38.6964 96.1993 39.7625 100.079 41.2431 103.632C42.6941 107.186 44.4561 110.206 46.529 112.694C47.8615 114.263 48.8684 116.217 49.5495 118.557C49.964 119.978 50.3786 122.14 50.7932 125.042C51.2966 128.566 51.8741 131.098 52.5255 132.638C53.5916 135.155 55.0426 137.154 56.8786 138.634C58.685 140.115 60.6098 140.855 62.6531 140.855L75.4013 141.788H75.5346L75.6234 141.832C77.6667 142.069 79.4435 142.543 80.9537 143.254C82.464 143.994 81.9161 144.275 79.3102 144.098C85.4993 149.961 89.497 157.512 91.3034 166.751C92.251 165.715 92.8728 164.56 93.169 163.287C93.3762 162.31 93.5539 161.777 93.702 161.688C93.9093 161.569 94.2498 162.132 94.7236 163.376C95.3159 164.797 96.2487 166.677 97.522 169.017C98.825 171.415 99.5653 172.6 99.743 172.57C99.9503 172.511 99.9207 171.119 99.6541 168.395C99.3876 165.226 99.3432 163.094 99.5209 161.999C99.7578 160.696 100.054 161.673 100.409 164.93L100.898 170.216L102.986 172.215C105.355 174.288 108.035 176.198 111.025 177.945C121.064 183.868 132.554 186.947 145.495 187.184C153.164 187.332 160.715 186.148 168.148 183.631C175.611 181.114 182.481 177.427 188.759 172.57C194.918 167.832 199.938 162.369 203.817 156.18C207.666 149.991 210.021 143.654 210.879 137.168C211.176 135.096 211.324 132.978 211.324 130.817C211.324 119.83 207.844 109.569 200.885 100.034C198.072 96.1845 195.007 92.9419 191.69 90.3064C188.581 87.8189 185.797 86.2938 183.34 85.7312L181.785 86.131C181.074 86.131 181.518 85.5535 183.117 84.3986C183.769 83.9248 184.361 83.5695 184.894 83.3326L186.094 82.7551L181.296 82.533L177.565 82.1777C177.091 82.0296 177.743 81.6002 179.52 80.8895C180.467 80.5046 181.815 79.9863 183.562 79.3349C178.143 78.8314 174.174 78.9055 171.657 79.5569L169.659 81.6002C169.125 81.9556 169.022 81.6298 169.348 80.623C169.703 79.6458 170.31 78.6093 171.169 77.5137C172.62 75.6185 175.833 73.7825 180.808 72.0057C177.313 71.1766 173.242 71.1025 168.592 71.7836C164.269 72.4351 160.493 73.5604 157.266 75.1595Z" fill="#0D131A"/>
<path d="M149.137 32.5614C150.529 32.6799 151.402 33.0204 151.758 33.583C152.054 33.9976 152.054 34.7231 151.758 35.7596L149.581 40.8233L147.271 45.8427L152.646 49.8404C154.66 51.4987 155.667 52.6536 155.667 53.3051C155.667 53.9862 154.719 55.4816 152.824 57.7914L148.382 62.9884L148.648 66.764C148.648 69.4588 148.5 71.5465 148.204 73.0271C147.671 75.5442 146.62 77.7207 145.05 79.5567C143.274 81.6 141.127 83.1547 138.61 84.2207C135.796 85.4052 132.939 85.7606 130.037 85.2868C128.763 85.0795 128.038 84.8574 127.86 84.6205C127.653 84.3836 128.186 84.2948 129.459 84.354C132.184 84.5021 134.775 84.1467 137.233 83.2879C139.809 82.3699 141.823 81.067 143.274 79.3791C145.939 76.2993 147.271 72.0795 147.271 66.7196L147.138 63.9657L147.005 62.8996C151.447 57.2436 153.697 54.1194 153.756 53.5272C153.697 53.2014 152.38 51.9873 149.803 49.8848L145.583 46.3313C145.406 46.0648 145.894 44.4953 147.049 41.6229C148.411 38.3359 149.181 36.1001 149.359 34.9156C143.644 33.9976 136.359 35.8484 127.505 40.468C120.546 44.14 113.217 49.1445 105.517 55.4816C104.718 56.1627 104.318 56.3552 104.318 56.0591C104.318 55.7333 104.822 55.0374 105.828 53.9714C111.04 48.3746 117.866 43.37 126.306 38.9577C135.426 34.1605 143.037 32.0284 149.137 32.5614Z" fill="#0D131A"/>
<path d="M141.364 39.4908C143.259 38.7209 144.088 38.5728 143.851 39.0466C143.614 39.5204 142.829 40.0238 141.497 40.5569C135.87 42.9555 130.052 46.3165 124.04 50.64C116.548 56.0295 111.899 60.9304 110.093 65.3427C111.544 66.2607 112.773 67.4748 113.779 68.9851C114.668 70.4065 115.127 71.6798 115.156 72.8051L114.001 73.116C113.616 71.2208 112.787 69.4885 111.514 67.919L109.693 66.0978C109.219 66.4828 108.804 66.7049 108.449 66.7641C107.798 66.9418 107.827 66.2755 108.538 64.7652C110.848 59.9384 115.526 55.0079 122.574 49.9737C128.408 45.7983 134.671 42.304 141.364 39.4908Z" fill="#0D131A"/>
<path d="M150.336 104.564C152.616 105.275 154.674 106.223 156.51 107.407C158.198 108.532 158.939 109.317 158.731 109.761C158.465 110.294 156.17 110.072 151.846 109.095C147.73 108.059 141.304 106.993 132.569 105.897C120.96 104.416 111.869 104.002 105.295 104.653C111.662 109.658 114.757 112.96 114.579 114.559C114.401 116.099 113.661 118.275 112.358 121.088L112.269 121.266L106.939 124.286H113.957C115.201 124.257 115.615 124.434 115.201 124.819L114.224 125.441C113.631 125.708 113.024 125.96 112.402 126.196L123.329 127.085C124.78 127.351 125.18 127.633 124.529 127.929L123.152 128.24L114.401 127.485L109.648 127.351L107.25 127.884C106.154 128.003 106.88 127.44 109.426 126.196L110.937 125.486L105.962 125.619L102.453 125.486C102.186 125.308 103.548 124.449 106.539 122.909L111.336 120.466L113.069 114.87L113.158 115.536L113.113 114.692C113.083 113.804 111.706 112.042 108.982 109.406C106.613 107.126 104.762 105.542 103.43 104.653L101.031 104.342C99.9947 104.105 100.883 103.854 103.696 103.587C113.054 102.728 123.285 103.054 134.39 104.564C140.816 105.423 146.723 106.548 152.113 107.94L155.311 108.207C154.66 107.466 152.868 106.622 149.936 105.675C141.082 102.773 131.132 100.493 120.087 98.8343C110.255 97.3537 103.489 96.8503 99.7874 97.3241L94.3238 97.5906C93.6131 97.4129 93.8056 97.1908 94.9013 96.9243L98.3215 96.1692L94.4571 94.0371L92.014 94.7478C90.8592 94.9551 91.5106 94.422 93.9685 93.1487C99.6245 90.1578 112.032 88.692 131.192 88.7512L133.946 88.4847C133.472 88.0701 132.45 87.7296 130.881 87.4631C122.352 85.9824 114.09 85.4642 106.095 85.9084C101.919 86.1453 97.3739 86.7375 92.4582 87.6852L92.1473 87.774L90.2817 88.5735C89.3933 88.84 89.8523 88.2182 91.6587 86.7079C95.538 83.4505 103.371 80.6521 115.156 78.3127C121.168 77.1282 129 75.9733 138.654 74.848L142.785 74.1818L137.854 73.6487C123.818 73.1453 112.269 73.9301 103.208 76.0029C100.72 76.5656 97.6849 77.8093 94.1017 79.7341C90.4002 81.7182 87.2464 83.8355 84.6405 86.0861C83.1599 87.389 82.3899 87.8332 82.3307 87.4186C82.2715 87.0337 82.5824 86.4562 83.2635 85.6863L84.7737 84.0428C82.0198 81.7922 77.4298 80.5781 71.0038 80.4004L61.1872 80.9779C60.5654 81.1259 59.7066 80.5189 58.6109 79.1567C57.5449 77.8537 56.8342 76.5952 56.4788 75.3811C56.2419 74.6111 55.9014 73.9004 55.4572 73.249C54.8945 72.4494 54.2875 71.9016 53.636 71.6055L51.2818 71.5166C49.6827 72.1681 47.8615 72.5827 45.8183 72.7604C43.6862 72.938 42.1019 72.7752 41.0654 72.2717L41.5985 71.2057C42.4276 71.6203 43.7898 71.7387 45.685 71.561C47.6098 71.413 49.3274 71.028 50.8376 70.4061L52.9697 70.0952C53.8581 70.1248 54.5688 70.2729 55.1018 70.5394C55.8422 70.8948 56.4196 71.5462 56.8342 72.4938L57.6337 75.0701C57.9299 76.1658 58.374 77.2023 58.9663 78.1795C59.7658 79.4528 60.5506 79.9859 61.3205 79.7786L71.5369 79.3788C77.9924 79.7045 82.6564 80.9335 85.5289 83.0656C88.2532 81.0815 91.4366 79.2751 95.079 77.6465C98.3364 76.225 101.298 75.2034 103.963 74.5815C108.997 73.4266 114.653 72.7011 120.931 72.405C125.521 72.1977 131.177 72.2125 137.899 72.4494C142.815 72.6567 145.243 73.2045 145.184 74.0929C145.154 74.5963 144.088 75.0701 141.985 75.5143L138.787 76.0029C117.288 78.52 102.719 81.8515 95.079 85.9972C106.391 83.9836 118.384 84.0872 131.058 86.3082C134.819 86.93 136.655 87.7296 136.566 88.7068C136.537 89.299 134.745 89.7136 131.192 89.9505C114.549 89.8913 102.852 91.1202 96.1006 93.6373L99.9206 95.8583C108.479 95.8286 116.755 96.5393 124.751 97.9904C131.917 99.2637 140.446 101.455 150.336 104.564Z" fill="#0D131A"/>
<path d="M106.583 162.842C106.791 161.569 107.116 160.577 107.561 159.866C108.123 158.978 108.508 158.578 108.716 158.667C108.952 158.726 108.923 159.304 108.627 160.399C108.39 161.258 108.227 162.235 108.138 163.331L107.738 166.751C107.531 168.113 107.339 168.824 107.161 168.883L106.139 167.728L103.385 164.397L101.031 161.421C99.9946 159.615 100.276 159.392 101.875 160.755C102.675 161.465 103.504 162.398 104.362 163.553L106.184 165.907L106.583 162.842Z" fill="#0D131A"/>
<path d="M144.65 152.804C147.167 152.833 149.936 153.203 152.957 153.914C157.221 154.921 160.7 156.402 163.395 158.356C164.965 159.481 165.601 160.251 165.305 160.666L162.551 160.799L157.798 159.955C160.523 161.762 162.462 163.257 163.617 164.441C165.749 166.633 165.823 168.128 163.839 168.928C165.883 174.258 165.735 178.804 163.395 182.564C161.737 185.23 159.723 186.843 157.354 187.406L157.088 186.518C159.427 185.955 161.219 184.134 162.462 181.054C163.262 179.129 163.617 176.894 163.528 174.347C163.469 172.156 163.143 170.408 162.551 169.105C162.373 168.661 162.403 168.395 162.64 168.306C163.173 168.01 163.44 167.654 163.44 167.24C163.41 166.322 162.107 164.856 159.531 162.842C157.902 161.569 156.199 160.385 154.422 159.289L152.957 158.223L154.822 158.178C156.569 158.386 159.161 158.874 162.596 159.644C159.131 157.512 155.474 155.943 151.624 154.936L144.517 153.781C142.977 153.633 142.163 153.44 142.074 153.203C141.956 152.937 142.814 152.804 144.65 152.804Z" fill="#0D131A"/>
<path d="M155.089 140.1C154.97 139.122 154.408 138.204 153.401 137.346C152.513 136.605 151.595 136.146 150.647 135.969C150.232 135.909 149.699 136.309 149.048 137.168L147.271 139.7L145.672 141.343L144.784 141.61C144.665 141.551 144.799 141.254 145.183 140.721L145.805 139.966C144.591 140.026 143.288 139.729 141.896 139.078L140.12 138.056L137.899 134.814C137.01 133.274 136.27 131.793 135.678 130.372C134.967 128.654 133.797 127.47 132.169 126.818C130.333 126.137 128.363 126.285 126.261 127.262C124.721 128.003 123.329 129.202 122.086 130.86C120.96 132.371 120.324 133.777 120.176 135.08C120.116 135.761 120.294 136.265 120.709 136.59C121.271 137.035 122.1 136.827 123.196 135.969L125.373 134.147C126.439 133.378 127.445 132.904 128.393 132.726C129.311 132.548 129.8 132.637 129.859 132.993L129.726 133.57L128.66 134.37C130.229 135.672 131.162 137.035 131.458 138.456C131.665 139.433 131.591 140.914 131.236 142.898C131.029 144.319 130.718 144.823 130.303 144.408L129.726 143.387L126.128 143.209C123.463 143.268 121.479 143.712 120.176 144.541C119.317 145.104 118.725 146.274 118.399 148.051C118.073 149.739 118.088 151.338 118.443 152.848C118.65 153.736 118.932 154.328 119.287 154.625C119.791 155.069 120.309 154.684 120.842 153.47L122.441 150.805L124.262 148.317C125.92 146.392 126.735 145.889 126.705 146.807C126.676 147.725 126.365 148.273 125.772 148.45C126.335 148.598 127.549 149.383 129.415 150.805L133.146 153.514C135.1 154.491 137.514 154.417 140.386 153.292C143.14 152.256 145.524 150.582 147.538 148.273C147.153 146.466 146.96 144.971 146.96 143.786C146.96 142.839 147.123 142.098 147.449 141.565C147.745 141.003 147.982 141.121 148.16 141.921L148.648 146.851C148.855 149.339 149.137 150.701 149.492 150.938C150.025 151.293 150.78 151.293 151.757 150.938C152.379 150.701 153.134 149.146 154.023 146.274C154.882 143.401 155.237 141.343 155.089 140.1ZM154.511 136.502C155.933 137.568 156.718 138.737 156.866 140.011C157.043 141.343 156.57 143.594 155.444 146.762C154.26 150.049 153.164 151.885 152.157 152.27L150.38 152.715C149.877 152.715 149.418 152.567 149.003 152.27C148.352 151.826 147.878 151.056 147.582 149.961C145.213 152.33 142.74 154.047 140.164 155.113C137.262 156.298 134.789 156.372 132.746 155.335C131.562 154.773 130.096 153.677 128.349 152.048L126.394 150.449C125.832 150.094 125.299 149.99 124.795 150.138C124.173 150.731 123.596 151.574 123.063 152.67L122.086 154.891C121.345 156.283 120.486 156.92 119.509 156.801C118.562 156.683 117.821 155.454 117.288 153.114C116.874 151.367 116.785 149.561 117.022 147.695C117.288 145.474 117.969 143.994 119.065 143.253C121.02 142.01 124.706 141.654 130.125 142.187L130.17 141.388C130.17 138.456 129.267 136.368 127.46 135.125C126.957 135.243 126.424 135.569 125.861 136.102L124.395 137.39L121.952 138.856C121.005 139.3 120.324 139.359 119.909 139.034C119.435 138.678 119.05 138.19 118.754 137.568C118.458 136.916 118.34 136.265 118.399 135.613C118.576 134.133 119.391 132.43 120.842 130.505C122.352 128.462 123.996 127.026 125.772 126.196C127.016 125.634 128.319 125.278 129.681 125.13L133.279 125.486C134.197 125.841 134.952 126.33 135.545 126.952C136.078 127.514 136.566 128.299 137.01 129.306C138.224 132.297 139.513 134.606 140.875 136.235L141.63 137.212C142.104 137.834 143.688 138.352 146.383 138.767C148.011 135.924 149.492 134.606 150.825 134.814C152.068 135.021 153.297 135.584 154.511 136.502Z" fill="#0D131A"/>
<path d="M77.2223 64.0099C81.2792 61.1967 85.7655 59.1534 90.6812 57.8801C91.6288 57.6432 92.073 57.6876 92.0138 58.0133C91.925 58.3391 91.5548 58.6796 90.9033 59.035C87.0241 60.6045 83.6482 62.2035 80.7758 63.8322C75.2974 66.9416 71.3145 70.5247 68.8271 74.5816C71.433 73.486 75.2382 72.4199 80.2428 71.3835C85.2473 70.3766 88.9637 69.888 91.3919 69.9177C92.5468 69.9177 93.0799 70.0805 92.991 70.4063C92.9022 70.7024 92.3692 70.9245 91.3919 71.0725C77.089 73.3823 69.1824 75.1887 67.6722 76.4917L66.8282 77.0247C66.3248 77.1728 66.31 76.7582 66.7838 75.781C68.9751 71.2206 72.4546 67.2969 77.2223 64.0099Z" fill="#0D131A"/>
<path d="M84.1074 61.345L85.0402 60.6787C86.3432 61.3302 87.3648 62.4999 88.1051 64.1878C88.9047 66.0238 89.2156 68.1559 89.0379 70.5842L87.8386 70.4953C87.9867 68.3632 87.6609 66.4088 86.8614 64.632C86.1211 63.0329 85.2031 61.9373 84.1074 61.345Z" fill="#0D131A"/>
<path d="M75.8008 66.2754C77.0742 66.305 78.1847 67.1045 79.1323 68.674C79.9614 70.0066 80.3168 71.1171 80.1983 72.0054L67.8054 75.2925L70.9592 70.4064L75.8008 66.2754Z" fill="#0D131A"/>
<path d="M49.7271 79.29C49.6383 78.8162 49.7715 77.9722 50.1269 76.7581C50.5414 75.3959 51.0597 74.5076 51.6815 74.093C52.333 73.6488 52.7624 73.5007 52.9697 73.6488C53.177 73.7968 53.0881 74.1226 52.7032 74.626L51.5927 76.8025L50.571 78.9791L50.038 79.7342C49.9196 79.7934 49.8159 79.6454 49.7271 79.29Z" fill="#0D131A"/>
<path d="M62.3866 109.761C62.3866 108.547 62.6679 106.06 63.2305 102.299C63.9116 97.7386 64.6075 94.881 65.3182 93.7261L66.4287 95.947C65.8068 96.9242 65.1554 99.3525 64.4743 103.232C63.882 106.578 63.5859 108.755 63.5859 109.761C63.5859 110.442 63.1417 110.961 62.2533 111.316L57.1895 112.16C55.8274 111.568 54.5392 109.554 53.3251 106.119C52.3479 103.424 51.7704 101.174 51.5927 99.3673C51.4447 98.0939 51.4891 97.3832 51.726 97.2352C51.9629 97.0575 52.3034 97.6794 52.7476 99.1008L54.9242 105.941C56.0495 109.051 56.9526 110.753 57.6337 111.049L60.4321 110.827C61.7351 110.413 62.3866 110.057 62.3866 109.761Z" fill="#0D131A"/>
<path d="M53.8136 112.826C53.2806 112.797 52.9992 112.975 52.9696 113.359C52.8808 114.396 52.9252 115.654 53.1029 117.135C53.7248 121.873 54.6872 125.634 55.9901 128.418C57.2635 131.201 58.981 133.23 61.1427 134.503L70.2042 134.858C73.6689 134.681 75.6826 134.207 76.2452 133.437C76.7486 132.726 77.3261 131.023 77.9775 128.329C75.8158 127.648 73.5949 125.886 71.3147 123.043L66.1177 115.58L64.1188 113.049L62.6974 111.583L60.1655 111.938L58.1222 112.516C57.9446 112.634 57.8557 112.767 57.8557 112.915C57.5892 115.166 58.8477 119.667 61.6313 126.419C62.5197 128.61 62.7566 129.587 62.342 129.35C61.9571 129.173 61.3796 128.418 60.6097 127.085C59.899 125.752 59.0847 123.68 58.1667 120.866C57.071 117.49 56.538 114.944 56.5676 113.226C56.5676 112.901 56.4195 112.752 56.1234 112.782L53.8136 112.826ZM45.907 106.208C43.1234 101.588 41.7612 97.1021 41.8205 92.7491C41.8501 91.683 42.1906 90.8242 42.8421 90.1728C43.5232 89.4324 44.7225 88.7662 46.44 88.1739C48.9275 87.3151 51.948 86.9894 55.5015 87.1967C58.9662 87.4336 61.1279 88.0258 61.9867 88.9735C65.0368 92.3789 68.694 96.9837 72.9582 102.788C78.1404 109.836 80.8944 114.381 81.2201 116.424C81.457 117.905 81.0573 120.94 80.0208 125.53C78.9844 130.091 78.0516 132.948 77.2224 134.103C76.3636 135.317 73.5653 136.028 68.8272 136.235C64.3557 136.443 61.5573 136.235 60.432 135.613C58.0038 134.281 56.1678 132.356 54.9241 129.839C53.5323 126.996 52.5402 122.806 51.948 117.268L51.7259 114.514C51.7259 113.744 51.7999 113.108 51.948 112.604L51.415 112.471C50.112 112.175 48.276 110.087 45.907 106.208ZM72.1586 103.721C68.0129 97.9757 64.3261 93.3265 61.0983 89.773C60.5061 89.1215 58.6701 88.6773 55.5904 88.4404C52.1553 88.1739 49.2384 88.47 46.8398 89.3288C45.3888 89.8322 44.3968 90.3208 43.8637 90.7946C43.3011 91.298 43.0198 91.9643 43.0198 92.7935C43.0198 95.5475 44.1154 99.175 46.3068 103.676C48.4389 108.059 50.2453 110.62 51.7259 111.361L54.1689 111.672L56.4787 111.272L57.7225 111.139C58.0186 111.227 58.2111 111.39 58.2999 111.627L61.4092 110.828L63.0972 110.472C63.4821 110.443 63.9707 110.754 64.563 111.405L67.0949 114.87C69.2862 118.009 71.063 120.348 72.4252 121.888C74.735 124.494 76.7338 126.004 78.4217 126.419C79.5174 121.207 79.9468 117.846 79.7099 116.336C79.4138 114.47 76.8967 110.265 72.1586 103.721Z" fill="#0D131A"/>
<path d="M89.7486 138.456L88.5938 138.101L90.2373 137.79C91.2441 137.671 93.0653 138.115 95.7008 139.122C98.4252 140.159 100.024 141.047 100.498 141.787C100.942 142.528 101.031 142.957 100.765 143.076C100.498 143.194 100.113 143.031 99.6097 142.587C99.1951 142.172 97.67 141.417 95.0345 140.322C92.3694 139.226 90.6074 138.604 89.7486 138.456Z" fill="#0D131A"/>
<path d="M87.35 141.477C84.8329 140.826 84.8329 140.544 87.35 140.633C88.8306 140.663 90.0891 141.048 91.1256 141.788C91.8363 142.291 92.5026 143.032 93.1244 144.009C93.5686 144.72 93.5834 145.105 93.1689 145.164C92.7543 145.253 92.4285 145.105 92.1916 144.72L90.1928 143.032C88.9787 142.173 88.0311 141.655 87.35 141.477Z" fill="#0D131A"/>
<path d="M73.4022 71.6946C73.491 72.0203 73.4318 72.3608 73.2245 72.7162L72.3805 73.3381L71.4033 73.2048C71.1072 72.9975 70.9147 72.731 70.8259 72.4053C70.737 72.0795 70.7666 71.7538 70.9147 71.428C71.0924 71.1319 71.3441 70.9394 71.6698 70.8506L72.6914 70.9394C73.0468 71.1171 73.2837 71.3688 73.4022 71.6946Z" fill="white"/>
</svg>
