<svg width="158" height="145" viewBox="0 0 158 145" fill="none" xmlns="http://www.w3.org/2000/svg">
<path d="M142.332 69.2127C147.584 73.4239 151.593 78.0978 154.358 83.2345C156.58 87.3532 157.69 91.0206 157.69 94.2368C157.69 98.4364 156.076 102.717 152.848 107.079C149.736 111.29 145.803 114.697 141.048 117.3C142.124 118.445 142.893 119.359 143.356 120.042C143.981 120.967 144.293 121.777 144.293 122.471C144.293 122.703 144.189 122.992 143.981 123.339L143.477 124.137C142.274 126.532 138.196 128.013 131.243 128.58C125.748 129.031 120.507 128.898 115.521 128.181C111.876 127.648 108.758 126.787 106.167 125.595C105.589 125.34 103.928 124.392 101.186 122.749C99.9833 122.02 99.1156 121.563 98.5834 121.378C97.762 121.077 96.9232 121.019 96.0671 121.204C84.2087 123.738 75.1617 124.594 68.9259 123.773C65.7097 123.345 62.6959 122.466 59.8846 121.135C57.3278 119.92 54.6206 118.168 51.7631 115.877C43.0052 109.826 36.8273 103.313 33.2293 96.3366C29.6197 89.3488 28.9082 82.5288 31.0948 75.8766C32.3096 72.1744 34.3862 68.7384 37.3248 65.5685C40.2633 62.3869 43.8787 59.674 48.1708 57.4296C52.6481 55.081 57.5939 53.3457 63.0083 52.2235C68.4458 51.0897 74.1494 50.6096 80.119 50.7831C94.6846 51.1996 107.515 53.2184 118.61 56.8395C127.981 59.9054 135.888 64.0298 142.332 69.2127Z" fill="#0D131A"/>
<path d="M140.215 117.994C140.863 118.387 141.493 119.232 142.106 120.527C142.777 121.916 142.934 122.969 142.575 123.686C141.545 125.745 137.884 127.006 131.59 127.469C126.453 127.839 121.444 127.671 116.562 126.966C112.906 126.445 109.736 125.653 107.052 124.588C105.49 123.975 103.714 123.067 101.724 121.864C100.417 121.089 99.4683 120.597 98.8783 120.389C97.8949 120.053 96.8884 119.99 95.8587 120.198C85.3539 122.361 76.9663 123.073 70.6958 122.332C64.4138 121.58 58.2937 119.145 52.3356 115.026C43.786 109.115 37.7469 102.775 34.2183 96.0067C30.6782 89.2272 29.9609 82.6212 32.0665 76.1887C34.5307 68.6688 40.2343 62.6413 49.1772 58.1062C58.1202 53.5711 68.4283 51.4713 80.1016 51.8068C100.776 52.4084 117.007 55.5783 128.796 61.3166C140.585 67.0665 149.21 76.0152 154.67 88.1628C157.181 93.7276 156.082 99.784 151.373 106.332C149.649 108.727 147.596 110.96 145.213 113.031C143.211 114.766 141.476 115.992 140.007 116.71C137.947 117.728 137.207 118.277 137.785 118.358C138.167 118.416 138.977 118.295 140.215 117.994Z" fill="#5DC1CF"/>
<path d="M52.3357 115.026L50.1144 113.43C56.5237 113.442 63.8933 112.637 72.2231 111.018L94.1408 106.107C95.344 110.908 96.8943 115.663 98.7916 120.371C97.8314 120.048 96.8538 119.99 95.8588 120.198C85.3541 122.361 76.9664 123.073 70.6959 122.332C64.4139 121.58 58.2938 119.145 52.3357 115.026Z" fill="#50A8B4"/>
<path d="M142.002 101.265C142.396 99.4717 141.997 97.557 140.805 95.5208C139.729 93.6813 138.219 92.0732 136.276 90.6965C134.355 89.3197 132.527 88.533 130.792 88.3364C128.906 88.1165 127.535 88.6661 126.679 89.985C126.922 89.58 126.818 88.9206 126.367 88.0066C125.892 87.0464 125.117 86.0052 124.041 84.883C121.346 82.0948 117.91 79.8793 113.733 78.2365C108.469 76.154 102.864 75.4078 96.9173 75.9979C89.6403 76.7267 82.2477 79.4455 74.7393 84.1541C71.7429 86.0283 68.5903 86.5431 65.2815 85.6986C62.6206 85.0044 59.5953 83.3211 56.2055 80.6487C55.2453 79.8851 52.2778 77.2705 47.3031 72.8048C43.6935 69.5538 40.7144 67.2632 38.3659 65.9327C42.7737 61.3282 48.6335 57.7707 55.9452 55.2602C63.3842 52.715 71.4363 51.5638 80.1016 51.8068C100.776 52.4084 117.007 55.5783 128.796 61.3166C140.585 67.0665 149.21 76.0152 154.671 88.1628C157.181 93.7276 156.082 99.784 151.373 106.332C149.65 108.727 147.596 110.96 145.213 113.031C143.211 114.766 141.476 115.992 140.007 116.71C137.947 117.728 137.207 118.277 137.785 118.358C138.167 118.416 138.977 118.295 140.215 117.994C140.863 118.387 141.493 119.232 142.106 120.528C142.777 121.916 142.934 122.969 142.575 123.686C142.054 124.739 140.793 125.589 138.792 126.237C137.033 126.815 134.777 127.214 132.024 127.434C131.966 125.491 131.526 123.761 130.705 122.246C130.022 121.008 129.253 120.146 128.397 119.66C136.357 112.441 140.892 106.309 142.002 101.265Z" fill="#50A8B4"/>
<path d="M136.935 124.346C138.08 125.688 138.595 126.648 138.479 127.226C138.306 128.025 138.022 128.875 137.629 129.777C137.109 130.934 136.634 131.507 136.206 131.495C135.061 131.472 133.811 131.171 132.458 130.593C131.243 130.084 130.08 129.413 128.97 128.58C128.796 128.464 128.692 128.331 128.657 128.181C128.588 127.903 128.756 127.492 129.161 126.949C131.879 123.409 133.609 121.777 134.349 122.055C134.986 122.298 135.847 123.061 136.935 124.346Z" fill="#0D131A"/>
<path d="M136.571 125.092C137.473 126.214 137.884 126.989 137.803 127.417C137.699 127.949 137.438 128.545 137.022 129.205C136.582 129.864 136.229 130.194 135.963 130.194C135.419 130.194 134.367 129.957 132.805 129.482C131.104 128.95 130.086 128.487 129.751 128.094C129.808 127.759 130.254 127.059 131.087 125.994C132.012 124.826 132.857 123.987 133.62 123.478C134.014 123.212 134.28 123.096 134.419 123.131C134.963 123.339 135.68 123.993 136.571 125.092Z" fill="white"/>
<path d="M134.436 123.148C134.98 123.368 135.697 124.022 136.588 125.109C137.479 126.231 137.884 127.001 137.803 127.417C137.699 127.892 137.473 128.418 137.126 128.996C136.617 127.018 135.72 125.069 134.436 123.148Z" fill="#DBDCDC"/>
<path d="M145.595 121.239C147.226 122.858 147.926 123.957 147.694 124.536C147.243 125.647 145.849 126.375 143.512 126.722C142.598 126.861 141.811 126.879 141.152 126.775C140.469 126.67 140.151 126.468 140.198 126.167C140.313 125.392 140.626 124.038 141.135 122.106C141.632 120.186 141.927 119.208 142.02 119.174C142.76 118.896 143.952 119.584 145.595 121.239Z" fill="#0D131A"/>
<path d="M141.273 125.456L141.239 125.143C141.239 124.577 141.441 123.639 141.846 122.332C142.205 121.152 142.5 120.36 142.731 119.955C143.159 120.209 143.853 120.903 144.814 122.037C145.82 123.229 146.323 124.01 146.323 124.38V124.397C146.3 124.629 145.942 124.906 145.247 125.23C144.495 125.589 143.72 125.814 142.922 125.907C141.95 126.023 141.401 125.872 141.273 125.456Z" fill="#DBDCDC"/>
<path d="M127.009 118.931L134.089 118.341C134.772 118.249 135.101 118.318 135.078 118.549C135.055 118.758 134.795 118.972 134.297 119.192C133.661 119.481 131.382 119.683 127.46 119.799C123.145 119.938 120.293 119.729 118.904 119.174L119.061 118.706C120.183 119.076 122.832 119.151 127.009 118.931Z" fill="#0D131A"/>
<path d="M127.564 81.9505C127.691 81.1754 127.853 80.7878 128.05 80.7878C128.258 80.7878 128.351 81.1754 128.328 81.9505C128.108 87.4459 126.876 91.9694 124.631 95.5211C122.236 99.3043 118.517 102.249 113.473 104.354L113.178 103.643C117.701 101.757 121.195 98.5928 123.659 94.1502C125.464 90.8993 126.766 86.8327 127.564 81.9505Z" fill="#0D131A"/>
<path d="M72.3446 46.1497L72.709 46.4794L56.4486 57.8808C56.1709 58.0544 53.348 59.003 47.9799 60.7268C42.554 62.4506 39.7196 63.2894 39.4766 63.2431C39.2684 63.1968 38.7362 61.6639 37.8801 58.6444L36.1274 52.3797L34.0623 64.7876C29.2032 66.2569 26.6696 66.9105 26.4613 66.7486C26.3456 66.656 26.2878 65.5801 26.2878 63.5208L26.2531 57.9502L24.0145 68.2236L21.5849 69.0046C19.9306 69.502 19.0108 69.6756 18.8257 69.5252C18.6406 69.3748 18.3919 68.4261 18.0795 66.6792L17.3506 62.6357L15.112 70.5317C13.0064 71.5845 11.8206 72.0068 11.5545 71.7985C11.4041 71.6828 11.2884 71.0349 11.2074 69.8549L10.9818 66.8701L9.38528 72.5447C6.43515 73.2273 4.90224 73.4645 4.78655 73.2562C4.70556 73.1174 5.09313 71.9489 5.94924 69.7508L7.85815 64.8223L1.0555 71.625C0.627438 72.0299 0.390271 72.0877 0.343994 71.7985L0.413409 71.2258L3.62385 61.9069L9.92325 58.5576L4.66507 59.9806L9.12498 54.1324L16.7085 50.7658L12.561 51.5988C10.976 51.9227 10.1431 52.0268 10.0621 51.9111C9.96952 51.7839 11.3058 50.5576 14.0708 48.2322C16.8242 45.9299 18.3572 44.7267 18.6695 44.6226L21.88 44.3796L26.5481 44.154C25.2177 43.6913 24.107 43.2227 23.2162 42.7484L22.5915 42.4881C22.5683 42.4534 22.7881 42.3145 23.2509 42.0716C32.3558 37.3398 41.1831 35.2574 49.7327 35.8243C58.6756 36.4143 66.2129 39.8561 72.3446 46.1497Z" fill="#0D131A"/>
<path d="M24.292 42.4531C33.5358 38.2419 42.1548 36.4718 50.149 37.1429C58.1549 37.8023 65.2583 40.8855 71.4594 46.3924L55.3205 57.2558C45.3363 60.7034 40.2227 62.3752 39.9798 62.271C39.8062 62.1901 39.1815 60.4258 38.1056 56.9782C37.0296 53.519 36.4512 51.396 36.3702 50.6093C36.2776 49.7995 36.1504 49.5045 35.9884 49.7243C35.8033 49.9441 35.5488 50.7713 35.2248 52.2059C34.7737 54.1611 34.1605 58.1466 33.3854 64.1626L27.2074 65.7765L26.9471 54.7222C26.9124 53.7966 26.8546 53.3107 26.7736 53.2645C26.681 53.195 26.4844 53.6578 26.1836 54.6528C25.7555 56.0526 24.8184 60.3679 23.3723 67.5986L19.3983 68.5878C18.5306 65.0823 17.9868 62.5371 17.767 60.9522C17.6166 59.8994 17.4836 59.4366 17.3679 59.5639L17.0208 60.9348L14.5045 69.872L12.2659 70.3232L11.9015 68.0845C11.6932 66.7656 11.5486 65.736 11.4676 64.9956C11.3751 64.1047 11.2941 63.6593 11.2247 63.6593C11.1552 63.6709 10.9875 64.099 10.7214 64.9435C10.3859 66.0541 9.73802 68.3622 8.77778 71.8676L5.94913 72.3015L9.15957 63.4511C9.46036 62.676 9.4488 62.3752 9.12486 62.5487L8.53483 63.052L1.68011 69.9067L4.24846 62.4446C9.02652 59.8068 12.0345 58.2103 13.2724 57.6549C15.2507 56.7526 15.1582 56.5154 12.9947 56.9434C12.0576 57.1285 10.9123 57.4178 9.5587 57.8111L6.64328 58.6615L9.61076 54.7569L14.1227 52.7612L19.8321 50.2102C20.7808 49.7821 21.2609 49.5334 21.2725 49.464C21.284 49.3599 20.7345 49.3657 19.6239 49.4813L16.0143 50.054L12.6997 50.6787L18.9818 45.3685L23.407 45.1256L28.5784 44.8132C29.1915 44.7553 29.5039 44.6859 29.5155 44.6049C29.5155 44.524 29.2378 44.3446 28.6825 44.067C28.3354 43.8934 27.6702 43.6505 26.6868 43.3381C25.6572 43.0142 24.8589 42.7192 24.292 42.4531Z" fill="#00A63C"/>
<path d="M37.4462 46.5142C37.1339 46.5142 36.6711 46.1729 36.0579 45.4903L34.0796 43.3211C32.0666 41.2965 30.042 40.4809 28.0058 40.8742C36.486 37.5654 44.3993 36.3796 51.7457 37.3167C59.1037 38.2422 65.6749 41.2676 71.4595 46.3927L55.8412 56.9091C53.886 54.1556 51.2019 51.7955 47.789 49.8287C44.2604 47.781 40.8128 46.6761 37.4462 46.5142Z" fill="#009233"/>
<path d="M63.6851 42.7479L66.9302 45.5939L65.6634 45.9236C64.6916 45.5997 63.3727 45.2989 61.7067 45.0212C58.4095 44.4891 54.9272 44.3387 51.2598 44.57C39.6097 45.2989 28.3355 49.6894 17.4374 57.7415L16.5524 58.3836C16.1243 58.6266 16.3152 58.2853 17.125 57.3597C22.146 51.5867 28.6363 47.3408 36.5959 44.6221C45.2149 41.6835 54.2446 41.0588 63.6851 42.7479Z" fill="#0D131A"/>
<path d="M65.2121 45.1256C58.5599 43.7373 52.5844 43.3903 47.2858 44.0844C38.9907 45.1719 30.2618 48.6832 21.099 54.6181C26.12 49.9211 32.2979 46.5776 39.6328 44.5877C47.2337 42.5168 55.2511 42.135 63.685 43.4423L63.98 43.9977C64.2577 44.4141 64.6684 44.7901 65.2121 45.1256Z" fill="#00A63C"/>
<path d="M63.685 43.4423L63.98 43.9976C64.2577 44.4141 64.6684 44.7901 65.2121 45.1256C60.7696 44.1885 56.8418 43.7142 53.4289 43.7026C48.3385 43.6679 43.1787 44.5182 37.9494 46.2536L36.8561 45.4206C40.8822 44.067 45.1339 43.2167 49.6111 42.8696C54.2156 42.511 58.9069 42.7019 63.685 43.4423Z" fill="#009233"/>
<path d="M102.106 33.0821L102.228 33.1342L102.297 33.2557C103.176 34.5514 103.639 35.9224 103.685 37.3685C103.743 38.8262 103.379 40.2319 102.592 41.5855C101.019 44.2926 98.109 46.4098 93.8631 47.9369C88.8074 49.7417 82.589 50.3664 75.2079 49.8111C74.2245 49.7301 73.6055 49.3079 73.351 48.5443C73.0155 47.5378 73.4204 46.1032 74.5658 44.2406C75.7111 42.3895 77.3366 40.5327 79.4422 38.67C82.1609 36.2637 85.0648 34.43 88.1537 33.1689C93.2326 31.0865 97.8834 31.0575 102.106 33.0821Z" fill="#00A63C"/>
<path d="M101.533 33.9496C102.297 35.1181 102.679 36.3444 102.679 37.6286C102.679 38.8086 102.355 39.954 101.707 41.0646C100.226 43.6214 97.4379 45.6171 93.3425 47.0516C88.4719 48.7407 82.4501 49.3192 75.2773 48.787C74.7451 48.7523 74.4269 48.5614 74.3228 48.2143C74.0683 47.497 74.4558 46.3228 75.4855 44.6915C76.5961 42.9446 78.1406 41.1919 80.1189 39.4334C82.6989 37.1542 85.4523 35.4015 88.3793 34.1752C93.1921 32.1737 97.5768 32.0985 101.533 33.9496Z" fill="#009233"/>
<path d="M87.234 19.6682C88.7958 20.478 89.8255 21.5077 90.323 22.7572C92.1162 27.3154 93.0996 31.4224 93.2731 35.0783C93.4698 39.0465 92.7814 43.4428 91.208 48.2671C90.8378 49.4125 89.9527 50.4768 88.5529 51.4602C87.0952 52.5014 85.302 53.2823 83.1732 53.803C80.2 54.5318 77.3192 54.6822 74.5311 54.2542C71.1529 53.7335 68.5845 52.3799 66.826 50.1934C63.4363 45.9475 62.2736 40.4117 63.3379 33.5859C63.7081 31.2026 64.3329 28.8367 65.2121 26.4882C65.8716 24.6834 66.4963 23.3183 67.0863 22.3927C68.1044 20.7615 70.0943 19.5525 73.056 18.7658C75.7169 18.0601 78.4819 17.8403 81.3511 18.1064C83.7112 18.3377 85.6722 18.8584 87.234 19.6682Z" fill="#0D131A"/>
<path d="M89.3685 23.1384C91.0923 27.5 92.0294 31.6128 92.1798 35.4769C92.3533 39.5145 91.6939 43.7025 90.2014 48.041C89.8775 48.9781 89.0792 49.8805 87.8066 50.7482C86.4646 51.6505 84.8334 52.3389 82.9129 52.8132C80.0322 53.5305 77.2961 53.7041 74.7046 53.3339C71.4652 52.8827 69.0993 51.6158 67.6069 49.5334C64.6915 45.4611 63.6965 40.1566 64.6221 33.62C64.9576 31.3178 65.5071 29.0502 66.2707 26.8174C66.8723 25.0473 67.4276 23.7516 67.9366 22.9301C68.8622 21.4609 70.7016 20.3791 73.4551 19.685C75.954 19.0603 78.5571 18.8752 81.2643 19.1297C83.393 19.3264 85.1689 19.7776 86.5919 20.4833C88.0264 21.2006 88.952 22.0856 89.3685 23.1384Z" fill="#C28600"/>
<path d="M89.3685 23.1384C90.8263 26.8521 91.7229 30.3633 92.0584 33.6721C92.3939 37.1313 92.1509 40.6309 91.3295 44.1711C86.7713 40.7119 82.1378 37.7097 77.4292 35.1645C71.2744 31.8557 67.1269 30.641 64.9866 31.5202C65.3684 29.6345 65.8832 27.8181 66.5311 26.0712C67.0517 24.6597 67.5202 23.6127 67.9367 22.9301C68.8622 21.4609 70.7017 20.3791 73.4552 19.685C75.9541 19.0603 78.5572 18.8752 81.2644 19.1297C83.3931 19.3264 85.1689 19.7776 86.592 20.4833C88.0265 21.2006 88.9521 22.0856 89.3685 23.1384Z" fill="#986A00"/>
<path d="M85.1689 28.414C85.3077 28.3678 85.8631 28.9404 86.8349 30.1321L88.5008 32.1971C89.5999 30.6816 90.537 29.4958 91.3121 28.6396L91.6592 28.2579L91.746 28.7785C92.0699 30.5717 92.4112 32.1393 92.7698 33.4813C92.9087 34.2912 92.8393 35.5985 92.5616 37.4033L92.6484 39.0519L92.1972 39.7287L91.2774 41.9152L89.8718 45.1257L89.5941 45.6636L87.4596 39.3642L84.4401 45.386L81.8543 40.7352L78.8348 45.2819L75.7979 41.2384L73.1948 46.4445L70.5744 40.7178L67.7805 43.9803L67.2946 44.4489L66.826 43.8762L63.8065 39.451V39.3642C63.7486 35.8125 64.2288 32.0872 65.2468 28.1884L65.3857 27.6852L67.6417 30.6874L68.9952 29.2123C69.7704 28.3793 70.2505 27.986 70.4356 28.0323C70.6207 28.0785 70.9504 29.085 71.4248 31.0518L72.2577 34.5746L74.2187 31.3295C75.3062 29.5015 75.9194 28.5818 76.0582 28.5702C76.197 28.5586 76.6135 29.247 77.3077 30.6353L78.5398 33.0995L79.876 30.7221C80.6165 29.3801 81.0561 28.6975 81.1949 28.6743C81.3453 28.6512 81.7444 29.4321 82.3923 31.0171L83.6244 34.0366L84.3706 30.913C84.7524 29.2933 85.0185 28.4603 85.1689 28.414Z" fill="#0D131A"/>
<path d="M91.3294 29.4035C91.8153 32.1454 92.0583 34.3204 92.0583 35.9285L92.0062 37.3341L91.7459 38.9827C91.6765 39.0868 91.3873 39.862 90.8782 41.3081L89.6982 44.345L88.5875 40.5445C87.9859 38.4852 87.6504 37.4614 87.581 37.4729C87.5 37.4729 86.9968 38.5142 86.0713 40.5966L84.4226 44.293L83.0517 41.3602C82.3228 39.7521 81.9179 38.9711 81.8369 39.0174C81.7675 39.0637 81.2816 39.9082 80.3792 41.5511L78.8 44.3971L77.082 41.7072C76.0871 40.1801 75.5491 39.4455 75.4681 39.5033C75.3871 39.5612 75.0343 40.4462 74.4096 42.1584L73.2121 45.2648L71.928 41.9155C71.2223 40.0644 70.8231 39.11 70.7306 39.0521C70.638 38.9943 70.129 39.6537 69.2034 41.0305L67.5895 43.4079L64.327 39.2777L64.3097 38.8265C64.3097 35.7029 64.7435 32.3767 65.6112 28.8481L66.4268 30.1497L67.121 31.295L67.4681 31.7462C67.5375 31.7925 67.6705 31.7173 67.8672 31.5206C68.9084 30.4794 69.6315 29.8026 70.0364 29.4902L70.9735 32.7354C71.5404 34.6211 71.9164 35.6045 72.1015 35.6855C72.275 35.7665 72.9461 34.9393 74.1145 33.2039L76.1102 30.167L77.3076 32.3189C77.9786 33.4758 78.3836 34.0485 78.5224 34.0369C78.6612 34.0253 79.0835 33.4816 79.7892 32.4057L81.0734 30.3579L82.5484 33.0651L83.7459 35.3558L85.4118 29.8547L88.5528 32.9783L88.7264 32.7354L89.6288 31.538L91.3294 29.4035Z" fill="#C28600"/>
<path d="M68.2664 31.139C69.1688 30.2481 69.7588 29.6986 70.0364 29.4904L70.6959 31.8331L68.2664 31.139Z" fill="#986A00"/>
<path d="M65.6113 28.8481C65.8658 29.1952 66.265 29.8604 66.8087 30.8438L65.2122 30.6182L65.6113 28.8481Z" fill="#986A00"/>
<path d="M85.4119 29.8546L88.5529 32.9783L88.7264 32.7354L89.6288 31.538L91.3295 29.4034C91.8154 32.1453 92.0583 34.3203 92.0583 35.9284L92.0063 37.3341L91.746 38.9827L91.0692 40.7528L90.0627 43.512L89.2818 42.974C88.229 39.2951 87.6621 37.4614 87.5811 37.4729C87.5001 37.4729 86.9853 38.5315 86.0366 40.6487C83.5377 38.8439 81.6114 37.5018 80.2578 36.6226C78.0713 35.2112 76.0293 34.0658 74.132 33.1866L76.1103 30.167L77.3077 32.3189C77.9787 33.4758 78.3836 34.0485 78.5225 34.0369C78.6613 34.0253 79.0836 33.4816 79.7893 32.4056L81.0734 30.3579L82.5485 33.0651L83.7459 35.3558L85.4119 29.8546Z" fill="#986A00"/>
<path d="M89.6982 44.3449L89.2817 42.974L90.0627 43.512L89.6982 44.3449Z" fill="#C28600"/>
<path d="M118.037 12.605L118.557 13.2991L80.0842 19.1647L42.7911 9.88042L45.7065 6.65263C47.7658 4.62803 49.2582 3.68514 50.1838 3.82397C50.4614 3.87025 50.9762 4.05535 51.7282 4.37929L53.7066 5.21227L52.5092 3.89339C52.1042 3.41905 52.0233 3.12982 52.2662 3.0257C53.481 2.44724 55.1874 1.87457 57.3856 1.30768C60.9836 0.359011 64.0957 0.0524288 66.7219 0.387934C70.181 0.839131 74.774 4.3388 80.5007 10.8869C82.0047 8.34172 83.0922 6.589 83.7632 5.62876C85.5911 3.03727 87.1761 1.49279 88.5181 0.995314C90.1262 0.393719 92.3649 0.10449 95.234 0.127628C97.8255 0.150767 99.208 0.301165 99.3815 0.578825C99.4741 0.740793 99.2485 1.29033 98.7048 2.22743L97.5421 4.24046C100.631 2.49352 102.523 1.6374 103.217 1.67211C105.345 1.83408 108.411 3.65622 112.414 7.13853C115.202 9.55648 117.077 11.3786 118.037 12.605Z" fill="#0D131A"/>
<path d="M110.072 6.65282C113.241 9.11705 115.44 11.0838 116.666 12.5531L80.1363 18.1236L44.3356 9.46412C45.0645 8.52702 45.828 7.69983 46.6263 6.98254C47.8179 5.89504 48.9054 5.21825 49.8888 4.95216C50.7912 5.20668 52.4977 5.82563 55.0082 6.80901L56.7088 7.4858L53.5852 3.37297C55.3899 2.74824 57.1832 2.25655 58.9648 1.8979C61.9149 1.28474 64.4544 1.11699 66.5831 1.39465C68.8969 1.69544 71.8181 3.46552 75.3467 6.70488C77.1168 8.32456 78.6671 9.93267 79.9975 11.5292L80.4834 12.1019L80.8478 11.4598L83.6244 7.13873C85.73 4.20016 87.4827 2.47058 88.8826 1.94997C90.2709 1.41778 91.9774 1.1112 94.002 1.03022C95.7142 0.960804 97.1256 1.04757 98.2363 1.29052C97.6231 2.03095 97.062 2.9102 96.553 3.92829L95.9456 5.29923L95.4944 6.61811L96.6918 5.92397L99.3816 4.27536C101.233 3.18786 102.366 2.62098 102.783 2.5747C103.998 2.45901 106.427 3.81838 110.072 6.65282Z" fill="#39BADF"/>
<path d="M113.334 9.34241C114.954 10.7654 116.064 11.8356 116.666 12.5528L80.1364 18.1234L46.609 10.0192C51.8498 9.91508 55.9395 9.96136 58.8781 10.158C63.4016 10.4357 67.4971 11.1009 71.1645 12.1537C70.1233 9.23829 68.7176 6.77406 66.9476 4.76103C65.4089 3.00252 63.876 1.87453 62.3488 1.37705C63.8991 1.22666 65.3105 1.23244 66.5831 1.39441C68.897 1.69521 71.8182 3.46529 75.3468 6.70465C77.1168 8.32433 78.6671 9.93244 79.9976 11.529L80.4835 12.1017L80.5008 12.0669C81.1255 12.9346 81.7561 13.4726 82.3924 13.6808C84.2087 14.1899 86.0193 14.132 87.8241 13.5073C88.9463 13.1255 90.6643 12.2289 92.9781 10.8175C95.5349 9.26721 97.6405 8.145 99.2949 7.45085C102.083 6.28237 105.051 5.54773 108.197 5.24693C109.84 6.41542 111.552 7.78058 113.334 9.34241Z" fill="#39BADF"/>
<path d="M86.7133 5.95796C87.3034 6.2819 87.824 6.70995 88.2752 7.24213C88.5875 7.58921 88.8363 7.94207 89.0214 8.30071C89.2181 8.69406 89.2817 8.98329 89.2123 9.1684C89.1197 9.39978 88.5875 9.67165 87.6157 9.98402C86.5167 10.3195 85.435 10.4815 84.3706 10.4699C83.1096 10.4468 82.0915 10.1749 81.3163 9.6543L81.1602 9.55018L81.2643 9.394C82.051 8.12139 82.9129 6.87771 83.85 5.66295L83.902 5.61089L83.9541 5.59353C84.8912 5.36215 85.811 5.48362 86.7133 5.95796Z" fill="#0D131A"/>
<path d="M87.6852 7.15601C88.0438 7.51465 88.3388 7.89065 88.5702 8.284C88.7553 8.61951 88.8479 8.85667 88.8479 8.9955V9.01286C88.79 9.10541 88.5586 9.23267 88.1537 9.39464L86.5572 9.84583L84.3706 10.0714C83.2831 10.0483 82.3923 9.83426 81.6981 9.42934C82.5542 8.09889 83.3583 6.94198 84.1103 5.9586C84.8391 5.78506 85.5622 5.86026 86.2795 6.1842C86.7885 6.40401 87.2571 6.72795 87.6852 7.15601Z" fill="#FCEEF4"/>
<path d="M101.204 6.37527C101.4 6.25958 101.823 6.35792 102.471 6.67028C103.732 7.27188 105.01 8.18006 106.306 9.39482C107.96 10.9798 108.99 12.5705 109.395 14.1671L109.447 14.358L102.87 15.3645L102.8 15.3471C101.424 14.6877 100.359 13.8316 99.6072 12.7788C99.0403 12.0384 98.9073 11.0319 99.2081 9.75925C99.4047 9.00725 99.7229 8.27261 100.163 7.55532C100.567 6.90745 100.914 6.5141 101.204 6.37527Z" fill="#0D131A"/>
<path d="M101.36 6.72219C101.499 6.65277 101.904 6.7916 102.575 7.13868C103.847 7.79812 105.068 8.70051 106.236 9.84586C107.648 11.2457 108.556 12.6456 108.961 14.0455L102.922 14.9826C101.614 14.3347 100.608 13.5248 99.9022 12.553C99.5898 12.1365 99.4337 11.6102 99.4337 10.9738C99.4337 10.6268 99.4857 10.2566 99.5898 9.86321C99.7749 9.13435 100.076 8.42864 100.492 7.74606C100.851 7.15603 101.14 6.81474 101.36 6.72219Z" fill="#D9CED4"/>
<path d="M99.1733 3.77144L99.1213 4.17057C98.994 4.911 98.7337 5.6225 98.3404 6.30508C97.8776 7.10335 97.3396 7.6471 96.7265 7.93633L94.0366 8.00575C93.1227 7.78593 92.3938 7.47935 91.8501 7.086C91.5609 6.86619 91.422 6.65794 91.4336 6.46127C91.503 5.94065 91.6187 5.42583 91.7807 4.91678C92.0815 3.8987 92.4401 3.37809 92.8566 3.35495L93.8631 3.26818L97.2991 3.05994H97.6289L97.4553 3.35495C97.0504 4.01439 96.7149 4.67383 96.4488 5.33327L99.1733 3.77144Z" fill="#0D131A"/>
<path d="M92.8739 3.73701L93.8978 3.65024L96.7959 3.45935C96.5761 3.86427 96.3736 4.28654 96.1885 4.72617L95.9456 5.29884L95.4944 6.61773L98.5486 4.76088C98.3751 5.35091 98.1205 5.8773 97.785 6.34007C97.4264 6.86068 97.0157 7.22511 96.5529 7.43335C95.986 7.69944 95.234 7.7515 94.2969 7.58954C93.4408 7.45071 92.7409 7.20197 92.1972 6.84333L91.8154 6.49625C91.8732 5.96407 92.0063 5.3914 92.2145 4.77823C92.4575 4.09565 92.6773 3.74858 92.8739 3.73701Z" fill="#FCEEF4"/>
<path d="M71.8239 3.32064L72.0495 3.47682L71.8412 3.65036C70.9388 4.33294 69.6547 5.137 67.9887 6.06253C66.0104 7.17317 64.8245 7.6475 64.4312 7.48553C64.0263 7.32357 63.6792 6.83188 63.39 6.01047C63.066 5.08494 63.1007 4.30402 63.4941 3.66772C63.8296 3.13553 64.3155 2.63806 64.9518 2.1753C65.6922 1.64312 66.4847 1.29026 67.3293 1.11672L67.364 1.09937L67.416 1.11672C68.7118 1.47536 70.1811 2.21 71.8239 3.32064Z" fill="#0D131A"/>
<path d="M64.6394 6.86084C64.3849 6.76828 64.1535 6.42699 63.9453 5.83697C63.818 5.40891 63.7544 5.03291 63.7544 4.70898C63.7544 4.38504 63.818 4.10738 63.9453 3.876C64.2345 3.40166 64.6799 2.95625 65.2815 2.53976C65.941 2.077 66.6351 1.76463 67.364 1.60266C68.5093 1.91503 69.8051 2.55133 71.2512 3.51157C70.3372 4.17101 69.082 4.91144 67.4854 5.73285C65.8311 6.58896 64.8824 6.96496 64.6394 6.86084Z" fill="#FCEEF4"/>
<path d="M69.0299 4.89987C67.7342 4.00904 66.4384 3.25705 65.1427 2.64388C65.86 2.1117 66.6004 1.76463 67.364 1.60266C68.5093 1.91503 69.8051 2.55133 71.2512 3.51157C70.6496 3.9512 69.9092 4.41396 69.0299 4.89987Z" fill="#D9CED4"/>
<path d="M56.8823 3.49399C58.2822 3.40143 59.1673 3.51712 59.5375 3.84106C59.8383 4.10715 59.9366 4.60462 59.8325 5.33348C59.7284 6.0392 59.4623 6.7507 59.0342 7.46799C57.9583 9.29591 56.6915 9.96692 55.2337 9.48102C53.8686 9.13394 52.8563 7.78614 52.1968 5.4376L52.3183 5.03847L54.6437 5.92351L53.5331 4.46579L53.6893 4.34432C54.3487 3.85841 55.4131 3.57497 56.8823 3.49399Z" fill="#0D131A"/>
<path d="M57.2815 3.87585C58.3921 3.85271 59.0632 3.93948 59.2945 4.13615C59.4102 4.26341 59.3755 4.6799 59.1904 5.38562C58.9822 6.18389 58.664 6.90696 58.236 7.55483C57.403 8.81587 56.4543 9.26707 55.3899 8.90842H55.3726C54.3429 8.6539 53.562 7.69945 53.0298 6.04506L56.7088 7.48542L54.3834 4.41381C55.1007 4.08988 56.0667 3.91055 57.2815 3.87585Z" fill="#FCEEF4"/>
<path d="M77.4812 15.9021L77.7588 16.0409V22.9998L77.1515 22.8783C71.4594 22.3693 64.8477 22.5081 57.3162 23.2948C42.2994 24.8798 29.8684 28.8711 20.023 35.2688L18.3744 36.3448C18.0389 36.4836 17.9232 36.1944 18.0273 35.4771C18.4554 32.6311 19.2942 29.305 20.5436 25.4987C21.6543 22.1205 22.3773 20.2868 22.7129 19.9976C22.9095 19.8356 23.6615 19.4423 24.9688 18.8175L28.9775 16.8739L24.7779 17.9498C23.274 18.3316 22.5567 18.4357 22.6261 18.2622C22.7881 17.8689 23.5632 16.7062 24.9515 14.7741C26.4902 12.6338 27.5025 11.4422 27.9884 11.1992C35.1612 7.49712 44.5496 6.73355 56.1535 8.90855C60.3993 9.70682 64.6626 10.8522 68.9432 12.3446C72.356 13.5362 75.2021 14.722 77.4812 15.9021Z" fill="#0D131A"/>
<path d="M76.7349 16.6656V21.7676C70.5917 20.7495 63.6907 20.6454 56.032 21.4553C42.4035 22.913 30.1344 27.2572 19.2247 34.4879C19.6065 32.5674 20.3759 29.8718 21.5328 26.4011C22.2616 24.1798 22.9269 22.294 23.5285 20.7438L27.4504 18.6092L32.2921 15.8847L33.6457 14.9997C33.7267 14.8956 33.4259 14.8956 32.7433 14.9997L28.9255 15.7979L24.8126 16.735C26.305 14.4906 27.5603 12.9288 28.5784 12.0495C37.9841 9.01843 47.7774 8.43418 57.9582 10.2968C64.5873 11.5231 70.8462 13.6461 76.7349 16.6656Z" fill="#39BADF"/>
<path d="M66.8434 12.5876C70.3373 13.7214 73.6345 15.0808 76.735 16.6657V21.7677C72.4545 21.0736 67.5781 20.8248 62.1059 21.0215C61.296 18.5804 59.9771 16.3418 58.1492 14.3056C56.4023 12.3505 54.3488 10.7481 51.9886 9.49866C56.9634 9.94985 61.915 10.9795 66.8434 12.5876Z" fill="#39BADF"/>
<path d="M52.5092 8.90842L52.596 8.92578L52.6481 8.97784L54.852 11.7718C55.3842 12.5238 55.6271 13.027 55.5808 13.2816L55.4594 13.5072C47.5345 16.1796 43.2308 17.3886 42.5482 17.1341C42.0045 16.949 40.7897 16.1623 38.9039 14.774C36.7868 13.2353 35.7918 12.223 35.9191 11.7371C35.9885 11.4941 36.3182 11.228 36.9082 10.9388L38.7651 10.1405C40.0724 9.61992 41.0037 9.16873 41.559 8.78695L41.5938 8.75224H41.6458C45.2207 8.48615 48.8418 8.53821 52.5092 8.90842Z" fill="#0D131A"/>
<path d="M52.2663 9.51621C54.0132 11.6334 54.8867 12.8539 54.8867 13.1778C54.4586 13.4208 52.4456 14.0455 48.8476 15.052C45.1802 16.0933 43.1845 16.5676 42.8605 16.475C42.2821 16.2552 41.1483 15.5206 39.4592 14.2711C37.7123 12.9754 36.8388 12.1713 36.8388 11.859V11.8416C36.8735 11.6796 37.128 11.4772 37.6024 11.2342L39.0948 10.5748C40.1592 10.1236 40.9401 9.75338 41.4375 9.46415C44.943 9.16335 48.5526 9.1807 52.2663 9.51621Z" fill="#FCEEF4"/>
<path d="M37.5156 19.2343C38.6841 19.5004 39.5807 19.7318 40.2054 19.9284C40.7839 20.102 41.1714 20.4953 41.3681 21.1085C41.4491 21.363 41.4896 21.6638 41.4896 22.0109C41.4896 22.5199 41.397 23.0463 41.2119 23.5901C41.0384 24.1107 40.807 24.5503 40.5178 24.9089L40.4831 24.961L40.4137 24.9784C37.799 25.7651 35.2712 26.6617 32.8301 27.6682L32.483 27.8591L30.0535 25.1345C28.4569 23.2719 27.7107 22.2423 27.8149 22.0456C28.0231 21.6869 29.0238 21.0333 30.8171 20.0846C32.7144 19.0781 33.987 18.6095 34.6349 18.679L37.5156 19.2343Z" fill="#0D131A"/>
<path d="M40.1187 24.6828C37.5619 25.4695 35.1613 26.3198 32.9169 27.2338L31.0947 25.2034C29.5098 23.5028 28.7173 22.5194 28.7173 22.2533V22.2359C28.8793 21.9467 29.7527 21.3798 31.3377 20.5353C33.0037 19.6445 34.1085 19.228 34.6523 19.2858L37.3941 19.8064C38.5164 20.0725 39.3783 20.2981 39.9798 20.4832C40.4195 20.622 40.7087 20.9228 40.8475 21.3856C40.9285 21.617 40.969 21.8715 40.969 22.1492C40.969 22.5888 40.888 23.0458 40.7261 23.5201C40.5641 23.9713 40.3616 24.3589 40.1187 24.6828Z" fill="#FCEEF4"/>
<path d="M132.371 21.004C132.903 24.0004 133.048 25.7763 132.805 26.3316C132.701 26.5746 132.076 26.3952 130.931 25.7936L127.79 24.145L131.555 27.8414C133.036 29.2991 133.834 30.1957 133.95 30.5312C134.089 30.9245 133.933 31.9658 133.482 33.6549C133.054 35.3093 132.724 36.229 132.492 36.4141C132.192 36.6686 130.983 36.096 128.866 34.6961L130.774 37.2471C131.422 38.1148 131.752 38.618 131.764 38.7569C131.764 38.9767 130.844 39.6477 129.004 40.7699C124.839 36.5124 119.737 32.5905 113.698 29.0041C101.655 21.8543 90.6989 19.714 80.8305 22.5832L80.3966 22.7047L80.2231 22.2882C79.8413 21.4089 79.6678 20.252 79.7025 18.8174L79.8934 16.8391L79.9281 16.6656L80.0669 16.5441C81.675 15.1095 84.0467 13.6518 87.1819 12.171C91.0576 10.343 95.0779 9.02416 99.2427 8.21432C110.754 5.95833 120.918 7.95401 129.733 14.2013C130.879 15.312 131.758 17.5795 132.371 21.004Z" fill="#0D131A"/>
<path d="M126.436 33.0649L130.427 38.6355L129.369 39.6941C124.429 34.835 118.8 30.6528 112.484 27.1473C101.042 20.7727 90.5602 18.8812 81.0387 21.4727C80.8305 20.7669 80.7264 20.0207 80.7264 19.234C80.7264 18.4936 80.7727 17.8168 80.8652 17.2036C82.4965 15.8038 84.8797 14.3981 88.0149 12.9867C91.8443 11.2513 95.801 10.0192 99.8849 9.29035C111.107 7.27732 120.813 9.37712 129.004 15.5898C129.745 16.5269 130.37 18.0713 130.879 20.2232C131.203 21.5884 131.457 23.0808 131.642 24.7005L125.846 22.1842C124.886 21.7792 124.388 21.6578 124.354 21.8197C124.33 21.947 124.637 22.3461 125.273 23.0171L132.805 30.8263L131.642 35.3036C131.272 35.0606 130.601 34.6962 129.629 34.2103L127.425 33.0996C126.685 32.6369 126.239 32.3708 126.089 32.3014C125.869 32.1973 125.985 32.4518 126.436 33.0649Z" fill="#39BADF"/>
<path d="M107.763 8.57871C105.392 9.95543 103.315 11.766 101.533 14.0104C99.775 16.2317 98.4792 18.6612 97.6463 21.299C91.7691 20.0032 86.2333 20.0611 81.0387 21.4725C80.8305 20.7668 80.7264 20.0206 80.7264 19.2339C80.7264 18.4935 80.7727 17.8167 80.8652 17.2035C83.1212 15.2599 86.482 13.4493 90.9477 11.7718C96.6166 9.6315 102.222 8.56714 107.763 8.57871Z" fill="#39BADF"/>
<path d="M125.846 22.1841C124.886 21.7792 124.388 21.6577 124.354 21.8197C124.33 21.947 124.637 22.3461 125.273 23.0171L127.113 24.926C123.55 22.2188 120.044 19.8356 116.596 17.7763C121.398 17.3829 126.072 17.8631 130.618 19.2166C131.058 20.8016 131.399 22.6295 131.642 24.7004L125.846 22.1841Z" fill="#39BADF"/>
<path d="M120.779 10.4181L120.883 10.4528L120.9 10.5569C121.062 11.1932 120.975 12.1997 120.64 13.5764L120.05 15.5374C119.911 15.9308 118.852 16.3646 116.874 16.8389C114.653 17.3711 112.848 17.3885 111.46 16.891C110.939 16.7059 110.141 16.0985 109.065 15.0688C107.977 14.0276 107.387 13.2988 107.295 12.8823C107.26 12.7087 107.243 12.5352 107.243 12.3617C107.243 11.1006 108.215 9.7239 110.158 8.23148L110.21 8.19678H110.297C113.976 8.43973 117.47 9.18015 120.779 10.4181Z" fill="#0D131A"/>
<path d="M116.666 16.2322C114.641 16.6602 112.987 16.6487 111.703 16.1975C111.217 16.0239 110.471 15.486 109.464 14.5836C108.469 13.6927 107.937 13.0969 107.868 12.7961L107.833 12.3797C107.833 11.2806 108.701 10.06 110.436 8.71802C113.918 8.96097 117.221 9.65512 120.345 10.8005L120.397 11.3384C120.397 11.8822 120.293 12.5821 120.085 13.4382L119.512 15.3124C119.188 15.5901 118.239 15.8967 116.666 16.2322Z" fill="#FCEEF4"/>
<path d="M121.681 25.3253C122.942 25.1865 123.735 25.2443 124.059 25.4989C124.429 25.7997 124.857 26.7368 125.343 28.3102C125.852 29.9877 126.106 31.4396 126.106 32.666V32.9089L125.863 32.8568C124.429 32.5792 122.919 32.8684 121.334 33.7245L121.23 33.7766L118.349 31.6941L118.367 31.5727C118.459 31.1562 118.442 30.4158 118.315 29.3514C118.222 28.6225 118.181 28.1019 118.193 27.7896C118.216 27.2689 118.355 26.8698 118.61 26.5922C119.223 25.9096 120.247 25.4873 121.681 25.3253Z" fill="#0D131A"/>
<path d="M118.939 30.7913L118.8 29.3163L118.696 28.0321C118.696 27.5346 118.795 27.1702 118.991 26.9388C119.523 26.3488 120.414 26.0075 121.664 25.9149C122.717 25.834 123.376 25.8918 123.642 26.0885C123.954 26.3314 124.336 27.1181 124.787 28.4486C125.285 29.9179 125.551 31.2252 125.586 32.3705C124.209 32.1507 122.78 32.4342 121.299 33.2209L118.87 31.4681L118.939 30.7913Z" fill="#FCEEF4"/>
<path d="M102.592 13.5766C102.916 13.8543 103.425 14.5022 104.119 15.5203C104.929 16.6887 105.293 17.4639 105.212 17.8457C105.12 18.32 104.322 18.7018 102.818 18.991C101.371 19.2802 99.8849 19.3728 98.3577 19.2687H98.271L96.1538 17.0127C94.7539 15.4624 94.0829 14.5542 94.1408 14.2881C94.1639 14.1262 94.2565 14.0163 94.4184 13.9584L98.4445 13.5419C100.967 13.3684 102.349 13.38 102.592 13.5766Z" fill="#0D131A"/>
<path d="M103.685 15.7805C104.391 16.8333 104.721 17.487 104.674 17.7415C104.628 17.996 103.992 18.239 102.766 18.4704L98.4966 18.7307L97.4206 17.6721L95.6505 15.8847C94.9911 15.1674 94.6614 14.693 94.6614 14.4617L94.6787 14.4269L94.7134 14.3749L98.5139 13.9931C100.793 13.8543 102.048 13.8427 102.28 13.9584C102.569 14.2129 103.037 14.8203 103.685 15.7805Z" fill="#FCEEF4"/>
<path d="M101.915 13.9062L100.301 16.3184C99.584 17.3365 99.0634 18.1406 98.7395 18.7306H98.4966L97.4206 17.672L95.6505 15.8846C94.9911 15.1673 94.6614 14.693 94.6614 14.4616L94.6787 14.4269L94.7134 14.3748L97.9239 14.0277L101.915 13.9062Z" fill="#D9CED4"/>
<path d="M94.5052 6.94749L94.1408 8.49197C92.926 12.9461 91.7807 16.8854 90.7047 20.3099C90.3229 21.5362 88.7495 22.4675 85.9845 23.1038C84.0756 23.5319 81.4436 23.8384 78.0886 24.0235L69.7588 23.7632C66.774 23.3236 65.0097 22.4733 64.4659 21.2122C63.471 18.9331 62.5686 16.2896 61.7587 13.2816C60.9605 10.2621 60.7638 8.79277 61.1687 8.87375L64.3791 9.29024L67.6763 9.74144C67.8383 8.7812 68.0581 7.65321 68.3358 6.35746C68.7176 4.5064 68.9894 3.43625 69.1514 3.14703C69.3134 2.86937 70.1348 3.48832 71.6156 5.00387L74.3228 7.86724C74.6352 7.45075 75.3756 6.55992 76.5441 5.19476L78.5571 2.92143C78.6844 2.82887 79.0777 3.36684 79.7372 4.53532L81.0734 6.94749L83.312 4.58738C84.469 3.38419 85.0937 2.79417 85.1862 2.81731C85.2904 2.84044 85.5565 3.51724 85.9845 4.84769L86.9043 7.65899L88.7611 5.40301C89.6519 4.35022 90.1841 3.85274 90.3576 3.91059C90.5312 3.98 90.7626 4.57003 91.0518 5.68067L91.6071 7.93665L92.8219 7.43339C93.4119 7.20201 93.8284 7.0169 94.0713 6.87808C94.3606 6.71611 94.5052 6.73924 94.5052 6.94749Z" fill="#0D131A"/>
<path d="M92.5095 8.66573L89.3685 19.3556C89.0793 20.2464 87.8703 21.0389 85.7416 21.7331C83.6129 22.4157 81.0445 22.8379 78.0365 22.9999C74.936 23.1734 72.252 23.0173 69.9844 22.5313C67.7169 22.057 66.3806 21.3629 65.9757 20.4489C64.7494 17.6723 63.4999 14.0569 62.2273 9.60283L68.492 10.9564L68.9605 8.05835C69.2845 6.08002 69.4869 4.98674 69.5679 4.77849C69.6489 4.55868 70.2274 5.00409 71.3033 6.11473L73.5246 8.5616L74.2014 9.41194L74.7914 8.94338C75.2541 8.44591 76.4342 6.92457 78.3315 4.37936C78.4241 4.24053 78.8811 4.84791 79.7025 6.2015L80.8999 8.26659L84.7698 4.69172C84.8508 4.61074 85.1631 5.40323 85.7069 7.06918L86.5051 9.60283L88.0843 7.79804C89.1603 6.58328 89.7676 5.95276 89.9065 5.90648C90.0453 5.86021 90.2651 6.41553 90.5659 7.57244L90.965 9.32517L92.5095 8.66573Z" fill="#D7A400"/>
<path d="M92.8913 8.35303L93.5681 7.71094L93.3078 8.61333L90.0974 19.5809C89.7271 20.7494 88.3041 21.7212 85.8283 22.4963C83.6418 23.1789 81.0619 23.6012 78.0886 23.7631C75.0228 23.9367 72.3272 23.7863 70.0018 23.3119C67.364 22.7798 65.7848 21.9294 65.2642 20.7609C64.0957 18.0885 62.8347 14.4268 61.4811 9.77603L62.2273 9.32483C62.8636 10.0306 63.7776 10.8982 64.9692 11.9279L67.2252 13.75L69.1688 11.4246C70.3488 10.0016 70.9967 9.27277 71.1124 9.23806C71.2281 9.21493 72.1363 10.1231 73.8369 11.9626L76.6829 15.1036L77.9324 11.98C78.6728 10.1867 79.1356 9.27277 79.3207 9.23806C79.5058 9.21493 79.9223 9.83966 80.5702 11.1123L81.9238 13.7674L83.8674 11.1643C85.0127 9.67191 85.6779 8.95462 85.8631 9.01247C86.0482 9.07031 86.4299 9.81074 87.0084 11.2337L88.0496 13.75C90.2709 11.1238 91.8848 9.32483 92.8913 8.35303Z" fill="#0D131A"/>
<path d="M88.2058 14.3579C88.8768 13.7795 90.3808 12.2755 92.7177 9.84595L91.2774 14.3753L89.6114 19.4426C89.2643 20.5301 88.0669 21.606 86.0192 22.6703C83.6938 23.8851 81.0965 24.5677 78.2274 24.7181C75.2425 24.88 72.4659 24.4751 69.8976 23.5033C67.5953 22.6241 66.207 21.6407 65.7327 20.5532C64.6452 18.0658 63.4883 14.7455 62.262 10.5922C63.4767 11.7259 64.9981 12.9812 66.826 14.3579C67.0805 14.5777 67.2888 14.6703 67.4507 14.6356C67.5896 14.6124 67.7573 14.4447 67.954 14.1323C68.116 13.8778 68.6771 13.2241 69.6373 12.1713L71.2859 10.4186L74.0104 13.334C75.7111 15.1041 76.654 15.9834 76.8391 15.9718C77.0242 15.9602 77.458 15.1504 78.1406 13.5423L79.3727 10.5922L80.6048 12.8481C81.2643 14.0282 81.6808 14.624 81.8543 14.6356C82.0163 14.6471 82.6352 13.9935 83.7112 12.6746L85.568 10.3319L86.5398 12.1713L87.4422 14.0629C87.5695 14.3984 87.662 14.5777 87.7199 14.6009C87.8008 14.6471 87.9628 14.5662 88.2058 14.3579Z" fill="#F9BE00"/>
<path d="M113.108 43.7027C118.638 45.2877 122.144 46.4041 123.625 47.052C124.492 47.4222 124.851 47.6825 124.701 47.8329L123.451 48.232L118.037 49.8806L123.417 48.9956L126.61 48.5964C127.026 48.6427 128.166 49.4294 130.028 50.9565C131.845 52.4374 132.741 53.2588 132.718 53.4208C132.707 53.5365 131.874 53.8778 130.219 54.4446L126.089 55.8676L131.278 55.9371L134.835 56.1106C135.055 56.2147 135.564 56.9089 136.362 58.193C137.149 59.4656 137.525 60.1887 137.49 60.3623C137.456 60.4895 136.842 60.6515 135.651 60.8482L132.093 61.4208L135.998 61.4382L138.098 61.5076C138.306 61.577 138.96 62.2538 140.059 63.538C141.181 64.8337 141.707 65.5799 141.638 65.7766C141.592 65.9386 141.083 66.0658 140.111 66.1584L137.334 66.4534L140.649 66.7137L142.454 66.9567C142.616 67.0839 142.806 68.2061 143.026 70.3233C145.861 75.3906 147.226 78.0226 147.122 78.2192C147.064 78.3349 145.884 77.9358 143.582 77.0218L139.052 75.1997L142.141 80.8049C143.784 83.8129 144.553 85.3574 144.449 85.4384L141.551 85.2301C139.712 84.964 138.688 84.7153 138.48 84.4839C138.306 84.2988 137.895 83.2923 137.247 81.4644L135.772 77.3168L136.276 81.0652C136.449 82.442 136.49 83.194 136.397 83.3212C136.293 83.4832 135.171 83.2518 133.03 82.6271C130.913 82.0139 129.785 81.6032 129.646 81.395L128.883 79.434L127.651 75.998L128.085 79.1216C128.247 80.2091 128.27 80.7876 128.154 80.857C127.969 80.9843 125.557 79.81 120.918 77.3342L120.883 77.1607L119.165 70.4101L119.321 74.8526C119.379 76.5301 119.327 77.3978 119.165 77.4557C118.98 77.5019 118.297 77.1722 117.117 76.4665L115.26 75.3212L112.952 75.3385C111.471 75.2922 110.633 75.1361 110.436 74.87C110.262 74.6154 109.973 73.3775 109.568 71.1563L108.475 65.256L108.492 70.896C108.492 72.9553 108.411 73.9965 108.249 74.0196C108.157 74.0312 106.855 73.6089 104.345 72.7528L97.0909 70.3059L97.0562 69.8547L94.1581 68.7615L91.5551 67.8591C91.1386 67.7665 90.8899 67.5872 90.8089 67.3211C90.7048 66.9972 90.6932 66.2625 90.7742 65.1172C90.8436 64.1338 90.8609 63.1041 90.8262 62.0282L90.7047 59.0434L89.2123 63.5206C88.6223 65.1982 88.2058 66.0311 87.9629 66.0196C87.5695 66.008 84.9549 64.7065 80.119 62.115L81.594 54.8958C79.3959 56.932 77.5044 58.5401 75.9194 59.7202C73.594 61.4208 72.1189 62.0513 71.4942 61.6117C69.0531 59.992 67.4566 58.3434 66.7046 56.6659C66.1377 55.3933 66.0798 54.1496 66.531 52.9349C67.4566 50.4475 70.1232 48.4055 74.5311 46.809C78.5919 45.3397 82.3345 44.796 85.7589 45.1778L87.3555 44.2233C88.4083 43.6101 89.4553 43.078 90.4965 42.6268C93.7937 41.1922 96.9521 40.5675 99.9716 40.7526C102.366 40.903 106.745 41.8863 113.108 43.7027Z" fill="#0D131A"/>
<path d="M126.401 49.4121L131.174 53.1778C127.576 54.4389 125.175 55.3239 123.972 55.833C123.069 56.2147 122.624 56.4288 122.636 56.4751L124.093 56.5792C125.389 56.5907 128.825 56.6891 134.401 56.8742L136.241 59.8243L132.388 60.5011C130.19 60.8829 128.854 61.1721 128.38 61.3688L127.252 61.8721C127.159 61.9877 127.558 62.0745 128.449 62.1324C129.768 62.2249 132.863 62.2712 137.733 62.2712L140.198 65.2213L134.245 66.1758C133.435 66.3493 133.007 66.4881 132.961 66.5923C132.903 66.708 133.343 66.8236 134.28 66.9393L141.794 67.6508L142.297 70.5836L139.278 70.1498C137.276 69.8953 136.339 69.8895 136.466 70.1324C136.582 70.3638 137.647 70.6241 139.66 70.9133L142.696 71.3298L145.525 76.8136L137.438 73.7941L143.061 84.4492L139.052 83.8072C137.433 79.4109 136.374 76.669 135.876 75.5815C135.529 74.8064 135.234 74.4477 134.991 74.5056C134.91 74.5287 134.957 75.6393 135.13 77.8375L135.529 82.28L130.236 80.7703C128.744 76.6169 127.772 73.985 127.321 72.8743C126.951 71.9719 126.714 71.5092 126.61 71.486C126.471 71.4513 126.459 71.9719 126.575 73.0478L127.252 79.5728L121.577 76.7962C119.703 69.2416 118.754 66.1353 118.731 67.4773L118.557 71.7463L118.384 76.1195L115.208 74.28C114.977 69.7911 114.705 67.512 114.393 67.4426C114.207 67.4079 114.15 68.5301 114.219 70.8092L114.288 74.2453L111.078 74.1238L110.158 68.9524C109.522 65.5048 108.99 63.1273 108.562 61.82C108.087 60.3739 107.769 59.7491 107.607 59.9458C107.503 60.0846 107.428 60.8308 107.382 62.1844C107.347 63.0984 107.364 65.0536 107.434 68.05L107.52 72.909L97.5074 69.0391L97.3165 64.961C97.2008 62.1613 97.0678 60.5937 96.9174 60.2582C96.767 59.9227 96.7149 61.2358 96.7612 64.1975L96.7785 68.7615L91.6592 66.7832C91.4625 61.9588 91.37 58.5228 91.3815 56.4751V56.3709H91.3642C91.3063 55.8966 91.2311 55.5842 91.1386 55.4338C90.9882 55.1677 90.8146 55.4859 90.618 56.3883V56.4577C90.618 56.8858 90.2709 58.0427 89.5767 59.9284C89.0214 61.4324 88.3504 63.1157 87.5637 64.9784L80.9867 61.6812L82.8261 52.6746L77.62 57.013C74.103 59.859 72.2057 61.1837 71.928 60.987C67.8904 58.3145 66.3343 55.7231 67.2599 53.2126C68.0119 51.1648 71.3496 49.3427 77.273 47.7461C80.2231 46.9479 83.1038 46.3521 85.9151 45.9587L90.9824 43.6159C94.7886 42.0888 97.7735 41.3889 99.9369 41.5161C102.32 41.6665 105.993 42.459 110.957 43.8936C115.549 45.2241 119.309 46.5198 122.236 47.7808C117.713 49.0882 114.792 50.0195 113.473 50.5748C112.57 50.945 112.16 51.1937 112.241 51.321C112.31 51.4367 112.779 51.4367 113.646 51.321L126.401 49.4121Z" fill="#00A63C"/>
<path d="M122.236 47.7808C117.713 49.0882 114.792 50.0195 113.473 50.5748C112.57 50.945 112.16 51.1937 112.241 51.321C112.31 51.4367 112.779 51.4367 113.646 51.321L126.401 49.4121L128.345 50.9392C125.106 51.159 122.67 51.4136 121.039 51.7028C118.158 52.2003 115.92 53.2878 114.323 54.9653C101.863 50.0947 91.4509 52.6862 83.0865 62.7397L80.9867 61.6812L82.8261 52.6746L77.62 57.013C74.103 59.859 72.2057 61.1837 71.928 60.987C67.8904 58.3146 66.3343 55.7231 67.2599 53.2126C68.0119 51.1648 71.3496 49.3427 77.273 47.7461C80.2231 46.9479 83.1038 46.3521 85.9151 45.9587L90.9824 43.6159C94.7886 42.0888 97.7735 41.3889 99.9369 41.5161C102.32 41.6665 105.993 42.459 110.957 43.8936C115.549 45.2241 119.309 46.5198 122.236 47.7808Z" fill="#009233"/>
<path d="M130.774 67.5986C131.746 68.7671 132.099 69.3861 131.833 69.4555C131.59 69.5249 131.052 69.1663 130.219 68.3796C120.154 58.835 109.152 52.5472 97.2124 49.5161C93.4524 48.5674 89.8255 48.0005 86.3316 47.8154L82.1146 47.8328L81.9932 47.3469L82.8261 46.4445C83.6244 45.8197 84.6136 45.4784 85.7936 45.4206L87.6331 45.2818L87.5637 45.2644C95.3729 45.4726 102.858 47.3468 110.019 50.887C117.782 54.7164 124.701 60.2869 130.774 67.5986Z" fill="#0D131A"/>
<path d="M82.0626 46.6526C82.9187 46.1089 84.3302 45.8659 86.2969 45.9237C94.1755 46.1783 101.614 47.9194 108.614 51.1472C115.486 54.3172 121.554 58.7308 126.818 64.3881C119.055 57.3656 110.141 52.4083 100.076 49.516C96.5703 48.5095 93.1343 47.8211 89.7677 47.4509L83.9021 47.2253L81.9932 47.1559C81.7155 47.0402 81.7387 46.8724 82.0626 46.6526Z" fill="#00A63C"/>
<path d="M114.098 54.0453L113.334 54.1494C113.033 54.1841 112.825 54.323 112.709 54.5659C106.844 51.5232 100.724 49.3887 94.349 48.1624C89.9643 47.3178 86.482 47.0055 83.9021 47.2253L81.9932 47.1559C81.7155 47.0402 81.7387 46.8724 82.0626 46.6526C82.9187 46.1089 84.3302 45.8659 86.2969 45.9237C91.3179 46.0857 96.1943 46.8666 100.926 48.2665C105.565 49.6317 109.956 51.5579 114.098 54.0453Z" fill="#009233"/>
<path d="M2.9644 101.386C4.26015 99.6623 5.53854 98.3839 6.79957 97.5509C8.69691 96.2783 11.6181 96.394 15.5632 97.898C20.2371 99.6797 25.0904 102.74 30.123 107.078C35.1555 111.405 38.0478 115.009 38.7998 117.889L39.5807 118.861L40.6046 123.061C40.8244 124.183 40.8418 125.057 40.6567 125.681C40.4716 126.341 40.003 126.925 39.251 127.434C38.5916 127.885 37.4694 128.441 35.8844 129.1C34.5424 129.655 32.3558 130.008 29.3247 130.159C26.3514 130.297 23.222 130.216 19.9363 129.916C11.9074 129.164 7.12929 127.642 5.60217 125.352C5.32451 124.924 5.18568 124.484 5.18568 124.033C5.42863 123.327 5.60217 122.662 5.70629 122.037C5.91453 120.834 5.67737 119.677 4.99479 118.566C3.39824 116.195 2.30496 114.482 1.71493 113.43C0.731557 111.671 0.239868 109.936 0.239868 108.223C0.239868 106.048 1.14805 103.769 2.9644 101.386Z" fill="#0D131A"/>
<path d="M7.37217 98.4018C8.98028 97.3259 11.5891 97.4763 15.1987 98.853C19.6759 100.565 24.3904 103.533 29.342 107.755C34.282 111.978 37.1049 115.443 37.8106 118.15L38.0015 118.949C38.9039 122.408 39.2394 124.525 39.008 125.3C38.846 125.821 38.4585 126.295 37.8453 126.723C37.4288 127.012 36.5495 127.492 35.2075 128.163C34.1894 128.672 32.2343 128.979 29.342 129.083L20.2833 128.788C12.3469 128.048 7.73659 126.712 6.45242 124.779C5.93181 124.027 6.25574 123.148 7.42423 122.142C7.75973 121.852 7.78287 121.372 7.49364 120.701C7.29697 120.262 6.74743 119.359 5.84504 117.994C4.13281 115.426 2.88912 113.268 2.11399 111.521C1.16532 109.393 1.58759 106.714 3.38081 103.486C4.01711 102.318 4.76911 101.213 5.63679 100.172C6.36565 99.2811 6.94411 98.6911 7.37217 98.4018Z" fill="#5DC1CF"/>
<path d="M9.97528 97.7251C11.3983 97.7135 13.1394 98.0895 15.1987 98.8531C19.676 100.565 24.3904 103.533 29.342 107.756C34.2821 111.978 37.1049 115.443 37.8106 118.15L38.0015 118.949C38.9039 122.408 39.2394 124.525 39.008 125.3C38.8461 125.821 38.4585 126.295 37.8453 126.723C37.4289 127.012 36.5496 127.493 35.2076 128.164C34.3515 128.592 32.7838 128.881 30.5047 129.031C28.3413 129.17 25.8829 129.164 23.1294 129.014C21.1742 128.875 19.6124 128.297 18.4439 127.278C16.7548 125.798 17.2812 123.895 20.0231 121.569C22.7418 119.267 22.4526 115.374 19.1554 109.89C18.0332 108.027 16.4598 105.812 14.4352 103.244L9.97528 97.7251Z" fill="#50A8B4"/>
<path d="M14.574 120.337C14.4583 120.129 14.6434 120.094 15.1293 120.233C16.2631 120.557 18.2588 120.944 21.1164 121.395C24.8185 121.974 27.5257 122.182 29.2379 122.02C29.9089 121.962 30.1345 122.032 29.9147 122.228L29.3767 122.523C27.7918 122.94 25.1482 122.853 21.4461 122.263C18.1952 121.742 16.0144 121.222 14.9037 120.701L14.574 120.337Z" fill="#0D131A"/>
<path d="M9.92314 125.352C9.99255 126.208 9.88843 126.926 9.61077 127.504L6.85153 128.302C5.18557 128.753 3.98817 128.996 3.25931 129.031C2.35692 129.066 1.8016 128.968 1.59335 128.736C1.37354 128.493 1.33883 127.897 1.48923 126.949C1.6512 125.977 2.1776 124.855 3.06842 123.582C3.95924 122.286 4.83271 121.401 5.68883 120.927C5.98963 120.765 6.302 120.672 6.62593 120.649L7.25067 120.771C8.91662 122.113 9.80745 123.64 9.92314 125.352Z" fill="#0D131A"/>
<path d="M2.46106 127.799C2.10242 127.452 2.39743 126.445 3.3461 124.779C4.2832 123.102 5.13932 122.055 5.91445 121.638C6.26152 121.465 6.53918 121.436 6.74743 121.551C7.59198 122.292 8.22249 123.31 8.63898 124.606C8.99763 125.739 9.06704 126.468 8.84723 126.792C8.65055 127.081 7.63247 127.4 5.79297 127.747C3.9072 128.105 2.79657 128.123 2.46106 127.799Z" fill="white"/>
<path d="M7.37219 122.211C8.0085 122.986 8.46548 123.906 8.74314 124.97C8.99766 125.919 9.03237 126.526 8.84726 126.793C8.72 126.978 8.10105 127.209 6.99041 127.487C5.84507 127.776 4.82698 127.944 3.93616 127.99C4.37578 126.902 4.89061 125.85 5.48064 124.832C6.15165 123.686 6.78217 122.813 7.37219 122.211Z" fill="#DBDCDC"/>
<path d="M14.1401 133.109C13.1567 132.507 12.9254 131.2 13.446 129.187C13.9319 127.336 14.7302 125.82 15.8408 124.64C16.6391 123.796 17.3216 123.304 17.8885 123.165C18.467 123.026 19.0281 123.223 19.5718 123.755C21.1452 125.294 22.1865 126.809 22.6955 128.302C22.9616 129.042 23.0657 129.632 23.0079 130.072C22.603 130.523 21.1684 131.206 18.7042 132.12C16.1358 133.08 14.6145 133.41 14.1401 133.109Z" fill="#0D131A"/>
<path d="M18.4439 124.05C18.9182 124.143 19.6239 124.849 20.561 126.167C21.5444 127.544 22.0592 128.637 22.1055 129.447C21.7121 129.818 20.4916 130.413 18.4439 131.235C16.3151 132.079 15.0541 132.432 14.6607 132.293C14.4409 132.212 14.3542 131.75 14.4004 130.905C14.4467 130.037 14.6203 129.118 14.9211 128.146C15.7309 125.531 16.9052 124.166 18.4439 124.05Z" fill="white"/>
<path d="M18.5133 124.068C19.0223 124.241 19.728 124.97 20.6304 126.254C21.5675 127.596 22.0592 128.661 22.1055 129.448C21.8278 129.702 21.0064 130.124 19.6413 130.714C18.2414 131.328 17.0498 131.779 16.0664 132.068C16.1358 130.506 16.3267 129.147 16.6391 127.99C17.0324 126.59 17.6572 125.283 18.5133 124.068Z" fill="#DBDCDC"/>
<path d="M30.6088 124.554C30.8749 124.311 31.1757 124.149 31.5112 124.068C31.7888 123.999 32.0491 123.999 32.2921 124.068C33.0325 124.288 34.0043 124.907 35.2075 125.925C36.457 126.966 37.1396 127.787 37.2553 128.389C37.371 128.979 37.0123 130.003 36.1793 131.461C35.4505 132.768 34.7795 133.722 34.1663 134.324C33.8539 134.636 33.5416 134.804 33.2292 134.827C32.94 134.839 32.5466 134.735 32.0491 134.515C30.5799 133.867 29.3767 132.901 28.4396 131.617L27.4851 129.899C27.4041 129.436 27.7339 128.58 28.4743 127.33C29.2031 126.104 29.9146 125.179 30.6088 124.554Z" fill="#0D131A"/>
<path d="M30.9906 125.352C31.4187 124.959 31.76 124.797 32.0145 124.866C32.6855 125.063 33.5243 125.63 34.5308 126.567C35.5489 127.492 36.1042 128.204 36.1967 128.701C36.2777 129.129 35.8786 130.02 34.9993 131.374C34.1663 132.635 33.5648 133.387 33.1945 133.63C33.0094 133.676 32.5582 133.491 31.841 133.074C31.0543 132.612 30.3254 132.074 29.6544 131.46C28.9255 130.801 28.5264 130.286 28.457 129.916C28.3876 129.569 28.6247 128.881 29.1685 127.851C29.7469 126.775 30.3543 125.942 30.9906 125.352Z" fill="white"/>
<path d="M36.1968 128.701C36.2777 129.106 35.9249 129.922 35.1382 131.148C34.4325 132.259 33.8366 133.045 33.3507 133.508C33.3045 131.865 33.1888 130.425 33.0037 129.187C32.7839 127.637 32.4426 126.196 31.9798 124.866H32.0145C32.6855 125.063 33.5243 125.63 34.5308 126.567C35.5489 127.492 36.1042 128.204 36.1968 128.701Z" fill="#DBDCDC"/>
<path d="M9.33316 110.74C9.33316 110.833 9.18276 111.029 8.88197 111.33C8.32665 111.897 8.01428 112.36 7.94486 112.718C7.79447 113.447 8.33243 114.095 9.55876 114.662C9.9174 114.824 10.0215 114.957 9.87113 115.061C9.80171 115.119 9.69181 115.154 9.54141 115.165C8.1184 115.107 7.31435 114.604 7.12924 113.655C7.03669 113.123 7.15238 112.574 7.47631 112.007C7.80025 111.452 8.19939 111.07 8.67372 110.862C9.11335 110.676 9.33316 110.636 9.33316 110.74Z" fill="#0D131A"/>
<path d="M115.798 122.09C115.902 121.962 116.006 121.916 116.111 121.951C117.048 122.136 117.962 122.645 118.852 123.478C119.963 124.519 120.842 125.931 121.49 127.712C120.518 128.406 119.489 129.031 118.401 129.586C116.226 130.709 114.855 130.946 114.288 130.298C113.953 129.916 114.057 128.51 114.601 126.081C115.11 123.813 115.509 122.483 115.798 122.09Z" fill="#0D131A"/>
<path d="M114.861 129.916C114.826 129.847 115.029 128.73 115.468 126.567C115.931 124.346 116.249 123.038 116.423 122.645L118.401 124.207C119.408 125.19 120.004 126.231 120.189 127.331C120.258 127.666 119.402 128.21 117.62 128.962C115.85 129.702 114.931 130.02 114.861 129.916Z" fill="#DBDCDC"/>
<path d="M118.766 95.5904C119.772 98.4943 120.397 101.317 120.64 104.059C121.299 111.695 119.148 119.978 114.184 128.91C114.057 129.141 113.878 130.003 113.646 131.495C113.438 132.814 112.993 133.89 112.31 134.723C110.124 137.372 104.738 138.871 96.1538 139.218C91.0403 139.426 86.8349 138.599 83.5377 136.736C80.4487 134.989 78.829 132.762 78.6786 130.055C78.6208 129.06 78.2911 127.591 77.6895 125.647C76.8334 122.859 76.3185 121.1 76.145 120.372C75.0344 115.779 75.4046 111.943 77.2556 108.866C78.3778 106.992 80.9057 104.539 84.8392 101.508C88.6802 98.5579 92.8393 95.8276 97.3165 93.3171C102.141 90.5983 106.196 88.8051 109.481 87.9374C113.253 86.9425 115.492 87.33 116.197 89.1001L118.766 95.5904Z" fill="#5DC1CF"/>
<path d="M116.197 89.1003L118.766 95.5906C119.772 98.4944 120.397 101.317 120.64 104.059C121.299 111.695 119.147 119.978 114.184 128.91C114.022 129.211 113.86 129.962 113.698 131.166C113.536 132.346 113.236 133.3 112.796 134.029C111.35 136.447 107.717 138.026 101.898 138.767L100.006 138.715C98.9535 138.992 98.3866 138.986 98.3056 138.697C98.5486 136.916 98.6238 135.279 98.5312 133.786C98.4271 132.201 98.1263 130.68 97.6288 129.222C105.288 128.366 109.95 123.669 111.616 115.131C112.889 108.583 112.368 100.693 110.054 91.4604C109.048 87.4112 109.684 85.6064 111.963 86.046C112.784 86.208 113.658 86.6361 114.583 87.3302C115.451 87.9896 115.989 88.5797 116.197 89.1003Z" fill="#50A8B4"/>
<path d="M115.746 89.343C115.202 88.186 115.087 87.5613 115.399 87.4688C115.688 87.3878 116.105 87.8505 116.649 88.8571C119.714 94.5722 121.195 100.848 121.091 107.686C120.964 115.321 118.812 122.477 114.635 129.152C114.381 129.569 114.254 130.13 114.254 130.836C114.242 132.074 114.092 133.069 113.803 133.821C113.398 134.896 112.657 135.805 111.581 136.545C108.92 138.361 103.784 139.426 96.1711 139.738C90.4907 139.958 86.0076 139.177 82.722 137.395C79.4826 135.637 77.9671 133.202 78.1753 130.089C78.21 129.488 77.9844 128.58 77.4985 127.365L76.3358 124.415C75.3293 121.187 74.8376 118.439 74.8608 116.172C74.8839 113.673 75.5202 111.18 76.7697 108.692L77.7241 109.039C76.6019 112.047 76.1681 115.009 76.4226 117.925C76.573 119.637 77.0994 121.951 78.0018 124.866L78.7654 127.504C79.0083 128.452 79.1471 129.291 79.1818 130.02C79.3207 132.531 80.8304 134.613 83.7112 136.267C86.8927 138.107 91.0344 138.923 96.1364 138.714C103.205 138.425 108.03 137.372 110.609 135.556C111.581 134.873 112.275 134.052 112.692 133.092C112.923 132.536 113.108 131.738 113.247 130.697C113.363 129.737 113.531 129.06 113.75 128.666C118.378 120.325 120.223 111.602 119.286 102.497C118.789 97.7769 117.609 93.3922 115.746 89.343Z" fill="#0D131A"/>
<path d="M87.7199 126.931C87.1068 126.573 86.7944 126.336 86.7828 126.22C86.7828 126.081 87.1762 126.168 87.9629 126.48C89.1661 126.954 91.0056 127.446 93.4814 127.955C96.6513 128.603 99.4279 128.91 101.811 128.875C103.963 128.84 104.767 128.956 104.223 129.222C103.68 129.488 102.714 129.61 101.325 129.586C98.0975 129.552 95.0432 129.182 92.1625 128.476C90.0916 127.967 88.6108 127.452 87.7199 126.931Z" fill="#0D131A"/>
<path d="M78.3316 128.476L78.7828 128.423C80.1711 129.303 81.1891 130.784 81.837 132.866C82.2419 134.15 82.4444 135.249 82.4444 136.163C82.4444 136.568 81.9296 136.857 80.8999 137.031L76.8739 137.447C74.1551 137.598 72.6511 137.39 72.3619 136.823C72.0842 136.267 72.6685 134.92 74.1146 132.779C75.5029 130.743 76.6425 129.407 77.5333 128.771C77.73 128.632 77.9961 128.533 78.3316 128.476Z" fill="#0D131A"/>
<path d="M73.5767 136.285C73.5767 135.718 74.1031 134.63 75.1558 133.022C76.2318 131.356 77.1747 130.24 77.9845 129.673C78.239 129.488 78.3952 129.424 78.4531 129.482C79.2282 130.084 79.9628 131.212 80.657 132.866C81.2007 134.15 81.5073 135.116 81.5767 135.764C81.1487 135.972 79.8066 136.158 77.5507 136.32C75.2831 136.482 73.9584 136.487 73.5767 136.337V136.285Z" fill="white"/>
<path d="M79.9108 131.322C80.3504 132.097 80.7437 132.988 81.0908 133.994C81.38 134.816 81.542 135.406 81.5767 135.764C81.1487 135.972 79.8066 136.158 77.5507 136.32C75.2831 136.481 73.9584 136.487 73.5767 136.337V136.285C73.5767 136.123 73.6171 135.938 73.6981 135.73C75.098 134.017 77.1689 132.548 79.9108 131.322Z" fill="#DBDCDC"/>
<path d="M94.4532 136.198C95.9109 134.475 96.848 133.613 97.2645 133.613C97.681 133.613 98.6412 134.313 100.145 135.712C101.672 137.124 102.453 138.073 102.488 138.558C102.523 139.056 102.014 140.074 100.961 141.613C99.8965 143.175 99.1271 143.979 98.6528 144.025C98.3057 144.06 97.4612 143.689 96.1191 142.914C94.8234 142.174 93.8632 141.52 93.2384 140.953C92.6253 140.398 92.3187 139.854 92.3187 139.322C92.3187 138.94 93.0302 137.899 94.4532 136.198Z" fill="#0D131A"/>
<path d="M97.3512 134.931C97.6636 134.954 98.3925 135.492 99.5378 136.545C100.695 137.609 101.285 138.315 101.308 138.662C101.343 139.079 100.938 139.888 100.093 141.092C99.2717 142.272 98.7164 142.873 98.4272 142.896C98.2074 142.92 97.6347 142.642 96.7092 142.063C95.7258 141.462 94.9101 140.866 94.2623 140.276L93.6028 139.564L93.4987 139.339C93.5334 139.027 94.1119 138.228 95.2341 136.944C96.3563 135.66 97.062 134.989 97.3512 134.931Z" fill="white"/>
<path d="M114.375 133.404C115.567 135.221 116.018 136.522 115.729 137.309C115.636 137.552 115.428 137.772 115.104 137.968C114.722 138.188 114.259 138.321 113.716 138.367C112.559 138.46 111.315 138.443 109.985 138.315C108.249 138.142 107.289 137.806 107.104 137.309L106.809 136.545C106.809 135.782 107.468 134.596 108.787 132.988C109.794 131.75 110.575 130.917 111.13 130.489C111.327 130.327 111.506 130.263 111.668 130.298L111.98 130.489C112.57 130.905 113.369 131.877 114.375 133.404Z" fill="#0D131A"/>
<path d="M114.844 137.274L111.217 137.395C109.273 137.222 108.157 136.967 107.868 136.632C107.601 136.319 108.058 135.388 109.239 133.838C110.384 132.311 111.147 131.518 111.529 131.46C111.899 131.402 112.651 132.293 113.785 134.133C114.931 135.984 115.283 137.031 114.844 137.274Z" fill="white"/>
<path d="M112.692 134.55C113.004 134.955 113.565 135.903 114.375 137.396C113.542 137.535 112.322 137.517 110.714 137.344C109.059 137.17 108.111 136.933 107.868 136.632C107.694 136.435 107.862 135.915 108.371 135.07C108.822 134.33 109.389 133.572 110.071 132.797C111.078 133.028 111.951 133.613 112.692 134.55Z" fill="#DBDCDC"/>
<path d="M110.644 111.608C111.188 111.596 111.691 111.81 112.154 112.25C112.628 112.701 112.889 113.227 112.935 113.829C112.97 114.326 112.773 114.818 112.345 115.304C111.79 115.94 111.003 116.218 109.985 116.137L109.62 115.894C109.447 115.732 109.551 115.645 109.933 115.634C110.569 115.611 111.101 115.165 111.529 114.298C111.992 113.36 111.703 112.637 110.662 112.128C110.268 111.932 110.147 111.787 110.297 111.695L110.644 111.608Z" fill="#0D131A"/>
<path d="M132.631 97.4302C132.701 97.3724 132.805 97.3377 132.944 97.3261C133.441 97.303 133.898 97.5459 134.315 98.055C134.743 98.5756 134.98 99.1887 135.026 99.8945C135.049 100.484 134.87 101.057 134.488 101.612C133.979 102.341 133.268 102.665 132.354 102.584L132.024 102.307C131.862 102.11 131.955 102.006 132.302 101.994C132.869 101.971 133.349 101.456 133.742 100.45C134.17 99.3507 133.91 98.5062 132.961 97.9161C132.602 97.6963 132.493 97.5343 132.631 97.4302Z" fill="#0D131A"/>
<path d="M146.393 85.2646C146.879 85.2415 147.33 85.4555 147.746 85.9067C148.163 86.3579 148.394 86.8901 148.441 87.5033C148.475 88.0123 148.302 88.5156 147.92 89.013C147.422 89.6493 146.717 89.9328 145.803 89.8634L145.473 89.6204C145.323 89.4469 145.415 89.3543 145.751 89.3428C146.318 89.3196 146.792 88.8626 147.174 87.9718C147.59 87.0231 147.336 86.2885 146.41 85.7679C146.063 85.5828 145.959 85.444 146.098 85.3514C146.156 85.3051 146.254 85.2762 146.393 85.2646Z" fill="#0D131A"/>
<path d="M145.768 99.8419C146.312 99.8187 146.815 100.102 147.278 100.692C147.752 101.282 148.013 101.976 148.059 102.775C148.094 103.434 147.897 104.082 147.469 104.718C146.913 105.563 146.127 105.933 145.109 105.829L144.744 105.517C144.571 105.297 144.675 105.175 145.057 105.152C145.3 105.141 145.577 104.967 145.89 104.632C146.214 104.273 146.468 103.856 146.653 103.382C147.116 102.144 146.827 101.19 145.785 100.519C145.392 100.264 145.271 100.073 145.421 99.946L145.768 99.8419Z" fill="#0D131A"/>
<path d="M99.4336 111.417C99.8501 111.799 100.001 112.429 99.8848 113.309C99.8154 113.875 99.5146 114.35 98.9824 114.732C98.4502 115.113 97.8313 115.304 97.1256 115.304L96.7959 115.148C96.6455 115.021 96.7554 114.905 97.1256 114.801C98.0395 114.558 98.5949 114.061 98.7915 113.309C99.0113 112.476 98.5081 111.822 97.2818 111.348L96.6744 111.001C96.6744 110.908 96.9173 110.862 97.4032 110.862C98.3635 110.85 99.0403 111.035 99.4336 111.417Z" fill="#0D131A"/>
<path d="M110.54 97.0307C110.852 97.3315 111.037 97.7306 111.095 98.2281C111.142 98.6677 110.956 99.0958 110.54 99.5123C110.1 99.9519 109.597 100.178 109.03 100.189C108.741 100.201 108.573 100.154 108.527 100.05C108.481 99.9461 108.62 99.8247 108.943 99.6858C110.066 99.2231 110.488 98.6793 110.21 98.0546C109.979 97.5455 109.505 97.1927 108.787 96.996C108.371 96.8919 108.244 96.7762 108.405 96.6489L108.77 96.4927C109.545 96.458 110.135 96.6374 110.54 97.0307Z" fill="#0D131A"/>
<path d="M77.5506 66.8007C83.7286 66.0834 87.8183 66.2396 89.8197 67.2692C90.4329 67.5931 90.8204 68.1832 90.9824 69.0393L91.0692 70.9135C91.0692 73.933 89.9932 78.3409 87.8414 84.137C91.046 87.0524 93.3425 89.4646 94.7308 91.3735C96.3621 93.6179 97.1777 95.7004 97.1777 97.6209C97.1777 98.234 97.1141 98.9629 96.9868 99.8074C96.8364 100.768 96.6629 101.473 96.4662 101.925C95.1473 104.956 93.84 107.125 92.5443 108.432C91.0865 109.913 89.0388 110.983 86.401 111.643C84.1566 112.21 79.3612 114.246 72.0148 117.751L65.0386 121.153C62.5165 122.367 60.5266 123.27 59.0689 123.86C55.9106 125.144 51.0226 125.439 44.405 124.745C37.5677 124.016 32.9632 122.576 30.5915 120.424C29.8048 119.695 26.2935 117.641 20.0578 114.263C15.1409 111.591 11.5892 109.705 9.40259 108.606C8.0143 107.912 6.77061 105.835 5.67154 102.376C4.56091 98.8935 4.39894 96.516 5.18564 95.2434C6.22686 93.5659 7.80027 91.4661 9.90585 88.944C12.1156 86.2947 13.8972 84.4147 15.2508 83.304C14.441 82.1471 13.6195 80.2267 12.7866 77.5426C11.9073 74.7082 11.4677 72.3943 11.4677 70.6011C11.4677 70.2425 11.485 69.9243 11.5197 69.6467C11.6701 68.6054 12.0172 67.9749 12.561 67.7551C14.6434 66.8643 18.4034 66.8643 23.8409 67.7551C26.6638 68.2179 29.7527 68.86 33.1078 69.6814C36.2314 68.5013 41.0326 68.0154 47.5114 68.2237C53.0298 68.3972 58.2533 68.9757 63.1818 69.959C66.907 68.5245 71.6967 67.4717 77.5506 66.8007Z" fill="#0D131A"/>
<path d="M88.9173 68.3449C89.3222 68.5184 89.571 68.7151 89.6635 68.9349C90.5312 71.3413 89.6057 76.1541 86.8869 83.3732C86.644 83.1766 86.1754 83.0262 85.4813 82.922C85.0532 82.8642 85.1169 83.1303 85.6722 83.7203L86.644 84.6053C90.7973 88.3422 93.4929 91.7435 94.7308 94.8093C95.6679 97.1463 95.7431 99.223 94.9564 101.039C93.7532 103.793 92.5153 105.812 91.2427 107.096C89.9701 108.368 88.2116 109.358 85.9672 110.063C84.8566 110.41 82.9708 111.191 80.3099 112.406L72.1883 116.224C65.698 119.347 61.2092 121.413 58.7219 122.419C55.2742 123.831 50.2937 124.091 43.7803 123.2C41.1078 122.83 38.6552 122.315 36.4223 121.656C34.201 120.996 32.6392 120.319 31.7368 119.625C30.8344 118.931 27.3753 116.97 21.3593 113.742C14.8574 110.248 11.2479 108.276 10.5306 107.825C9.35053 107.096 8.3093 105.314 7.40691 102.48C6.55079 99.8188 6.26735 97.8404 6.55658 96.5447C6.78796 95.4919 8.1994 93.2764 10.7909 89.8982C13.3014 86.6242 15.0078 84.6805 15.9102 84.0674C17.1019 83.2691 17.6803 82.6502 17.6456 82.2105C17.6225 81.7709 17.1076 81.9213 16.1011 82.6617C14.9558 80.7644 14.0302 78.6067 13.3245 76.1888C12.561 73.5857 12.2949 71.4512 12.5263 69.7853C12.6304 69.1721 12.8097 68.7903 13.0642 68.6399C13.8625 68.1887 16.5292 68.2408 21.0643 68.7961C24.7433 69.2357 28.7404 69.872 33.0557 70.705L33.1945 70.7224L33.3334 70.6703C36.3529 69.4903 41.0905 69.0101 47.5461 69.23C53.0298 69.4151 58.2186 69.9993 63.1123 70.9827L63.2685 71.0174L63.4074 70.9653C67.0054 69.5539 71.6851 68.5532 77.4465 67.9631C83.2079 67.3731 87.0315 67.5004 88.9173 68.3449Z" fill="#5DC1CF"/>
<path d="M18.5654 109.178C17.0035 108.981 15.7656 108.096 14.8517 106.523L13.6543 104.423C13.2262 103.752 12.7692 103.18 12.2833 102.705C13.1741 103.399 14.6203 103.926 16.6218 104.284L18.5654 104.579C19.2479 104.579 21.1279 105.817 24.2053 108.293L28.6132 112.007L24.9168 110.775C22.1749 109.919 20.0578 109.386 18.5654 109.178Z" fill="#50A8B4"/>
<path d="M33.0557 70.7048L33.1946 70.7221L33.3334 70.6701C36.3529 69.49 41.0905 69.0099 47.5461 69.2297C53.0299 69.4148 58.2186 69.999 63.1124 70.9824L63.2686 71.0171L63.4074 70.9651C65.4436 70.1668 68.0061 69.4727 71.0951 68.8826C74.0336 68.3157 76.9491 67.9397 79.8414 67.7546C74.7625 68.5645 70.3315 70.2941 66.5484 72.9434C63.9916 74.7482 62.1232 76.6108 60.9431 78.5313C56.3618 80.07 51.3176 82.3086 45.8107 85.2472C38.499 89.146 33.8424 92.6977 31.841 95.9024C31.6559 95.9024 30.9097 95.5206 29.6023 94.757C27.9248 93.7621 26.7968 93.12 26.2184 92.8308C26.8778 91.9515 27.4389 90.8062 27.9017 89.3947L28.9082 85.629C29.7065 82.5169 30.8518 80.4923 32.3442 79.5552C30.3775 77.1951 27.948 75.0374 25.0557 73.0822C22.7071 71.4973 19.8611 69.9296 16.5176 68.3794C18.5307 68.4719 21.1916 68.7611 24.5003 69.2471C27.3926 69.6751 30.2444 70.161 33.0557 70.7048Z" fill="#50A8B4"/>
<path d="M43.9191 111.695C46.6147 110.977 49.455 109.74 52.4398 107.981C55.6676 106.084 57.831 104.95 58.9301 104.58L65.9583 103.295C69.3597 102.636 72.1594 102.248 74.3575 102.133C75.8037 102.133 77.3424 101.473 78.9736 100.154C80.628 98.7893 81.3858 97.4993 81.247 96.2846C80.7032 94.8732 79.205 93.3171 76.7524 91.6164C75.017 90.4017 73.27 88.6316 71.5115 86.3062C69.7877 84.0271 67.8673 82.1818 65.7501 80.7704C67.0343 80.3539 68.787 79.4052 71.0083 77.9244C73.9121 76.0039 75.5607 74.9337 75.9541 74.7139L82.8262 70.9308C85.3019 69.7161 87.5406 68.993 89.542 68.7616L89.6635 68.9351C90.5312 71.3415 89.6057 76.1543 86.8869 83.3734C86.644 83.1768 86.1754 83.0264 85.4813 82.9222C85.0532 82.8644 85.1168 83.1305 85.6722 83.7205L86.644 84.6055C90.7973 88.3424 93.4929 91.7437 94.7308 94.8095C95.6679 97.1465 95.7431 99.2232 94.9564 101.04C93.7532 103.793 92.5153 105.812 91.2427 107.096C89.9701 108.369 88.2116 109.358 85.9672 110.063C84.8565 110.411 82.9708 111.191 80.3099 112.406L72.1883 116.224C65.698 119.348 61.2092 121.413 58.7218 122.419C55.2742 123.831 50.2937 124.091 43.7803 123.2C41.1078 122.83 38.6552 122.315 36.4223 121.656C34.201 120.996 32.6392 120.319 31.7368 119.625C33.449 119.637 35.8612 118.445 38.9733 116.05C40.6855 114.732 42.3342 113.28 43.9191 111.695Z" fill="#50A8B4"/>
<path d="M87.6504 70.3929C87.9512 70.497 88.1016 70.7168 88.1016 71.0523C88.1016 71.8968 87.6678 73.5744 86.8001 76.0849L85.2209 80.3712C85.0474 80.9034 84.7986 81.1926 84.4747 81.2389C84.1392 81.2968 83.5955 81.129 82.8435 80.7357C78.9794 78.6648 76.5788 77.4211 75.6417 77.0046C75.1905 76.8079 74.9302 76.6402 74.8608 76.5014C74.7682 76.351 74.8492 76.1427 75.1037 75.8766C76.0871 74.8354 77.9902 73.5975 80.8131 72.1629C84.064 70.497 86.3431 69.9069 87.6504 70.3929Z" fill="#0D131A"/>
<path d="M87.5811 71.0518C87.5811 72.2434 86.482 75.3729 84.2839 80.4402L80.7437 78.4965C78.7654 77.4553 77.2845 76.7554 76.3011 76.3967C77.7589 75.02 79.8297 73.678 82.5138 72.3707C85.14 71.0865 86.7886 70.5832 87.4596 70.8609C87.5406 70.8956 87.5811 70.9592 87.5811 71.0518Z" fill="#C6000B"/>
<path d="M87.4596 70.8609C87.5406 70.8956 87.5811 70.9592 87.5811 71.0518C87.5811 71.8385 87.072 73.5392 86.0539 76.1538C84.7582 75.7951 83.6186 75.6563 82.6353 75.7373C81.3626 75.853 79.8644 76.3389 78.1406 77.195C77.4581 76.8595 76.8449 76.5934 76.3011 76.3967C77.7589 75.02 79.8297 73.678 82.5138 72.3707C85.14 71.0865 86.7886 70.5832 87.4596 70.8609Z" fill="#A30000"/>
<path d="M25.3854 76.8135C25.4201 76.906 25.235 77.0854 24.8301 77.3514L19.5198 81.1693C18.8257 81.6667 18.386 81.8113 18.2009 81.6031L17.3333 79.9371C16.6854 78.8265 16.1474 77.5655 15.7194 76.154C15.1872 74.384 15.1467 73.1981 15.5979 72.5965C15.783 72.3651 16.6565 72.4808 18.2183 72.9436C20.2429 73.5452 22.3485 74.6153 24.535 76.154L25.3854 76.8135Z" fill="#0D131A"/>
<path d="M20.804 74.9912C22.47 75.8126 23.6385 76.501 24.3095 77.0563C23.3492 77.5075 22.3427 78.1033 21.2899 78.8437C20.6652 79.2834 19.8669 79.8965 18.8951 80.6832L18.6001 80.9088C18.1836 80.3304 17.6861 79.3007 17.1077 77.8199C16.4598 76.1771 16.1359 74.9796 16.1359 74.2276C16.1359 73.9616 16.1821 73.7764 16.2747 73.6723C16.3441 73.5913 16.4945 73.5566 16.7259 73.5682C17.5589 73.5913 18.9182 74.0657 20.804 74.9912Z" fill="#C6000B"/>
<path d="M16.7259 73.5682C17.501 73.5798 18.8199 74.0368 20.6825 74.9392C19.7917 75.4598 19.1959 76.3274 18.8951 77.5422C18.7331 78.2364 18.5943 79.2949 18.4786 80.7179C18.0274 79.9775 17.5415 78.9305 17.0209 77.5769C16.4309 76.0498 16.1359 74.9334 16.1359 74.2276C16.1359 73.9616 16.1821 73.7764 16.2747 73.6723C16.3441 73.5913 16.4945 73.5566 16.7259 73.5682Z" fill="#A30000"/>
<path d="M16.7953 104.181C19.352 104.03 22.6435 104.395 26.6695 105.274L36.7694 107.825C38.7709 108.334 40.6624 108.739 42.4441 109.04C44.272 109.352 45.4405 109.456 45.9495 109.352L47.1816 109.092C62.9966 105.818 73.7849 104.181 79.5463 104.181H80.171L79.876 104.736C78.5803 107.304 74.641 110.544 68.0581 114.454C65.3394 116.062 62.7363 117.427 60.249 118.549C57.7038 119.695 55.8238 120.337 54.609 120.476C52.1795 120.765 48.6856 120.701 44.1274 120.285C39.5807 119.857 36.7752 119.336 35.7108 118.723L31.8062 116.137L25.2639 111.764C21.0527 109.022 18.2588 107.125 16.882 106.072C15.9449 105.355 15.5053 104.875 15.5632 104.632C15.5863 104.574 15.7425 104.487 16.0317 104.371L16.7953 104.181Z" fill="#0D131A"/>
<path d="M27.381 105.985C29.1858 106.344 32.5235 107.148 37.3941 108.397L42.9299 109.768C44.5033 110.092 45.5619 110.202 46.1057 110.098L47.3378 109.838L67.0342 105.76C73.0271 104.591 77.2787 103.978 79.7892 103.92C78.1001 106.419 73.8369 109.641 66.9995 113.586C60.5092 117.323 56.0551 119.336 53.6372 119.625C51.2655 119.903 47.9625 119.781 43.7282 119.261C39.6906 118.775 37.1801 118.254 36.1967 117.699C34.149 116.531 30.8865 114.442 26.4092 111.434C21.2609 107.987 18.3224 105.812 17.5935 104.909C20.1271 104.805 23.3896 105.164 27.381 105.985Z" fill="#922F00"/>
<path d="M25.3333 108.259C25.0094 107.669 24.8937 107.038 24.9862 106.367C25.0441 105.904 25.1887 105.482 25.4201 105.1C38.4122 108.073 44.8447 109.606 44.7174 109.699L71.3207 105.1C71.8991 105.609 71.9917 106.303 71.5983 107.183C71.2744 107.912 70.6265 108.739 69.6547 109.664C67.3177 111.886 63.9048 113.777 59.416 115.339C54.5454 117.028 49.8888 117.757 45.4463 117.525L44.943 117.491C40.5699 117.259 36.3818 116.12 32.3789 114.072C28.7693 112.233 26.4208 110.295 25.3333 108.259Z" fill="#0D131A"/>
<path d="M26.0101 105.743C28.428 106.205 31.9393 107.032 36.5438 108.224L42.687 109.717C44.4108 110.087 45.5504 110.214 46.1057 110.098L47.9278 109.717C57.6922 107.646 65.2642 106.223 70.6438 105.448C70.4703 106.604 69.6894 107.848 68.3011 109.179C65.9988 111.365 62.8057 113.193 58.7218 114.662C54.1983 116.282 49.7847 116.982 45.4809 116.762C41.316 116.531 37.2321 115.362 33.2292 113.257C29.6428 111.359 27.3347 109.445 26.3051 107.513C26.039 107.027 25.9059 106.587 25.9059 106.194L26.0101 105.743Z" fill="#ED8599"/>
<path d="M31.2856 94.6706C32.1649 95.7002 32.4194 96.1746 32.0492 96.0936L31.2162 95.6771C30.9385 96.7646 30.1345 97.7075 28.804 98.5058C27.462 99.3156 26.1547 99.6337 24.8821 99.4602C23.4707 99.2635 22.2328 98.552 21.1684 97.3257C19.5487 95.4399 18.681 92.6055 18.5653 88.8224C17.5241 88.6141 16.9167 88.3654 16.7432 88.0762C16.5581 87.7638 17.3332 87.7175 19.0686 87.9373C21.4056 88.2497 23.4244 88.8282 25.125 89.6727C27.3 90.7602 29.3536 92.4262 31.2856 94.6706Z" fill="#0D131A"/>
<path d="M28.4916 97.3779C27.3463 98.0836 26.1662 98.367 24.9515 98.2282C23.3434 98.0662 22.065 97.187 21.1163 95.5904C20.1445 93.9823 19.5776 91.7726 19.4156 88.9613C23.9855 90.0025 27.6992 92.0213 30.5567 95.0177C30.2444 95.9433 29.556 96.73 28.4916 97.3779Z" fill="white"/>
<path d="M29.1164 92.814L29.2552 92.9354L29.2899 93.3346C28.9313 94.2601 28.376 94.9716 27.624 95.4691C26.872 95.9666 26.12 96.1227 25.368 95.9376C24.535 95.7525 23.8409 95.1336 23.2855 94.0808C22.6377 92.8429 22.3889 91.3042 22.5393 89.4647L22.7996 89.1697L23.112 89.2912C25.287 90.1704 27.2885 91.3447 29.1164 92.814Z" fill="#0D131A"/>
<path d="M25.5762 95.1561C24.8011 94.9825 24.1995 94.3347 23.7714 93.2125C23.4012 92.2638 23.2277 91.2457 23.2508 90.1582C25.1829 90.9333 26.9529 91.9514 28.5611 93.2125C28.2256 93.9298 27.7917 94.4677 27.2595 94.8264C26.7158 95.185 26.1547 95.2949 25.5762 95.1561Z" fill="#C6000B"/>
<path d="M27.2769 92.2759C26.9992 93.0047 26.6175 93.3634 26.1315 93.3518C25.53 93.3402 25.1308 92.5246 24.9341 90.9049C25.7324 91.2983 26.5133 91.7552 27.2769 92.2759Z" fill="white"/>
<path d="M20.6651 85.6642C21.1626 85.1668 22.0708 84.5478 23.3896 83.8074C24.8242 83.0091 25.8944 82.5695 26.6001 82.4885C28.1503 82.3265 28.2024 82.4943 26.7563 82.9918C26.1431 83.1884 25.2407 83.6859 24.0491 84.4842L21.446 86.2369C20.7982 86.6534 20.3932 86.7749 20.2313 86.6013C20.0577 86.4278 20.2023 86.1154 20.6651 85.6642Z" fill="#0D131A"/>
<path d="M31.1294 85.7506C31.0485 84.6863 31.1005 84.2524 31.2856 84.4491C31.4707 84.6342 31.6558 85.1895 31.8409 86.115C32.026 86.9596 32.1707 87.9545 32.2748 89.0999C32.3789 90.2452 32.4078 91.1476 32.3616 91.8071C32.3153 92.4434 32.1417 92.7673 31.8409 92.7789C31.5401 92.7904 31.384 92.5128 31.3724 91.9459L31.303 89.2908L31.1294 85.7506Z" fill="#0D131A"/>
<path d="M65.108 80.6144C65.6171 80.302 66.2534 80.1921 67.0169 80.2847C67.3756 80.3309 67.5665 80.4408 67.5896 80.6144C67.6243 80.7879 67.4623 80.9152 67.1037 80.9962L66.1666 81.1523C65.8311 81.1871 65.5881 81.2507 65.4377 81.3432C64.6742 81.7944 63.8817 83.3852 63.0603 86.1155L61.724 91.4084C61.5158 92.2067 61.3712 92.5422 61.2902 92.4149C61.2439 92.3339 61.215 91.9753 61.2034 91.339C61.2034 90.3093 61.5447 88.5797 62.2273 86.1502C63.0834 83.0844 64.0437 81.2391 65.108 80.6144Z" fill="#0D131A"/>
<path d="M71.5116 80.8222C72.3677 81.1808 73.1949 81.632 73.9931 82.1758C74.8261 82.7427 75.5318 83.3443 76.1103 83.9806C76.6888 84.6169 76.9491 84.9466 76.8912 84.9697L75.6938 84.2582C73.3916 82.7311 71.876 81.8113 71.1471 81.499C70.6381 81.2907 70.3778 81.042 70.3662 80.7528C70.3547 80.4751 70.7364 80.4983 71.5116 80.8222Z" fill="#0D131A"/>
<path d="M76.5441 85.5944C77.2267 85.5597 77.701 85.6754 77.9671 85.9415C78.2216 86.2191 77.8919 86.3869 76.9779 86.4447C77.1746 90.4361 76.5962 93.5713 75.2426 95.8504C74.2823 97.4585 73.0676 98.4882 71.5983 98.9394C70.1637 99.3675 68.6134 99.2055 66.9475 98.4535C65.3394 97.7362 64.1015 96.695 63.2338 95.3298C62.4587 96.2091 62.0422 96.5446 61.9843 96.3363C61.9265 96.1281 62.2562 95.4339 62.9735 94.2539C64.2692 92.1483 66.2013 90.2394 68.7696 88.5272C71.5115 86.6992 74.103 85.7216 76.5441 85.5944Z" fill="#0D131A"/>
<path d="M63.8585 94.6186C65.6402 92.4204 67.9887 90.4421 70.9041 88.6836C73.5419 87.1102 75.2715 86.4276 76.0929 86.6359V87.0871C76.0929 90.0951 75.6706 92.5419 74.8261 94.4277C73.9815 96.325 72.7841 97.5051 71.2339 97.9678C69.9612 98.3381 68.6481 98.2224 67.2946 97.6208C65.9178 96.996 64.7725 95.9953 63.8585 94.6186Z" fill="white"/>
<path d="M67.9367 93.6641C66.9996 93.1435 66.4211 92.3742 66.2013 91.3561L66.6004 90.6793C68.197 89.3951 69.9266 88.3134 71.7892 87.4341L72.0321 87.3127L72.3445 87.278C72.9577 88.7472 73.0907 90.1297 72.7436 91.4255C72.3966 92.675 71.714 93.5022 70.6959 93.9071C69.7819 94.2657 68.8622 94.1847 67.9367 93.6641Z" fill="#0D131A"/>
<path d="M68.8738 93.1605C68.5383 93.068 68.2085 92.8539 67.8846 92.5184C67.5722 92.1945 67.3177 91.8127 67.121 91.3731C68.6597 90.1005 70.2563 89.013 71.9107 88.1106C72.0726 88.7585 72.1536 89.3832 72.1536 89.9848C72.1536 90.8988 71.8875 91.6623 71.3553 92.2755C71.0314 92.6457 70.6438 92.9118 70.1926 93.0738L68.8738 93.1605Z" fill="#C6000B"/>
<path d="M70.1232 89.1697C70.2389 90.5464 70.0133 91.3215 69.4464 91.4951C68.9143 91.657 68.4746 91.3505 68.1276 90.5753L70.1232 89.1697Z" fill="white"/>
<path d="M18.3745 108.866C18.0621 108.762 17.4142 107.946 16.4308 106.419L15.0425 104.163L18.2183 104.18C20.3239 104.227 21.3304 104.348 21.2378 104.545L19.971 107.061C19.2306 108.38 18.6984 108.982 18.3745 108.866Z" fill="#0D131A"/>
<path d="M16.1359 104.666L18.4786 104.736C19.6934 104.77 20.2776 104.834 20.2313 104.927C20.0231 105.401 19.6818 106.02 19.2075 106.784C18.6984 107.605 18.3861 107.993 18.2704 107.946C18.0506 107.877 17.3391 106.784 16.1359 104.666Z" fill="white"/>
<path d="M81.6461 103.903C81.6924 104.354 81.3511 105.262 80.6222 106.627C79.8586 108.027 79.2686 108.721 78.8521 108.71C78.4819 108.698 77.8861 107.935 77.0647 106.419L75.9367 104.163L78.7654 103.729C80.6627 103.509 81.6229 103.567 81.6461 103.903Z" fill="#0D131A"/>
<path d="M81.0907 103.92C80.8825 104.661 80.4949 105.482 79.928 106.384C79.3611 107.298 78.9678 107.721 78.748 107.651C78.5282 107.582 78.1984 107.2 77.7588 106.506C77.3192 105.835 76.9548 105.141 76.6655 104.423L81.0907 103.92Z" fill="white"/>
<path d="M32.4136 110.098C32.564 110.11 32.7087 110.769 32.8475 112.077C32.9863 113.349 33.0152 114.061 32.9343 114.211C32.8533 114.408 32.6045 114.552 32.188 114.645C31.7253 114.737 31.3146 114.685 30.9559 114.489C30.7477 114.361 30.5684 114.095 30.418 113.69C30.2676 113.297 30.2271 113.025 30.2965 112.875C30.4585 112.551 30.8113 112.019 31.3551 111.278C31.9335 110.48 32.2864 110.087 32.4136 110.098Z" fill="#0D131A"/>
<path d="M32.2575 110.758C32.3269 110.838 32.4021 111.359 32.4831 112.319C32.5641 113.303 32.5525 113.818 32.4484 113.864C32.298 113.945 32.1013 114.003 31.8584 114.037L31.1642 113.951C30.9213 113.823 30.7882 113.482 30.7651 112.927L31.5113 111.764C31.9625 111.047 32.2112 110.711 32.2575 110.758Z" fill="white"/>
<path d="M36.7694 112.163C36.9083 112.21 37.0702 112.973 37.2554 114.454C37.4289 115.9 37.4809 116.675 37.4115 116.78C37.3421 116.918 37.0298 117.011 36.4744 117.057C35.8613 117.103 35.3869 117.005 35.0514 116.762C34.7622 116.554 34.5482 116.271 34.4093 115.912C34.2705 115.565 34.2532 115.276 34.3573 115.044C34.4614 114.836 34.8374 114.315 35.4853 113.482C36.2026 112.557 36.6306 112.117 36.7694 112.163Z" fill="#0D131A"/>
<path d="M36.4918 112.944C36.538 113.002 36.6075 113.586 36.7 114.697C36.781 115.819 36.7868 116.409 36.7174 116.467L36.1447 116.554C35.7976 116.542 35.5315 116.473 35.3464 116.345C35.0572 116.126 34.901 115.715 34.8779 115.113L35.6761 113.933C36.1736 113.228 36.4455 112.898 36.4918 112.944Z" fill="white"/>
<path d="M62.0711 114.349C62.0017 114.153 62.0769 113.453 62.2967 112.25C62.505 111.023 62.6843 110.404 62.8347 110.393C63.0198 110.37 63.3958 110.775 63.9627 111.608L64.8824 113.065C65.0328 113.273 65.0213 113.557 64.8477 113.916C64.6742 114.274 64.4081 114.54 64.0495 114.714C63.6792 114.899 63.2628 114.934 62.8 114.818C62.3951 114.702 62.1521 114.546 62.0711 114.349Z" fill="#0D131A"/>
<path d="M64.3444 113.239C64.2981 113.737 64.1419 114.055 63.8759 114.194L63.1817 114.246L62.6264 114.072C62.5223 114.014 62.5396 113.5 62.6784 112.528C62.8057 111.568 62.904 111.053 62.9735 110.983C63.0197 110.937 63.2569 111.284 63.685 112.025L64.3444 113.239Z" fill="white"/>
<path d="M57.8195 116.797C57.5418 116.635 57.4898 115.836 57.6633 114.402C57.8368 112.967 58.074 112.186 58.3748 112.059C58.5252 112.013 58.8838 112.372 59.4507 113.135C60.006 113.91 60.3936 114.564 60.6134 115.096C60.6944 115.293 60.6713 115.553 60.544 115.877C60.3936 116.247 60.1564 116.542 59.8325 116.762C59.4854 116.982 59.0747 117.063 58.6004 117.005C58.2533 116.97 57.993 116.901 57.8195 116.797Z" fill="#0D131A"/>
<path d="M60.0928 115.13C60.0465 115.674 59.8499 116.056 59.5028 116.276L58.7392 116.467L58.1666 116.363C58.0971 116.305 58.1434 115.72 58.3054 114.61C58.4558 113.511 58.5599 112.932 58.6177 112.874C58.6525 112.828 58.9012 113.175 59.364 113.916L60.0928 115.13Z" fill="white"/>
<path d="M11.6239 102.48C11.485 102.121 11.4214 101.757 11.433 101.387C11.4561 100.785 11.5602 100.502 11.7453 100.536C11.9073 100.571 12.0404 100.803 12.1445 101.231C12.2255 101.508 12.3412 101.792 12.4916 102.081L12.8213 102.567C13.4576 103.203 14.2211 103.614 15.112 103.799L19.7454 104.025C22.5798 103.99 25.4606 104.291 28.3876 104.927C30.1576 105.309 32.5293 105.986 35.5026 106.957L40.136 108.38C41.8598 108.843 43.3118 109.092 44.4918 109.127C45.0587 109.138 46.5395 108.901 48.9344 108.415L57.2815 106.68C66.1897 104.886 73.8311 103.753 80.2057 103.278C82.3229 103.128 84.1046 102.746 85.5507 102.133C86.858 101.578 87.743 100.912 88.2058 100.137C88.6107 99.4548 88.952 99.2292 89.2297 99.4605C89.5073 99.6919 89.4784 100.051 89.1429 100.536C88.1942 101.878 87.0952 102.804 85.8457 103.313C84.7582 103.741 82.9129 104.071 80.3099 104.302C76.5499 104.626 69.6489 105.731 59.6069 107.617C50.3516 109.341 45.3653 110.185 44.648 110.15C42.5771 110.023 39.4245 109.283 35.1902 107.929C32.2169 106.969 29.8915 106.304 28.214 105.933C25.3449 105.309 22.5278 105.014 19.7628 105.048C17.1366 105.083 15.3086 104.956 14.279 104.667C13.5617 104.47 12.8386 104.013 12.1098 103.296C11.9015 103.087 11.7396 102.816 11.6239 102.48Z" fill="#0D131A"/>
<path d="M38.0189 105.17C37.7181 105.008 37.6024 104.788 37.6718 104.51C37.7528 104.233 37.9957 104.134 38.4007 104.215C38.8056 104.296 39.1237 104.424 39.3551 104.597L40.2749 105.534C40.6104 105.916 40.6451 106.159 40.379 106.263L39.8584 106.298C39.2915 105.858 38.6783 105.482 38.0189 105.17Z" fill="#0D131A"/>
<path d="M46.7825 105.968C47.1527 105.517 47.4998 105.199 47.8237 105.014C48.1129 104.863 48.541 104.736 49.1079 104.632C49.6401 104.539 49.9235 104.661 49.9582 104.996C49.9814 105.332 49.7442 105.546 49.2467 105.638C48.8302 105.731 48.4022 105.887 47.9625 106.107C47.5923 106.292 47.4072 106.402 47.4072 106.437L46.8172 106.558C46.4817 106.558 46.4701 106.361 46.7825 105.968Z" fill="#0D131A"/>
<path d="M76.0929 44.536C79.7834 44.455 82.5832 44.9236 84.4921 45.9417L84.7697 46.0979L83.0344 51.009C80.8594 50.6388 78.8001 50.4305 76.8564 50.3842C78.2216 50.9048 79.2802 51.4833 80.0322 52.1196C80.2636 52.3279 80.5239 52.4956 80.8131 52.6229C80.9866 52.7617 81.0329 53.0741 80.9519 53.56L80.6743 56.8225C80.5239 58.5116 80.3619 59.5759 80.1884 60.0156C79.9801 60.513 79.8297 60.756 79.7372 60.7444C79.6909 60.7328 79.6099 60.5419 79.4942 60.1717C79.3438 59.6743 78.7711 58.9859 77.7762 58.1066C76.5152 56.9844 75.1442 56.2093 73.6634 55.7812C75.5029 57.3662 77.4523 59.1884 79.5116 61.2477L75.5896 64.6316C72.9172 66.8645 71.4247 67.952 71.1124 67.8941C70.8231 67.8363 70.1579 67.3099 69.1167 66.3149L66.3401 63.6598L68.5093 67.3388C69.3423 68.7618 69.7472 69.589 69.7241 69.8204C69.6778 70.2022 68.5556 70.8385 66.3574 71.7293L63.7197 73.8465C61.9149 75.2116 60.8737 75.8132 60.596 75.6512C60.3183 75.4893 59.6936 74.7836 58.7218 73.5341L56.2749 70.3931L57.6979 74.6794C58.288 76.438 58.5656 77.4445 58.5309 77.699C58.4962 77.9651 57.9814 78.4568 56.9864 79.1741L54.7478 80.6838C54.2156 81.0309 53.8396 81.2218 53.6198 81.2565C53.3884 81.2796 53.1975 81.1524 53.0471 80.8747L51.0168 76.9181C51.2713 77.9593 51.682 79.3939 52.2489 81.2218C49.669 83.2695 48.3269 84.2298 48.2228 84.1025C48.165 84.0331 47.9162 83.3679 47.4766 82.1068L46.2445 78.584L46.5742 84.8314C46.5742 84.9123 45.8569 85.2536 44.4223 85.8552C42.9531 86.4684 42.1374 86.7171 41.9755 86.6014C41.8366 86.4973 41.6978 85.9825 41.559 85.057L41.1425 82.2977L41.3681 85.7164C41.4375 86.8039 41.4202 87.3766 41.316 87.4344C37.4751 88.5451 35.4273 88.9789 35.1728 88.736C35.0224 88.5856 35.2654 87.2377 35.9017 84.6925L37.2553 79.4517C36.7925 79.9145 35.624 81.1755 33.7498 83.2348C32.0491 85.0396 31.0773 85.9015 30.8344 85.8205C30.5914 85.7511 30.1807 84.6289 29.6023 82.4539L28.8214 79.2088L31.1988 76.7792L29.1511 78.3584C27.7975 79.3649 27.0571 79.7988 26.9298 79.66C26.8025 79.5211 26.8777 78.6881 27.1554 77.161L27.6066 74.905L33.316 70.7749L29.2378 72.6143C27.7454 73.2969 26.9298 73.5572 26.791 73.3953C26.6521 73.2333 27.0513 72.0764 27.9884 69.9245L29.4287 66.7488L34.444 62.3757L31.7021 63.816C30.6146 64.3829 30.0419 64.6143 29.9841 64.5102C29.8799 64.3251 31.65 61.8435 35.2943 57.0654L41.7152 55.3821L39.4939 55.0697L37.8279 54.7053C37.585 54.6359 37.4866 54.5086 37.5329 54.3235L37.6891 54.0632C39.089 52.779 40.512 51.6164 41.9581 50.5751L42.0449 50.5057L44.5959 50.2801L48.8475 49.8463L45.1165 49.2042L44.8562 49.0306C44.7868 48.8571 44.9777 48.6257 45.4289 48.3365L49.6285 45.2996C51.9654 43.5989 53.2959 42.6965 53.6198 42.5924C55.2279 42.3263 57.3219 42.5404 59.9019 43.2345C62.4818 43.9287 64.9691 44.9525 67.364 46.3061C69.5042 45.207 72.4139 44.617 76.0929 44.536Z" fill="#0D131A"/>
<path d="M75.902 50.7656C77.3481 51.2168 78.7769 52.0382 80.1884 53.2298L79.9628 55.6767L79.581 59.0433C78.8984 58.2104 77.9324 57.389 76.6829 56.5791C75.1558 55.5726 73.7039 54.9652 72.3271 54.757L71.2859 54.6876C71.2165 54.7685 71.4768 55.0173 72.0668 55.4338C72.6106 55.8271 73.6807 56.7816 75.2773 58.2971L78.1927 61.1084L75.5549 63.2776C75.4971 63.3239 74.6872 62.786 73.1254 61.6638C71.552 60.5415 70.667 60.0267 70.4703 60.1193C70.2736 60.2234 70.9099 60.9002 72.3792 62.1497L74.6005 64.0586L71.1297 66.8872L65.1947 61.6117C64.4428 60.9522 64.0147 60.6399 63.9106 60.6746C63.7833 60.6977 64.0147 61.1663 64.6047 62.0802C65.4261 63.3528 66.7797 65.8171 68.6655 69.4729L66.0971 70.7224L64.813 68.7961C63.9221 67.5351 63.4015 66.9393 63.2511 67.0087C63.1239 67.0665 63.4594 67.778 64.2576 69.1432L65.4203 71.2083L60.7175 74.6096C57.8599 70.9538 56.165 68.8887 55.6329 68.4143L54.7652 67.6855C54.6148 67.6624 54.6842 68.021 54.9734 68.7614C55.3899 69.8836 56.2749 72.7586 57.6285 77.3862L53.5851 80.1628L52.1968 77.1086L50.4094 73.3428C49.9929 72.5445 49.7499 72.1454 49.6805 72.1454C49.5995 72.157 49.588 72.5561 49.6458 73.3428C49.6921 74.0717 49.9235 75.3327 50.34 77.1259C50.7218 78.7687 51.0573 80.0356 51.3465 80.9264L48.6046 82.8873L47.4766 79.5901C46.8056 77.6928 46.3428 76.4549 46.0883 75.8764C45.7181 75.0666 45.4925 74.6385 45.4115 74.5923C45.2727 74.5229 45.2495 75.003 45.3421 76.0326L45.7759 84.3104L42.5655 85.5425C41.7557 81.0189 41.2293 78.3175 40.9863 77.4383C40.8128 76.7673 40.6392 76.426 40.4657 76.4144C40.2922 76.4144 40.217 76.7846 40.2401 77.5251L40.5351 86.8093L36.1793 87.7464C37.8916 80.9784 38.6898 77.4209 38.5741 77.0739C38.5047 76.8656 37.3536 77.9242 35.1208 80.2496L31.1988 84.3971L29.689 79.4513L32.1012 77.0739L34.6696 74.384C35.1439 73.8403 35.3406 73.5106 35.2596 73.3949C35.1902 73.2907 34.8778 73.3949 34.3225 73.7072C33.9176 73.9386 32.8127 74.7195 31.0079 76.05L27.9016 78.306L28.3181 75.3385C32.9226 72.1338 35.5835 70.2134 36.3008 69.577C36.8214 69.1143 37.047 68.8366 36.9776 68.7441C36.9082 68.6515 36.5611 68.7094 35.9364 68.9176C35.4389 69.0796 34.1605 69.5828 32.1012 70.4274L28.1619 72.0239L30.0708 67.1996C33.773 63.9255 36.1041 61.9009 37.0644 61.1258L38.4006 59.9804C38.4585 59.8647 37.8742 60.0325 36.6479 60.4837C35.5604 60.8886 34.6927 61.2646 34.0448 61.6117L32.3268 62.5314L35.7628 57.7418L39.5807 56.7874L44.162 55.5205C44.7983 55.2892 45.1049 55.0925 45.0818 54.9305C45.0702 54.7801 44.7347 54.728 44.0753 54.7743L41.6631 54.6876L38.7303 54.1669C40.0492 53.01 41.2466 52.044 42.3226 51.2689L47.3378 50.8003L51.2944 50.3144C51.9076 50.2334 52.2142 50.112 52.2142 49.95C52.2142 49.788 51.9134 49.6608 51.3118 49.5682L48.5178 48.9782L46.5916 48.5096C47.1469 48.1626 48.4889 47.1908 50.6176 45.5942C52.515 44.1596 53.5735 43.4076 53.7934 43.3382C56.3039 43.0606 59.3465 43.5985 62.9214 44.9521C64.7031 45.6347 66.236 46.3404 67.5201 47.0693C69.4869 46.0049 72.2172 45.4149 75.7111 45.2992C79.1934 45.1835 81.9006 45.5826 83.8326 46.4966L82.7914 49.7765L78.7306 49.5509C76.0582 49.4352 74.1666 49.4178 73.056 49.4988C71.8528 49.5913 71.3437 49.7302 71.5289 49.9153C71.6793 50.0657 72.1825 50.1814 73.0386 50.2624C74.2997 50.3896 75.2541 50.5574 75.902 50.7656Z" fill="#00A63C"/>
<path d="M73.056 49.4988C71.8528 49.5913 71.3438 49.7302 71.5289 49.9153C71.6793 50.0657 72.1826 50.1814 73.0387 50.2624C74.2997 50.3896 75.2542 50.5574 75.902 50.7656C77.3482 51.2168 78.777 52.0382 80.1884 53.2298L79.9628 55.6767L79.581 59.0433C78.8985 58.2104 77.9324 57.389 76.683 56.5791C75.1558 55.5726 73.7039 54.9652 72.3272 54.757L71.286 54.6876C71.2165 54.7685 71.4768 55.0173 72.0669 55.4338C72.6106 55.8271 73.6808 56.7816 75.2773 58.2971L78.1927 61.1084L75.555 63.2776C75.4971 63.3239 74.6873 62.786 73.1254 61.6638C71.552 60.5415 70.667 60.0267 70.4703 60.1193C70.2737 60.2234 70.91 60.9002 72.3792 62.1497L74.6005 64.0586L71.9975 66.1931C69.3828 61.9588 65.9179 59.0549 61.6026 57.4815C56.9055 55.7808 52.3878 56.2089 48.0493 58.7657C46.4412 54.7165 44.0406 52.5878 40.8475 52.3795L42.3226 51.2689L47.3378 50.8003L51.2945 50.3144C51.9076 50.2334 52.2142 50.112 52.2142 49.95C52.2142 49.788 51.9134 49.6608 51.3118 49.5682L48.5179 48.9782L46.5916 48.5096C47.1469 48.1626 48.489 47.1908 50.6177 45.5942C52.515 44.1596 53.5736 43.4076 53.7934 43.3382C56.3039 43.0606 59.3466 43.5985 62.9215 44.9521C64.7031 45.6347 66.236 46.3404 67.5202 47.0693C69.487 46.0049 72.2173 45.4149 75.7112 45.2992C79.1935 45.1835 81.9006 45.5826 83.8327 46.4966L82.7915 49.7765L78.7307 49.5509C76.0582 49.4352 74.1667 49.4178 73.056 49.4988Z" fill="#009233"/>
<path d="M65.941 46.2015H65.9931L68.1623 46.5313L68.8044 46.3577C69.0357 46.3577 68.6482 46.6469 67.6417 47.2254C64.0668 48.6831 60.5556 50.6094 57.108 53.0042C50.4326 57.6203 44.8736 63.6883 40.431 71.2082L40.0666 71.8677C40.0203 71.9024 39.9798 71.6479 39.9451 71.1041C39.8526 69.6348 40.4021 67.6681 41.5937 65.2039C42.8663 62.5661 44.5901 59.992 46.7651 57.4815C52.3299 51.0606 58.7218 47.3006 65.941 46.2015Z" fill="#0D131A"/>
<path d="M66.7914 46.9995C62.9736 48.0754 58.9417 50.1925 54.6958 53.3509C48.8418 57.7009 44.1968 63.0921 40.7608 69.5246C41.1657 67.7892 42.0276 65.7935 43.3465 63.5376C44.8042 61.0502 46.5627 58.7074 48.622 56.5093C53.8513 50.9677 59.6301 47.7052 65.9584 46.7218L66.6873 46.7912C67.069 46.8375 67.1037 46.9069 66.7914 46.9995Z" fill="#00A63C"/>
<path d="M65.9584 46.7218L66.6872 46.7912C67.069 46.8375 67.1037 46.9069 66.7914 46.9995C64.7899 47.5664 62.5628 48.5208 60.1102 49.8628C57.0096 51.5751 54.0884 53.6517 51.3465 56.0928C50.8838 55.7689 50.369 55.5086 49.8021 55.3119C52.0812 53.0906 54.4991 51.2685 57.0559 49.8455C59.9482 48.2258 62.9157 47.1846 65.9584 46.7218Z" fill="#009233"/>
<path d="M129.473 38.3748C129.531 38.8376 128.767 39.7747 127.182 41.1861C125.609 42.586 124.689 43.1529 124.423 42.8868L121.907 39.902L122.549 41.8456C122.838 42.8174 122.931 43.4653 122.826 43.7892C122.699 44.1825 121.791 44.6916 120.102 45.3163C118.424 45.9411 117.528 46.1146 117.412 45.8369C117.331 45.6287 117.001 45.1601 116.423 44.4313L114.896 42.5571L114.861 45.1948C114.85 46.2245 114.792 46.7856 114.688 46.8782C114.445 47.098 112.727 47.2021 109.533 47.1905C105.831 47.179 102.766 46.8608 100.336 46.2361C99.7113 46.0857 99.3411 45.9642 99.2254 45.8716C98.9477 45.6518 98.6759 45.1081 98.4098 44.2404C97.7735 42.2042 96.605 40.0003 94.9043 37.6286C93.3078 35.4189 91.4625 33.3596 89.3685 31.4507C87.286 29.5418 85.3019 28.1014 83.4162 27.1296C81.4147 26.1 79.8239 25.7703 78.6439 26.1405L78.0539 26.0537C74.0394 24.1101 68.7002 27.147 62.0364 35.1644C58.7045 39.1673 55.7717 43.3669 53.238 47.7632H46.2098L45.6892 44.3619L44.8041 45.4031L44.2315 46.4617L43.7282 47.3814C43.4853 47.4971 42.849 47.3525 41.8193 46.9476L37.4462 45.4204L33.9928 44.3272C33.4143 44.1536 33.0672 43.9338 32.9515 43.6677C32.8127 43.3438 32.8937 42.7769 33.1945 41.9671L33.8713 39.9367L34.5307 37.7675C34.0795 38.1492 33.2697 39.1326 32.1012 40.7176C31.0253 42.1753 30.3601 42.9678 30.1055 43.095C29.7238 43.2686 28.4222 42.7017 26.201 41.3944C23.9797 40.0986 22.7765 39.2194 22.5914 38.7566C22.4873 38.5021 23.1525 37.646 24.5871 36.1883C26.172 34.5686 28.0925 32.8679 30.3485 31.0863C36.6074 26.1231 42.6465 22.6524 48.4658 20.674C54.7015 18.5453 60.2027 17.7644 64.9692 18.3313C69.5158 18.8635 73.9352 20.6914 78.2274 23.8151C82.5543 20.7724 87.7315 19.3667 93.759 19.5981C99.5204 19.8179 105.519 21.4897 111.755 24.6133C116.105 26.8115 120.287 29.6112 124.302 33.0125C127.657 35.8701 129.38 37.6575 129.473 38.3748Z" fill="#0D131A"/>
<path d="M124.371 41.7937L123.33 40.2666C122.67 39.3526 121.936 38.5196 121.126 37.7676C120.235 36.9231 119.755 36.6107 119.685 36.8305C119.639 36.9925 119.83 37.4726 120.258 38.2709C120.559 38.8378 120.837 39.5319 121.091 40.3534L121.907 43.182C121.027 43.7836 119.674 44.2984 117.846 44.7265L115.885 41.8631C114.728 40.2203 114.103 39.5088 114.011 39.7286C113.907 39.9484 113.831 40.9607 113.785 42.7655L113.698 45.976L107.972 46.2363C104.721 46.2016 102.158 45.8429 100.284 45.1603C99.6824 42.9622 98.5544 40.6194 96.9 38.1321C95.3035 35.7141 93.4235 33.4813 91.26 31.4335C89.0272 29.328 86.8001 27.7083 84.5789 26.5745C82.184 25.3482 80.0438 24.8276 78.158 25.0127C73.5419 23.2079 68.116 25.9382 61.8802 33.2036C58.4673 37.1603 55.3783 41.678 52.6133 46.7569H47.0775C46.7882 45.4958 46.6089 44.4546 46.5395 43.6332L46.4875 42.4184C46.4296 42.2912 46.1635 42.4532 45.6892 42.9044L44.2315 44.4141C43.7687 44.9694 43.4563 45.5074 43.2944 46.028C41.7672 45.7504 38.6378 44.767 33.906 43.0779C34.8315 40.0121 35.5083 37.8544 35.9364 36.6049C36.2372 35.7257 36.3471 35.2687 36.2661 35.234L35.2422 35.8934C34.5018 36.4025 33.6283 37.1603 32.6218 38.1668C31.3955 39.4047 30.4468 40.579 29.7758 41.6896C28.6073 41.3888 27.4504 40.8971 26.3051 40.2145C25.4721 39.7286 24.7664 39.2254 24.1879 38.7048C26.7563 36.1133 29.6601 33.5796 32.8995 31.1038C38.5915 26.7654 43.9769 23.7285 49.0558 21.9931C55.361 19.8528 60.6944 18.9447 65.0559 19.2686C69.51 19.6041 73.7675 21.2758 77.8283 24.2838L78.3662 24.5268C82.2766 22.2476 86.5456 21.0155 91.1733 20.8304C97.2702 20.5759 103.726 22.1609 110.54 25.5853C114.589 27.6215 118.523 30.1609 122.341 33.2036C124.92 35.2629 126.962 37.114 128.466 38.7568C128.142 39.3006 127.512 39.8906 126.575 40.5269L124.371 41.7937Z" fill="#39BADF"/>
<path d="M96.015 21.0042C91.8154 22.1264 88.3446 24.1684 85.6027 27.1301C82.803 25.4988 80.3214 24.7931 78.158 25.0129C76.6309 24.4229 74.988 24.3361 73.2295 24.7526C72.0957 22.7974 70.638 21.1777 68.8564 19.8936C71.8759 20.634 74.8666 22.0975 77.8283 24.284L78.3662 24.527C83.6533 21.4496 89.5362 20.2753 96.015 21.0042Z" fill="#39BADF"/>
<path d="M113.334 27.0779C116.77 29.0331 120.079 31.3238 123.26 33.95C125.458 35.7547 127.194 37.3571 128.466 38.7569C128.142 39.3123 127.506 39.9081 126.557 40.5444C123.098 35.9746 118.69 31.4857 113.334 27.0779Z" fill="#39BADF"/>
<path d="M55.3379 42.1582C54.2966 43.8126 53.3885 45.3455 52.6133 46.7569H47.7369C51.2424 41.7359 55.5577 37.6983 60.6828 34.644C58.878 36.8769 57.0964 39.3816 55.3379 42.1582Z" fill="#39BADF"/>
<path d="M92.6657 24.4578C91.208 23.4744 90.4791 22.8208 90.4791 22.4968C90.4329 22.0688 90.4791 21.6523 90.618 21.2474C90.7568 20.8077 90.9882 20.4896 91.3121 20.2929L91.3468 20.2582H91.3989C95.2283 20.1888 99.237 20.8193 103.425 22.1498L103.633 22.2192L103.39 22.7919C102.823 24.076 102.355 25.0016 101.985 25.5685C101.163 26.8064 100.255 27.5699 99.2601 27.8591C98.4966 28.079 96.2984 26.9452 92.6657 24.4578Z" fill="#0D131A"/>
<path d="M91.6419 20.7439C95.2052 20.6976 98.9651 21.2876 102.922 22.5139L102.852 22.6701C102.378 23.746 101.938 24.5732 101.533 25.1517C100.793 26.2161 99.9716 26.8813 99.0693 27.1474C98.8726 27.2052 98.4503 27.1011 97.8024 26.835C97.0504 26.5226 96.1423 26.0541 95.0779 25.4294C93.9557 24.7699 92.9897 24.1394 92.1798 23.5378C91.4625 22.9941 91.0865 22.647 91.0518 22.4966L91.0345 22.2363C91.0345 21.5306 91.2369 21.0331 91.6419 20.7439Z" fill="#FCEEF4"/>
<path d="M91.6419 20.7437L96.605 21.0734L94.002 21.594C92.9839 21.8254 92.0352 22.184 91.156 22.6699L91.0518 22.4964L91.0345 22.2361C91.0345 21.5304 91.2369 21.0329 91.6419 20.7437Z" fill="#D9CED4"/>
<path d="M100.822 33.117C102.951 32.2377 104.489 31.9138 105.438 32.1452C106.514 32.3997 107.364 33.707 107.989 36.0671C108.556 38.219 108.672 39.7519 108.336 40.6659C108.047 41.4757 106.954 42.1178 105.056 42.5921L102.28 43.0433C101.366 43.24 99.7229 42.3781 97.3512 40.4576L97.3165 40.4229L95.5291 36.9001C96.6397 35.373 98.404 34.1119 100.822 33.117Z" fill="#0D131A"/>
<path d="M101.308 33.5163C103.251 32.7296 104.617 32.4288 105.403 32.6139C105.612 32.6718 105.947 33.123 106.41 33.9675C106.826 34.7311 107.156 35.5293 107.399 36.3623C107.677 37.2763 107.816 38.1093 107.816 38.8613C107.816 39.4166 107.74 39.9025 107.59 40.319C107.185 41.4296 105.565 42.1238 102.731 42.4014L102.349 42.4535C101.632 42.6154 100.255 41.8866 98.2189 40.2669L96.7438 37.8895L96.2579 37.0044C97.3339 35.5814 99.0172 34.4187 101.308 33.5163Z" fill="#FCEEF4"/>
<path d="M115.278 30.4269C117.869 31.7921 119.298 32.6887 119.564 33.1167C119.633 33.244 119.633 33.3712 119.564 33.4985C119.333 33.915 118.245 34.5339 116.301 35.3554C114.439 36.1421 113.282 36.5354 112.831 36.5354C112.368 36.5354 111.523 35.9049 110.297 34.6438C109.094 33.4059 108.417 32.5036 108.267 31.9367C108.116 31.3119 108.255 30.6467 108.683 29.941C108.868 29.6402 109.163 29.3394 109.568 29.0386C109.962 28.7494 110.291 28.5758 110.557 28.518C111.066 28.4023 112.64 29.0386 115.278 30.4269Z" fill="#0D131A"/>
<path d="M118.748 33.3253C118.656 33.5914 117.765 34.0888 116.076 34.8177C114.41 35.5234 113.357 35.8763 112.917 35.8763C112.605 35.8763 111.888 35.3152 110.766 34.193C109.632 33.0592 108.996 32.232 108.857 31.7114C108.718 31.2139 108.839 30.6644 109.221 30.0628C109.557 29.5306 109.933 29.2182 110.349 29.1257C110.777 29.0331 112.229 29.6289 114.705 30.9131C117.123 32.151 118.471 32.9551 118.748 33.3253Z" fill="#FCEEF4"/>
<path d="M60.9431 18.9214L61.2555 18.9041L61.1514 19.1817L60.3705 22.1666C59.9424 23.7631 59.6242 24.6192 59.416 24.7349C59.0458 24.9084 57.7211 24.9431 55.442 24.839C53.1166 24.7233 51.7399 24.5267 51.3118 24.249L51.0515 24.0408L50.8953 23.8499C50.8953 23.6532 51.3986 22.9533 52.4051 21.7501L53.9149 19.9973L54.4181 19.6676L57.8021 19.147L60.9431 18.9214Z" fill="#0D131A"/>
<path d="M60.5787 19.3208L60.0234 21.6115L59.6416 23.208C59.4912 23.7171 59.3408 24.0121 59.1904 24.0931C58.8665 24.255 57.6575 24.2724 55.5635 24.1451C53.4695 24.0179 52.2779 23.8559 51.9886 23.6592C52.0465 23.3584 52.625 22.5428 53.724 21.2124L54.3661 20.4141C56.5758 19.8588 58.6467 19.4943 60.5787 19.3208Z" fill="#FCEEF4"/>
<path d="M45.4636 29.299C48.7145 27.6215 50.5251 26.8116 50.8953 26.8695C51.2887 26.9389 52.0465 28.3561 53.1687 31.1211C54.2793 33.8514 54.8288 35.5752 54.8173 36.2925C54.8057 37.1139 53.0935 37.8428 49.6806 38.4791C46.3024 39.1038 44.4687 39.1906 44.1794 38.7394L42.0449 35.9628C40.7145 34.1696 40.0897 33.1052 40.1707 32.7697C40.3211 32.1797 42.0854 31.0228 45.4636 29.299Z" fill="#0D131A"/>
<path d="M40.9343 32.9433C41.0384 32.5499 42.5771 31.5723 45.5504 30.0105C48.4658 28.4833 50.178 27.7024 50.6871 27.6677C50.9994 27.876 51.6473 29.1659 52.6307 31.5376C53.6256 33.944 54.1231 35.4769 54.1231 36.1363V36.1537L53.8628 36.4834C53.5504 36.7148 53.0356 36.9462 52.3183 37.1776C50.9069 37.6403 49.3103 37.9643 47.5287 38.1494C45.8512 38.3345 44.9314 38.3171 44.7694 38.0973L43.6241 36.7437C41.8309 34.7654 40.9343 33.5275 40.9343 33.03V32.9433Z" fill="#FCEEF4"/>
<path d="M59.4854 27.4595C59.9481 26.7885 60.2779 26.4009 60.4745 26.2968C61.2728 25.9034 62.5917 25.6547 64.4312 25.5506C66.8376 25.4233 68.3763 25.9208 69.0473 27.043L69.1514 27.2165L68.9952 27.3206C67.2714 28.4429 65.5071 29.9468 63.7023 31.8326L63.6329 31.902L63.5288 31.8847L60.7869 31.5202L58.2706 31.1905C57.8194 31.098 57.5649 30.9765 57.507 30.8261C57.4608 30.7451 57.4666 30.6583 57.5244 30.5658L58.0624 29.7155L59.4854 27.4595Z" fill="#0D131A"/>
<path d="M60.9778 26.6268C61.5679 26.326 62.6901 26.112 64.3444 25.9847C66.45 25.8343 67.8557 26.1583 68.5614 26.9565C67.0111 28.0209 65.351 29.4671 63.5809 31.295L61.134 30.9826L58.3054 30.5488L58.7739 29.8026C59.9771 27.8127 60.7117 26.7541 60.9778 26.6268Z" fill="#FCEEF4"/>
<path d="M97.7677 135.14C98.3693 135.51 99.0924 136.106 99.9369 136.927C100.839 137.795 101.296 138.373 101.308 138.662C101.343 138.998 101.059 139.628 100.458 140.554C99.9022 141.422 99.3816 142.093 98.8957 142.567C98.9651 140.994 98.942 139.715 98.8263 138.732C98.6643 137.355 98.3115 136.158 97.7677 135.14Z" fill="#DBDCDC"/>
</svg>
