<svg width="159" height="154" viewBox="0 0 159 154" fill="none" xmlns="http://www.w3.org/2000/svg">
<g clip-path="url(#clip0_1_56542)">
<path d="M107.179 33.0917L25.6168 96.2336C24.7763 96.327 23.5272 96.1168 21.8696 95.6032C19.7917 94.9495 17.8189 93.9806 15.9511 92.6965C10.628 89.0544 7.40614 83.8247 6.28549 77.0074C5.18818 70.4702 6.1921 63.4544 9.29725 55.9601C10.3245 53.4853 11.5852 50.9288 13.0795 48.2906L15.811 43.7029C18.029 39.7573 19.8617 35.8584 21.3092 32.0061C23.714 25.5624 24.3677 20.7996 23.2704 17.7178L24.391 17.8579C25.2315 18.0213 25.9086 18.3248 26.4222 18.7684C26.3522 18.0213 26.1537 17.1458 25.8269 16.1419C25.1498 14.0873 24.1809 12.3597 22.9202 10.9588L26.7024 10.4335C29.9009 10.4569 33.1462 11.3674 36.4381 13.1651L36.1929 11.239C36.0995 9.93158 36.2279 9.20783 36.5781 9.06775C37.1151 8.85762 37.8856 9.37126 38.8895 10.6086C38.9128 9.58138 39.1346 8.41403 39.5549 7.1066C40.372 4.53844 41.7495 2.60064 43.6873 1.29321L45.6134 4.83027C47.4111 7.37509 49.6057 9.13779 52.1973 10.1184C54.4619 11.0055 59.5982 11.6826 67.6062 12.1495C75.3574 12.6165 80.8206 13.5737 83.9958 15.0212L87.3578 15.3014C90.0893 15.6516 92.6108 16.2936 94.9222 17.2275C102.37 20.2393 106.456 25.5273 107.179 33.0917Z" fill="#68AE28"/>
<path d="M8.70186 83.8715C3.42545 73.9257 4.68619 62.4974 12.4841 49.5865C8.53843 60.0226 9.86921 68.3692 16.4764 74.6261C19.3481 77.3344 22.9668 79.3189 27.3327 80.5796C31.6052 81.7937 36.1345 82.1906 40.9206 81.7703L24.6011 96.5139C22.2197 96.3038 19.5699 95.1481 16.6515 93.0469C13.3129 90.5955 10.663 87.537 8.70186 83.8715Z" fill="#56931F"/>
<path d="M139.188 28.4688C141.266 29.3793 143.075 32.4728 144.616 37.7492C145.994 42.5353 146.46 45.9206 146.017 47.9051C148.772 51.1036 151.457 57.3489 154.072 66.641C157.037 77.0537 157.539 84.6298 155.577 89.3693C154.947 90.8868 153.103 92.953 150.044 95.5679C146.869 98.3228 143.729 100.447 140.624 101.942L142.2 104.498C143.46 106.739 144.593 109.156 145.597 111.747C148.795 120.106 150.126 128.767 149.589 137.732C149.426 140.581 147.068 142.915 142.515 144.737C138.056 146.488 133.304 147.071 128.262 146.488C126.557 146.254 124.304 144.258 121.503 140.499C118.304 136.133 116.401 131.604 115.794 126.911C111.522 129.386 107.915 131.055 104.973 131.919L104.062 133.46C103.269 134.721 102.335 135.888 101.261 136.962C97.8755 140.417 93.8715 142.343 89.2488 142.74C84.6495 143.137 81.0774 142.775 78.5326 141.655C77.7388 141.305 77.085 140.896 76.5714 140.429L76.0811 139.834L48.0998 140.779L45.2281 143.301C42.66 145.005 39.6949 145.904 36.333 145.997C31.7336 146.137 28.1148 145.717 25.4766 144.737C22.1614 143.476 19.8033 141.176 18.4025 137.838C16.3713 133.028 15.2974 127.518 15.1806 121.308C15.0172 113.23 16.8266 106.623 20.6088 101.486C24.2509 96.5368 29.002 91.4938 34.8621 86.3575C36.4964 84.9333 40.944 81.3146 48.2049 75.5012C51.917 72.5595 55.2206 69.7111 58.1157 66.9562C61.0574 64.1546 62.8434 62.1467 63.4738 60.9327C64.1508 56.2866 65.038 51.5706 66.1353 46.7844C68.3533 37.2122 70.5012 32.0992 72.5791 31.4455C74.657 30.8151 77.7154 31.4805 81.7544 33.4417C83.7623 34.4456 85.56 35.4962 87.1476 36.5935L89.529 35.753C91.6302 35.1226 93.9299 34.5857 96.428 34.1421C104.413 32.7646 112.888 32.6829 121.853 33.8969C123.207 32.4494 126.195 31.0486 130.818 29.6945C135.277 28.387 138.067 27.9785 139.188 28.4688Z" fill="#7CBEB3"/>
<path d="M145.527 42.407L146.227 47.9052L142.62 42.547C142.994 40.9828 143.157 38.8699 143.11 36.2083L142.9 32.7063C143.974 35.0176 144.85 38.2512 145.527 42.407Z" fill="#68A198"/>
<path d="M65.3298 48.606C67.2209 39.921 69.077 34.9014 70.8981 33.5472C70.4545 38.5902 70.3027 43.5748 70.4428 48.501C70.5362 51.396 70.8397 55.8085 71.3534 61.7387C71.6569 65.2641 71.295 68.3926 70.2677 71.1241C69.3572 73.5055 68.1665 75.1281 66.6956 75.992C65.2481 76.8325 64.0574 76.6457 63.1236 75.4317C62.1196 74.1009 61.7811 71.8129 62.108 68.5677C62.7617 62.1005 63.8356 55.4467 65.3298 48.606Z" fill="#68A198"/>
<path d="M128.542 137.627C130.339 140.989 132.487 143.091 134.986 143.931L133.655 146.593C130.129 147.293 127.013 146.371 124.304 143.826C121.059 140.721 118.187 135.083 115.689 126.911C111.65 129.363 107.168 131.195 102.241 132.409C97.3853 133.623 91.5485 134.359 84.7312 134.616C83.6573 134.966 82.8751 135.713 82.3848 136.857C81.8946 137.954 81.8829 138.946 82.3498 139.834L80.3887 142.145L76.1862 139.588C76.303 138.795 76.9567 136.425 78.1474 132.479C79.3147 128.697 80.0501 125.417 80.3537 122.639C81.2408 114.327 78.9295 106.809 73.4196 100.085C78.3225 105.012 86.9142 108.105 99.1946 109.366C112.316 110.697 123.464 109.506 132.639 105.794C129.697 107.685 127.596 110.627 126.335 114.619C125.215 118.214 124.876 122.195 125.32 126.561C125.763 130.763 126.837 134.452 128.542 137.627Z" fill="#68A198"/>
<path d="M14.8305 117.526C15.8344 125.721 20.317 130.985 28.2783 133.32C31.3368 134.207 34.5586 134.534 37.9439 134.301C41.0257 134.09 43.5589 133.483 45.5434 132.479L48.0999 141.094C46.2788 142.869 43.8274 144.258 40.7456 145.262C34.582 147.27 28.3834 146.394 22.1497 142.635C19.138 140.814 16.9784 136.192 15.671 128.767C15.2507 126.269 14.9706 123.736 14.8305 121.168C14.7137 119.02 14.7137 117.806 14.8305 117.526Z" fill="#68A198"/>
<path d="M89.8092 60.4425C90.7197 60.279 91.6886 60.4308 92.7159 60.8977C89.1905 63.606 87.3461 67.7617 87.1827 73.365C87.0192 78.478 88.1866 83.2758 90.6847 87.7584C85.7818 87.2214 82.3265 86.1008 80.3187 84.3964C79.735 83.8828 79.4898 82.447 79.5832 80.0889C79.6766 77.6375 80.1085 75.0693 80.879 72.3844C82.8868 65.2403 85.8636 61.2596 89.8092 60.4425Z" fill="white"/>
<path d="M101.926 73.7852C103.024 76.7269 103.701 79.3768 103.957 81.7349C104.238 84.2563 103.957 85.9373 103.117 86.7778C102.557 87.3381 101.051 87.7233 98.5993 87.9335C96.1012 88.1202 93.463 88.0619 90.6847 87.7584C88.1866 83.2758 87.0192 78.478 87.1827 73.365C87.3461 67.7617 89.1905 63.606 92.7159 60.8977C96.1946 62.5086 99.2647 66.8045 101.926 73.7852Z" fill="#D60040"/>
<path d="M142.935 58.6913C145.853 61.0727 147.593 64.6331 148.153 69.3725C148.503 72.3376 148.363 76.505 147.733 81.8748C146.706 82.2717 145.713 82.5402 144.756 82.6803C143.776 82.8437 143.04 82.8437 142.55 82.6803C141.172 82.2367 140.484 78.7113 140.484 72.1041C140.46 65.3568 141.277 60.8859 142.935 58.6913Z" fill="#D60040"/>
<path d="M142.935 58.6916C143.355 58.1079 143.799 57.7693 144.266 57.676C146.53 57.1857 148.725 59.9523 150.85 65.9758C152.928 71.9526 153.336 76.2251 152.075 78.7933C151.492 80.0073 150.044 81.0346 147.733 81.8751C148.363 76.5053 148.503 72.3378 148.153 69.3728C147.593 64.6333 145.853 61.0729 142.935 58.6916Z" fill="white"/>
<path d="M122.378 55.1192C121.701 55.3761 119.938 54.664 117.09 52.983C114.102 51.2553 112.666 49.8428 112.783 48.7455C112.946 47.298 115.362 45.3019 120.032 42.757C124.771 40.1889 127.923 39.2433 129.487 39.9204C130.491 40.3406 129.966 42.8154 127.911 47.3447C125.834 51.8974 123.989 54.4889 122.378 55.1192Z" fill="#006359"/>
<path d="M106.794 58.1308C106.724 57.8273 107.074 57.2553 107.845 56.4148C108.638 55.551 109.351 55.0373 109.981 54.8739L110.751 55.9595C111.405 57.0568 112.059 58.5977 112.712 60.5822L112.257 61.6679C111.814 62.4617 111.265 63.0103 110.611 63.3138L108.93 61.7029C107.763 60.4188 107.051 59.2281 106.794 58.1308Z" fill="#006359"/>
<path d="M133.865 65.7654C134.589 69.8978 134.647 72.2091 134.04 72.6994C133.503 73.143 131.869 72.9679 129.137 72.1741C126.382 71.3803 124.818 70.6099 124.444 69.8627C124.561 68.1351 125.448 65.9755 127.106 63.384C128.81 60.7925 130.188 59.4967 131.238 59.4967C132.266 59.4967 133.141 61.5863 133.865 65.7654Z" fill="#006359"/>
<path d="M135.966 126.666C135.873 125.336 136.69 123.433 138.417 120.958C140.098 118.53 141.312 117.363 142.06 117.456C143.18 117.573 143.951 119.919 144.371 124.495C144.768 129.095 144.406 131.581 143.285 131.955C142.048 132.375 140.565 132.141 138.838 131.254C136.853 130.204 135.896 128.674 135.966 126.666Z" fill="#006359"/>
<path d="M24.9513 106.985L30.7297 107.23C33.3212 107.743 34.8154 108.315 35.2123 108.946C35.866 109.996 35.4341 112.214 33.9165 115.6C32.4223 118.962 31.1616 120.689 30.1343 120.783C29.2472 120.853 27.4494 119.966 24.7412 118.121C22.0096 116.277 20.6555 114.993 20.6788 114.269C20.7022 113.335 21.1574 112.004 22.0446 110.277C23.0252 108.339 23.9941 107.241 24.9513 106.985Z" fill="#006359"/>
<path d="M58.2558 76.972C58.8628 78.0226 57.8823 80.941 55.3141 85.7271C52.7459 90.5132 50.7731 93.0581 49.3957 93.3616C48.1349 93.6651 46.0804 93.1164 43.2321 91.7156C40.5472 90.4315 38.7611 89.2525 37.8739 88.1785C37.5938 87.8283 37.7805 86.8011 38.4343 85.0967L39.4849 82.6103L44.1776 78.8981C47.3528 76.4 49.1272 75.1043 49.5007 75.0109L53.8783 75.3961C56.4464 75.8397 57.9056 76.365 58.2558 76.972Z" fill="#006359"/>
<path d="M93.8015 64.4352C94.5486 64.4352 95.2023 65.1706 95.7626 66.6415C96.3229 68.2057 96.5914 70.1552 96.5681 72.4899C96.5214 74.7078 96.2179 76.4589 95.6575 77.7429C95.1439 78.9103 94.5135 79.494 93.7664 79.494C93.066 79.494 92.459 78.8636 91.9454 77.6029C91.3851 76.2721 91.0815 74.5911 91.0349 72.5599C90.9415 70.1085 91.1983 68.1123 91.8053 66.5714C92.3423 65.1473 93.0077 64.4352 93.8015 64.4352Z" fill="white"/>
<path d="M141.289 65.2056L141.99 62.0537C142.27 61.6802 142.538 61.5051 142.795 61.5284C143.215 61.5518 143.612 62.007 143.986 62.8942C144.523 64.0849 144.815 65.7659 144.861 67.9372C144.885 69.9917 144.698 71.591 144.301 72.735C143.927 73.7622 143.46 74.2759 142.9 74.2759C142.55 74.2759 142.2 74.019 141.849 73.5054C141.476 72.9451 141.219 72.2097 141.079 71.2991C140.799 69.6882 140.869 67.657 141.289 65.2056Z" fill="white"/>
<path d="M126.37 35.5082C119.973 34.2708 113.495 33.7922 106.934 34.0724C99.8834 34.3525 93.4046 35.4965 87.4978 37.5044C87.2877 37.5744 86.9958 37.3409 86.6223 36.8039C86.2254 36.267 86.132 35.9518 86.3421 35.8584C93.0427 33.5937 100.304 32.3797 108.125 32.2163C114.989 32.0528 121.257 32.6949 126.931 34.1424C129.826 34.8895 131.203 35.4382 131.063 35.7884L126.37 35.5082Z" fill="#0D131A"/>
<path d="M145.281 45.2784C150.021 52.1424 153.476 60.1037 155.648 69.1623C157.539 77.0536 158.006 83.1588 157.048 87.478C155.998 92.2641 150.768 97.167 141.359 102.187C132.02 107.183 122.997 109.949 114.288 110.486C104.973 111.047 96.2062 110.276 87.9881 108.175C79.77 106.074 74.4702 103.237 72.0888 99.6651C71.3184 98.4977 71.0732 97.7857 71.3534 97.5288C71.6569 97.272 72.3456 97.7273 73.4196 98.8946C76.5714 102.35 82.1864 104.988 90.2644 106.809C97.9456 108.537 105.965 109.144 114.323 108.63C123.055 108.093 131.869 105.35 140.764 100.401C149.309 95.6377 154.048 91.1318 154.982 86.8826C155.963 82.4701 155.554 76.5166 153.756 69.0222C151.749 60.6407 148.538 53.0996 144.126 46.399C142.305 43.6208 141.593 42.0799 141.99 41.7763C142.363 41.4728 143.46 42.6402 145.281 45.2784Z" fill="#0D131A"/>
<path d="M64.1392 61.3176C62.5983 64.2126 59.4815 67.6563 54.7887 71.6486C51.9871 74.0067 47.271 77.7422 40.6405 82.8552C34.5936 87.6646 29.9243 91.9021 26.6323 95.5676C22.103 100.611 19.0913 105.572 17.5971 110.451C15.7994 116.311 15.706 122.895 17.3169 130.203C18.8111 137.09 20.9357 141.339 23.6906 142.95C26.6557 144.678 30.648 145.437 35.6676 145.227C40.8506 145.016 44.4344 143.802 46.4189 141.584C49.4773 138.152 50.668 132.596 49.991 124.915C49.2905 117.07 46.9092 110.813 42.8468 106.144C41.2592 104.299 40.5821 103.179 40.8156 102.782C41.0491 102.385 42.0413 103.12 43.7923 104.988C48.9053 110.475 51.7536 117.187 52.3373 125.125C52.8743 132.666 51.2984 138.503 47.6096 142.635C45.3916 145.133 41.3993 146.534 35.6326 146.837C30.0527 147.141 25.6284 146.336 22.3598 144.421C19.0446 142.483 16.6165 137.907 15.0756 130.693C13.5114 123.269 13.6631 116.405 15.5309 110.101C16.955 105.338 19.7683 100.564 23.9708 95.7777C27.0292 92.2757 31.4535 88.1783 37.2435 83.4855L51.6019 71.8588C56.7849 67.3995 60.6488 63.3021 63.1936 59.5666C63.3104 59.4032 63.5205 59.6016 63.824 60.1619C64.1509 60.7456 64.2559 61.1308 64.1392 61.3176Z" fill="#0D131A"/>
<path d="M72.7192 30.3952C74.1667 29.9283 76.6064 30.3952 80.0385 31.796C83.4938 33.2202 86.3305 34.9595 88.5484 37.0141C90.2994 38.6483 90.9765 39.5705 90.5796 39.7807C90.206 40.0141 89.1321 39.4421 87.3577 38.0647C85.0697 36.337 82.4198 34.8778 79.4081 33.6871C76.4664 32.4964 74.4936 32.0762 73.4896 32.4264C71.8553 32.9634 69.9642 37.1074 67.8163 44.8586C65.5517 53.0534 64.0808 61.6451 63.4038 70.6337C63.217 73.2252 62.8901 74.4159 62.4232 74.2057C61.9329 73.9956 61.7344 72.7699 61.8278 70.5286C62.1313 62.7541 63.2987 54.6176 65.3299 46.1194C67.6412 36.5004 70.1043 31.259 72.7192 30.3952Z" fill="#0D131A"/>
<path d="M120.732 33.4066C122.763 31.8657 125.88 30.3949 130.083 28.9941C134.822 27.4065 138.114 27.0329 139.958 27.8734C141.779 28.6906 143.437 31.4338 144.931 36.1032C146.309 40.4457 147.079 44.8116 147.243 49.2009C147.243 49.411 146.951 49.1892 146.367 48.5355C145.76 47.8817 145.457 47.4382 145.457 47.2047C145.316 43.656 144.499 39.9204 143.005 35.9982C141.581 32.2626 140.262 30.1147 139.048 29.5544C137.904 29.0408 135.289 29.3676 131.203 30.535C127.071 31.7023 124.129 32.9514 122.378 34.2822C122.215 34.4222 121.853 34.3522 121.292 34.072C120.755 33.7685 120.569 33.5467 120.732 33.4066Z" fill="#0D131A"/>
<path d="M122.028 54.1392C123.172 54.1158 124.771 51.9329 126.826 47.5904C128.857 43.3179 129.616 41.0532 129.102 40.7964C127.958 40.2127 125.121 41.0649 120.592 43.3529C116.039 45.6409 113.751 47.4036 113.728 48.641C113.705 49.4114 114.709 50.4971 116.74 51.8979C118.818 53.2987 120.58 54.0458 122.028 54.1392ZM119.226 42.4074C124.199 39.7225 127.748 38.5785 129.873 38.9754C130.596 39.1154 130.806 40.0727 130.503 41.847C130.223 43.4813 129.592 45.3958 128.612 47.5904C126.16 53.0536 123.966 55.7385 122.028 55.6451C120.487 55.5517 118.433 54.6645 115.864 52.9835C113.179 51.2325 111.837 49.75 111.837 48.5359C111.837 47.1118 114.3 45.0689 119.226 42.4074Z" fill="#0D131A"/>
<path d="M112.012 60.7926C112.082 60.6058 111.825 59.742 111.242 58.2011C110.658 56.6368 110.238 55.843 109.981 55.8197C109.771 55.7964 109.304 56.1115 108.58 56.7653C107.856 57.419 107.495 57.9093 107.495 58.2361C107.518 58.5396 108.008 59.3334 108.965 60.6175C109.923 61.8549 110.483 62.4736 110.646 62.4736C110.786 62.4736 111.032 62.2401 111.382 61.7732L112.012 60.7926ZM112.082 57.1155C112.806 58.8431 113.18 60.0222 113.203 60.6525C113.226 61.1662 112.853 61.8666 112.082 62.7537C111.288 63.6643 110.693 64.0262 110.296 63.8394C109.829 63.6293 109.024 62.7654 107.88 61.2479C106.642 59.6369 106.07 58.5279 106.164 57.9209C106.257 57.2906 106.806 56.4968 107.81 55.5395C108.814 54.629 109.572 54.1854 110.086 54.2088C110.623 54.2555 111.288 55.2244 112.082 57.1155Z" fill="#0D131A"/>
<path d="M130.993 60.5125C130.269 60.4658 129.079 61.8316 127.421 64.6099C125.81 67.3648 125.098 69.0108 125.285 69.5478C125.472 70.038 126.791 70.6334 129.242 71.3338C131.717 72.0342 133.129 72.221 133.48 71.8941C134.017 71.3805 133.912 69.361 133.164 65.8356C132.417 62.3336 131.694 60.5592 130.993 60.5125ZM126.23 63.4542C128.262 59.9522 129.861 58.2595 131.028 58.3763C132.499 58.5163 133.678 60.9444 134.565 65.6605C135.429 70.3532 135.359 72.9447 134.355 73.435C133.491 73.8786 131.589 73.6101 128.647 72.6296C125.752 71.6723 124.164 70.8552 123.884 70.1781C123.44 69.1742 124.223 66.9329 126.23 63.4542Z" fill="#0D131A"/>
<path d="M81.7195 67.4817C84.4511 61.9485 87.3811 59.357 90.5096 59.7072C94.9222 60.2208 98.7161 63.9446 101.891 70.8787C103.222 73.8204 104.098 76.7271 104.518 79.5988C104.961 82.5872 104.81 84.9686 104.063 86.7429C103.666 87.7235 102.171 88.3772 99.5799 88.7041C97.1985 88.9842 94.4319 88.9609 91.2801 88.634C88.1049 88.3072 85.3966 87.7352 83.1553 86.918C80.6805 86.0542 79.3381 85.062 79.128 83.9413C78.0774 78.6182 78.9412 73.1317 81.7195 67.4817ZM98.1791 67.972C95.7276 63.8162 93.1128 61.5866 90.3345 61.2831C89.2372 61.1664 88.0465 61.7734 86.7624 63.1042C84.8246 65.112 83.2604 68.007 82.0697 71.7892C80.809 75.8983 80.4354 79.8322 80.949 83.5911C81.1358 85.0386 84.6262 86.1359 91.4201 86.883C98.2141 87.6535 101.903 87.3616 102.487 86.0075C103.094 84.5366 102.989 81.9685 102.171 78.303C101.308 74.4741 99.9768 71.0304 98.1791 67.972Z" fill="#0D131A"/>
<path d="M149.764 65.1701C148.013 60.8276 146.25 58.6564 144.476 58.6564C142.912 58.6564 141.955 62.3568 141.604 69.7578C141.254 77.1121 141.698 81.1511 142.935 81.8749C143.752 82.3418 145.293 82.085 147.558 81.1044C149.822 80.1239 151.048 79.2017 151.235 78.3378C152.146 74.2054 151.655 69.8162 149.764 65.1701ZM139.958 69.1625C140.355 61.0844 141.861 57.0454 144.476 57.0454C146.741 57.0454 148.935 59.4618 151.06 64.2946C153.278 69.3843 153.897 74.1354 152.916 78.5479C152.566 80.0421 150.838 81.3729 147.733 82.5403C144.721 83.6843 142.807 83.9061 141.99 83.2057C141.219 82.5753 140.647 80.8476 140.274 78.0226C139.9 75.3144 139.795 72.361 139.958 69.1625Z" fill="#0D131A"/>
<path d="M49.1154 74.3453L55.244 74.7306C57.6254 75.1508 58.9912 75.6995 59.3414 76.3765C59.9718 77.6606 58.8278 80.9525 55.9094 86.2523C52.991 91.5987 50.7614 94.2719 49.2205 94.2719C47.7496 94.2719 45.3449 93.5365 42.0063 92.0657C38.4809 90.5248 36.7182 89.264 36.7182 88.2835C36.7182 87.7231 36.975 86.8826 37.4887 85.762L39.1696 82.4701C39.2864 82.2833 39.6015 82.1666 40.1152 82.1199C40.6522 82.0965 40.8623 82.1782 40.7455 82.365C40.1152 83.5324 39.6132 84.6647 39.2397 85.762C38.9128 86.7192 38.7494 87.408 38.7494 87.8282C38.8428 88.4586 40.3487 89.4275 43.267 90.7349C46.1153 92.019 48.0882 92.6727 49.1855 92.696C50.2127 92.3692 51.8937 89.9878 54.2284 85.5519C56.5631 81.116 57.567 78.4077 57.2402 77.4271C57.0534 77.0302 56.0495 76.6567 54.2284 76.3065L48.8002 75.9213C48.5668 75.9446 48.5084 75.6878 48.6251 75.1508C48.7419 74.6372 48.9053 74.3687 49.1154 74.3453Z" fill="#0D131A"/>
<path d="M25.2665 107.615C24.5427 107.965 23.7139 108.934 22.7801 110.521C21.8462 112.086 21.4143 113.171 21.4843 113.778C21.5777 114.409 22.8151 115.564 25.1965 117.245C27.5778 118.926 29.1187 119.72 29.8192 119.627C30.5196 119.533 31.6052 117.922 33.0761 114.794C34.5469 111.665 35.0956 109.903 34.722 109.506C34.3018 109.085 32.7725 108.595 30.1343 108.035C27.4494 107.475 25.8268 107.334 25.2665 107.615ZM21.3792 109.611C22.4765 107.79 23.5155 106.622 24.4961 106.109L30.5546 106.389C33.9165 107.019 35.8777 107.778 36.438 108.665C36.9516 109.482 36.368 111.77 34.687 115.529C33.006 119.265 31.6285 121.331 30.5546 121.728C29.7374 122.055 27.8113 121.156 24.7762 119.031C21.6944 116.883 20.0718 115.202 19.9084 113.988C19.7916 112.938 20.2819 111.479 21.3792 109.611Z" fill="#0D131A"/>
<path d="M136.737 126.596V126.631C136.783 128.569 137.729 129.981 139.573 130.868C141.231 131.662 142.351 131.791 142.935 131.254C143.542 130.693 143.752 128.569 143.566 124.88C143.379 121.121 142.83 119.032 141.92 118.611C141.429 118.401 140.437 119.452 138.943 121.763C137.472 124.074 136.737 125.685 136.737 126.596ZM137.752 120.572C139.55 117.701 140.939 116.277 141.92 116.3C143.507 116.323 144.499 118.856 144.896 123.899C145.293 128.849 144.966 131.709 143.916 132.479C143.052 133.133 141.476 133.016 139.188 132.129C136.573 131.102 135.231 129.386 135.161 126.981C135.137 125.534 136.001 123.397 137.752 120.572Z" fill="#0D131A"/>
<path d="M153.126 85.8325C153.103 86.743 152.974 87.4902 152.741 88.0738L152.04 89.2295C150.896 90.5836 148.165 92.2879 143.846 94.3425C139.386 96.467 135.522 97.8562 132.254 98.5099C126.3 99.7239 117.16 99.829 104.833 98.8251C92.5057 97.8445 84.7195 96.3737 81.4743 94.4125C80.9373 94.0623 80.447 93.4903 80.0034 92.6965C79.6065 92.0195 79.3147 91.2724 79.1279 90.4552C78.7777 88.9844 78.7544 88.1555 79.0579 87.9688C79.3614 87.782 79.84 88.459 80.4937 89.9999C80.8906 90.9105 81.3108 91.6109 81.7544 92.1012L83.1553 93.1518C85.7701 94.5759 92.7625 95.8367 104.132 96.934C116.436 98.1247 125.705 98.0897 131.939 96.8289C134.74 96.2453 138.067 95.1129 141.92 93.4319C145.492 91.8677 148.165 90.4435 149.939 89.1595C150.593 88.6692 151.072 88.1672 151.375 87.6536C151.702 87.1166 151.912 86.4629 152.005 85.6924C152.169 84.2916 152.402 83.6379 152.706 83.7313C153.009 83.848 153.149 84.5484 153.126 85.8325Z" fill="#0D131A"/>
<path d="M100.035 57.0804C100.852 57.8275 101.646 58.738 102.417 59.812C103.234 60.9326 103.817 61.9482 104.168 62.8588C104.681 64.1662 104.705 64.9016 104.238 65.065C103.747 65.2051 103.199 64.6915 102.592 63.5241C101.588 61.5396 100.362 59.7419 98.9145 58.131C97.5604 56.5668 97.0234 55.6562 97.3035 55.3994C97.6071 55.1426 98.5176 55.7029 100.035 57.0804Z" fill="#0D131A"/>
<path d="M139.503 57.326C139.06 58.6101 138.779 59.9876 138.663 61.4584C138.569 62.7425 138.277 63.3729 137.787 63.3495C137.297 63.3495 137.087 62.7191 137.157 61.4584C137.227 59.9175 137.624 58.4 138.347 56.9058C139.001 55.575 139.48 54.9446 139.783 55.0147C140.063 55.108 139.97 55.8785 139.503 57.326Z" fill="#0D131A"/>
<path d="M124.129 94.0269C123.616 93.7701 123.207 93.4432 122.903 93.0463C122.6 92.6728 122.495 92.4043 122.588 92.2408L123.674 92.2759C124.351 92.4159 124.853 92.6377 125.18 92.9413C125.6 93.3615 125.682 93.7234 125.425 94.0269C125.168 94.3304 124.736 94.3304 124.129 94.0269Z" fill="#0D131A"/>
<path d="M136.071 92.2758C135.581 92.8828 135.137 93.0929 134.74 92.9061C134.343 92.7194 134.32 92.3341 134.67 91.7505C134.927 91.3302 135.336 90.9567 135.896 90.6298C136.41 90.303 136.736 90.1979 136.877 90.3146C136.97 90.408 136.947 90.6532 136.806 91.0501L136.071 92.2758Z" fill="#0D131A"/>
<path d="M93.9767 61.0731C94.1868 61.1432 94.2802 61.4817 94.2568 62.0887C94.2335 62.6957 94.1284 62.9409 93.9416 62.8241C92.7509 62.077 91.6303 62.649 90.5797 64.5401C89.5991 66.2678 88.922 68.6609 88.5485 71.7193C88.1516 74.8712 88.1983 77.8129 88.6886 80.5445C89.2722 83.6496 90.3579 85.8676 91.9455 87.1983C92.1322 87.3384 92.0155 87.5485 91.5953 87.8287C91.175 88.0855 90.8715 88.1439 90.6847 88.0038C88.7703 86.5796 87.4512 84.2216 86.7274 80.9297C86.0971 77.9646 86.027 74.7894 86.5173 71.4041C87.0076 68.0655 87.9065 65.404 89.2139 63.4195C90.638 61.2949 92.2256 60.5128 93.9767 61.0731Z" fill="#0D131A"/>
<path d="M142.34 58.9713C143.157 58.341 144.102 58.6095 145.176 59.7768C146.25 60.9208 147.173 62.6251 147.943 64.8898C149.857 70.5631 149.939 76.143 148.188 81.6295C148.118 81.8397 147.85 81.9914 147.383 82.0848C146.916 82.1548 146.706 82.0848 146.752 81.8747C148.177 77.4388 148.223 72.4075 146.892 66.7809C146.355 64.5162 145.69 62.7302 144.896 61.4228C144.102 60.092 143.379 59.6017 142.725 59.9519C142.538 60.0686 142.386 59.9636 142.27 59.6367C142.153 59.3332 142.176 59.1114 142.34 58.9713Z" fill="#0D131A"/>
<path d="M139.748 102.467C139.632 102.28 139.877 102 140.484 101.627C141.067 101.23 141.406 101.125 141.499 101.311C148.13 112.028 151.083 124.53 150.359 138.818C150.289 140.149 149.274 141.526 147.313 142.951C145.445 144.305 143.134 145.437 140.379 146.348C133.701 148.542 128.682 148.46 125.32 146.102C123.102 144.538 120.802 141.55 118.421 137.137C116.133 132.911 114.966 129.701 114.919 127.507C114.919 127.296 115.246 127.063 115.899 126.806L116.845 126.701C116.892 128.872 117.977 131.943 120.102 135.912C122.367 140.137 124.643 143.056 126.931 144.667C129.849 146.698 134.25 146.756 140.134 144.842C142.515 144.071 144.523 143.114 146.157 141.97C147.861 140.803 148.737 139.729 148.784 138.748C149.461 125.394 146.449 113.3 139.748 102.467Z" fill="#0D131A"/>
<path d="M120.172 124.67C114.125 129.409 106.911 132.619 98.5293 134.3C90.7548 135.841 83.8091 135.76 77.6922 134.055C77.482 133.985 77.447 133.623 77.5871 132.97C77.7038 132.339 77.8673 132.047 78.0774 132.094C84.0775 133.775 90.7898 133.88 98.2141 132.409C105.755 130.915 112.596 128.078 118.736 123.899C121.071 122.312 122.367 121.681 122.623 122.008C122.857 122.312 122.04 123.199 120.172 124.67Z" fill="#0D131A"/>
<path d="M103.817 131.744C103.934 131.557 104.471 131.394 105.428 131.254L106.689 131.359C104.868 134.347 102.615 136.95 99.9301 139.168C96.8483 141.713 93.8249 143.172 90.8598 143.546L80.3537 143.231C77.5987 142.554 75.9761 141.526 75.4858 140.149C75.4158 139.939 75.5909 139.589 76.0111 139.098C76.408 138.585 76.6415 138.433 76.7115 138.643C77.1785 139.95 78.6143 140.931 81.0191 141.585C83.6339 142.308 86.8441 142.437 90.6497 141.97C92.8676 141.69 95.214 140.581 97.6888 138.643C100.14 136.729 102.183 134.429 103.817 131.744Z" fill="#0D131A"/>
<path d="M22.3248 17.0523C22.5116 16.9122 22.9668 16.9122 23.6906 17.0523C24.8112 17.2624 25.7918 17.7644 26.6323 18.5582C26.8191 18.6983 26.8308 18.9201 26.6673 19.2236C26.5272 19.5038 26.3638 19.5738 26.177 19.4337C25.6868 19.0135 25.2081 18.7333 24.7412 18.5932L24.0758 18.5582L24.2159 19.6789L24.426 21.7801C24.4961 24.9553 23.4571 29.111 21.3092 34.2474C19.6282 38.3331 17.4686 42.5589 14.8304 46.9247C6.51891 60.7228 4.68618 72.6297 9.33222 82.6456C11.0832 86.4278 13.593 89.5212 16.8616 91.926C19.7566 94.0272 22.5349 95.1712 25.1965 95.358C25.4066 95.3813 25.3716 95.6498 25.0914 96.1634C24.8346 96.7004 24.5894 96.9572 24.356 96.9339C21.2508 96.7238 18.1457 95.4981 15.0405 93.2567C11.5852 90.7353 8.95867 87.4667 7.16095 83.451C2.49156 73.0383 4.51108 60.6294 13.2195 46.2243C17.3285 39.407 20.1185 33.8038 21.5894 29.4145C23.1536 24.7685 23.4104 20.998 22.3598 18.1029C22.1497 17.566 22.138 17.2158 22.3248 17.0523Z" fill="#0D131A"/>
<path d="M40.4654 15.8263C40.6288 15.9897 40.6288 16.2465 40.4654 16.5968C40.3019 16.9703 40.1385 17.0754 39.9751 16.9119C38.2241 15.0909 35.9477 13.6317 33.1461 12.5344C30.5079 11.5305 28.1382 11.0869 26.037 11.2036C25.0564 11.2736 24.5311 11.4021 24.461 11.5888C24.391 11.7523 24.6245 12.2542 25.1615 13.0947C27.7063 17.1104 27.7763 23.0405 25.3716 30.8851C24.0641 35.0875 22.0213 40.3172 19.243 46.5742C15.1339 57.3839 14.8071 67.0261 18.2624 75.5011C19.6866 79.0031 21.6594 81.9682 24.1809 84.3963C26.5156 86.6609 29.037 88.1902 31.7453 88.9839C31.9321 89.0306 31.792 89.2641 31.325 89.6844C30.8581 90.0813 30.5196 90.2564 30.3095 90.2097C23.1419 88.1084 18.2274 82.762 15.5659 74.1703C12.7876 65.2751 13.4646 55.7963 17.597 45.7337L20.6788 38.7647C22.1497 35.356 23.2587 32.3793 24.0058 29.8345C26.2938 22.1767 26.0253 16.5384 23.2003 12.9196C22.2431 11.6822 21.7995 10.8884 21.8695 10.5382C21.9396 10.1413 22.64 9.86116 23.9708 9.69773C26.4689 9.37087 29.2705 9.7561 32.3757 10.8534C35.6676 12.0208 38.3642 13.6784 40.4654 15.8263Z" fill="#0D131A"/>
<path d="M38.0139 9.06769L39.3097 10.1183C39.4498 10.2817 39.4148 10.6203 39.2046 11.1339C38.9945 11.6242 38.8194 11.7876 38.6793 11.6242L37.9439 10.7487C37.5237 10.3284 37.2085 10.165 36.9984 10.2584C36.8116 10.3518 36.7415 10.6553 36.7882 11.1689L37.1034 13.1651C37.1501 13.3519 36.9633 13.4452 36.5431 13.4452C36.1228 13.4219 35.901 13.3052 35.8777 13.095L35.5275 10.9238C35.4341 9.73308 35.6209 8.95096 36.0878 8.5774C36.4847 8.27389 37.1268 8.43732 38.0139 9.06769Z" fill="#0D131A"/>
<path d="M91.7353 18.9433C96.7549 22.9824 99.3931 27.8619 99.6499 33.5819C99.6732 33.8153 99.3697 33.9904 98.7394 34.1072C98.109 34.2473 97.7938 34.2006 97.7938 33.9671C97.5603 28.7374 95.2023 24.2197 90.7197 20.4142C85.3265 15.8382 77.7855 13.3751 68.0965 13.0249C59.8083 12.7214 53.8782 11.7992 50.3061 10.2583C47.4111 9.02089 45.3215 6.93133 44.0375 3.98962C43.7573 3.35925 43.5238 3.02072 43.3371 2.97403C43.1269 2.90399 42.7884 3.13746 42.3215 3.67444C40.7572 5.40211 39.835 7.51501 39.5548 10.0131C39.2747 12.5813 39.8117 14.5775 41.1658 16.0016C43.8974 18.8033 46.057 22.1068 47.6446 25.9124C48.6251 28.2704 49.8158 32.2044 51.2166 37.7143C52.921 44.4149 54.8004 49.3994 56.8549 52.668C58.5126 55.3062 60.9406 57.6876 64.1392 59.8122C64.2793 59.8822 64.1859 60.2207 63.859 60.8278C63.5555 61.4114 63.3104 61.6449 63.1236 61.5282C59.0145 58.8199 56.0611 55.9482 54.2634 52.9131C52.6058 50.1115 51.0065 45.5588 49.4656 39.2552C47.808 32.4145 46.5706 27.9669 45.7535 25.9124C44.4927 22.6672 42.59 19.7255 40.0451 17.0873C38.2241 15.1962 37.6404 12.4062 38.2941 8.71737C38.9245 5.23868 40.1969 2.75223 42.1113 1.25803C42.9752 0.580965 43.5822 0.277455 43.9324 0.347496C44.2826 0.417537 44.6211 0.907823 44.948 1.81835C46.3488 5.46048 48.3566 7.86521 50.9715 9.03256C53.9132 10.3166 59.6332 11.1221 68.1315 11.449C78.124 11.7992 85.9919 14.2973 91.7353 18.9433Z" fill="#0D131A"/>
<path d="M101.961 20.6943C106.421 24.5232 108.347 28.6672 107.74 33.1265C107.716 33.3366 107.366 33.43 106.689 33.4067C106.012 33.3833 105.685 33.2666 105.708 33.0565C106.222 29.2276 104.705 25.6321 101.156 22.2702C97.0701 18.4179 91.3851 16.2233 84.1008 15.6864C83.8674 15.663 83.1903 15.3828 82.0697 14.8459C80.9257 14.2855 80.4587 14.0054 80.6688 14.0054C89.6808 14.0054 96.7782 16.235 101.961 20.6943Z" fill="#0D131A"/>
<path d="M46.664 110.942C47.9248 106.016 49.6875 102.327 51.9521 99.8756L77.9022 107.44C80.1669 116.078 80.3887 124.308 78.5676 132.129C77.4703 136.775 75.7543 140.92 73.4196 144.562C72.1589 146.546 69.5907 147.854 65.7151 148.484C61.6294 149.161 57.6955 148.752 53.9133 147.258C51.1583 146.184 48.9987 143.558 47.4345 139.379C45.987 135.573 45.2049 131.009 45.0881 125.686C44.9714 120.479 45.4967 115.565 46.664 110.942Z" fill="#7CBEB3"/>
<path d="M52.2322 120.572C52.3723 119.148 54.0883 117.222 57.3802 114.794C60.6722 112.366 62.7617 111.49 63.6489 112.167C64.5594 112.845 64.7345 116.533 64.1742 123.234C63.6139 129.935 62.7617 133.331 61.6177 133.425C60.9406 133.472 59.1896 131.604 56.3646 127.822C53.5163 123.993 52.1388 121.576 52.2322 120.572Z" fill="#006359"/>
<path d="M45.9987 112.413C46.1154 122.429 48.3684 130.775 52.7576 137.452C56.9601 143.92 62.2131 147.48 68.5168 148.134C65.9486 148.787 63.1703 148.997 60.1819 148.764C54.2051 148.297 50.1778 145.822 48.0999 141.34C46.022 136.88 45.0531 130.717 45.1932 122.849L45.9987 112.413Z" fill="#68A198"/>
<path d="M50.4463 103.728C47.4112 108.934 46.0337 116.393 46.3138 126.106C46.6174 136.215 48.7419 142.717 52.6876 145.612C55.3725 147.573 58.9679 148.355 63.4738 147.959C67.8164 147.562 70.6881 146.371 72.0889 144.386C75.2641 139.88 77.3419 134.441 78.3225 128.067C79.2097 122.324 79.0929 116.86 77.9723 111.677C77.412 109.086 77.3419 107.697 77.7622 107.51C78.1824 107.323 78.7427 108.491 79.4432 111.012C80.8907 116.265 81.1825 121.95 80.3187 128.067C79.3848 134.721 77.2485 140.429 73.9099 145.192C72.1823 147.643 68.6102 149.079 63.1937 149.499C57.8939 149.896 53.9016 149.114 51.2167 147.153C49.2789 145.729 47.6796 143.207 46.4189 139.589C45.2049 136.133 44.4694 132.164 44.2126 127.682C43.5823 117.502 45.1932 109.273 49.0454 102.992C50.3996 100.774 51.3334 99.7121 51.8471 99.8055C52.3841 99.8755 51.9171 101.183 50.4463 103.728Z" fill="#0D131A"/>
<path d="M53.0727 120.222C53.026 121.039 54.2284 123.327 56.6798 127.086C59.178 130.915 60.7772 132.783 61.4776 132.689C62.2481 132.573 62.8784 129.409 63.3687 123.199C63.859 116.965 63.7423 113.592 63.0185 113.078C62.3415 112.611 60.5204 113.487 57.5553 115.705C54.6136 117.923 53.1194 119.428 53.0727 120.222ZM51.4618 119.872C51.5318 118.168 53.4813 116.02 57.3102 113.428C61.0691 110.907 63.322 109.996 64.0691 110.697C65.3065 111.887 65.6567 115.938 65.1198 122.849C64.5594 129.759 63.5672 133.623 62.143 134.44C61.1624 135.024 59.1196 133.18 56.0144 128.907C52.9093 124.658 51.3917 121.646 51.4618 119.872Z" fill="#0D131A"/>
<path d="M25.0564 144.631C24.9397 144.281 25.3832 143.686 26.3872 142.845C27.4144 142.005 28.1849 141.62 28.6985 141.69C29.6324 141.806 30.2744 142.822 30.6246 144.736C30.9515 146.511 30.9748 147.526 30.6947 147.783C30.3678 148.087 29.4573 147.9 27.9631 147.223C26.3521 146.499 25.3832 145.635 25.0564 144.631Z" fill="white"/>
<path d="M35.4925 147.258C33.8582 146.511 33.0411 145.764 33.0411 145.017C33.0411 144.363 33.5197 143.569 34.4769 142.635C35.4108 141.701 36.1229 141.351 36.6132 141.585C37.3836 141.958 38.014 143.055 38.5043 144.876C38.9712 146.628 38.9945 147.643 38.5743 147.923C38.1307 148.227 37.1034 148.005 35.4925 147.258Z" fill="white"/>
<path d="M40.9906 145.122C40.8272 143.908 41.2708 142.787 42.3214 141.76L43.9674 140.569C44.8312 140.943 45.5083 142.063 45.9986 143.931C46.4422 145.612 46.5472 146.593 46.3137 146.873L43.5471 146.803C41.9128 146.406 41.0607 145.846 40.9906 145.122Z" fill="white"/>
<path d="M54.7537 148.064C54.707 147.457 54.9172 146.803 55.3841 146.102C55.9444 145.262 56.6565 144.853 57.5204 144.877C58.3842 144.9 59.0496 145.227 59.5165 145.857C59.8901 146.441 60.0535 147.153 60.0068 147.994C59.9601 148.764 59.6916 149.628 59.2013 150.585C58.7344 151.542 58.3608 152.021 58.0807 152.021C57.7772 152.021 57.1701 151.519 56.2596 150.515C55.3024 149.464 54.8004 148.647 54.7537 148.064Z" fill="white"/>
<path d="M61.7228 148.834C61.6528 147.69 61.9679 146.744 62.6684 145.997C63.2287 145.367 63.789 145.052 64.3493 145.052C64.7696 145.052 65.2599 145.367 65.8202 145.997C66.3805 146.651 66.7307 147.305 66.8708 147.958C66.9642 148.379 66.8591 149.102 66.5556 150.13C66.2521 151.227 65.8902 151.881 65.47 152.091C65.0497 152.324 64.3493 152.067 63.3688 151.32C62.3182 150.55 61.7695 149.721 61.7228 148.834Z" fill="white"/>
<path d="M68.6218 148.624C67.9681 147.923 68.0264 146.861 68.7969 145.437C69.5673 144.013 70.3261 143.406 71.0732 143.616C71.7736 143.849 72.4507 144.83 73.1044 146.558C73.7114 148.215 73.8632 149.277 73.5597 149.744C73.2795 150.165 72.5558 150.258 71.3884 150.025C70.1977 149.768 69.2755 149.301 68.6218 148.624Z" fill="white"/>
<path d="M80.5288 142.25C80.4354 141.76 80.8906 141.153 81.8946 140.429C82.8751 139.729 83.5872 139.472 84.0308 139.659C84.8013 140.009 85.3032 140.989 85.5367 142.6C85.7702 144.165 85.6768 145.04 85.2565 145.227C84.8363 145.414 84.0075 145.192 82.7701 144.561C81.4393 143.861 80.6922 143.091 80.5288 142.25Z" fill="white"/>
<path d="M90.0193 144.632C88.5952 144.141 87.7663 143.581 87.5329 142.951C87.3227 142.414 87.6846 141.643 88.6185 140.639C89.5524 139.659 90.2294 139.262 90.6497 139.449C91.4668 139.799 92.0388 140.698 92.3657 142.145C92.6458 143.406 92.6692 144.27 92.4357 144.737L90.0193 144.632Z" fill="white"/>
<path d="M93.8365 141.725C93.5564 141.165 93.9533 140.359 95.0272 139.309C96.0778 138.281 96.8366 137.861 97.3035 138.048C97.8405 138.281 98.3658 139.134 98.8795 140.604C99.3697 142.052 99.4982 142.939 99.2647 143.266L96.6031 143.196C95.0622 142.822 94.14 142.332 93.8365 141.725Z" fill="white"/>
<path d="M133.55 147.118C133.223 146.791 133.48 145.951 134.32 144.597C135.161 143.219 135.873 142.542 136.456 142.565C137.227 142.612 138.091 143.453 139.048 145.087C139.958 146.628 140.309 147.538 140.098 147.818C139.842 148.145 138.849 148.25 137.122 148.134C135.324 148.017 134.133 147.678 133.55 147.118Z" fill="white"/>
<path d="M141.184 145.192C140.857 144.842 141.067 143.966 141.814 142.565C142.538 141.164 143.169 140.487 143.706 140.534C144.219 140.581 144.943 141.398 145.877 142.986C146.764 144.55 147.126 145.507 146.962 145.857C146.752 146.207 145.9 146.336 144.406 146.242C142.818 146.149 141.744 145.799 141.184 145.192Z" fill="white"/>
<path d="M147.033 141.97C146.659 141.503 146.776 140.616 147.383 139.309C147.966 138.048 148.433 137.441 148.784 137.487C149.391 137.558 150.138 138.328 151.025 139.799C151.889 141.246 152.216 142.157 152.005 142.53C151.842 142.927 151.107 143.079 149.799 142.986C148.422 142.892 147.499 142.554 147.033 141.97Z" fill="white"/>
<path d="M26.5623 142.636L28.1032 144.562C29.1304 145.986 29.7024 147.095 29.8192 147.889L27.3677 146.628C25.7568 145.718 24.998 145.064 25.0914 144.667C25.1848 144.27 25.465 143.815 25.9319 143.301L26.5623 142.636Z" fill="#DBDCDC"/>
<path d="M34.4419 142.775L35.7727 144.421C36.7065 145.729 37.3252 146.908 37.6287 147.958C34.7571 146.954 33.2862 145.962 33.2162 144.981C33.1695 144.374 33.3563 143.826 33.7765 143.335L34.4419 142.775Z" fill="#DBDCDC"/>
<path d="M45.4383 147.118C43.9441 146.791 42.8701 146.464 42.2164 146.137C41.4693 145.787 41.0491 145.355 40.9557 144.842C40.8623 144.398 40.9557 143.884 41.2358 143.301L41.6911 142.565C42.3215 142.869 43.0919 143.616 44.0025 144.807C44.7729 145.834 45.2515 146.604 45.4383 147.118Z" fill="#DBDCDC"/>
<path d="M56.1545 145.612L56.5047 147.748C56.8082 149.359 57.1818 150.62 57.6254 151.53L56.2946 150.375C55.4308 149.417 55.0222 148.437 55.0689 147.433C55.1156 146.733 55.2907 146.219 55.5942 145.892C55.8277 145.635 56.0145 145.542 56.1545 145.612Z" fill="#DBDCDC"/>
<path d="M62.4583 146.732L63.7891 148.904L65.5401 152.126C64.8864 151.915 64.2326 151.612 63.5789 151.215C62.2715 150.421 61.6645 149.569 61.7579 148.659C61.8513 147.771 61.9913 147.188 62.1781 146.908L62.4583 146.732Z" fill="#DBDCDC"/>
<path d="M68.7969 145.472L70.4429 147.048C71.6102 148.239 72.3223 149.231 72.5791 150.025L70.4079 149.325C68.9603 148.764 68.2599 148.216 68.3066 147.679L68.5868 146.103L68.7969 145.472Z" fill="#DBDCDC"/>
<path d="M81.6844 140.674C81.8945 140.814 82.3381 141.34 83.0152 142.25C83.8557 143.394 84.3226 144.316 84.416 145.017L81.8945 143.826C81.2408 143.429 80.9023 142.927 80.8789 142.32C80.8556 141.877 80.984 141.468 81.2641 141.094L81.6844 140.674Z" fill="#DBDCDC"/>
<path d="M88.2332 140.885L89.3889 141.69C90.2761 142.507 91.0465 143.581 91.7003 144.912L89.8092 144.387C88.5251 143.92 87.813 143.383 87.6729 142.776C87.5328 142.169 87.5795 141.678 87.813 141.305L88.2332 140.885Z" fill="#DBDCDC"/>
<path d="M94.8171 139.484L96.2529 140.535C97.2802 141.445 97.9806 142.391 98.3541 143.371L96.358 143.091C94.9572 142.741 94.1283 142.216 93.8715 141.515C93.7314 141.188 93.7898 140.78 94.0466 140.289C94.2801 139.823 94.5369 139.554 94.8171 139.484Z" fill="#DBDCDC"/>
<path d="M134.46 144.422C136.421 145.355 137.997 146.523 139.188 147.924L136.561 147.959C134.81 147.865 133.9 147.515 133.83 146.908C133.76 146.301 133.841 145.706 134.075 145.122L134.46 144.422Z" fill="#DBDCDC"/>
<path d="M141.779 142.915C142.176 143.032 142.842 143.382 143.776 143.966C145.036 144.736 145.818 145.472 146.122 146.172L143.671 146.067C142.013 145.88 141.172 145.518 141.149 144.981C141.102 144.468 141.196 143.966 141.429 143.475L141.779 142.915Z" fill="#DBDCDC"/>
<path d="M147.313 139.484L148.854 140.43C149.998 141.223 150.791 142.064 151.235 142.951L149.414 142.811C148.153 142.624 147.371 142.309 147.068 141.865C146.764 141.422 146.717 140.885 146.928 140.254L147.313 139.484Z" fill="#DBDCDC"/>
<path d="M132.884 147.328C132.697 146.651 133.071 145.565 134.005 144.071C134.939 142.554 135.744 141.783 136.421 141.76C137.098 141.737 138.044 142.624 139.258 144.421C140.449 146.172 140.962 147.363 140.799 147.993C140.659 148.554 139.351 148.729 136.877 148.519C134.402 148.309 133.071 147.912 132.884 147.328ZM135.161 144.597C134.577 145.53 134.343 146.207 134.46 146.628C134.694 146.955 135.522 147.223 136.947 147.433C138.324 147.643 139.071 147.632 139.188 147.398C139.305 147.141 138.989 146.394 138.242 145.157C137.449 143.896 136.83 143.254 136.386 143.231C136.129 143.207 135.721 143.663 135.161 144.597Z" fill="#0D131A"/>
<path d="M146.227 145.577C146.367 145.367 146.064 144.62 145.316 143.336C144.593 142.052 144.044 141.375 143.671 141.305C143.39 141.282 142.993 141.772 142.48 142.776C141.943 143.78 141.721 144.48 141.814 144.877C141.884 145.227 142.62 145.484 144.021 145.647L146.227 145.577ZM143.846 139.729C144.593 139.822 145.48 140.861 146.507 142.846C147.488 144.737 147.873 145.904 147.663 146.348C147.453 146.815 146.344 146.955 144.336 146.768C142.281 146.558 141.044 146.161 140.624 145.577C140.25 145.064 140.495 143.955 141.359 142.251C142.223 140.476 143.052 139.636 143.846 139.729Z" fill="#0D131A"/>
<path d="M147.838 139.694C147.488 140.488 147.418 141.141 147.628 141.655C147.721 141.935 148.34 142.157 149.484 142.32L151.34 142.215C151.48 141.982 151.235 141.305 150.605 140.184C149.974 138.994 149.426 138.41 148.959 138.433C148.562 138.48 148.188 138.9 147.838 139.694ZM147.068 138.818C147.791 137.488 148.41 136.822 148.924 136.822C149.787 136.822 150.698 137.791 151.655 139.729C152.589 141.597 152.916 142.764 152.636 143.231L149.519 143.336C147.605 143.103 146.566 142.776 146.402 142.355C146.052 141.445 146.274 140.266 147.068 138.818Z" fill="#0D131A"/>
<path d="M65.4699 146.487C65.073 146.02 64.6878 145.81 64.3142 145.857C63.7773 145.88 63.2987 146.219 62.8784 146.873C62.4582 147.503 62.2831 148.11 62.3531 148.694C62.4231 149.231 62.8784 149.838 63.7189 150.515C64.536 151.145 65.0847 151.402 65.3649 151.285C65.5516 151.215 65.7501 150.877 65.9602 150.27C66.2404 149.569 66.3338 148.916 66.2404 148.308C66.1703 147.585 65.9135 146.978 65.4699 146.487ZM61.8278 146.032C62.6216 144.865 63.4854 144.316 64.4193 144.386C65.0964 144.433 65.7034 144.783 66.2404 145.437C66.7773 146.091 67.1159 146.896 67.256 147.853C67.4194 148.787 67.3493 149.803 67.0458 150.9C66.7423 151.974 66.3688 152.593 65.9252 152.756C65.3649 152.966 64.466 152.663 63.2286 151.846C61.8978 150.935 61.1391 149.943 60.9523 148.869C60.8122 148.052 61.104 147.106 61.8278 146.032Z" fill="#0D131A"/>
<path d="M58.7811 146.418C58.4776 145.997 58.139 145.764 57.7655 145.717C57.3219 145.67 56.8549 145.857 56.3647 146.277C55.851 146.698 55.5942 147.153 55.5942 147.643C55.6176 148.25 55.9561 148.974 56.6098 149.815C57.1935 150.608 57.6254 151.005 57.9056 151.005C58.1624 150.982 58.4425 150.643 58.746 149.99C59.0729 149.336 59.248 148.682 59.2714 148.029C59.2947 147.421 59.1313 146.885 58.7811 146.418ZM55.174 145.262C56.0378 144.491 56.9367 144.165 57.8705 144.281C58.641 144.375 59.3064 144.795 59.8667 145.542C60.4037 146.289 60.6488 147.118 60.6021 148.029C60.5788 148.776 60.2869 149.733 59.7266 150.9C59.1196 152.114 58.5943 152.745 58.1507 152.791C57.6371 152.861 56.8316 152.266 55.7343 151.005C54.5669 149.698 53.9599 148.589 53.9132 147.678C53.8665 146.814 54.2868 146.009 55.174 145.262Z" fill="#0D131A"/>
<path d="M72.2639 145.717C71.7269 144.97 71.2366 144.597 70.793 144.597C70.3494 144.55 69.9059 144.877 69.4623 145.577C68.9953 146.301 68.8202 146.978 68.937 147.608C69.0537 148.169 69.7074 148.659 70.8981 149.079C72.0421 149.453 72.7075 149.558 72.8943 149.394C73.0577 149.254 73.0927 148.764 72.9993 147.923C72.9059 147.013 72.6608 146.278 72.2639 145.717ZM71.0382 143.056C72.1822 143.219 73.081 144.421 73.7347 146.663C74.3418 148.764 74.4585 150.025 74.085 150.445L70.793 150.235C68.8319 149.698 67.7696 148.997 67.6062 148.134C67.4194 147.176 67.6879 146.079 68.4116 144.842C69.2054 143.511 70.081 142.916 71.0382 143.056Z" fill="#0D131A"/>
<path d="M46.629 143.651C47.2127 145.892 47.271 147.153 46.8041 147.433C46.1971 147.783 45.0064 147.713 43.232 147.223C41.3876 146.709 40.3603 146.091 40.1502 145.367C39.87 144.503 40.1969 143.394 41.1308 142.04C42.088 140.639 43.0452 139.974 44.0024 140.044C45.1231 140.114 45.9986 141.316 46.629 143.651ZM41.6211 144.806C41.6911 145.297 42.3331 145.74 43.5472 146.137C44.7145 146.511 45.4266 146.581 45.6834 146.347C45.8702 146.184 45.7651 145.402 45.3682 144.001C44.948 142.507 44.4577 141.713 43.8974 141.62C43.4304 141.55 42.9168 141.865 42.3565 142.565C41.7261 143.312 41.481 144.059 41.6211 144.806Z" fill="#0D131A"/>
<path d="M33.8816 145.017C33.8816 145.554 34.5237 146.114 35.8077 146.698C37.0685 147.258 37.7922 147.41 37.979 147.153C38.1891 146.896 38.1308 146.138 37.8039 144.877C37.4537 143.523 36.9984 142.787 36.4381 142.671C35.9011 142.554 35.3408 142.799 34.7571 143.406C34.2202 143.966 33.9283 144.48 33.8816 144.947V145.017ZM33.8466 142.25C34.8505 141.316 35.7377 140.92 36.5082 141.06C37.6755 141.27 38.516 142.495 39.0296 144.737C39.5199 146.861 39.5316 148.122 39.0646 148.519C38.6211 148.939 37.3837 148.706 35.3525 147.819C33.2279 146.931 32.2123 145.927 32.3057 144.807C32.3757 144.013 32.8894 143.161 33.8466 142.25Z" fill="#0D131A"/>
<path d="M94.5369 141.235C94.607 141.702 95.284 142.145 96.5681 142.565C97.8055 142.962 98.5059 143.056 98.6693 142.846C98.8328 142.635 98.7277 141.912 98.3542 140.674C97.9573 139.367 97.5253 138.69 97.0584 138.643C96.6615 138.596 96.1245 138.9 95.4475 139.554C94.7704 140.231 94.4669 140.791 94.5369 141.235ZM94.572 138.888C95.786 137.721 96.7432 137.254 97.4436 137.487C98.3308 137.814 99.0546 138.923 99.6149 140.814C100.152 142.612 100.245 143.674 99.8951 144.001C99.5449 144.305 98.4009 144.2 96.4631 143.686C94.4786 143.149 93.3696 142.554 93.1361 141.9C92.856 141.083 93.3346 140.079 94.572 138.888Z" fill="#0D131A"/>
<path d="M90.0894 144.036C91.1167 144.386 91.712 144.48 91.8754 144.316C92.0389 144.153 92.0038 143.488 91.7704 142.32C91.5136 141.083 91.1517 140.406 90.6847 140.289C90.2178 140.172 89.6692 140.429 89.0388 141.06C88.4084 141.713 88.1516 142.285 88.2683 142.776C88.4084 143.266 89.0154 143.686 90.0894 144.036ZM90.9649 138.993C91.7354 139.18 92.3774 140.196 92.891 142.04C93.358 143.838 93.4047 145.017 93.0311 145.577C92.7976 145.927 91.7587 145.776 89.9143 145.122C87.9998 144.445 86.9726 143.733 86.8325 142.986C86.6691 142.239 87.1127 141.34 88.1633 140.289C89.2372 139.215 90.1711 138.783 90.9649 138.993Z" fill="#0D131A"/>
<path d="M83.0152 143.966C84.0425 144.527 84.6612 144.737 84.8713 144.597C85.0581 144.48 85.0814 143.803 84.9413 142.565C84.7779 141.258 84.451 140.523 83.9607 140.359C83.4938 140.196 82.9335 140.359 82.2798 140.849C81.6494 141.316 81.3459 141.783 81.3692 142.25C81.3926 142.811 81.9412 143.383 83.0152 143.966ZM84.346 139.063C85.3265 139.274 85.9102 140.429 86.097 142.53C86.2604 144.515 86.1437 145.647 85.7468 145.927C85.3032 146.208 84.2059 145.881 82.4549 144.947C80.6805 143.966 79.7583 143.114 79.6883 142.39C79.6182 141.713 80.1202 140.943 81.1941 140.079C82.3381 139.192 83.3887 138.853 84.346 139.063Z" fill="#0D131A"/>
<path d="M27.823 146.173C29.0604 146.803 29.7725 147.001 29.9593 146.768C30.1694 146.535 30.1344 145.799 29.8542 144.562C29.5507 143.278 29.1888 142.577 28.7686 142.461C28.2783 142.297 27.683 142.484 26.9825 143.021C26.2821 143.558 25.9319 144.083 25.9319 144.597C25.9553 144.994 26.5856 145.519 27.823 146.173ZM29.0838 140.885C30.0877 141.095 30.7998 142.32 31.22 144.562C31.6169 146.71 31.6052 147.912 31.185 148.169C30.4612 148.659 29.1538 148.402 27.2627 147.398C25.395 146.418 24.4261 145.542 24.356 144.772C24.2626 143.885 24.8113 142.962 26.002 142.005C27.1693 141.071 28.1966 140.698 29.0838 140.885Z" fill="#0D131A"/>
</g>
<defs>
<clipPath id="clip0_1_56542">
<rect width="158.438" height="152.829" fill="white" transform="translate(0.119324 0.242188)"/>
</clipPath>
</defs>
</svg>
